<svg width="24" height="24" viewBox="0 0 24 24" fill="none" xmlns="http://www.w3.org/2000/svg">
<path d="M12 3C12.1797 3.00004 12.3579 3.05744 12.5039 3.16797L12.5879 3.24121L19.2578 9.84082C19.5811 10.1604 19.5801 10.6785 19.2559 10.9971C18.9575 11.2891 18.4907 11.3134 18.166 11.0684L18.0811 10.9951L12.8301 5.79883V20.1816C12.8301 20.6332 12.4583 20.9999 12 21C11.5769 21 11.227 20.6875 11.1758 20.2842L11.1699 20.1816V3.81836C11.1699 3.48672 11.3725 3.18905 11.6836 3.0625C11.7854 3.02111 11.8927 3 12 3ZM9.00977 5.95996C9.22119 5.95996 9.43297 6.03902 9.5957 6.19824C9.894 6.49017 9.91932 6.94903 9.67188 7.27051L9.59766 7.35547L5.91895 10.9951C5.59577 11.3157 5.06966 11.3163 4.74414 10.998C4.44678 10.706 4.42118 10.2455 4.66797 9.92383L4.74219 9.83984L8.4209 6.20117C8.58364 6.03972 8.7961 5.95997 9.00977 5.95996Z" fill="black"/>
</svg>
