<svg width="24" height="24" viewBox="0 0 24 24" fill="none" xmlns="http://www.w3.org/2000/svg">
<path d="M3 12C3.00004 11.8203 3.05744 11.6421 3.16797 11.4961L3.24121 11.4121L9.84082 4.74219C10.1604 4.41894 10.6785 4.41986 10.9971 4.74414C11.2891 5.04251 11.3134 5.50925 11.0684 5.83398L10.9951 5.91895L5.79883 11.1699L20.1816 11.1699C20.6332 11.1699 20.9999 11.5417 21 12C21 12.4231 20.6875 12.773 20.2842 12.8242L20.1816 12.8301H3.81836C3.48672 12.8301 3.18905 12.6275 3.0625 12.3164C3.02111 12.2146 3 12.1073 3 12ZM5.95996 14.9902C5.95996 14.7788 6.03902 14.567 6.19824 14.4043C6.49017 14.106 6.94903 14.0807 7.27051 14.3281L7.35547 14.4023L10.9951 18.0811C11.3157 18.4042 11.3163 18.9303 10.998 19.2559C10.706 19.5532 10.2455 19.5788 9.92383 19.332L9.83984 19.2578L6.20117 15.5791C6.03972 15.4164 5.95997 15.2039 5.95996 14.9902Z" fill="black"/>
</svg>
