<svg width="24" height="24" viewBox="0 0 24 24" fill="none" xmlns="http://www.w3.org/2000/svg">
<path d="M7.42188 18.9097C8.25685 18.9097 8.93652 19.6035 8.93652 20.4556C8.93636 21.3075 8.25676 22.0005 7.42188 22.0005C6.58719 22.0003 5.90739 21.3074 5.90723 20.4556C5.90723 19.6036 6.58709 18.9099 7.42188 18.9097ZM18.6738 18.9097C19.5088 18.9097 20.1895 19.6035 20.1895 20.4556C20.1893 21.3075 19.5087 22.0005 18.6738 22.0005C17.839 22.0004 17.1603 21.3075 17.1602 20.4556C17.1602 19.6035 17.8389 18.9098 18.6738 18.9097ZM2.01074 2.63525C2.08072 2.21801 2.4641 1.94313 2.87695 2.01025L4.95801 2.37842C5.294 2.4376 5.54915 2.72287 5.57715 3.06982L6.54004 14.7769C6.58623 15.3378 7.03716 15.7611 7.58984 15.7612H18.501C19.0209 15.7612 19.469 15.3648 19.5439 14.8403L20.4932 8.14795C20.5272 7.9112 20.4205 7.7441 20.3545 7.66553C20.2884 7.58797 20.1427 7.45764 19.9082 7.45752H9.16309C8.74913 7.45748 8.41309 7.11434 8.41309 6.69189C8.41329 6.26962 8.74925 5.92728 9.16309 5.92725H19.9082C20.5151 5.92734 21.0923 6.19624 21.4893 6.66455C21.8862 7.1329 22.0645 7.75246 21.9775 8.3667L21.0283 15.0601C20.8483 16.3326 19.7619 17.2915 18.501 17.2915H7.58984C6.25104 17.2913 5.15691 16.265 5.04492 14.9038L4.13086 3.78564L2.62109 3.52002C2.21327 3.44751 1.94091 3.05146 2.01074 2.63525ZM16.8984 9.69873C17.3122 9.69888 17.6483 10.0421 17.6484 10.4644C17.6484 10.8867 17.3123 11.2298 16.8984 11.23H14.125C13.7101 11.2299 13.375 10.8867 13.375 10.4644C13.3751 10.042 13.7102 9.69886 14.125 9.69873H16.8984Z" fill="black"/>
</svg>
