<svg width="24" height="24" viewBox="0 0 24 24" fill="none" xmlns="http://www.w3.org/2000/svg">
<path d="M4.30566 10.5854C4.64762 10.3536 5.11459 10.4371 5.34863 10.7778C7.9437 14.5449 12.6841 18.7862 15.7002 20.0396C16.9201 20.6062 17.8279 20.6405 18.5039 20.1558C19.0309 19.837 20.5277 18.3503 20.501 17.5767C20.492 17.4857 20.3879 17.3142 20.2109 17.1333C19.6345 16.5434 17.7018 15.0821 17.2979 14.9302C16.979 14.8624 16.6473 15.0559 16.1416 15.3745L15.8848 15.5337C15.5299 15.7462 15.0695 15.6333 14.8555 15.2778C14.6425 14.924 14.7563 14.4634 15.1113 14.2495L15.3418 14.106C15.9018 13.7531 16.6754 13.2712 17.6475 13.4731C18.4137 13.6323 20.8222 15.6138 21.2832 16.0845C21.7172 16.5282 21.957 17.0011 21.998 17.4878C22.0628 19.3294 19.5973 21.2539 19.3135 21.4165C18.7756 21.8042 18.1444 22.0004 17.4346 22.0005C16.7286 22.0005 15.9437 21.8064 15.0947 21.4106C11.8297 20.0552 6.89227 15.6602 4.11426 11.6274C3.87933 11.2867 3.96493 10.8204 4.30566 10.5854ZM6.47852 2.00439C6.9945 2.04737 7.46717 2.28653 7.91016 2.71826C8.38217 3.17903 10.3644 5.59042 10.5234 6.35303C10.6942 7.17342 10.3246 7.81405 10.0557 8.28174C9.79084 8.7422 9.69919 8.93926 9.79004 9.18799C10.4591 10.8242 11.4935 12.1618 12.8545 13.1333C13.1912 13.3751 13.2679 13.8425 13.0273 14.1792C12.8813 14.3831 12.651 14.4937 12.417 14.4937C12.2652 14.4936 12.1133 14.4477 11.9814 14.354C10.3874 13.2136 9.17867 11.6571 8.38965 9.72705C8.04267 8.77256 8.45486 8.05642 8.75586 7.53369C8.98177 7.14206 9.10666 6.90849 9.05371 6.65869C8.91374 6.29795 7.45257 4.36862 6.8623 3.79346C6.6803 3.61455 6.50884 3.50951 6.38184 3.49951C5.66592 3.48273 4.20253 4.89681 3.87012 5.44775C3.3551 6.15539 3.39132 7.06248 3.94434 8.27686C4.11508 8.65349 3.94895 9.09706 3.57227 9.26904C3.19426 9.43996 2.75111 9.27478 2.5791 8.89697C1.7922 7.17097 1.80707 5.73005 2.62305 4.61768C2.92703 4.10898 4.83758 1.89789 6.47852 2.00439Z" fill="black"/>
</svg>
