<svg width="24" height="24" viewBox="0 0 24 24" fill="none" xmlns="http://www.w3.org/2000/svg">
<path d="M12.0068 2C13.6245 2.00001 15.2361 2.39934 16.668 3.1543C21.543 5.72662 23.418 11.7853 20.8477 16.6621C19.0943 19.9877 15.6419 22 11.9951 22C11.2828 22 10.5635 21.9232 9.84766 21.7646C9.44432 21.6748 9.18938 21.2746 9.27832 20.8711C9.36742 20.4678 9.767 20.2155 10.1729 20.3027C13.8969 21.1305 17.742 19.343 19.5234 15.9639C21.7091 11.8182 20.1149 6.66499 15.9697 4.47852C14.7527 3.83635 13.3823 3.49805 12.0059 3.49805H11.9961C7.31024 3.4981 3.49707 7.31157 3.49707 11.999C3.49537 13.3644 3.82859 14.724 4.45996 15.9316L4.65137 16.3066C4.88649 16.7471 4.93848 17.294 4.78613 17.7891C4.57567 18.344 4.40028 18.8845 4.25586 19.4219C4.81771 19.2527 5.5042 19.0029 6 18.8223L6.20312 18.749C6.58782 18.6055 7.02007 18.8091 7.16113 19.1982C7.30204 19.5867 7.10028 20.0172 6.71191 20.1572L6.51172 20.2305C5.77022 20.4992 4.75545 20.8682 4.07031 21.0215C4.01225 21.0338 3.94976 21.0418 3.89258 21.04C3.43315 21.04 3.15319 20.854 2.99902 20.6973C2.76213 20.4568 2.6489 20.1189 2.66211 19.6943C2.66388 19.6461 2.67027 19.5961 2.68164 19.5479C2.85953 18.7902 3.09105 18.0338 3.37109 17.3018C3.39126 17.2305 3.37924 17.1013 3.32227 16.9932L3.12891 16.6182C2.39014 15.2035 1.99828 13.603 2 11.998C2 6.48518 6.48414 2.0001 11.9951 2H12.0068ZM11.9961 10.8096C12.652 10.8098 13.1846 11.3438 13.1846 11.999C13.1844 12.6542 12.6519 13.1882 11.9961 13.1885C11.3401 13.1885 10.8068 12.6543 10.8066 11.999C10.8066 11.3436 11.34 10.8096 11.9961 10.8096ZM16.3984 10.8096C17.0545 10.8096 17.5879 11.3436 17.5879 11.999C17.5878 12.6543 17.0544 13.1885 16.3984 13.1885C15.7426 13.1882 15.2101 12.6542 15.21 11.999C15.21 11.3437 15.7426 10.8098 16.3984 10.8096ZM7.59277 10.8096C8.24863 10.8098 8.7812 11.3429 8.78125 11.999C8.78125 12.6543 8.24866 13.1873 7.59277 13.1875C6.9367 13.1875 6.40332 12.6544 6.40332 11.999C6.40337 11.3428 6.93673 10.8096 7.59277 10.8096Z" fill="black"/>
</svg>
