<svg width="24" height="24" viewBox="0 0 24 24" fill="none" xmlns="http://www.w3.org/2000/svg">
<path d="M4.79395 16.1953C5.18193 16.1953 5.50142 16.4902 5.54004 16.8682L5.55176 17.0996C5.62923 17.8606 6.27382 18.4561 7.05566 18.4561H8.08301C8.88397 18.4571 9.63809 18.7689 10.2051 19.332L10.9268 20.0547C11.2186 20.3454 11.5973 20.5009 11.999 20.501C12.4089 20.517 12.7853 20.3446 13.0713 20.0557C13.3631 19.7637 13.8378 19.7601 14.1318 20.0518C14.4247 20.3447 14.4264 20.8201 14.1348 21.1143C13.5478 21.7045 12.773 22 11.999 22C11.2311 21.9999 10.4619 21.7091 9.87598 21.126L9.14648 20.3955C8.86348 20.1144 8.48405 19.9571 8.08105 19.9561H7.05566C5.3957 19.9561 4.044 18.6058 4.04395 16.9453C4.04395 16.5313 4.3801 16.1955 4.79395 16.1953ZM16.9434 4.04004C18.6034 4.04004 19.9551 5.39119 19.9551 7.05273V8.08105C19.9561 8.4821 20.1116 8.86145 20.3945 9.14648L21.1123 9.86426C21.6813 10.4294 21.997 11.185 22 11.9902C22.002 12.7954 21.691 13.5529 21.124 14.123L20.3936 14.8535C20.1159 15.1335 19.9562 15.5202 19.9551 15.917V16.9443C19.9551 18.6049 18.6034 19.957 16.9434 19.957C16.5296 19.9568 16.1934 19.6201 16.1934 19.2061C16.1936 18.7922 16.5297 18.4563 16.9434 18.4561C17.7774 18.4561 18.4551 17.7776 18.4551 16.9443V15.916C18.4562 15.1139 18.7671 14.36 19.332 13.7939L20.0518 13.0723C20.3447 12.7782 20.501 12.3982 20.5 11.9941C20.499 11.591 20.3397 11.2119 20.0537 10.9268L19.333 10.2051C18.7671 9.63495 18.4561 8.88217 18.4551 8.08203V7.05273C18.4551 6.21846 17.7774 5.54102 16.9434 5.54102C16.5296 5.54079 16.1935 5.20489 16.1934 4.79102C16.1934 4.37702 16.5296 4.04026 16.9434 4.04004ZM14.5693 13.7041C15.0483 13.7041 15.4375 14.0931 15.4375 14.5723C15.4373 15.0513 15.0482 15.4404 14.5693 15.4404C14.0896 15.4403 13.7013 15.0512 13.7012 14.5723C13.7012 14.0932 14.0894 13.7042 14.5693 13.7041ZM14.0391 8.89648C14.332 8.60343 14.8066 8.60353 15.0996 8.89648C15.3925 9.18952 15.3924 9.6649 15.0996 9.95801L9.96094 15.0996C9.81399 15.2456 9.62162 15.3193 9.42969 15.3193C9.23769 15.3193 9.04541 15.2457 8.89941 15.0996C8.6066 14.8065 8.60647 14.3311 8.89941 14.0381L14.0391 8.89648ZM9.86621 2.88184C10.9962 1.75059 12.8259 1.7012 14.0059 2.77148C14.0458 2.80145 14.086 2.83116 14.126 2.87109C14.256 3.01114 14.3359 3.19154 14.3359 3.3916C14.3358 3.81159 13.9958 4.1416 13.5859 4.1416C13.3861 4.14151 13.2061 4.06138 13.0762 3.94141C13.0664 3.93162 13.0662 3.93148 13.0566 3.92285C12.4567 3.35176 11.5068 3.36149 10.9268 3.94141L10.2061 4.66211C9.63609 5.2321 8.88579 5.54199 8.08594 5.54199H7.05664C6.22664 5.54199 5.5459 6.22246 5.5459 7.05273V8.08301C5.54585 8.88417 5.23593 9.63399 4.66602 10.2031L3.94629 10.9248C3.35635 11.524 3.35641 12.484 3.94629 13.0742C4.23628 13.3643 4.23626 13.8346 3.94629 14.1357C3.80629 14.2748 3.60602 14.3545 3.41602 14.3545C3.22619 14.3544 3.03662 14.2846 2.88672 14.1357C1.70672 12.9654 1.70598 11.0534 2.87598 9.87305L3.60645 9.14355C3.8864 8.86351 4.04585 8.48307 4.0459 8.08301V7.05273C4.0459 5.39219 5.39664 4.04199 7.05664 4.04199H8.08594C8.48594 4.04199 8.86648 3.88265 9.14648 3.60156L9.86621 2.88184ZM9.4209 8.5752C9.89975 8.57537 10.2891 8.96431 10.2891 9.44336C10.2891 9.92241 9.89975 10.3104 9.4209 10.3105C8.9419 10.3105 8.55273 9.92252 8.55273 9.44336C8.55274 8.96421 8.9419 8.5752 9.4209 8.5752Z" fill="black"/>
</svg>
