<svg width="24" height="24" viewBox="0 0 24 24" fill="none" xmlns="http://www.w3.org/2000/svg">
<path d="M12.1045 4.03906C13.083 2.77501 14.7972 2.65049 16.1777 3.74316L17.6221 4.8877C18.2526 5.38746 18.6833 6.04518 18.834 6.74023C19.0023 7.51617 18.8164 8.30409 18.3115 8.95508L9.70117 20.0596C9.266 20.6211 8.61152 20.9484 7.9043 20.958L4.58203 21H4.57227C4.20973 21 3.89456 20.7476 3.8125 20.3906L3.06055 17.1211C2.90074 16.4251 3.059 15.7042 3.49512 15.1426L4.625 13.6836C4.88988 13.3413 5.3801 13.281 5.71875 13.5508C6.05736 13.8185 6.11738 14.314 5.85156 14.6562L4.7207 16.1143C4.57735 16.2991 4.52514 16.5358 4.57812 16.7646L5.18848 19.417L7.88379 19.3828C8.11545 19.3797 8.33125 19.2727 8.47461 19.0879L17.085 7.9834C17.3052 7.69991 17.3811 7.39536 17.3125 7.07617C17.2387 6.73915 17.0081 6.40196 16.6611 6.12793L15.2168 4.98242C14.658 4.54165 13.87 4.31509 13.332 5.01074L12.1943 6.47656L14 7.94043C14.3353 8.21135 14.3891 8.70788 14.1201 9.0459C13.9664 9.2411 13.7402 9.3417 13.5117 9.3418C13.3414 9.3418 13.1687 9.28542 13.0254 9.16895L11.2334 7.7168L8.28711 11.5166C8.02125 11.8588 7.53207 11.921 7.19238 11.6504C6.85476 11.3826 6.79565 10.8862 7.06055 10.5439L12.1045 4.03906ZM20.2207 19.4248C20.6508 19.4248 21 19.7782 21 20.2129C20.9999 20.6475 20.6507 21 20.2207 21H13.5957C13.1648 20.9998 12.8175 20.6474 12.8174 20.2129C12.8174 19.7783 13.1648 19.425 13.5957 19.4248H20.2207Z" fill="black"/>
</svg>
