<svg width="24" height="24" viewBox="0 0 24 24" fill="none" xmlns="http://www.w3.org/2000/svg">
<path d="M4.39551 7.06934C4.73538 6.90912 5.1413 7.01351 5.3623 7.31738C5.5831 7.62118 5.55675 8.03859 5.2998 8.3125L4.5957 8.83496C4.26212 9.11215 4.06809 9.52236 4.06543 9.95605V17.9131C4.07501 19.2091 5.12579 20.256 6.42188 20.2607H10.4219V20.2783C10.854 20.2784 11.204 20.6285 11.2041 21.0605C11.2041 21.4927 10.854 21.8437 10.4219 21.8438H6.42188C4.25801 21.839 2.5049 20.0857 2.5 17.9219V9.95605C2.51395 9.03578 2.94589 8.17164 3.67383 7.6084L4.39551 7.06934ZM9.62207 2.7998C10.9425 1.73866 12.8232 1.73853 14.1436 2.7998L20.1523 7.59082C20.8643 8.16347 21.2819 9.02579 21.291 9.93945L21.2822 17.9131C21.2822 20.0788 19.527 21.8347 17.3613 21.835H15.6221C14.5738 21.835 13.7228 20.9876 13.7178 19.9395V16.3389C13.7177 16.0604 13.4914 15.835 13.2129 15.835H10.6045C10.4692 15.8349 10.339 15.8889 10.2441 15.9854C10.1494 16.0818 10.0973 16.2125 10.0996 16.3477V17.7217C10.0996 18.1539 9.7496 18.5039 9.31738 18.5039C8.88517 18.5039 8.53516 18.1539 8.53516 17.7217V16.3477C8.53518 15.7965 8.75383 15.2677 9.14355 14.8779C9.53329 14.4883 10.0622 14.2695 10.6133 14.2695H13.2217C14.366 14.2743 15.291 15.2033 15.291 16.3477V19.9395C15.2912 20.1218 15.4397 20.2695 15.6221 20.2695H17.4043C18.7009 20.2695 19.7518 19.2184 19.752 17.9219V9.95605C19.7455 9.51494 19.541 9.10023 19.1953 8.82617L13.1865 4.03516C12.4288 3.41139 11.3358 3.41137 10.5781 4.03516L8.64746 5.47852C8.28983 5.73501 7.79208 5.65322 7.53516 5.2959C7.27822 4.93811 7.35999 4.43955 7.71777 4.18262L9.62207 2.7998Z" fill="black"/>
</svg>
