<svg width="24" height="24" viewBox="0 0 24 24" fill="none" xmlns="http://www.w3.org/2000/svg">
<path d="M12 2C17.514 2 22 6.485 22 12C22 17.514 17.514 22 12 22C8.873 22 5.98324 20.5767 4.07324 18.0977C3.82834 17.7787 3.88711 17.3221 4.20605 17.0781C4.52298 16.8322 4.97857 16.8931 5.22461 17.21C6.85761 19.33 9.327 20.5459 12 20.5459C16.712 20.5459 20.5459 16.713 20.5459 12C20.5459 7.288 16.712 3.4541 12 3.4541C7.288 3.4541 3.4541 7.288 3.4541 12C3.4541 12.4379 3.48678 12.8729 3.55176 13.2988C3.61174 13.6947 3.34016 14.0658 2.94336 14.127C2.54436 14.193 2.17523 13.9156 2.11523 13.5186C2.03927 13.0207 2 12.5099 2 12C2 6.485 6.486 2 12 2ZM12.0098 15.0459C12.4238 15.0459 12.7598 15.3819 12.7598 15.7959C12.7598 16.2099 12.4238 16.5459 12.0098 16.5459C11.596 16.5457 11.2549 16.2098 11.2549 15.7959C11.2549 15.382 11.5861 15.046 12 15.0459H12.0098ZM12 7.4541C12.414 7.4541 12.75 7.7901 12.75 8.2041V12.624C12.75 13.038 12.414 13.374 12 13.374C11.586 13.374 11.25 13.038 11.25 12.624V8.2041C11.25 7.7901 11.586 7.4541 12 7.4541Z" fill="black"/>
</svg>
