<svg width="24" height="24" viewBox="0 0 24 24" fill="none" xmlns="http://www.w3.org/2000/svg">
<path d="M15.7471 2C19.608 2.00003 21.9999 4.39296 22 8.25586V15.7559C22 19.6078 19.608 22 15.7471 22H8.24414C4.39214 22 1.99998 19.6079 2.00098 15.7529C2.00101 15.3311 2.34382 14.9885 2.76562 14.9883C3.1886 14.9883 3.53121 15.331 3.53125 15.7529C3.53125 18.7869 5.20197 20.4668 8.25391 20.4668H15.7471C18.79 20.4668 20.4697 18.7959 20.4697 15.7529V8.25293C20.4697 5.21 18.8 3.5303 15.7471 3.53027H8.25293C5.21 3.5303 3.5303 5.21 3.53027 8.25293V10.584C3.53027 11.0018 3.19223 11.3396 2.77441 11.3398H2.7627C2.3409 11.3397 1.99911 10.997 2 10.5752V8.25293C2.00003 4.393 4.40999 2.00004 8.25391 2H15.7471ZM7.52051 10.8037C8.18151 10.8037 8.71875 11.341 8.71875 12C8.71875 12.66 8.18151 13.1973 7.52051 13.1973C6.8606 13.1972 6.32227 12.6599 6.32227 12C6.32227 11.3411 6.8606 10.8038 7.52051 10.8037ZM12 10.8037C12.661 10.8037 13.1982 11.341 13.1982 12C13.1982 12.66 12.661 13.1973 12 13.1973C11.3401 13.1972 10.8018 12.6599 10.8018 12C10.8018 11.3411 11.3401 10.8038 12 10.8037ZM16.4795 10.8037C17.1404 10.8039 17.6768 11.3411 17.6768 12C17.6768 12.6599 17.1404 13.1971 16.4795 13.1973C15.8195 13.1973 15.2812 12.66 15.2812 12C15.2812 11.341 15.8195 10.8037 16.4795 10.8037Z" fill="black"/>
</svg>
