<svg width="24" height="24" viewBox="0 0 24 24" fill="none" xmlns="http://www.w3.org/2000/svg">
<path d="M3.37305 7.16309C3.57732 7.12352 3.78913 7.16578 3.96191 7.2793C4.30316 7.50592 4.40279 7.95406 4.1875 8.29785C3.8898 8.80725 4.07048 9.4558 4.5918 9.74707C4.98339 9.98141 5.30599 10.3111 5.52734 10.7041C6.21666 11.9406 5.78861 13.4881 4.55566 14.2178C4.0344 14.5091 3.85368 15.1576 4.15137 15.667L4.77148 16.7119C4.91268 16.9609 5.15184 17.1438 5.43359 17.2168C5.71541 17.2897 6.01564 17.2467 6.26465 17.0986C6.66614 16.8712 7.12279 16.7527 7.58691 16.7559C9.0772 16.7559 10.2852 17.9363 10.2852 19.3916C10.2903 19.9799 10.7804 20.4541 11.3828 20.4541L11.374 20.4717C11.6535 20.4718 11.912 20.6172 12.0518 20.8535C12.1915 21.0899 12.1915 21.3817 12.0518 21.6182C11.912 21.8545 11.6535 21.9999 11.374 22C9.88384 22 8.67594 20.8204 8.67578 19.3652C8.6782 19.18 8.6278 18.9974 8.53125 18.8379C8.22942 18.3278 7.56239 18.1509 7.03809 18.4424C5.77188 19.1155 4.18764 18.6981 3.44043 17.4941L2.8291 16.4492C2.13985 15.2128 2.56714 13.6653 3.7998 12.9355C3.96322 12.8417 4.10015 12.7084 4.19629 12.5488C4.37656 12.3033 4.44095 11.9942 4.37402 11.6992C4.30704 11.4044 4.11516 11.151 3.8457 11.0029C2.61276 10.2733 2.18471 8.72576 2.87402 7.48926C2.98937 7.32015 3.16894 7.20262 3.37305 7.16309ZM19.3975 9.74707C19.7738 9.55291 20.2395 9.68032 20.458 10.0371C20.6779 10.3987 20.5576 10.8655 20.1885 11.082C20.0251 11.1759 19.8891 11.3092 19.793 11.4688C19.6464 11.7131 19.6054 12.0046 19.6797 12.2783C19.754 12.552 19.9373 12.7854 20.1885 12.9268C21.4613 13.6718 21.8793 15.2809 21.124 16.5283L20.5127 17.5732C19.7655 18.7772 18.1803 19.1946 16.9141 18.5215C16.5777 18.3234 16.1576 18.3192 15.8174 18.5107C15.4769 18.7025 15.2699 19.0606 15.2773 19.4443C15.2341 19.837 14.8947 20.1348 14.4902 20.1348C14.0859 20.1347 13.7463 19.8369 13.7031 19.4443C13.7224 18.5234 14.2334 17.6792 15.0498 17.2178C15.8661 16.7564 16.8699 16.7442 17.6973 17.1865C17.9458 17.3324 18.2442 17.3738 18.5244 17.3008C18.8042 17.2242 19.0431 17.0444 19.1904 16.7998L19.8018 15.7549C19.9479 15.5119 19.9884 15.2215 19.9141 14.9492C19.8397 14.6771 19.6567 14.4453 19.4062 14.3057C18.9849 14.0549 18.6447 13.6926 18.4258 13.2607C17.7365 12.0242 18.1645 10.4767 19.3975 9.74707ZM11.9941 8.70215C12.8903 8.69981 13.7512 9.04512 14.3857 9.66309C15.0202 10.281 15.376 11.121 15.376 11.9961C15.3794 13.3324 14.5581 14.5388 13.2949 15.0527C12.0315 15.5667 10.5756 15.2865 9.60645 14.3428C8.63734 13.3989 8.3462 11.9774 8.86914 10.7422C9.39214 9.50731 10.6257 8.70225 11.9941 8.70215ZM11.9941 10.248C11.0009 10.2482 10.1956 11.034 10.1953 12.0039C10.1953 12.974 11.0007 13.7606 11.9941 13.7607C12.9877 13.7607 13.793 12.9741 13.793 12.0039C13.7927 11.0339 12.9875 10.248 11.9941 10.248ZM12.6152 2C14.1053 2.00012 15.3133 3.17967 15.3135 4.63477C15.3111 4.81996 15.3605 5.00267 15.457 5.16211C15.6003 5.40891 15.8388 5.58978 16.1191 5.66406C16.3995 5.73827 16.6989 5.69988 16.9502 5.55762C18.2163 4.88453 19.8006 5.30205 20.5479 6.50586C20.7543 6.87316 20.6278 7.33396 20.2607 7.55078C19.8876 7.75881 19.4124 7.63847 19.1904 7.2793C18.8856 6.77234 18.2192 6.5997 17.6973 6.89258C16.8713 7.33425 15.8686 7.3236 15.0527 6.86426C14.237 6.4049 13.7255 5.56283 13.7031 4.64355C13.7128 4.35574 13.6026 4.07606 13.3975 3.86914C13.1924 3.66237 12.91 3.5458 12.6152 3.5459H11.3828C11.087 3.54581 10.8033 3.66244 10.5967 3.86914C10.3903 4.07574 10.278 4.35504 10.2852 4.64355C10.2768 5.56791 9.76466 6.41774 8.94141 6.87402C8.11826 7.33019 7.10888 7.32419 6.29199 6.85742L6.25586 6.82227C5.88837 6.59919 5.77567 6.12749 6.00391 5.76855C6.2324 5.40961 6.71541 5.29938 7.08301 5.52246C7.24709 5.61596 7.43312 5.66743 7.62305 5.67188C7.91412 5.68374 8.19785 5.58143 8.41211 5.38867C8.62638 5.1959 8.75394 4.92783 8.76562 4.64355C8.76024 3.2153 9.92083 2.04284 11.3828 2H12.6152Z" fill="black"/>
</svg>
