<svg width="24" height="24" viewBox="0 0 24 24" fill="none" xmlns="http://www.w3.org/2000/svg">
<path d="M17.4978 21.9194C17.3748 21.9224 17.2528 21.8914 17.1458 21.8294L12.0077 19.1234L7.48375 21.5594C6.74575 21.9594 5.82175 21.6854 5.42175 20.9464C5.41675 20.9374 5.41175 20.9284 5.40675 20.9184C5.24975 20.6094 5.19475 20.2604 5.24875 19.9184L6.12875 14.7244L2.45075 11.0004C1.84975 10.3804 1.84975 9.39438 2.45075 8.77338C2.68475 8.52738 2.99475 8.36838 3.33075 8.32238L8.37375 7.55638L10.6167 2.88338C10.9657 2.12338 11.8647 1.78938 12.6257 2.13838C12.9557 2.28938 13.2198 2.55438 13.3708 2.88338L15.6237 7.57238L20.6838 8.34738C21.0928 8.40838 21.4598 8.63438 21.6998 8.97138C22.1478 9.61538 22.0798 10.4854 21.5378 11.0524L17.8767 14.7324L18.3867 17.5314C18.4577 17.9514 18.1807 18.3524 17.7618 18.4314C17.3498 18.5054 16.9558 18.2314 16.8818 17.8184L16.3628 15.0194C16.2758 14.5064 16.4387 13.9824 16.8027 13.6114L20.4727 9.90538L15.4128 9.12038C14.8997 9.03738 14.4648 8.69738 14.2598 8.22038L12.0077 3.55138L9.72775 8.29438C9.52275 8.77238 9.08775 9.11138 8.57475 9.19438L3.53175 9.96038L7.17475 13.6604C7.53775 14.0254 7.70075 14.5424 7.61475 15.0494L6.73475 20.2434L11.2577 17.8174C11.7057 17.5654 12.2528 17.5654 12.7008 17.8174L17.8317 20.5234C18.1448 20.6944 18.3037 21.0554 18.2188 21.4024C18.1408 21.7494 17.8347 21.9964 17.4797 22.0024L17.4978 21.9194Z" fill="black"/>
</svg>
