<svg width="24" height="24" viewBox="0 0 24 24" fill="none" xmlns="http://www.w3.org/2000/svg">
<path d="M12 2C17.514 2 22 6.485 22 12C22 17.514 17.514 22 12 22C8.873 22 5.98324 20.5767 4.07324 18.0977C3.82834 17.7787 3.88811 17.3221 4.20605 17.0781C4.52398 16.8322 4.97857 16.8931 5.22461 17.21C6.85761 19.33 9.327 20.5459 12 20.5459C16.712 20.5459 20.5459 16.713 20.5459 12C20.5459 7.288 16.712 3.4541 12 3.4541C7.288 3.4541 3.45508 7.288 3.45508 12C3.45508 12.4379 3.48678 12.8729 3.55176 13.2988C3.61174 13.6947 3.34016 14.0658 2.94336 14.127C2.54436 14.193 2.17523 13.9156 2.11523 13.5186C2.03927 13.0207 2 12.5099 2 12C2 6.485 6.486 2 12 2ZM11.6611 7.10938C12.062 7.10939 12.3874 7.43515 12.3877 7.83691V12.2832L15.8125 14.3252C16.1573 14.5312 16.2702 14.9774 16.0645 15.3223C15.9295 15.5492 15.6873 15.6766 15.4404 15.6768C15.3135 15.6768 15.1843 15.6432 15.0684 15.5742L11.2881 13.3203C11.0691 13.1883 10.9346 12.9513 10.9346 12.6953V7.83691C10.9348 7.43514 11.2603 7.10938 11.6611 7.10938Z" fill="black"/>
</svg>
