<svg width="24" height="24" viewBox="0 0 24 24" fill="none" xmlns="http://www.w3.org/2000/svg">
<path d="M7.60938 8.60156C8.01216 8.6016 8.33984 8.93767 8.33984 9.35156C8.33977 9.76539 8.01211 10.1015 7.60938 10.1016H6.72461C5.20084 10.1017 3.96289 11.3715 3.96289 12.9326V17.6787C3.96301 19.2349 5.19865 20.5 6.71484 20.5H13.9492C14.3528 20.5002 14.6807 20.8362 14.6807 21.25C14.6806 21.6638 14.3528 21.9998 13.9492 22H6.71484C4.39112 22 2.50011 20.0618 2.5 17.6787V12.9326C2.5 10.5446 4.39521 8.60168 6.72461 8.60156H7.60938ZM17.2852 8.60156C19.6089 8.60156 21.4999 10.5397 21.5 12.9229V17.6699C21.5 20.0569 19.6048 21.9999 17.2754 22C16.8716 22 16.5449 21.6639 16.5449 21.25C16.545 20.8361 16.8716 20.5 17.2754 20.5C18.7992 20.4999 20.0371 19.2301 20.0371 17.6699V12.9229C20.037 11.3666 18.8023 10.1016 17.2852 10.1016H16.3916C15.9879 10.1015 15.6602 9.76547 15.6602 9.35156C15.6602 8.93768 15.9879 8.60159 16.3916 8.60156H17.2852ZM11.7207 2.05664C11.9943 1.94074 12.3095 2.00644 12.5186 2.2207L15.2822 5.06641C15.4237 5.2134 15.496 5.40393 15.4961 5.5957C15.4961 5.78757 15.4237 5.98086 15.2803 6.12695C14.9934 6.41879 14.531 6.41892 14.2461 6.125L12.7314 4.56543V14.4512C12.7313 14.865 12.4037 15.2021 12 15.2021C11.5964 15.202 11.2677 14.8649 11.2676 14.4512V2.75C11.2676 2.44624 11.4463 2.17255 11.7207 2.05664ZM9.4082 4.35156C9.69321 4.05646 10.1564 4.0545 10.4434 4.3457C10.5876 4.49267 10.6611 4.68527 10.6611 4.87793C10.6611 5.06879 10.5898 5.26017 10.4492 5.40625L9.75586 6.12402C9.47181 6.4178 9.00852 6.4199 8.72266 6.12891C8.43392 5.8368 8.432 5.36347 8.7168 5.06836L9.4082 4.35156Z" fill="black"/>
</svg>
