<svg width="24" height="24" viewBox="0 0 24 24" fill="none" xmlns="http://www.w3.org/2000/svg">
<path d="M21.1074 15.4678C21.1989 15.0342 21.6087 14.7644 22.0254 14.8506C22.4423 14.945 22.7075 15.3753 22.6162 15.8115C22.2059 17.7943 21.4564 19.641 20.4512 21.1543C20.3005 21.3787 20.0595 21.5 19.8164 21.5C19.6638 21.4999 19.51 21.453 19.376 21.3555C19.0262 21.1011 18.9405 20.5976 19.1836 20.2305C20.0745 18.8909 20.74 17.2435 21.1074 15.4678ZM10.5791 2.96777C11.6131 2.98619 12.5629 3.72435 12.9072 4.93164C13.0347 5.43661 13.0853 5.94277 13.1348 6.43164L13.1807 6.87402C13.3588 8.35778 13.3589 15.6431 13.1807 17.1289L13.1348 17.585C13.0908 18.0511 13.0441 18.5316 12.9121 19.0449C12.57 20.2498 11.6493 21.0332 10.6055 21.0332C10.5715 21.0321 10.5397 21.0311 10.5068 21.0322C9.92824 21.0322 9.29963 20.6697 8.94434 20.3555L5.26855 17.2197C4.93746 16.9378 4.88773 16.4294 5.15723 16.083C5.42672 15.7379 5.91323 15.685 6.24316 15.9668L9.93164 19.1123C10.1624 19.3147 10.4642 19.4401 10.5459 19.415C10.9265 19.4427 11.2858 19.1007 11.4277 18.6035C11.52 18.2412 11.557 17.8444 11.5977 17.4258C11.6131 17.2601 11.6288 17.0963 11.6475 16.9307C11.808 15.5923 11.8079 8.40949 11.6484 7.07227L11.5986 6.60156C11.5546 6.17228 11.5101 5.72857 11.4199 5.36719C11.2857 4.89773 10.9214 4.54249 10.5859 4.58496C10.443 4.58956 10.0862 4.73522 9.86621 4.92969L6.24512 8.03125C6.10655 8.14977 5.93511 8.21482 5.75586 8.21484H3.70117C3.05328 8.21484 2.74643 8.79048 2.67383 9.3291C2.50118 10.7872 2.50118 13.3071 2.67383 14.6064C2.73323 15.0472 2.4379 15.4564 2.0166 15.5186C1.59657 15.5725 1.20289 15.2709 1.14453 14.8291C0.932241 13.2421 0.973195 10.5455 1.14258 9.11719C1.34168 7.62908 2.39329 6.59863 3.70117 6.59863H5.48047L8.87793 3.68945C9.28715 3.32585 10.0314 2.97241 10.5791 2.96777ZM15.8428 5.94336C16.1926 5.68901 16.6738 5.77872 16.918 6.14355C17.9716 7.72942 18.5527 9.80775 18.5527 12C18.5527 14.1911 17.9716 16.2707 16.918 17.8555C16.7673 18.081 16.5273 18.2011 16.2832 18.2012C16.1314 18.2012 15.977 18.1544 15.8428 18.0566C15.4919 17.8034 15.4063 17.2988 15.6494 16.9316C16.525 15.615 17.0078 13.8644 17.0078 12C17.0078 10.1356 16.525 8.38283 15.6494 7.06738C15.4064 6.70038 15.4922 6.19779 15.8428 5.94336ZM19.376 2.64258C19.7268 2.3909 20.2082 2.48084 20.4512 2.84668C22.0946 5.31766 23 8.57032 23 12C22.9998 12.4464 22.6531 12.8076 22.2275 12.8076C21.801 12.8075 21.4562 12.4463 21.4561 12C21.4561 8.89603 20.6478 5.97368 19.1826 3.76855C18.9396 3.40143 19.0273 2.89805 19.376 2.64258Z" fill="black"/>
</svg>
