<svg width="24" height="24" viewBox="0 0 24 24" fill="none" xmlns="http://www.w3.org/2000/svg">
<path d="M20.7851 3.21967C21.078 2.92678 21.5529 2.92678 21.8458 3.21967C22.112 3.48594 22.1362 3.9026 21.9184 4.19621L21.8458 4.28033L15.8458 10.2803C15.5529 10.5732 15.078 10.5732 14.7851 10.2803C14.5188 10.0141 14.4946 9.5974 14.7125 9.30379L14.7851 9.21967L20.7851 3.21967Z" fill="none"/>
<path d="M14.7851 3.21967C15.0514 2.9534 15.468 2.9292 15.7616 3.14705L15.8458 3.21967L21.8458 9.21967C22.1387 9.51256 22.1387 9.98744 21.8458 10.2803C21.5795 10.5466 21.1628 10.5708 20.8692 10.3529L20.7851 10.2803L14.7851 4.28033C14.4922 3.98744 14.4922 3.51256 14.7851 3.21967Z" fill="none"/>
<path d="M2.54395 3.75342C4.47119 1.82604 5.7263 1.31548 7.06543 2.08545C7.45061 2.30695 7.81175 2.61706 8.30273 3.11572L9.80957 4.67725C10.6415 5.58508 10.8304 6.45629 10.5596 7.47607L10.5225 7.61182L10.4814 7.74561L10.2793 8.33643C9.84832 9.66135 10.029 10.4088 11.5625 11.9419C13.157 13.536 13.9012 13.667 15.3281 13.1685L15.583 13.0796L15.8906 12.98L16.0254 12.9429C17.1093 12.6538 18.025 12.8846 18.9961 13.855L20.21 15.0269L20.5664 15.3784C20.9625 15.7824 21.2246 16.1026 21.418 16.4409C22.1831 17.7797 21.6714 19.0337 19.6885 21.0093L19.5 21.2007C19.204 21.4859 18.9277 21.6904 18.5215 21.8833C17.8394 22.2072 17.0331 22.329 16.0967 22.1987C13.7892 21.8778 10.8625 20.0573 7.1543 16.3501C6.85256 16.0484 6.56365 15.7525 6.28711 15.4624L5.75 14.8892C0.720301 9.42451 0.276679 6.06777 2.33789 3.9624L2.47168 3.82959L2.54395 3.75342ZM6.31836 3.38525C5.85683 3.11986 5.35775 3.23215 4.43555 4.02588L4.14648 4.28467C4.09601 4.33126 4.04404 4.38 3.99121 4.43018L3.65918 4.75439L3.62891 4.7915L3.40332 5.01807C2.85915 5.57403 2.60108 6.25259 2.82324 7.41943C3.18785 9.33445 4.85686 11.9324 8.21484 15.2896C11.7137 18.7875 14.3801 20.4459 16.3037 20.7134C17.4248 20.8692 17.9969 20.5979 18.5801 20.0005L19.0254 19.5513C19.2339 19.3331 19.412 19.1353 19.5625 18.9546L19.7676 18.6958C20.2921 17.9971 20.3405 17.5775 20.1162 17.1851C20.0308 17.0357 19.9064 16.8715 19.7256 16.6714L19.4805 16.4126L19.335 16.2671L17.8037 14.7886C17.2921 14.3169 16.942 14.2505 16.4111 14.3921L16.2588 14.436L15.624 14.6509C13.7839 15.2452 12.4568 14.9568 10.502 13.0024C8.4774 10.9784 8.23968 9.62723 8.91797 7.68115L8.96094 7.55615L9.08203 7.19287L9.14062 6.9624C9.24553 6.45943 9.12564 6.10864 8.58496 5.56787C8.56272 5.54563 8.53778 5.5201 8.51074 5.49268L7.08887 4.02295C6.76315 3.70183 6.52697 3.50524 6.31836 3.38525Z" fill="none"/>
</svg>
