<svg width="24" height="24" viewBox="0 0 24 24" fill="none" xmlns="http://www.w3.org/2000/svg">
<mask id="mask0_1_25810" style="mask-type:luminance" maskUnits="userSpaceOnUse" x="14" y="2" width="9" height="9">
<path fill-rule="evenodd" clip-rule="evenodd" d="M14.3535 2.00049H22.8925V10.5333H14.3535V2.00049Z" fill="white"/>
</mask>
<g mask="url(#mask0_1_25810)">
<path fill-rule="evenodd" clip-rule="evenodd" d="M22.1422 10.5333C21.7652 10.5333 21.4412 10.2503 21.3982 9.8673C21.0192 6.4913 18.3972 3.8713 15.0202 3.4963C14.6092 3.4503 14.3122 3.0803 14.3582 2.6683C14.4032 2.2573 14.7702 1.9543 15.1862 2.0063C19.2642 2.4593 22.4312 5.6223 22.8882 9.6993C22.9342 10.1113 22.6382 10.4823 22.2272 10.5283C22.1992 10.5313 22.1702 10.5333 22.1422 10.5333Z" fill="none"/>
</g>
<path fill-rule="evenodd" clip-rule="evenodd" d="M18.6024 10.5442C18.2504 10.5442 17.9374 10.2962 17.8674 9.93815C17.5794 8.45815 16.4384 7.31715 14.9604 7.03015C14.5534 6.95115 14.2884 6.55815 14.3674 6.15115C14.4464 5.74415 14.8464 5.47815 15.2464 5.55815C17.3274 5.96215 18.9344 7.56815 19.3394 9.65015C19.4184 10.0582 19.1534 10.4512 18.7474 10.5302C18.6984 10.5392 18.6504 10.5442 18.6024 10.5442Z" fill="none"/>
<path d="M3.36133 4.01172C5.28858 2.08434 6.54369 1.57378 7.88281 2.34375C8.26799 2.56525 8.62913 2.87537 9.12012 3.37402L10.627 4.93555C11.4589 5.84338 11.6478 6.71459 11.377 7.73438L11.3398 7.87012L11.2988 8.00391L11.0967 8.59473C10.6657 9.91965 10.8464 10.6671 12.3799 12.2002C13.9744 13.7943 14.7186 13.9253 16.1455 13.4268L16.4004 13.3379L16.708 13.2383L16.8428 13.2012C17.9267 12.9121 18.8424 13.1429 19.8135 14.1133L21.0273 15.2852L21.3838 15.6367C21.7799 16.0407 22.042 16.3609 22.2354 16.6992C23.0005 18.038 22.4888 19.292 20.5059 21.2676L20.3174 21.459C20.0214 21.7442 19.745 21.9487 19.3389 22.1416C18.6567 22.4655 17.8505 22.5873 16.9141 22.457C14.6066 22.1361 11.6799 20.3156 7.97168 16.6084C7.66994 16.3067 7.38104 16.0108 7.10449 15.7207L6.56738 15.1475C1.53768 9.68282 1.09406 6.32607 3.15527 4.2207L3.28906 4.08789L3.36133 4.01172ZM7.13574 3.64355C6.67422 3.37816 6.17513 3.49045 5.25293 4.28418L4.96387 4.54297C4.91339 4.58956 4.86142 4.6383 4.80859 4.68848L4.47656 5.0127L4.44629 5.0498L4.2207 5.27637C3.67654 5.83233 3.41847 6.51089 3.64062 7.67773C4.00524 9.59275 5.67425 12.1907 9.03223 15.5479C12.5311 19.0458 15.1974 20.7042 17.1211 20.9717C18.2422 21.1275 18.8143 20.8562 19.3975 20.2588L19.8428 19.8096C20.0513 19.5914 20.2294 19.3936 20.3799 19.2129L20.585 18.9541C21.1095 18.2554 21.1578 17.8358 20.9336 17.4434C20.8482 17.294 20.7238 17.1298 20.543 16.9297L20.2979 16.6709L20.1523 16.5254L18.6211 15.0469C18.1095 14.5752 17.7593 14.5088 17.2285 14.6504L17.0762 14.6943L16.4414 14.9092C14.6013 15.5035 13.2742 15.2151 11.3193 13.2607C9.29478 11.2367 9.05707 9.88553 9.73535 7.93945L9.77832 7.81445L9.89941 7.45117L9.95801 7.2207C10.0629 6.71774 9.94302 6.36694 9.40234 5.82617C9.3801 5.80393 9.35516 5.7784 9.32812 5.75098L7.90625 4.28125C7.58053 3.96013 7.34435 3.76354 7.13574 3.64355Z" fill="none"/>
</svg>
