<svg width="24" height="24" viewBox="0 0 24 24" fill="none" xmlns="http://www.w3.org/2000/svg">
<path opacity="0.4" d="M12.02 2C6.21 2 2 6.74 2 12C2 13.68 2.49 15.41 3.35 16.99C3.51 17.25 3.53 17.58 3.42 17.89L2.75 20.13C2.6 20.67 3.06 21.07 3.57 20.91L5.59 20.31C6.14 20.13 6.57 20.36 7.081 20.67C8.541 21.53 10.36 21.97 12 21.97C16.96 21.97 22 18.14 22 11.97C22 6.65 17.7 2 12.02 2Z" fill="none"/>
<path d="M7.37012 10.73C8.07999 10.7301 8.64941 11.3003 8.64941 12.0103C8.64933 12.7101 8.07994 13.2804 7.37012 13.2905C6.67017 13.2905 6.08992 12.7102 6.08984 12.0103C6.08984 11.3003 6.66012 10.73 7.37012 10.73ZM11.9805 10.73C12.6904 10.7301 13.2598 11.3003 13.2598 12.0103C13.2597 12.7101 12.6903 13.2904 11.9805 13.2905C11.2706 13.2805 10.7004 12.7103 10.7002 12.0005C10.7002 11.3005 11.2805 10.72 11.9805 10.73ZM16.5898 10.73C17.2998 10.73 17.8701 11.3003 17.8701 12.0103C17.87 12.7102 17.2998 13.2905 16.5898 13.2905C15.88 13.2904 15.3096 12.7101 15.3096 12.0103C15.3096 11.3003 15.8799 10.7301 16.5898 10.73Z" fill="none"/>
</svg>
