<svg width="24" height="24" viewBox="0 0 24 24" fill="none" xmlns="http://www.w3.org/2000/svg">
<path d="M15.4346 7.48047C15.7276 7.18558 16.2011 7.18558 16.4941 7.48047C16.7871 7.77536 16.7871 8.25297 16.4941 8.54785L11.0908 13.9873L14.8848 20.2695C15.0226 20.4977 15.2389 20.4964 15.3291 20.4863C15.4171 20.4743 15.6301 20.4197 15.7061 20.1641L18.0283 12.3496C18.1483 11.949 18.5659 11.721 18.9629 11.8418C19.3598 11.9616 19.5858 12.3827 19.4668 12.7822L17.1445 20.5957C16.9195 21.3515 16.2975 21.8828 15.5205 21.9824C15.4336 21.9945 15.3476 22 15.2617 22C14.5837 22 13.9636 21.6515 13.6025 21.0537L9.50195 14.2646C9.32301 13.9668 9.36841 13.5844 9.61328 13.3389L15.4346 7.48047ZM19.5039 2.07715C20.1889 1.87787 20.9316 2.07073 21.4346 2.58301C21.9373 3.09427 22.1229 3.84 21.918 4.53027L20.6689 8.73145C20.5499 9.13099 20.1343 9.358 19.7363 9.23926C19.3393 9.11949 19.1134 8.69836 19.2324 8.2998L20.4814 4.09766C20.5514 3.86215 20.4261 3.70288 20.3691 3.64551C20.3121 3.58712 20.1519 3.45992 19.9209 3.52734L3.83008 8.20605C3.57407 8.28053 3.51786 8.49542 3.50586 8.58398C3.49486 8.67257 3.49077 8.89427 3.71875 9.03516L7.10449 11.1182C7.4575 11.3356 7.56955 11.8009 7.35254 12.1572C7.21149 12.3884 6.96573 12.5176 6.71289 12.5176C6.57996 12.5176 6.44519 12.4816 6.32324 12.4062L2.93652 10.3223C2.2656 9.90965 1.91363 9.16673 2.01855 8.38281C2.12356 7.59779 2.65904 6.97429 3.41406 6.75488L19.5039 2.07715Z" fill="none"/>
</svg>
