<svg width="24" height="24" viewBox="0 0 24 24" fill="none" xmlns="http://www.w3.org/2000/svg">
<path fill-rule="evenodd" clip-rule="evenodd" d="M11.749 22.4999C11.335 22.4999 10.999 22.1639 10.999 21.7499V18.5889C10.999 18.1749 11.335 17.8389 11.749 17.8389C12.163 17.8389 12.499 18.1749 12.499 18.5889V21.7499C12.499 22.1639 12.163 22.4999 11.749 22.4999Z" fill="none"/>
<path fill-rule="evenodd" clip-rule="evenodd" d="M11.7495 2.5C9.9235 2.5 8.4375 3.994 8.4375 5.831V10.519C8.4375 12.354 9.9235 13.849 11.7495 13.849C13.5755 13.849 15.0615 12.354 15.0615 10.519V5.831C15.0615 3.994 13.5755 2.5 11.7495 2.5ZM11.7495 15.349C9.0965 15.349 6.9375 13.182 6.9375 10.519V5.831C6.9375 3.167 9.0965 1 11.7495 1C14.4025 1 16.5615 3.167 16.5615 5.831V10.519C16.5615 13.182 14.4025 15.349 11.7495 15.349Z" fill="none"/>
<mask id="mask0_1_25589" style="mask-type:luminance" maskUnits="userSpaceOnUse" x="3" y="9" width="18" height="11">
<path fill-rule="evenodd" clip-rule="evenodd" d="M3 9.80078H20.4995V19.3388H3V9.80078Z" fill="white"/>
</mask>
<g mask="url(#mask0_1_25589)">
<path fill-rule="evenodd" clip-rule="evenodd" d="M11.749 19.3388C6.92402 19.3388 2.99902 15.3968 2.99902 10.5508C2.99902 10.1368 3.33502 9.80078 3.74902 9.80078C4.16402 9.80078 4.49902 10.1368 4.49902 10.5508C4.49902 14.5688 7.75102 17.8388 11.749 17.8388C15.747 17.8388 18.999 14.5688 18.999 10.5508C18.999 10.1368 19.335 9.80078 19.749 9.80078C20.164 9.80078 20.499 10.1368 20.499 10.5508C20.499 15.3968 16.574 19.3388 11.749 19.3388Z" fill="none"/>
</g>
</svg>
