<svg width="24" height="24" viewBox="0 0 24 24" fill="none" xmlns="http://www.w3.org/2000/svg">
<path opacity="0.4" d="M19.5225 10.1821C19.9367 10.1821 20.2725 10.5179 20.2725 10.9321C20.2725 15.1828 17.0209 18.6714 12.8691 19.0503V21.147C12.8691 21.561 12.5332 21.8968 12.1191 21.897C11.7051 21.8968 11.3692 21.5611 11.3691 21.147V19.0503C7.21709 18.6716 3.96484 15.1829 3.96484 10.9321C3.96484 10.5179 4.30063 10.1821 4.71484 10.1821C5.12906 10.1821 5.46484 10.5179 5.46484 10.9321C5.46484 14.6074 8.44383 17.5864 12.1191 17.5864C15.7942 17.5862 18.7725 14.6073 18.7725 10.9321C18.7725 10.5179 19.1082 10.1821 19.5225 10.1821Z" fill="none"/>
<path fill-rule="evenodd" clip-rule="evenodd" d="M12.2454 14.5843H11.993C9.97206 14.5843 8.33301 12.9462 8.33301 10.9243V6.37387C8.33301 4.35291 9.97206 2.71387 11.993 2.71387H12.2454C14.2663 2.71387 15.9054 4.35291 15.9054 6.37387V10.9243C15.9054 12.9462 14.2663 14.5843 12.2454 14.5843Z" stroke="currentColor" stroke-width="1.5" stroke-linecap="round" stroke-linejoin="round"/>
</svg>
