<svg width="24" height="24" viewBox="0 0 24 24" fill="none" xmlns="http://www.w3.org/2000/svg">
<path opacity="0.4" d="M19.5234 10.1821C19.9376 10.1821 20.2734 10.5179 20.2734 10.9321C20.2734 15.1829 17.0209 18.6714 12.8691 19.0503V21.147C12.8691 21.561 12.5332 21.8968 12.1191 21.897C11.7051 21.8968 11.3692 21.5611 11.3691 21.147V19.0503C7.21709 18.6716 3.96484 15.1829 3.96484 10.9321C3.96484 10.5179 4.30063 10.1821 4.71484 10.1821C5.12906 10.1821 5.46484 10.5179 5.46484 10.9321C5.46484 14.6074 8.44383 17.5864 12.1191 17.5864C15.7944 17.5862 18.7734 14.6072 18.7734 10.9321C18.7734 10.5179 19.1092 10.1821 19.5234 10.1821Z" fill="none"/>
<path d="M12.2451 1.96387C14.6814 1.96387 16.6553 3.93898 16.6553 6.37402V10.9248C16.655 13.3607 14.6811 15.334 12.2451 15.334H11.9932C9.55828 15.334 7.58326 13.3608 7.58301 10.9248V6.37402C7.58301 3.93886 9.558 1.96387 11.9932 1.96387H12.2451ZM11.9932 3.46387C10.3864 3.46387 9.08301 4.76728 9.08301 6.37402V10.9248C9.08326 12.5322 10.3865 13.834 11.9932 13.834H12.2451C13.8527 13.834 15.155 12.5323 15.1553 10.9248V10.7988H13.0498C12.6358 10.7987 12.3 10.4628 12.2998 10.0488C12.2998 9.63467 12.6357 9.29891 13.0498 9.29883H15.1553V7.62695H14.002C13.588 7.62674 13.2522 7.29087 13.252 6.87695C13.2522 6.46304 13.588 6.12716 14.002 6.12695H15.1445C15.0191 4.63568 13.7694 3.46387 12.2451 3.46387H11.9932Z" fill="none"/>
</svg>
