<svg width="24" height="24" viewBox="0 0 24 24" fill="none" xmlns="http://www.w3.org/2000/svg">
<rect width="24" height="24" fill="white"/>
<path d="M12 3C16.9706 3 21 7.02944 21 12C21 16.9706 16.9706 21 12 21C7.02944 21 3 16.9706 3 12C3 7.02944 7.02944 3 12 3ZM16.3535 7.64648C16.1583 7.45128 15.8418 7.45139 15.6465 7.64648L12 11.293L8.35352 7.64648C8.15824 7.45139 7.84169 7.45128 7.64648 7.64648C7.45128 7.84169 7.45139 8.15824 7.64648 8.35352L11.293 12L7.64648 15.6465C7.45122 15.8417 7.45122 16.1583 7.64648 16.3535C7.84175 16.5488 8.15825 16.5488 8.35352 16.3535L12 12.707L15.6465 16.3535C15.8417 16.5488 16.1583 16.5488 16.3535 16.3535C16.5488 16.1583 16.5488 15.8417 16.3535 15.6465L12.707 12L16.3535 8.35352C16.5486 8.15824 16.5487 7.84169 16.3535 7.64648Z" fill="#222222"/>
</svg>
