<svg width="24" height="24" viewBox="0 0 24 24" fill="none" xmlns="http://www.w3.org/2000/svg">
<path opacity="0.4" d="M9.07129 9.0625C9.36419 8.76966 9.83897 8.76963 10.1318 9.0625L11.999 10.9307L13.8662 9.06445C14.1591 8.77184 14.634 8.77166 14.9268 9.06445C15.2194 9.35727 15.2193 9.83214 14.9268 10.125L13.0596 11.9912L14.9277 13.8594C15.2206 14.1523 15.2206 14.6271 14.9277 14.9199C14.6348 15.2128 14.1601 15.2128 13.8672 14.9199L11.999 13.0518L10.1348 14.917C9.84192 15.2098 9.36712 15.2097 9.07422 14.917C8.78133 14.6241 8.78133 14.1493 9.07422 13.8564L10.9385 11.9912L9.07129 10.123C8.77844 9.83014 8.77842 9.35537 9.07129 9.0625Z" fill="black"/>
<path fill-rule="evenodd" clip-rule="evenodd" d="M16.335 2.75H7.66598C4.64498 2.75 2.75098 4.889 2.75098 7.916V16.084C2.75098 19.111 4.63598 21.25 7.66598 21.25H16.334C19.365 21.25 21.251 19.111 21.251 16.084V7.916C21.251 4.889 19.365 2.75 16.335 2.75Z" stroke="black" stroke-width="1.5" stroke-linecap="round" stroke-linejoin="round"/>
</svg>
