<svg width="24" height="24" viewBox="0 0 24 24" fill="none" xmlns="http://www.w3.org/2000/svg">
<path fill-rule="evenodd" clip-rule="evenodd" d="M14.736 2.76172H8.084C6.025 2.76172 4.25 4.43072 4.25 6.49072V17.3397C4.25 19.5157 5.908 21.1147 8.084 21.1147H16.072C18.132 21.1147 19.802 19.3997 19.802 17.3397V8.03772L14.736 2.76172Z" stroke="black" stroke-width="1.5" stroke-linecap="round" stroke-linejoin="round"/>
<path d="M14.4736 2.75V5.659C14.4736 7.079 15.6226 8.231 17.0426 8.234C18.3586 8.237 19.7056 8.238 19.7966 8.232" stroke="black" stroke-width="1.5" stroke-linecap="round" stroke-linejoin="round"/>
<path opacity="0.4" d="M11.8438 9.71436C12.258 9.71436 12.5938 10.0501 12.5938 10.4644V12.1646H14.2949C14.709 12.1647 15.0449 12.5005 15.0449 12.9146C15.0447 13.3284 14.7088 13.6644 14.2949 13.6646H12.5938V15.3657C12.5936 15.7798 12.2578 16.1157 11.8438 16.1157C11.4297 16.1157 11.0939 15.7797 11.0938 15.3657V13.6646H9.39355C8.9795 13.6646 8.64382 13.3285 8.64355 12.9146C8.64355 12.5003 8.97934 12.1646 9.39355 12.1646H11.0938V10.4644C11.0938 10.0502 11.4296 9.71439 11.8438 9.71436Z" fill="black"/>
</svg>
