<svg width="24" height="24" viewBox="0 0 24 24" fill="none" xmlns="http://www.w3.org/2000/svg">
<path fill-rule="evenodd" clip-rule="evenodd" d="M14.736 2.76172H8.084C6.025 2.76172 4.25 4.43072 4.25 6.49072V17.2277C4.25 19.4037 5.908 21.1147 8.084 21.1147H16.072C18.132 21.1147 19.802 19.2877 19.802 17.2277V8.03772L14.736 2.76172Z" stroke="black" stroke-width="1.5" stroke-linecap="round" stroke-linejoin="round"/>
<path d="M14.4736 2.75V5.659C14.4736 7.079 15.6226 8.231 17.0426 8.234C18.3586 8.237 19.7056 8.238 19.7966 8.232" stroke="black" stroke-width="1.5" stroke-linecap="round" stroke-linejoin="round"/>
<path opacity="0.4" d="M11.6543 8.69092C11.6973 8.69171 11.7394 8.69588 11.7803 8.70361C11.7832 8.70416 11.7862 8.704 11.7891 8.70459C11.8052 8.70783 11.8202 8.71498 11.8359 8.71924C11.8674 8.7278 11.8987 8.73599 11.9287 8.74854C11.9585 8.76097 11.986 8.77744 12.0137 8.79346C12.0282 8.80185 12.0437 8.8085 12.0576 8.81787C12.0998 8.84624 12.1393 8.87842 12.1748 8.91455L15.0098 11.7622C15.302 12.0557 15.3013 12.5305 15.0078 12.8228C14.7143 13.1148 14.2395 13.1132 13.9473 12.8198L12.3906 11.2563V16.0142C12.3902 16.4279 12.0544 16.7639 11.6406 16.7642C11.2267 16.7642 10.891 16.428 10.8906 16.0142V11.2544L9.33301 12.8198C9.0408 13.1133 8.56602 13.1149 8.27246 12.8228C7.97891 12.5305 7.97833 12.0558 8.27051 11.7622L11.1084 8.91064L11.2227 8.81689C11.26 8.7919 11.2998 8.7713 11.3408 8.75342C11.3489 8.74991 11.3571 8.74688 11.3652 8.74365C11.3977 8.73084 11.4309 8.7206 11.4648 8.7124C11.4826 8.70814 11.5003 8.70366 11.5186 8.70068C11.5244 8.69972 11.5302 8.69858 11.5361 8.69775C11.5618 8.69419 11.5879 8.69279 11.6143 8.69189C11.6227 8.69161 11.6312 8.68994 11.6396 8.68994C11.6445 8.68994 11.6494 8.69082 11.6543 8.69092Z" fill="black"/>
</svg>
