<svg width="24" height="24" viewBox="0 0 24 24" fill="none" xmlns="http://www.w3.org/2000/svg">
<path opacity="0.4" d="M12 7.57715C12.414 7.57735 12.75 7.91306 12.75 8.32715V11.2402H15.666C16.0802 11.2402 16.4159 11.5761 16.416 11.9902C16.416 12.4044 16.0802 12.7402 15.666 12.7402H12.75V15.6533C12.75 16.0674 12.414 16.4031 12 16.4033C11.5858 16.4033 11.25 16.0675 11.25 15.6533V12.7402H8.33301C7.91879 12.7402 7.58301 12.4044 7.58301 11.9902C7.58309 11.5761 7.91884 11.2402 8.33301 11.2402H11.25V8.32715C11.25 7.91295 11.5858 7.57717 12 7.57715Z" fill="black"/>
<path fill-rule="evenodd" clip-rule="evenodd" d="M16.6857 2H7.31429C4.04762 2 2 4.31208 2 7.58516V16.4148C2 19.6879 4.0381 22 7.31429 22H16.6857C19.9619 22 22 19.6879 22 16.4148V7.58516C22 4.31208 19.9619 2 16.6857 2Z" stroke="black" stroke-width="1.5" stroke-linecap="round" stroke-linejoin="round"/>
</svg>
