<svg width="24" height="24" viewBox="0 0 24 24" fill="none" xmlns="http://www.w3.org/2000/svg">
<path opacity="0.4" d="M16.34 2H7.67C4.28 2 2 4.38 2 7.92V16.09C2 19.62 4.28 22 7.67 22H16.34C19.73 22 22 19.62 22 16.09V7.92C22 4.38 19.73 2 16.34 2Z" fill="none"/>
<path d="M11.9951 10.4873C12.4771 10.4873 12.8701 10.8803 12.8701 11.3623V15.7822C12.8701 16.2642 12.4771 16.6572 11.9951 16.6572C11.5131 16.6572 11.1201 16.2642 11.1201 15.7822V11.3623C11.1201 10.8803 11.5131 10.4873 11.9951 10.4873ZM12.0049 7.31445C12.4879 7.31445 12.8799 7.70745 12.8799 8.18945C12.8799 8.67145 12.4881 9.06445 11.9951 9.06445C11.5161 9.06445 11.125 8.67145 11.125 8.18945C11.125 7.70753 11.52 7.31458 12.0049 7.31445Z" fill="none"/>
</svg>
