<svg width="24" height="24" viewBox="0 0 24 24" fill="none" xmlns="http://www.w3.org/2000/svg">
<path d="M15.7471 2C19.608 2.00003 21.9999 4.39296 22 8.25586V15.7559C22 19.6078 19.608 22 15.7471 22H8.24414C4.39214 22 1.99998 19.6079 2.00098 15.7529C2.00101 15.3311 2.34282 14.9885 2.76562 14.9883C3.1876 14.9883 3.53121 15.331 3.53125 15.7529C3.53125 18.7869 5.20197 20.4668 8.25391 20.4668H15.7471C18.79 20.4668 20.4697 18.7959 20.4697 15.7529V8.25293C20.4697 5.21 18.8 3.5303 15.7471 3.53027H8.25293C5.21 3.5303 3.5303 5.21 3.53027 8.25293V10.584C3.53027 11.0018 3.19123 11.3396 2.77441 11.3398H2.7627C2.3409 11.3397 1.99911 10.997 2 10.5752V8.25293C2.00003 4.393 4.40999 2.00004 8.25391 2H15.7471ZM11.9941 10.626C12.4081 10.626 12.7441 10.962 12.7441 11.376V15.7959C12.7441 16.2099 12.4081 16.5459 11.9941 16.5459C11.5803 16.5457 11.2441 16.2098 11.2441 15.7959V11.376C11.2441 10.9621 11.5803 10.6262 11.9941 10.626ZM12.0049 7.4541C12.4188 7.45414 12.7549 7.79013 12.7549 8.2041C12.7549 8.61807 12.4188 8.95406 12.0049 8.9541H11.9951C11.5811 8.9541 11.25 8.6181 11.25 8.2041C11.25 7.7901 11.5909 7.4541 12.0049 7.4541Z" fill="none"/>
</svg>
