<svg width="24" height="24" viewBox="0 0 24 24" fill="none" xmlns="http://www.w3.org/2000/svg">
<path d="M15.7529 2C19.5899 2 22 4.39197 22 8.25293V10.8223C21.9999 11.2391 21.661 11.578 21.2441 11.5781H21.2354V11.5596C20.8134 11.5596 20.4707 11.2189 20.4697 10.7969V8.25293C20.4697 5.19997 18.7998 3.53027 15.7559 3.53027H8.25586C5.20997 3.53033 3.5303 5.21002 3.53027 8.25293V15.7529C3.53027 18.7869 5.20997 20.4668 8.25293 20.4668H15.7529C18.7959 20.4668 20.4668 18.7869 20.4668 15.7529C20.4668 15.331 20.8094 14.9883 21.2324 14.9883C21.6552 14.9885 21.997 15.3311 21.9971 15.7529C22.0001 19.6079 19.6079 22 15.7559 22H8.25293C4.39197 22 2 19.6078 2 15.7559V8.25586C2.00006 4.39197 4.39202 2.00003 8.25293 2H15.7529ZM15.0293 9.09668C15.3223 8.80368 15.7978 8.80368 16.0908 9.09668C16.3835 9.38961 16.3835 9.86427 16.0908 10.1572L11.3438 14.9043C11.2028 15.0443 11.0115 15.123 10.8135 15.123C10.6135 15.123 10.4232 15.0443 10.2822 14.9043L7.90918 12.5303C7.61661 12.2374 7.61661 11.7626 7.90918 11.4697C8.20218 11.1767 8.6777 11.1767 8.9707 11.4697L10.8135 13.3135L15.0293 9.09668Z" fill="none"/>
</svg>
