<svg xmlns="http://www.w3.org/2000/svg" width="24" height="24" viewBox="0 0 24 24" fill="none" stroke="currentColor" stroke-width="2" stroke-linecap="round" stroke-linejoin="round">
  <path d="M11.36 19.73a1 1 0 0 1 1.28 0l2.33 1.96a1 1 0 0 0 1.4-.58l.44-1.33c.11-.32 0-.79-.24-1.03l-2.27-2.28a1.1 1.1 0 0 1-.3-.71v-2.85c0-.42.31-.62.7-.46l4.91 2.12c.77.33 1.4-.08 1.4-.92v-1.29c0-.67-.5-1.44-1.12-1.7L14.3 8.25a.55.55 0 0 1-.3-.46v-3c0-.94-.69-2.05-1.53-2.48a1 1 0 0 0-.95 0c-.84.43-1.53 1.55-1.53 2.49v3a.55.55 0 0 1-.3.46l-5.58 2.41c-.62.25-1.12 1.02-1.12 1.69v1.29c0 .84.63 1.25 1.4.92l4.91-2.12c.38-.17.7.04.7.46v2.85a1.16 1.16 0 0 1-.29.71l-2.27 2.28c-.24.24-.35.7-.24 1.03l.44 1.33a1 1 0 0 0 1.39.58z" />
</svg>