<svg xmlns="http://www.w3.org/2000/svg" width="24" height="24" viewBox="0 0 24 24" fill="none" stroke="currentColor" stroke-width="2" stroke-linecap="round" stroke-linejoin="round">
  <path d="M15.5 22v-3" />
  <path d="M17.28 9.56v7.54a1.895 1.895 0 0 1-3.78 0V4.83A2.84 2.84 0 0 1 16.33 2h1.89a3.79 3.79 0 0 1 0 7.56z" />
  <path d="M18.22 6.72a1 1 0 0 0 .94-.94 1 1 0 0 0-.94-.94" />
  <path d="M5.78 6.72a1 1 0 0 1-.94-.94 1 1 0 0 1 .94-.94" />
  <path d="M6.72 9.56v7.54a1.895 1.895 0 0 0 3.78 0V4.83A2.84 2.84 0 0 0 7.67 2H5.78a3.79 3.79 0 0 0 0 7.56z" />
  <path d="M8.5 22v-3" />
</svg>