<svg xmlns="http://www.w3.org/2000/svg" width="24" height="24" viewBox="0 0 24 24" fill="none" stroke="currentColor" stroke-width="2" stroke-linecap="round" stroke-linejoin="round">
  <path d="M2.62 8.25a16 16 0 0 1 .11-2.07C3.1 2.89 4.65 2 8.88 2h6.25c4.22 0 5.78.89 6.14 4.18.09.61.11 1.3.11 2.07v7.5a16 16 0 0 1-.11 2.08C20.9 21.11 19.35 22 15.12 22H8.88c-4.22 0-5.78-.89-6.14-4.17-.09-.62-.12-1.31-.12-2.08z" />
  <path d="M21.23 8.92h-4.1" />
  <path d="M6.87 8.92h-4.1" />
  <rect x="6.869" y="6.869" width="10.261" height="4.102" rx="2" />
</svg>
