<svg xmlns="http://www.w3.org/2000/svg" width="24" height="24" viewBox="0 0 24 24" fill="none" stroke="currentColor" stroke-width="2" stroke-linecap="round" stroke-linejoin="round" >
  <path d="M6.72 9.56H5.78C3.7 9.56 2 7.86003 2 5.78003C2 3.70003 3.7 2 5.78 2H7.67001C9.23001 2 10.5 3.28002 10.5 4.83002V7.39001V17.1C10.5 18.14 9.64999 18.99 8.60999 18.99C7.56999 18.99 6.72 18.14 6.72 17.1V9.56Z" stroke-miterlimit="10"/>
  <path d="M5.77985 6.72003C5.25985 6.72003 4.83984 6.30009 4.83984 5.78009C4.83984 5.26009 5.25985 4.84009 5.77985 4.84009" stroke-miterlimit="10"/>
  <path d="M17.28 9.56H18.22C20.3 9.56 22 7.86003 22 5.78003C22 3.70003 20.3 2 18.22 2H16.33C14.77 2 13.5 3.28002 13.5 4.83002V7.39001V17.1C13.5 18.14 14.35 18.99 15.39 18.99C16.43 18.99 17.28 18.14 17.28 17.1V9.56Z" stroke-miterlimit="10"/>
  <path d="M18.2197 6.72003C18.7397 6.72003 19.1597 6.30009 19.1597 5.78009C19.1597 5.26009 18.7397 4.84009 18.2197 4.84009" stroke-miterlimit="10"/>
  <path d="M8.5 22V19" stroke-miterlimit="10"/>
  <path d="M15.5 22V19" stroke-miterlimit="10"/>
  </svg>