<svg xmlns="http://www.w3.org/2000/svg" width="24" height="24" viewBox="0 0 24 24" fill="none" stroke="currentColor" stroke-width="2" stroke-linecap="round" stroke-linejoin="round">
  <path d="M15.4 2c.2 1.1-.3 2.2-.9 3s-1.7 1.5-2.8 1.4c-.2-1.1.3-2.1.9-2.9.7-.8 1.8-1.4 2.8-1.5" />
  <path d="M18.6 19.4a15.4 15.4 0 0 0 1.2-2.2c-3.1-1.2-3.6-5.6-.5-7.2-.9-1.2-2.2-1.8-3.5-1.8-.9 0-1.5.2-2.1.4-.5.2-.9.3-1.4.3-.6 0-1-.2-1.6-.4s-1.2-.4-1.9-.4c-1.4 0-2.9.8-3.8 2.3-1.3 2-1.1 5.9 1 9.1.9 1.2 1.9 2.5 3.2 2.5.6 0 .9-.2 1.3-.3.5-.2 1-.4 1.8-.4.9 0 1.3.2 1.8.4.4.2.7.3 1.3.3 1.4 0 2.4-1.5 3.2-2.6" />
</svg>
