<svg xmlns="http://www.w3.org/2000/svg" width="24" height="24" viewBox="0 0 24 24" fill="none" stroke="currentColor" stroke-width="2" stroke-linecap="round" stroke-linejoin="round">
  <path d="M15 22c5 0 7-2 7-7V9c0-5-2-7-7-7H9C4 2 2 4 2 9v6c0 5 2 7 7 7z" />
  <path d="M16 12.5a2 2 0 0 1 2 2 2 2 0 0 0-2-2H8a2 2 0 0 0-2 2 2 2 0 0 1 2-2" />
  <path d="M18 11a2 2 0 0 0-2-2H8a2 2 0 0 0-2 2" />
  <path d="M5 15.75h4.5a1 1 0 0 0 5 0H19" />
  <path d="M6 15.75v-8a2 2 0 0 1 2-2h8a2 2 0 0 1 2 2v8" />
</svg>
