<svg xmlns="http://www.w3.org/2000/svg" width="24" height="24" viewBox="0 0 24 24" fill="none" stroke="currentColor" stroke-width="2" stroke-linecap="round" stroke-linejoin="round">
  <path d="M13.2 11.88a.87.87 0 0 0 .44.32l1.02.26c.63.16.8.7.39 1.2l-.67.81a.9.9 0 0 0-.17.52l.06 1.05c.04.65-.42.98-1.02.74l-.98-.39a.86.86 0 0 0-.55 0l-.98.39c-.6.24-1.06-.1-1.02-.74l.06-1.05a.88.88 0 0 0-.17-.52l-.67-.81c-.41-.5-.24-1.04.39-1.2l1.02-.26a.85.85 0 0 0 .44-.32l.57-.89c.36-.54.92-.54 1.27 0z" />
  <path d="M17.5 7.63V5q0-3-3-3h-5q-3 0-3 3v2.56" />
  <path d="M4.26 15.99c0 1.82 0 1.82 1.72 2.98l4.73 2.73c.71.41 1.87.41 2.58 0l4.73-2.73c1.72-1.16 1.72-1.16 1.72-2.98v-4.97c0-1.82 0-1.82-1.72-2.98l-4.73-2.73c-.71-.41-1.87-.41-2.58 0L5.98 8.04C4.26 9.2 4.26 9.2 4.26 11.02z" />
</svg>
