<svg xmlns="http://www.w3.org/2000/svg" width="24" height="24" viewBox="0 0 24 24" fill="none" stroke="currentColor" stroke-width="2" stroke-linecap="round" stroke-linejoin="round">
  <path d="M11 16.15C11 13.9 10.1 13 7.85 13h-2.7C2.9 13 2 13.9 2 16.15v2.7C2 21.1 2.9 22 5.15 22h2.7c2.25 0 3.15-.9 3.15-3.15zC11 13.9 10.1 13 7.85 13" />
  <path d="M13 7.85c0 2.25.9 3.15 3.15 3.15" />
  <path d="M16.15 11C13.9 11 13 10.1 13 7.85v-2.7C13 2.9 13.9 2 16.15 2h2.7C21.1 2 22 2.9 22 5.15v2.7c0 2.25-.9 3.15-3.15 3.15z" />
  <path d="M17.38 11v2.62c0 2.69-1.07 3.76-3.76 3.76H11" />
  <path d="M6.62 13v-2.62c0-2.69 1.07-3.76 3.76-3.76H13" />
</svg>
