<svg xmlns="http://www.w3.org/2000/svg" width="24" height="24" viewBox="0 0 24 24" fill="none" stroke="currentColor" stroke-width="2" stroke-linecap="round" stroke-linejoin="round">
  <path d="M1 22h22" />
  <path d="M12 18v-7" />
  <path d="M16 18v-7" />
  <path d="M2 22v-3a1 1 0 0 1 1-1h18a1 1 0 0 1 1 1v3" />
  <path d="M20 18v-7" />
  <path d="M21.37 5.75c.35.14.63.56.63.93V10a1 1 0 0 1-1 1H3a1 1 0 0 1-1-1V6.68c0-.37.28-.79.63-.93l9-3.6a1.17 1.17 0 0 1 .74 0z" />
  <path d="M4 18v-7" />
  <path d="M8 18v-7" />
  <circle cx="12" cy="7" r="1.5" />
</svg>
