<svg xmlns="http://www.w3.org/2000/svg" width="24" height="24" viewBox="0 0 24 24" fill="none" stroke="currentColor" stroke-width="2" stroke-linecap="round" stroke-linejoin="round">
  <path d="M15 7.73c2.37 1.2 4 3.78 4 6.77a4 4 0 0 1-.03.5" />
  <path d="M19 7h-4" />
  <path d="M21.5 18.5A1.5 1.5 0 0 1 20 20h-2a1.4 1.4 0 0 1-1.5-1.5v-2A1.5 1.5 0 0 1 18 15h2a1.5 1.5 0 0 1 1.5 1.5z" />
  <path d="M5.03 15a4 4 0 0 1-.03-.5c0-2.99 1.63-5.57 4-6.77" />
  <path d="M7.5 18.5A1.48 1.48 0 0 1 6 20H4a1.5 1.5 0 0 1-1.5-1.5v-2A1.5 1.5 0 0 1 4 15h2a1.5 1.5 0 0 1 1.5 1.5z" />
  <path d="M9 7H5" />
  <circle cx="21" cy="7" r="2" />
  <circle cx="3" cy="7" r="2" />
  <rect x="9" y="4" width="6" height="6" rx="1.511" />
</svg>
