<svg xmlns="http://www.w3.org/2000/svg" width="24" height="24" viewBox="0 0 24 24" fill="none" stroke="currentColor" stroke-width="2" stroke-linecap="round" stroke-linejoin="round">
  <path d="M10.2 19.2a.483.483 0 0 0 0 .7l1.7 1.7a.483.483 0 0 0 .7 0l9-9a.483.483 0 0 0 0-.7l-1.7-1.7a.483.483 0 0 0-.7 0z" />
  <path d="M2.4 12.1a.483.483 0 0 1 0-.7l1.7-1.7a.483.483 0 0 1 .7 0l1.7 1.7a.483.483 0 0 1 0 .7l-1.7 1.7a.483.483 0 0 1-.7 0z" />
  <path d="M6.3 15.3a.483.483 0 0 0 0 .7L8 17.7a.483.483 0 0 0 .7 0l9-9a.483.483 0 0 0 0-.7L16 6.3a.483.483 0 0 0-.7 0z" />
  <path d="M6.3 7.5a.483.483 0 0 0 0 .7L8 9.9a.483.483 0 0 0 .7 0l5.1-5.1a.483.483 0 0 0 0-.7l-1.7-1.7a.483.483 0 0 0-.7 0z" />
</svg>
