<svg xmlns="http://www.w3.org/2000/svg" width="24" height="24" viewBox="0 0 24 24" fill="none" stroke="currentColor" stroke-width="2" stroke-linecap="round" stroke-linejoin="round">
  <path d="m10.75 15.75-1-1" />
  <path d="m12.9 12.87 1.31 1.29" />
  <path d="M14.75 7.75a7 7 0 0 1-7 7 6 6 0 0 1-.93-.07 7 7 0 1 1 7.86-7.86 6 6 0 0 1 .07.93" />
  <path d="m15.75 10.75-1-1" />
  <path d="M20.75 13.75a7 7 0 0 1-13.93.93 6 6 0 0 0 .93.07 7 7 0 0 0 7-7 6 6 0 0 0-.07-.93 7 7 0 0 1 6.07 6.93" />
</svg>
