<svg xmlns="http://www.w3.org/2000/svg" width="24" height="24" viewBox="0 0 24 24" fill="none" stroke="currentColor" stroke-width="2" stroke-linecap="round" stroke-linejoin="round">
  <path d="M12 8.1v9.56" />
  <path d="M15 22c5 0 7-2 7-7V9c0-5-2-7-7-7H9C4 2 2 4 2 9v6c0 5 2 7 7 7z" />
  <path d="M18.38 7.58A1.253 1.253 0 0 0 17 6.31c-1.38.11-3.41.8-4.55 1.51l-.11.07a.74.74 0 0 1-.68 0l-.16-.1C10.37 7.08 8.34 6.41 7 6.3a1.26 1.26 0 0 0-1.38 1.27v7.7c0 .61.5 1.19 1.11 1.26l.18.03c1.38.18 3.52.89 4.74 1.56a.69.69 0 0 0 .64.01c1.22-.68 3.37-1.38 4.76-1.57l.21-.03a1.3 1.3 0 0 0 1.12-1.26z" />
</svg>
