<svg xmlns="http://www.w3.org/2000/svg" width="24" height="24" viewBox="0 0 24 24" fill="none" stroke="currentColor" stroke-width="2" stroke-linecap="round" stroke-linejoin="round">
  <path d="M12 5.49v15" />
  <path d="m15 8 2-1.33L19 8V2.78c-1.23.2-2.69.62-4 1.14z" />
  <path d="M19 2.78a8 8 0 0 1 .77-.1h.06A2 2 0 0 1 22 4.67v12.07c0 .96-.78 1.86-1.74 1.98l-.33.04c-2.18.29-5.54 1.4-7.46 2.46a1 1 0 0 1-.96 0c-1.96-1.07-5.31-2.17-7.48-2.46l-.29-.04C2.78 18.6 2 17.7 2 16.74V4.66a2 2 0 0 1 2.16-1.99c2.1.17 5.28 1.23 7.06 2.34l.25.15c.29.18.77.18 1.06 0l.17-.11c.63-.39 1.43-.78 2.3-1.13" />
</svg>
