<svg xmlns="http://www.w3.org/2000/svg" width="24" height="24" viewBox="0 0 24 24" fill="none" stroke="currentColor" stroke-width="2" stroke-linecap="round" stroke-linejoin="round">
  <path d="M12 21.61v-9.07" />
  <path d="M21.61 12.83V9.17c0-1.38-.99-3.06-2.2-3.73l-5.34-2.96c-1.14-.64-3-.64-4.14 0L4.59 5.44c-1.21.67-2.2 2.35-2.2 3.73v5.66c0 1.38.99 3.06 2.2 3.73l5.34 2.96c.57.32 1.32.48 2.07.48s1.5-.16 2.07-.48" />
  <path d="m23 22-1-1" />
  <path d="M3.17 7.44 12 12.55l8.77-5.08" />
  <circle cx="19.2" cy="18.2" r="3.2" />
</svg>
