<svg xmlns="http://www.w3.org/2000/svg" width="24" height="24" viewBox="0 0 24 24" fill="none" stroke="currentColor" stroke-width="2" stroke-linecap="round" stroke-linejoin="round">
  <path d="m10.44 14.3.65.65a.5.5 0 0 0 .69.01l1.78-1.64" />
  <path d="M16 22c4.02 0 4.74-1.61 4.95-3.57l.75-8C21.97 7.99 21.27 6 17 6H7c-4.27 0-4.97 1.99-4.7 4.43l.75 8C3.26 20.39 3.98 22 8 22z" />
  <path d="M2.62 11.27A16.4 16.4 0 0 0 8 13.68" />
  <path d="M21.65 11a16.3 16.3 0 0 1-5.64 2.64" />
  <path d="M8 6v-.8C8 3.43 8 2 11.2 2h1.6C16 2 16 3.43 16 5.2V6" />
  <circle cx="12" cy="14.2" r="4" />
</svg>
