<svg xmlns="http://www.w3.org/2000/svg" width="24" height="24" viewBox="0 0 24 24" fill="none" stroke="currentColor" stroke-width="2" stroke-linecap="round" stroke-linejoin="round">
  <path d="m10.756 5.098-5.124 3.12 2.08 3.417 5.125-3.12z" />
  <path d="m11.75 18.37 1.65 2.71" />
  <path d="m14.31 16.81 1.65 2.71" />
  <path d="m16.87 15.25 1.65 2.71" />
  <path d="M8.66 11.08a4 4 0 0 0-1.51 5.18l2.05 4.18c.66 1.35 2.26 1.82 3.54 1.03l6.43-3.91c1.29-.78 1.6-2.41.71-3.62l-2.77-3.74c-1.2-1.62-3.45-2.16-5.29-1.04z" />
  <path d="M9.87 5.67 6.45 7.75 4.89 5.19a2 2 0 0 1 3.42-2.08z" />
</svg>
