<svg xmlns="http://www.w3.org/2000/svg" width="24" height="24" viewBox="0 0 24 24" fill="none" stroke="currentColor" stroke-width="2" stroke-linecap="round" stroke-linejoin="round">
  <path d="M10.97 2h-2c-5 0-7 2-7 7v6c0 5 2 7 7 7h6c5 0 7-2 7-7v-2" />
  <path d="M12.78 14.49a3.35 3.35 0 0 1-2.91 3.29l-1.97.21a1.7 1.7 0 0 1-1.87-1.88l.21-1.97c.19-1.75 1.65-2.87 3.21-2.9a4 4 0 0 1 .48.01 3.26 3.26 0 0 1 1.89.95 3.14 3.14 0 0 1 .93 1.83 4 4 0 0 1 .03.46" />
  <path d="M15.82 11.98a3.79 3.79 0 0 0-3.79-3.79" />
  <path d="M21.88 3.56c-1.23 3.07-4.32 7.25-6.9 9.32l-1.58 1.26a2.6 2.6 0 0 1-.63.36 4 4 0 0 0-.03-.46 3.1 3.1 0 0 0-.93-1.83 3.26 3.26 0 0 0-1.89-.95 4 4 0 0 0-.48-.01 2 2 0 0 1 .39-.67L11.09 9c2.07-2.58 6.26-5.69 9.32-6.92a1.13 1.13 0 0 1 1.47 1.48" />
</svg>
