<svg xmlns="http://www.w3.org/2000/svg" width="24" height="24" viewBox="0 0 24 24" fill="none" stroke="currentColor" stroke-width="2" stroke-linecap="round" stroke-linejoin="round">
  <path d="M10.43 17.62a4.17 4.17 0 0 1-1.21 2.95c-.61.61-1.44 1.03-2.43 1.16L4.33 22A2.114 2.114 0 0 1 2 19.65l.27-2.46c.24-2.19 2.07-3.59 4.01-3.63a6 6 0 0 1 .6.01 4 4 0 0 1 2.36 1.19c.67.67 1.05 1.45 1.16 2.29a11 11 0 0 1 .03.57" />
  <path d="M14.24 14.47a4.733 4.733 0 0 0-4.73-4.73" />
  <path d="M21.81 3.94c-1.54 3.84-5.4 9.06-8.63 11.65l-1.97 1.58a3.6 3.6 0 0 1-.78.45 4 4 0 0 0-.04-.57c-.11-.84-.49-1.62-1.16-2.29-.68-.68-1.51-1.08-2.36-1.19a4 4 0 0 0-.6-.01 2.6 2.6 0 0 1 .49-.84l1.56-1.97c2.58-3.23 7.82-7.11 11.65-8.64.59-.22 1.16-.06 1.52.31a1.36 1.36 0 0 1 .32 1.52" />
</svg>
