<svg xmlns="http://www.w3.org/2000/svg" width="24" height="24" viewBox="0 0 24 24" fill="none" stroke="currentColor" stroke-width="2" stroke-linecap="round" stroke-linejoin="round">
  <path d="M10 16c0-1.66 0-3 3-3h4c3 0 3-1 3-3V8c0-2 0-3-3-3h-1" />
  <path d="M10.5 22c1.5 0 1.5-1 1.5-1.5v-3c0-.5 0-1.5-1.5-1.5h-1C8 16 8 17 8 17.5v3C8 21 8 22 9.5 22z" />
  <path d="M12 2q1.5 3 0 6a9.48 9.48 0 0 0 0-6" />
  <path d="M7 8Q4 8 4 5t3-3h6q3 0 3 3t-3 3z" />
  <path d="M8 2Q6.5 5 8 8a9.48 9.48 0 0 1 0-6" />
</svg>
