<svg xmlns="http://www.w3.org/2000/svg" width="24" height="24" viewBox="0 0 24 24" fill="none" stroke="currentColor" stroke-width="2" stroke-linecap="round" stroke-linejoin="round">
  <path d="M17.3 14.81s-1.31 1.42-1.31 2.29a1.315 1.315 0 0 0 2.62 0c-.01-.87-1.31-2.29-1.31-2.29" />
  <path d="M22 9c0-5-2-7-7-7H9C4 2 2 4 2 9v6c0 5 2 7 7 7h6c5 0 7-2 7-7z" />
  <path d="m5.44 12.64 10.69-.47" />
  <path d="M6.11 14.1c-.94-.94-.94-1.89 0-2.83l4.72-4.72 5.19 5.19a.664.664 0 0 1 0 .94l-4.25 4.25c-.94.94-1.89.94-2.83 0z" />
  <path d="m9.88 5.6.95.94" />
</svg>
