<svg xmlns="http://www.w3.org/2000/svg" width="24" height="24" viewBox="0 0 24 24" fill="none" stroke="currentColor" stroke-width="2" stroke-linecap="round" stroke-linejoin="round">
  <path d="M12.97 10.52v4.23a2.253 2.253 0 0 0 4.5 0v-3.22" />
  <path d="M17.47 14.75a2.25 2.25 0 0 0 4.49.12c-.06-1.92-1.14-2.6-2.46-2.89l-7-1.56" />
  <path d="M19.5 11.98c1.32.29 2.4.97 2.46 2.89a1 1 0 0 1 .01.19v3.78c0 2.16-1 3.16-3.16 3.16H4.08c-1.16 0-2.11-.93-2.11-2.07V5.09c0-2.62 1.95-3.81 4.34-2.64l4.44 2.18c.96.47 1.75 1.72 1.75 2.78V22" />
  <path d="M5.5 13h3.47" />
  <path d="M5.5 9h3.47" />
</svg>
