<svg xmlns="http://www.w3.org/2000/svg" width="24" height="24" viewBox="0 0 24 24" fill="none" stroke="currentColor" stroke-width="2" stroke-linecap="round" stroke-linejoin="round">
  <path d="M15.495 17.7h.01" />
  <path d="M20 11.5a1.5 1.5 0 0 1-1.5 1.5h-13A1.5 1.5 0 0 1 4 11.5" />
  <path d="M20 18.9a3.103 3.103 0 0 1-3.1 3.1H7.1A3.11 3.11 0 0 1 4 18.9V5.1A3.11 3.11 0 0 1 7.1 2h9.8A3.11 3.11 0 0 1 20 5.1z" />
  <path d="M4 9.5A1.5 1.5 0 0 1 5.5 8h13A1.5 1.5 0 0 1 20 9.5" />
  <path d="M8.495 17.7h.01" />
  <path d="M9.5 5h5" />
</svg>
