<svg xmlns="http://www.w3.org/2000/svg" width="24" height="24" viewBox="0 0 24 24" fill="none" stroke="currentColor" stroke-width="2" stroke-linecap="round" stroke-linejoin="round">
  <path d="M11.995 14h.01" />
  <path d="M11.995 17.5h.01" />
  <path d="M14 22c5 0 7-2 7-7V9c0-5-2-7-7-7h-4C5 2 3 4 3 9v6c0 5 2 7 7 7z" />
  <path d="M15.854 14h.01" />
  <path d="M15.854 17.5h.01" />
  <path d="M16.5 8.58a1.504 1.504 0 0 1-1.5 1.5H9a1.504 1.504 0 0 1-1.5-1.5v-1A1.504 1.504 0 0 1 9 6.08h6a1.5 1.5 0 0 1 1.5 1.5z" />
  <path d="M8.136 14h.01" />
  <path d="M8.136 17.5h.01" />
</svg>
