<svg xmlns="http://www.w3.org/2000/svg" width="24" height="24" viewBox="0 0 24 24" fill="none" stroke="currentColor" stroke-width="2" stroke-linecap="round" stroke-linejoin="round">
  <path d="M11.996 13.7h.01" />
  <path d="M16 2v3" />
  <path d="m19.05 18.02-2.12 2.12" />
  <path d="M19.07 20.11 16.95 18" />
  <path d="M21 16.36A4 4 0 0 0 14 19a4 4 0 0 0 .58 2.06 3.6 3.6 0 0 0 .79.94H8c-3.5 0-5-2-5-5V8.5c0-3 1.5-5 5-5h8c3.5 0 5 2 5 5z" />
  <path d="M3.5 9.09h17" />
  <path d="M8 2v3" />
  <path d="M8.294 13.7h.01" />
  <path d="M8.294 16.7h.01" />
  <circle cx="18" cy="19" r="4" />
</svg>
