<svg xmlns="http://www.w3.org/2000/svg" width="24" height="24" viewBox="0 0 24 24" fill="none" stroke="currentColor" stroke-width="2" stroke-linecap="round" stroke-linejoin="round">
  <path d="M11.996 13.7h.01" />
  <path d="M16 2v3" />
  <path d="m16.44 19 .99.99 2.13-1.97" />
  <path d="M21 16.36A4 4 0 0 0 14 19a4 4 0 0 0 .58 2.06 3.6 3.6 0 0 0 .79.94A4 4 0 0 0 18 23a4 4 0 1 0-3.42-1.94 3.6 3.6 0 0 0 .79.94H8c-3.5 0-5-2-5-5V8.5c0-3 1.5-5 5-5h8c3.5 0 5 2 5 5z" />
  <path d="M3.5 9.09h17" />
  <path d="M8 2v3" />
  <path d="M8.294 13.7h.01" />
  <path d="M8.294 16.7h.01" />
</svg>
