<svg xmlns="http://www.w3.org/2000/svg" width="24" height="24" viewBox="0 0 24 24" fill="none" stroke="currentColor" stroke-width="2" stroke-linecap="round" stroke-linejoin="round">
  <path d="M1.55 12h.01" />
  <path d="M12 2.45h.01" />
  <path d="M12 21.5h.01" />
  <path d="M17.5 2.85h.01" />
  <path d="M17.5 21.2h.01" />
  <path d="M20 16.5h.01" />
  <path d="M20 7h.01" />
  <path d="M22.5 12h.01" />
  <path d="M4 16.5h.01" />
  <path d="M4 7h.01" />
  <path d="M6.5 2.85h.01" />
  <path d="M6.5 21.2h.01" />
  <circle cx="10.25" cy="15" r="1" />
  <circle cx="10.25" cy="9" r="1" />
  <circle cx="12.05" cy="18.2" r=".75" />
  <circle cx="12.05" cy="6" r=".75" />
  <circle cx="13.75" cy="15" r="1" />
  <circle cx="13.75" cy="9" r="1" />
  <circle cx="15.5" cy="12" r="1" />
  <circle cx="15.9" cy="19" r=".75" />
  <circle cx="15.9" cy="5.2" r=".75" />
  <circle cx="17.15" cy="15" r=".75" />
  <circle cx="17.15" cy="9" r=".75" />
  <circle cx="19.75" cy="12" r=".75" />
  <circle cx="4.2" cy="12" r=".75" />
  <circle cx="6.8" cy="15" r=".75" />
  <circle cx="6.8" cy="9" r=".75" />
  <circle cx="8.1" cy="19" r=".75" />
  <circle cx="8.1" cy="5.2" r=".75" />
  <circle cx="8.5" cy="12" r="1" />
</svg>
