<svg xmlns="http://www.w3.org/2000/svg" width="24" height="24" viewBox="0 0 24 24" fill="none" stroke="currentColor" stroke-width="2" stroke-linecap="round" stroke-linejoin="round">
  <path d="M19 10.28c0-2.98-.76-3.73-3.78-3.73H5.78a18 18 0 0 0-.78.02C5.03 3.72 5.81 3 8.78 3h9.44C21.24 3 22 3.75 22 6.73v6.99c0 2.7-.63 3.57-3 3.71" />
  <path d="M2 12.61h17" />
  <path d="M5.25 17.81h1.72" />
  <path d="M5.78 6.55a18 18 0 0 0-.78.02c-2.37.14-3 1.01-3 3.71v6.99C2 20.25 2.76 21 5.78 21h9.44c2.97 0 3.75-.72 3.78-3.57v-7.15c0-2.98-.76-3.73-3.78-3.73" />
  <path d="M9.11 17.81h3.44" />
</svg>
