<svg xmlns="http://www.w3.org/2000/svg" width="24" height="24" viewBox="0 0 24 24" fill="none" stroke="currentColor" stroke-width="2" stroke-linecap="round" stroke-linejoin="round">
  <path d="M10.11 11.15H7.46a1.14 1.14 0 0 0-1.14 1.14v5.12h3.79z" />
  <path d="M11.241 6.6a1.14 1.14 0 0 0-1.14 1.14v9.66h3.79V7.74a1.13 1.13 0 0 0-1.13-1.14z" />
  <path d="M13.898 12.85v4.55h3.79v-3.41a1.153 1.153 0 0 0-1.14-1.14z" />
  <path d="M15 22c5 0 7-2 7-7V9c0-5-2-7-7-7H9C4 2 2 4 2 9v6c0 5 2 7 7 7z" />
</svg>
