<svg xmlns="http://www.w3.org/2000/svg" width="24" height="24" viewBox="0 0 24 24" fill="none" stroke="currentColor" stroke-width="2" stroke-linecap="round" stroke-linejoin="round">
  <path d="m12.95 15.52-2.12 2.12" />
  <path d="m12.97 17.61-2.11-2.11" />
  <path d="M17 16.53a4.7 4.7 0 0 1-.46 2.06 4 4 0 0 1-.27.51 5 5 0 0 1-8.54 0 4 4 0 0 1-.27-.51A4.7 4.7 0 0 1 7 16.53a5 5 0 0 1 10 0" />
  <path d="M5.54 11.12c-4.68.33-4.68 7.14 0 7.47h1.92" />
  <path d="M5.59 11.12C2.38 2.19 15.92-1.38 17.47 8c4.33.55 6.08 6.32 2.8 9.19a5.34 5.34 0 0 1-3.64 1.4h-.09" />
</svg>
