<svg xmlns="http://www.w3.org/2000/svg" width="24" height="24" viewBox="0 0 24 24" fill="none" stroke="currentColor" stroke-width="2" stroke-linecap="round" stroke-linejoin="round">
  <path d="M10.23 19.16v2.33a.373.373 0 0 0 .65.25l2.45-2.79c.3-.34.17-.62-.28-.62h-1V16a.373.373 0 0 0-.65-.25l-2.45 2.79c-.3.34-.17.62.28.62z" />
  <path d="M15.82 9.89a3.84 3.84 0 0 1 1.66-.41" />
  <path d="M16.61 20a5.32 5.32 0 0 0 3.62-1.39c3.27-2.86 1.52-8.6-2.79-9.14C15.9.13 2.43 3.67 5.62 12.56" />
  <path d="M7.28 12.97a3.64 3.64 0 0 0-1.71-.4c-4.66.33-4.65 7.11 0 7.44" />
</svg>
