<svg xmlns="http://www.w3.org/2000/svg" width="24" height="24" viewBox="0 0 24 24" fill="none" stroke="currentColor" stroke-width="2" stroke-linecap="round" stroke-linejoin="round">
  <path d="M15.85 9.92a3.9 3.9 0 0 1 1.67-.41" />
  <path d="M20.27 18.68a5.32 5.32 0 0 1-3.64 1.4H5.54c-4.67-.34-4.68-7.14 0-7.48C2.89 5.06 12.12 1.34 16 6.03c.7.87 1.23 2.01 1.47 3.46a4.9 4.9 0 0 1 3.18 1.74c1.75 2.07 1.9 5.45-.38 7.45" />
  <path d="M21.97 8.5a3.47 3.47 0 0 1-1.32 2.73 4.9 4.9 0 0 0-3.18-1.74C17.23 8.04 16.7 6.9 16 6.04a3.43 3.43 0 0 1 5.97 2.46" />
  <path d="M7.26 13.01a3.9 3.9 0 0 0-1.67-.41" />
</svg>
