<svg xmlns="http://www.w3.org/2000/svg" width="24" height="24" viewBox="0 0 24 24" fill="none" stroke="currentColor" stroke-width="2" stroke-linecap="round" stroke-linejoin="round" >
  <path d="M6.36973 9.50993C2.28973 9.79993 2.29973 15.7099 6.36973 15.9999H16.0297C17.1997 16.0099 18.3297 15.5699 19.1997 14.7799C22.0597 12.2799 20.5297 7.27991 16.7597 6.79991C15.4097 -1.34009 3.61974 1.74993 6.40974 9.50993" stroke-miterlimit="10"/>
  <path d="M12 16V19" stroke-miterlimit="10"/>
  <path d="M12 23C13.1046 23 14 22.1046 14 21C14 19.8954 13.1046 19 12 19C10.8954 19 10 19.8954 10 21C10 22.1046 10.8954 23 12 23Z" stroke-miterlimit="10"/>
  <path d="M18 21H14" stroke-miterlimit="10"/>
  <path d="M10 21H6" stroke-miterlimit="10"/>
  </svg>