<svg xmlns="http://www.w3.org/2000/svg" width="24" height="24" viewBox="0 0 24 24" fill="none" stroke="currentColor" stroke-width="2" stroke-linecap="round" stroke-linejoin="round">
  <path d="M10 12.85v.74" />
  <path d="M10 6.41v.78" />
  <path d="M12.98 19.88a5 5 0 0 0 9-2.85A5 5 0 0 0 19.91 13" />
  <path d="M8 11.4c0 .77.6 1.4 1.33 1.4h1.5c.64 0 1.16-.55 1.16-1.22 0-.73-.32-.99-.79-1.16l-2.4-.84c-.48-.17-.8-.43-.8-1.16 0-.67.52-1.22 1.16-1.22h1.5c.74.01 1.34.63 1.34 1.4" />
  <circle cx="9.99" cy="9.99" r="8" />
</svg>
