<svg xmlns="http://www.w3.org/2000/svg" width="24" height="24" viewBox="0 0 24 24" fill="none" stroke="currentColor" stroke-width="2" stroke-linecap="round" stroke-linejoin="round">
  <path d="M4.81 21.82a3.84 3.84 0 0 1-2.63-2.63 4 4 0 0 0 2.63 2.63" />
  <path d="M8.82 20.83a3 3 0 0 1-.28.25 3.5 3.5 0 0 1-.99.6 5 5 0 0 1-.33.13A3.9 3.9 0 0 1 6 22a4.3 4.3 0 0 1-.8-.08 6 6 0 0 1-.39-.1 4 4 0 0 1-.46-.17 4.7 4.7 0 0 1-.81-.49 3 3 0 0 1-.37-.33 12 12 0 0 1-.33-.37 5 5 0 0 1-.49-.8 7 7 0 0 1-.17-.47 6 6 0 0 1-.1-.39A4.3 4.3 0 0 1 2 18V4.5C2 3 3 2 4.5 2h3C9 2 10 3 10 4.5V18a4 4 0 0 1-1.14 2.79l9.51-9.5c1.06-1.06 1.06-2.48 0-3.54l-2.12-2.12c-1.06-1.06-2.48-1.06-3.54 0L10 8.34V18a4 4 0 0 1-1.14 2.79za3 3 0 0 1-.28.25 3.5 3.5 0 0 1-.99.6 5 5 0 0 1-.33.13A3.9 3.9 0 0 1 6 22h13.5c1.5 0 2.5-1 2.5-2.5v-3c0-1.5-1-2.5-2.5-2.5h-3.84" />
  <circle cx="6" cy="18" r="1" />
</svg>
