<svg xmlns="http://www.w3.org/2000/svg" width="24" height="24" viewBox="0 0 24 24" fill="none" stroke="currentColor" stroke-width="2" stroke-linecap="round" stroke-linejoin="round">
  <path d="M13.2 14.4a3.58 3.58 0 1 1-4.55-3.47A3.61 3.61 0 0 0 12 13.21a3.3 3.3 0 0 0 .95-.13 3.6 3.6 0 0 1 .25 1.32" />
  <path d="M15 22c5 0 7-2 7-7V9c0-5-2-7-7-7H9C4 2 2 4 2 9v6c0 5 2 7 7 7z" />
  <path d="M15.6 9.6a3.7 3.7 0 0 1-3.6 3.61 3.3 3.3 0 0 1-.95-.13 3.59 3.59 0 0 1-2.4-2.15A3.7 3.7 0 0 1 8.4 9.6a1 1 0 0 1 7.2 0" />
  <path d="M18 14.4a3.6 3.6 0 0 1-6 2.68 3.55 3.55 0 0 0 1.2-2.68 3.7 3.7 0 0 0-.25-1.33 3.59 3.59 0 0 0 2.4-2.15A3.62 3.62 0 0 1 18 14.4" />
</svg>
