<svg xmlns="http://www.w3.org/2000/svg" width="24" height="24" viewBox="0 0 24 24" fill="none" stroke="currentColor" stroke-width="2" stroke-linecap="round" stroke-linejoin="round">
  <path d="M15 22c5 0 7-2 7-7V9c0-5-2-7-7-7H9C4 2 2 4 2 9v6c0 5 2 7 7 7z" />
  <path d="M7.8 14.4A1.805 1.805 0 0 0 6 16.2a1.805 1.805 0 0 0 3.6 0V7.8A1.805 1.805 0 0 0 7.8 6a1.805 1.805 0 0 0 0 3.6h8.4a1.805 1.805 0 0 0 0-3.6 1.805 1.805 0 0 0-1.8 1.8v8.4a1.805 1.805 0 0 0 1.8 1.8 1.805 1.805 0 0 0 0-3.6z" />
</svg>
