<svg xmlns="http://www.w3.org/2000/svg" width="24" height="24" viewBox="0 0 24 24" fill="none" stroke="currentColor" stroke-width="2" stroke-linecap="round" stroke-linejoin="round">
  <path d="m13.7 4.45 3.98 2.3 3.94-2.29" />
  <path d="M14.34 3.54c-.54.3-.99 1.06-.99 1.68v2.54c0 .62.44 1.38.99 1.68l2.4 1.33c.51.29 1.35.29 1.87 0l2.4-1.33c.54-.3.99-1.06.99-1.68V5.22c0-.62-.44-1.38-.99-1.68l-2.4-1.33c-.51-.28-1.35-.28-1.87 0z" />
  <path d="M17.68 10.82V6.74" />
  <path d="M2 9a7 7 0 0 1 7-7L7.95 3.75" />
  <path d="m2.35 15.45 3.97 2.3 3.95-2.29" />
  <path d="M2.99 14.54c-.54.3-.99 1.06-.99 1.68v2.54c0 .62.44 1.38.99 1.68l2.4 1.33c.51.29 1.35.29 1.87 0l2.4-1.33c.54-.3.99-1.06.99-1.68v-2.54c0-.62-.44-1.38-.99-1.68l-2.4-1.33c-.52-.28-1.36-.28-1.87 0z" />
  <path d="M22 15a7 7 0 0 1-7 7l1.05-1.75" />
  <path d="M6.32 21.82v-4.08" />
</svg>
