<svg xmlns="http://www.w3.org/2000/svg" width="24" height="24" viewBox="0 0 24 24" fill="none" stroke="currentColor" stroke-width="2" stroke-linecap="round" stroke-linejoin="round">
  <path d="M12.15 16.5v2.1" />
  <path d="M17.15 22v-1a2 2 0 0 0-2-2h-6a2 2 0 0 0-2 2v1" />
  <path d="M19 9A7 7 0 0 1 5 9V6a4 4 0 0 1 4-4h6a4 4 0 0 1 4 4z" />
  <path d="M19.11 8.85a7 7 0 0 1-.58 2.8 4.86 4.86 0 0 0 1.93-1.2c.9-1 1.5-2.2 1.5-3.6a2.476 2.476 0 0 0-2.5-2.5h-.65a3.8 3.8 0 0 1 .3 1.5z" />
  <path d="M4.89 8.85a7 7 0 0 0 .58 2.8 4.86 4.86 0 0 1-1.93-1.2c-.9-1-1.5-2.2-1.5-3.6a2.476 2.476 0 0 1 2.5-2.5h.65a3.8 3.8 0 0 0-.3 1.5z" />
  <path d="M6.15 22h12" />
</svg>
