<svg xmlns="http://www.w3.org/2000/svg" width="24" height="24" viewBox="0 0 24 24" fill="none" stroke="currentColor" stroke-width="2" stroke-linecap="round" stroke-linejoin="round">
  <path d="M12 18.1a1.324 1.324 0 0 1-1.3-1.3V7.2a1.324 1.324 0 0 1 2.6 0v9.7c0 .7-.6 1.2-1.3 1.2" />
  <path d="M6.7 15.1c-.4-.6-.1-1.4.5-1.8l8.4-4.8c.6-.4 1.4-.1 1.8.5s.1 1.4-.5 1.8l-8.4 4.8c-.7.3-1.5.1-1.8-.5" />
  <path d="M6.7 8.9c.3-.6 1.1-.8 1.8-.5l8.4 4.8a1.436 1.436 0 0 1 .5 1.8 1.436 1.436 0 0 1-1.8.5l-8.4-4.8c-.7-.3-.9-1.1-.5-1.8" />
  <circle cx="12" cy="12" r="10" />
</svg>
