<svg xmlns="http://www.w3.org/2000/svg" width="24" height="24" viewBox="0 0 24 24" fill="none" stroke="currentColor" stroke-width="2" stroke-linecap="round" stroke-linejoin="round">
  <path d="M11 18.4V22" />
  <path d="M12.895 7.25h.01" />
  <path d="M13.26 14.33a.655.655 0 0 1-1.01-.54" />
  <path d="M15.696 7.25h.01" />
  <path d="M18.496 7.25h.01" />
  <path d="M20 12.2a3.9 3.9 0 0 1-1.25.2h-2.6l-2.89 1.93a.655.655 0 0 1-1.01-.54V12.4c-.97 0-1.79-.32-2.36-.89S9 10.12 9 9.15v-3.9A3.9 3.9 0 0 1 9.2 4H6.5C3.8 4 2 5.35 2 8.5v5.4c0 3.15 1.8 4.5 4.5 4.5h9c2.7 0 4.5-1.35 4.5-4.5z" />
  <path d="M7.4 22h7.2" />
  <path d="M9 5.25A3.9 3.9 0 0 1 9.2 4c.44-1.24 1.56-2 3.05-2h6.5C20.7 2 22 3.3 22 5.25v3.9c0 1.49-.76 2.61-2 3.05a3.9 3.9 0 0 1-1.25.2" />
  <path d="M9 9.15c0 .97.32 1.79.89 2.36s1.39.89 2.36.89" />
</svg>
