<svg xmlns="http://www.w3.org/2000/svg" width="24" height="24" viewBox="0 0 24 24" fill="none" stroke="currentColor" stroke-width="2" stroke-linecap="round" stroke-linejoin="round">
  <path d="M14.495 14.5h.01" />
  <path d="M2.469 13.14a1.606 1.606 0 0 1 0-2.26l1.52-1.52c.26-.26.47-.77.47-1.13V6.08a1.605 1.605 0 0 1 1.6-1.6h2.15c.36 0 .87-.21 1.13-.47l1.52-1.52a1.606 1.606 0 0 1 2.26 0l1.52 1.52c.26.26.77.47 1.13.47h2.15a1.605 1.605 0 0 1 1.6 1.6v2.15c0 .36.21.87.47 1.13l1.52 1.52a1.606 1.606 0 0 1 0 2.26l-1.52 1.52c-.26.26-.47.77-.47 1.13v2.15a1.605 1.605 0 0 1-1.6 1.6h-2.15c-.36 0-.87.21-1.13.47l-1.52 1.52a1.606 1.606 0 0 1-2.26 0l-1.52-1.52c-.26-.26-.77-.47-1.13-.47h-2.15a1.605 1.605 0 0 1-1.6-1.6v-2.15c0-.37-.21-.88-.47-1.13z" />
  <path d="m9 15 6-6" />
  <path d="M9.495 9.5h.01" />
</svg>
