<svg xmlns="http://www.w3.org/2000/svg" width="24" height="24" viewBox="0 0 24 24" fill="none" stroke="currentColor" stroke-width="2" stroke-linecap="round" stroke-linejoin="round">
  <path d="M11.2 16.2c.4-.4 1.2-.4 1.6 0l2.7 2.7c.7.7.2 2-.8 2H9.3c-1-.1-1.5-1.3-.8-2z" />
  <path d="M11.2 7.8c.4.4 1.2.4 1.6 0l2.7-2.7c.7-.7.2-2-.8-2H9.3c-1 .1-1.5 1.3-.8 2z" />
  <path d="M19.6 8c-.3-.5-1.1-.6-1.6-.2l-3.5 3.5a1 1 0 0 0 0 1.4l3.5 3.5c.5.5 1.2.4 1.6-.2l2.2-3.5a.707.707 0 0 0 0-1z" />
  <path d="M4.4 8c.3-.6 1.1-.7 1.6-.2l3.5 3.5a1 1 0 0 1 0 1.4L6 16.2c-.5.5-1.2.4-1.6-.2l-2.2-3.5a.707.707 0 0 1 0-1z" />
</svg>
