<svg xmlns="http://www.w3.org/2000/svg" width="24" height="24" viewBox="0 0 24 24" fill="none" stroke="currentColor" stroke-width="2" stroke-linecap="round" stroke-linejoin="round">
  <path d="M14.85 7.75v-3.8a2 2 0 0 0-2.57-1.78l-7.94 3A2.85 2.85 0 0 0 2.5 7.84v8.04A4 4 0 0 1 9 19a4 4 0 0 1-.58 2.06 3.6 3.6 0 0 1-.79.94 3.6 3.6 0 0 0 .79-.94A4 4 0 1 0 5 23a4 4 0 0 0 2.63-1h10.11a3.77 3.77 0 0 0 3.76-3.76v-1.19" />
  <path d="M19.479 12.95h2.08a1 1 0 0 1 1 1.02v2.06a1 1 0 0 1-1 1.02h-1.96c-1.08 0-2.07-.79-2.16-1.87.091 1.08 1.081 1.87 2.161 1.87" />
  <path d="M21.5 12.95v-1.44a3.77 3.77 0 0 0-3.76-3.76H6.26a3.77 3.77 0 0 0-3.76 3.76" />
  <path d="m6.05 17.96-2.12 2.11" />
  <path d="m6.07 20.04-2.12-2.11" />
  <path d="M7 12h7" />
  <circle cx="19.426" cy="14.949" r="2" />
</svg>
