<svg xmlns="http://www.w3.org/2000/svg" width="24" height="24" viewBox="0 0 24 24" fill="none" stroke="currentColor" stroke-width="2" stroke-linecap="round" stroke-linejoin="round">
  <path d="M19.479 12.95a2 2 0 0 0-2.04 2.23c.09 1.08 1.08 1.87 2.16 1.87-1.079 0-2.069-.79-2.159-1.87a2 2 0 0 1 2.04-2.23h2.079a1 1 0 0 1 1 1.02v2.06a1 1 0 0 1-1 1.02h-1.96" />
  <path d="M2.5 11.51a3.77 3.77 0 0 1 3.76-3.76h11.48a3.77 3.77 0 0 1 3.76 3.76v1.44" />
  <path d="M2.5 13.24v-5.4a2.85 2.85 0 0 1 1.84-2.67l7.94-3a2 2 0 0 1 2.57 1.78v3.8" />
  <path d="M21.5 17.05v1.19A3.77 3.77 0 0 1 17.74 22h-5.48" />
  <path d="M3 16.5h5.34a1.16 1.16 0 0 1 1.16 1.16v1.28" />
  <path d="M4.22 15.28 3 16.5l1.22 1.22" />
  <path d="M7 12h7" />
  <path d="m8.281 23 1.22-1.22-1.22-1.22" />
  <path d="M9.5 21.78H4.16A1.16 1.16 0 0 1 3 20.62v-1.28" />
</svg>
