<svg xmlns="http://www.w3.org/2000/svg" width="24" height="24" viewBox="0 0 24 24" fill="none" stroke="currentColor" stroke-width="2" stroke-linecap="round" stroke-linejoin="round" >
  <path d="M10.4497 3.05L6.70966 7.71C5.85966 8.77 6.15966 10.13 7.36966 10.73L11.0997 12.6C11.5897 12.84 12.3897 12.84 12.8797 12.6L16.6097 10.73C17.8197 10.12 18.1197 8.76 17.2697 7.71L13.5397 3.05C12.6997 1.98 11.2997 1.98 10.4497 3.05Z" stroke-miterlimit="10"/>
  <path d="M12 2.29999V7.55999" stroke-miterlimit="10"/>
  <path d="M7.7998 10.71L11.9998 7.56L16.1998 10.71" stroke-miterlimit="10"/>
  <path d="M8.77011 14.43L10.3801 15.15C11.4101 15.61 12.5901 15.61 13.6301 15.15L15.2401 14.43C16.6801 13.79 18.0101 15.53 17.0101 16.75L13.5501 20.98C12.7001 22.02 11.3101 22.02 10.4501 20.98L7.00011 16.75C5.99011 15.53 7.32011 13.79 8.77011 14.43Z" stroke-miterlimit="10"/>
  </svg>