<svg xmlns="http://www.w3.org/2000/svg" width="24" height="24" viewBox="0 0 24 24" fill="none" stroke="currentColor" stroke-width="2" stroke-linecap="round" stroke-linejoin="round">
  <path d="M12 8.6H8.6c-1.8 0-3.3-1.5-3.3-3.3S6.8 2 8.7 2h6.6c1.8 0 3.3 1.5 3.3 3.3s-1.5 3.3-3.3 3.3zV2" />
  <path d="M15.3 8.7c1.8 0 3.3 1.5 3.3 3.3s-1.5 3.3-3.3 3.3S12 13.8 12 12s1.5-3.3 3.3-3.3" />
  <path d="M8.7 15.3c-1.8 0-3.3 1.5-3.3 3.3s1.5 3.3 3.3 3.3 3.3-1.5 3.3-3.3V8.7H8.7c-1.8 0-3.3 1.5-3.3 3.3s1.5 3.3 3.3 3.3H12" />
</svg>
