<svg xmlns="http://www.w3.org/2000/svg" width="24" height="24" viewBox="0 0 24 24" fill="none" stroke="currentColor" stroke-width="2" stroke-linecap="round" stroke-linejoin="round">
  <path d="M16.88 13v3.55" />
  <path d="M18.66 14.73h-3.55" />
  <path d="M20.69 6.24c0 .81-.51 1.82-1.01 2.33l-1.76 1.55a4.4 4.4 0 0 0-1.04-.12 4.754 4.754 0 0 0-4.06 7.2 4.5 4.5 0 0 0 1.5 1.53v.34c0 .61-.4 1.42-.91 1.72L12 21.7c-1.31.81-3.13-.1-3.13-1.72v-5.35c0-.71-.41-1.62-.81-2.12L4.22 8.47c-.5-.51-.91-1.42-.91-2.02V4.12C3.31 2.91 4.22 2 5.33 2h13.34a2 2 0 0 1 2.02 2.02z" />
  <circle cx="16.878" cy="14.764" r="4.716" />
</svg>
