<svg xmlns="http://www.w3.org/2000/svg" width="24" height="24" viewBox="0 0 24 24" fill="none" stroke="currentColor" stroke-width="2" stroke-linecap="round" stroke-linejoin="round">
  <path d="m15.03 14.75 1.17 1.17 2.53-2.34" />
  <path d="M20.69 4.02A2 2 0 0 0 18.67 2H5.33c-1.11 0-2.02.91-2.02 2.12v2.33c0 .6.41 1.51.91 2.02l3.84 4.04c.4.5.81 1.41.81 2.12v5.35c0 1.62 1.82 2.53 3.13 1.72l1.41-.91c.51-.3.91-1.11.91-1.72v-.34a4.5 4.5 0 0 1-1.5-1.53 4.7 4.7 0 0 1 4.06-7.2 4.4 4.4 0 0 1 1.04.12 4.4 4.4 0 0 0-1.04-.12 4.754 4.754 0 0 0-4.06 7.2 4.5 4.5 0 0 0 1.5 1.53 4.6 4.6 0 0 0 2.56.77 1 1 0 0 0 1.04-9.38l1.76-1.55c.5-.51 1.01-1.52 1.01-2.33z" />
</svg>
