<svg xmlns="http://www.w3.org/2000/svg" width="24" height="24" viewBox="0 0 24 24" fill="none" stroke="currentColor" stroke-width="2" stroke-linecap="round" stroke-linejoin="round">
  <path d="M14.32 19.07c0 .61-.4 1.41-.91 1.72L12 21.7c-1.31.81-3.13-.1-3.13-1.72v-5.35c0-.71-.4-1.62-.81-2.12L4.22 8.47c-.51-.51-.91-1.41-.91-2.02V4.13c0-1.21.91-2.12 2.02-2.12h13.34a2 2 0 0 1 2.02 2.02v2.22c0 .81-.51 1.82-1.01 2.32" />
  <path d="m19.87 17.12-1-1" />
  <circle cx="16.07" cy="13.32" r="3.2" />
</svg>
