<svg xmlns="http://www.w3.org/2000/svg" width="24" height="24" viewBox="0 0 24 24" fill="none" stroke="currentColor" stroke-width="2" stroke-linecap="round" stroke-linejoin="round">
  <path d="M21.27 19.3c-.15 1.53-.27 2.7-2.98 2.7H5.71C3 22 2.88 20.83 2.73 19.3l-.4-5A3 3 0 0 1 5.31 11h13.38a3 3 0 0 1 2.98 3.3z" />
  <path d="M3.5 11.43V6.28c0-3.4.85-4.25 4.25-4.25h1.27c1.27 0 1.56.38 2.04 1.02l1.27 1.7c.32.42.51.68 1.36.68h2.55c3.4 0 4.25.85 4.25 4.25v1.79" />
  <path d="M9.43 17h5.14" />
</svg>
