<svg xmlns="http://www.w3.org/2000/svg" width="24" height="24" viewBox="0 0 24 24" fill="none" stroke="currentColor" stroke-width="2" stroke-linecap="round" stroke-linejoin="round">
  <path d="M21.5 12a9.35 9.35 0 0 1-1.09 4.41 1 1 0 0 0-4 4 9.35 9.35 0 0 1-8.82 0 1 1 0 0 0-4-4 9.35 9.35 0 0 1 0-8.82 2.84 2.84 0 0 0 4-4 9.4 9.4 0 0 1 8.82 0 1 1 0 0 0 4 4A9.4 9.4 0 0 1 21.5 12" />
  <circle cx="18.636" cy="18.657" r="2.828" />
  <circle cx="18.65" cy="5.354" r="2.842" />
  <circle cx="5.345" cy="18.641" r="2.823" />
  <circle cx="5.351" cy="5.351" r="2.845" />
</svg>
