<svg xmlns="http://www.w3.org/2000/svg" width="24" height="24" viewBox="0 0 24 24" fill="none" stroke="currentColor" stroke-width="2" stroke-linecap="round" stroke-linejoin="round">
  <path d="M20 6.95a2.7 2.7 0 0 1-.5.05A2.5 2.5 0 0 1 17 4.5a2.7 2.7 0 0 1 .05-.5 2.7 2.7 0 0 0-.05.5A2.5 2.5 0 0 0 19.5 7a2.7 2.7 0 0 0 .5-.05A2.5 2.5 0 1 0 17.05 4H6.95a2.7 2.7 0 0 1 .05.5A2.5 2.5 0 0 1 4.5 7a2.7 2.7 0 0 1-.5-.05 2.7 2.7 0 0 0 .5.05A2.5 2.5 0 0 0 7 4.5a2.7 2.7 0 0 0-.05-.5A2.5 2.5 0 1 0 4 6.95v10.1a2.7 2.7 0 0 1 .5-.05A2.5 2.5 0 0 1 7 19.5a2.7 2.7 0 0 1-.05.5 2.7 2.7 0 0 0 .05-.5A2.5 2.5 0 0 0 4.5 17a2.7 2.7 0 0 0-.5.05A2.5 2.5 0 1 0 6.95 20h10.1a2.7 2.7 0 0 1-.05-.5 2.5 2.5 0 0 1 2.5-2.5 2.7 2.7 0 0 1 .5.05 2.7 2.7 0 0 0-.5-.05 2.5 2.5 0 0 0-2.5 2.5 2.7 2.7 0 0 0 .05.5A2.5 2.5 0 1 0 20 17.05z" />
</svg>
