<svg xmlns="http://www.w3.org/2000/svg" width="24" height="24" viewBox="0 0 24 24" fill="none" stroke="currentColor" stroke-width="2" stroke-linecap="round" stroke-linejoin="round">
  <path d="M13 2H9C4 2 2 4 2 9v6c0 5 2 7 7 7h6c5 0 7-2 7-7v-5" />
  <path d="M15.51 6.22a1.17 1.17 0 0 0-.3.61l-.2 1.39a.695.695 0 0 0 .78.78l1.39-.2a1.3 1.3 0 0 0 .61-.3l3.63-3.63c.63-.63.92-1.35 0-2.27-.93-.94-1.65-.64-2.28-.01z" />
  <path d="M18.62 3.11a3.28 3.28 0 0 0 2.27 2.27" />
  <path d="m2.67 18.95 4.93-3.31c.79-.53 1.93-.47 2.64.14l.33.29c.78.67 2.04.67 2.82 0l4.16-3.57c.78-.67 2.04-.67 2.82 0L22 13.9" />
  <circle cx="9" cy="8" r="2" />
</svg>
