<svg xmlns="http://www.w3.org/2000/svg" width="24" height="24" viewBox="0 0 24 24" fill="none" stroke="currentColor" stroke-width="2" stroke-linecap="round" stroke-linejoin="round">
  <path d="M13.01 2 13 3.01A1 1 0 0 1 12 4a1 1 0 1 0-.02 2" />
  <path d="M13.53 14h.01" />
  <path d="M15 22c5 0 7-2 7-7v-2c0-5-2-7-7-7H9c-5 0-7 2-7 7v2c0 5 2 7 7 7z" />
  <path d="M15.5 12.04h.01" />
  <path d="M15.5 15.98h.01" />
  <path d="M17.47 14h.01" />
  <path d="m6.55 12.49 3.05 3.05" />
  <path d="m9.57 12.46-3.05 3.05" />
</svg>
