<svg xmlns="http://www.w3.org/2000/svg" width="24" height="24" viewBox="0 0 24 24" fill="none" stroke="currentColor" stroke-width="2" stroke-linecap="round" stroke-linejoin="round">
  <path d="m12.35 5 2.72-2.72a1 1 0 0 1 1.35 0l1.42 1.42a1 1 0 0 1 .03 1.3" />
  <path d="M19.97 10h-16v8c0 3 1 4 4 4h8c3 0 4-1 4-4z" />
  <path d="M4.5 10c-1.53 0-2-.9-2-2V7c0-1.1.47-2 2-2h15c1.47 0 2 .9 2 2v1c0 1.1-.53 2-2 2" />
  <path d="M6.12 5a1 1 0 0 1 .03-1.3l1.42-1.42a1 1 0 0 1 1.35 0L11.64 5" />
  <path d="M8.94 10v5.14a1 1 0 0 0 1.55.84l.94-.62a1 1 0 0 1 1.1 0l.89.6a1 1 0 0 0 1.55-.83V10" />
</svg>
