<svg xmlns="http://www.w3.org/2000/svg" width="24" height="24" viewBox="0 0 24 24" fill="none" stroke="currentColor" stroke-width="2" stroke-linecap="round" stroke-linejoin="round">
  <path d="M12.2 10.2v3.7h5.5c-.1.9-.7 2.3-2 3.2-.8.6-2 1-3.5 1-2.6 0-4.9-1.7-5.7-4.2a6.5 6.5 0 0 1 0-4c.1-.2.1-.4.2-.5a6 6 0 0 1 5.5-3.6c1.9 0 3.1.8 3.9 1.5l2.8-2.8C17.2 3 14.9 2 12.2 2 8.3 2 4.9 4.2 3.3 7.5c-.7 1.4-1.1 2.9-1.1 4.5s.4 3.1 1.1 4.5c1.6 3.3 5 5.5 8.9 5.5 2.7 0 5-.9 6.6-2.4 1.9-1.7 3-4.3 3-7.4 0-.8-.1-1.4-.2-2z" />
</svg>
