<svg xmlns="http://www.w3.org/2000/svg" width="24" height="24" viewBox="0 0 24 24" fill="none" stroke="currentColor" stroke-width="2" stroke-linecap="round" stroke-linejoin="round">
  <path d="M12 20v2" />
  <path d="M12 4V2" />
  <path d="M17.21 6.6A7.5 7.5 0 0 0 4.5 12a7.5 7.5 0 0 0 2.08 5.19" />
  <path d="M20 12h2" />
  <path d="M22 2 2 22" />
  <path d="M4 12H2" />
  <path d="M9 18.88A7.5 7.5 0 0 0 19.5 12a7.5 7.5 0 0 0-.62-3" />
  <path d="M9.88 14.12A3 3 0 0 1 12 9a3 3 0 0 1 2.12.88" />
</svg>
