<svg xmlns="http://www.w3.org/2000/svg" width="24" height="24" viewBox="0 0 24 24" fill="none" stroke="currentColor" stroke-width="2" stroke-linecap="round" stroke-linejoin="round">
  <path d="M13.41 18.1a1.364 1.364 0 0 0 0 1.91l1.58 1.59a1.364 1.364 0 0 0 1.91 0l4.71-4.7a1.367 1.367 0 0 0-.01-1.92l-1.58-1.59a1.364 1.364 0 0 0-1.91 0z" />
  <path d="M15.51 11.99V2.01" />
  <path d="m18.8 19.7-3.5-3.49" />
  <path d="M2.03 15.5H12" />
  <path d="M2.03 8.5H22" />
  <path d="M22 11V9c0-5-2-7-7-7H9C4 2 2 4 2 9v6c0 5 2 7 7 7h1" />
  <path d="M8.51 21.99V2.01" />
</svg>
