<svg xmlns="http://www.w3.org/2000/svg" width="24" height="24" viewBox="0 0 24 24" fill="none" stroke="currentColor" stroke-width="2" stroke-linecap="round" stroke-linejoin="round">
  <path d="M12 5.56h10" />
  <path d="M19.78 2C21.56 2 22 2.44 22 4.2v4.11c0 1.76-.44 2.2-2.22 2.2h-5.56c-1.78 0-2.22-.44-2.22-2.2V4.2c0-1.76.44-2.2 2.22-2.2z" />
  <path d="M2 17.06h10" />
  <path d="M2 9a7 7 0 0 1 7-7L7.95 3.75" />
  <path d="M22 15a7 7 0 0 1-7 7l1.05-1.75" />
  <path d="M9.78 13.5c1.78 0 2.22.44 2.22 2.2v4.11c0 1.76-.44 2.2-2.22 2.2H4.22c-1.78 0-2.22-.44-2.22-2.2V15.7c0-1.76.44-2.2 2.22-2.2z" />
</svg>
