<svg xmlns="http://www.w3.org/2000/svg" width="24" height="24" viewBox="0 0 24 24" fill="none" stroke="currentColor" stroke-width="2" stroke-linecap="round" stroke-linejoin="round">
  <path d="M10 12.1c.6-.1 1.3-.1 2-.1s1.4 0 2-.1" />
  <path d="M2 18.3c0-1.7.8-3.3 2.3-4.2 1.3-.8 3.2-1.6 5.7-1.9v6.1A3.69 3.69 0 0 1 6.3 22h-.6c-2 0-3.7-1.7-3.7-3.7" />
  <path d="M2 5.7C2 3.7 3.7 2 5.7 2h.5C8.3 2 10 3.7 10 5.7v6.4c-5.6.7-8 3.9-8 3.9z" />
  <path d="M22 18.3a3.69 3.69 0 0 1-3.7 3.7h-.5a3.69 3.69 0 0 1-3.7-3.7v-6.4C19.6 11.2 22 8 22 8z" />
  <path d="M22 5.7c0 1.7-.8 3.3-2.3 4.2-1.3.8-3.2 1.6-5.7 1.9V5.7c0-2 1.7-3.7 3.7-3.7h.5C20.3 2 22 3.7 22 5.7" />
</svg>
