<svg xmlns="http://www.w3.org/2000/svg" width="24" height="24" viewBox="0 0 24 24" fill="none" stroke="currentColor" stroke-width="2" stroke-linecap="round" stroke-linejoin="round">
  <path d="M15.5 22V7.22" />
  <path d="M17.5 5.75v-.9" />
  <path d="M18.16 3.25a3 3 0 0 0-.21.25 2.26 2.26 0 0 0-.45 1.35 2.3 2.3 0 0 1 .45-1.36l-2.25.01a1.805 1.805 0 1 0 0 3.6h2.25c.76 1.01 2.32 1.35 3.77.06A1 1 0 0 0 22 6.5V4.16a1 1 0 0 0-.23-.61c-1.26-1.32-2.78-1.13-3.61-.3" />
  <path d="M5.84 3.25a3 3 0 0 1 .21.25 2.26 2.26 0 0 1 .45 1.35 2.3 2.3 0 0 0-.45-1.36l2.25.01a1.805 1.805 0 1 1 0 3.6H6.05c-.76 1.01-2.32 1.35-3.77.06A1 1 0 0 1 2 6.5V4.16a1 1 0 0 1 .23-.61c1.26-1.32 2.78-1.13 3.61-.3" />
  <path d="M6.5 5.75v-.9" />
  <path d="M8.5 12V7.22" />
  <path d="M8.5 22v-3" />
  <circle cx="19.76" cy="5.747" r="2.26" />
  <circle cx="4.24" cy="5.747" r="2.26" />
  <rect x="7" y="12" width="3" height="7" rx="1.5" />
</svg>
