<svg xmlns="http://www.w3.org/2000/svg" width="24" height="24" viewBox="0 0 24 24" fill="none" stroke="currentColor" stroke-width="2" stroke-linecap="round" stroke-linejoin="round">
  <path d="M15.67 19.28a1.23 1.23 0 0 0-.3.59l-.19 1.35c-.07.49.27.83.76.76l1.35-.19a1.2 1.2 0 0 0 .59-.3l3.54-3.54c.61-.61.9-1.32 0-2.22-.89-.89-1.6-.6-2.21.01z" />
  <path d="M18.7 16.25a3.19 3.19 0 0 0 2.22 2.22" />
  <path d="M21.49 12A11 11 0 0 0 22 8.69a5.574 5.574 0 0 0-10-3.35A5.53 5.53 0 0 0 2 8.69c0 7 6.48 11.13 9.38 12.13a2 2 0 0 0 .62.09" />
</svg>
