<svg xmlns="http://www.w3.org/2000/svg" width="24" height="24" viewBox="0 0 24 24" fill="none" stroke="currentColor" stroke-width="2" stroke-linecap="round" stroke-linejoin="round">
  <path d="M15 2c5 0 7 2 7 7v6c0 5-2 7-7 7H9c-5 0-7-2-7-7V9c0-5 2-7 7-7z" />
  <path d="M7.8 13.8V9.6" />
  <path d="M7.88 13.8a2.425 2.425 0 0 1 2.36-1.82l2.06.01a3.58 3.58 0 0 0 3.4-2.41" />
  <circle cx="16.2" cy="7.8" r="1.8" />
  <circle cx="7.8" cy="7.8" r="1.8" />
  <circle cx="7.95" cy="16.05" r="2" />
</svg>
