<svg xmlns="http://www.w3.org/2000/svg" width="24" height="24" viewBox="0 0 24 24" fill="none" stroke="currentColor" stroke-width="2" stroke-linecap="round" stroke-linejoin="round">
  <path d="M15 22c5 0 7-2 7-7V9c0-5-2-7-7-7H9C4 2 2 4 2 9v6c0 5 2 7 7 7z" />
  <path d="M7.8 10.2v4.2" />
  <path d="M7.88 10.2a2.425 2.425 0 0 0 2.36 1.82l2.06-.01a3.58 3.58 0 0 1 3.4 2.41" />
  <circle cx="16.2" cy="16.2" r="1.8" />
  <circle cx="7.8" cy="16.2" r="1.8" />
  <circle cx="7.95" cy="7.95" r="2" />
</svg>
