<svg xmlns="http://www.w3.org/2000/svg" width="24" height="24" viewBox="0 0 24 24" fill="none" stroke="currentColor" stroke-width="2" stroke-linecap="round" stroke-linejoin="round">
  <path d="M12.28 14.96a1 1 0 0 1-.56 0c-1.3-.45-4.22-2.3-4.22-5.45A2.503 2.503 0 0 1 12 8a2.49 2.49 0 0 1 4.5 1.51c-.01 3.15-2.92 5-4.22 5.45" />
  <path d="M17.24 18.86a3 3 0 0 0-2.12.87l-1.71 1.69a2 2 0 0 1-2.83 0l-1.71-1.69a3 3 0 0 0-2.12-.87H6a3 3 0 0 1-3-2.97V4.98a3 3 0 0 1 3-2.97h12a3 3 0 0 1 3 2.97v10.91a3 3 0 0 1-3 2.97z" />
</svg>
