<svg xmlns="http://www.w3.org/2000/svg" width="24" height="24" viewBox="0 0 24 24" fill="none" stroke="currentColor" stroke-width="2" stroke-linecap="round" stroke-linejoin="round">
  <path d="M17.24 18.86a3 3 0 0 0-2.12.87l-1.71 1.69a2 2 0 0 1-2.83 0l-1.71-1.69a3 3 0 0 0-2.12-.87H6a3 3 0 0 1-3-2.97V4.98a3 3 0 0 1 3-2.97h12a3 3 0 0 1 3 2.97v10.91a3 3 0 0 1-3 2.97z" />
  <path d="M7 8.71c0-.73.31-.99 1.04-.99h.52c.73 0 1.04.26 1.04.99v5.09c0 .73-.31.99-1.04.99h-.52c-.73 0-1.04-.26-1.04-.99z" />
  <path d="m9.65 13.8 1.61 1.25c.21.21.68.31.99.31h1.98c.62 0 1.3-.47 1.46-1.09l1.25-3.79c.26-.73-.21-1.35-.99-1.35h-2.08a.525.525 0 0 1-.52-.62l.26-1.66a1 1 0 0 0-.68-1.14c-.42-.16-.94.05-1.14.36L9.66 9.24" />
</svg>
