<svg xmlns="http://www.w3.org/2000/svg" width="24" height="24" viewBox="0 0 24 24" fill="none" stroke="currentColor" stroke-width="2" stroke-linecap="round" stroke-linejoin="round">
  <path d="M15 22c5 0 7-2 7-7V9c0-5-2-7-7-7H9C4 2 2 4 2 9v6c0 5 2 7 7 7z" />
  <path d="M15.82 7.98a3.3 3.3 0 0 1 2.09 1.03c1.32 1.39 1.32 3.67 0 5.06l-2.19 2.3a3.307 3.307 0 0 1-4.82 0c-1.32-1.39-1.32-3.67 0-5.06l1.09-1.15" />
  <path d="M8.18 16.02a3.3 3.3 0 0 1-2.09-1.03c-1.32-1.39-1.32-3.67 0-5.06l2.19-2.3a3.307 3.307 0 0 1 4.82 0c1.32 1.39 1.32 3.67 0 5.06l-1.09 1.15" />
</svg>
