<svg xmlns="http://www.w3.org/2000/svg" width="24" height="24" viewBox="0 0 24 24" fill="none" stroke="currentColor" stroke-width="2" stroke-linecap="round" stroke-linejoin="round">
  <path d="M16.11 9.45a2.87 2.87 0 0 1 1.52 1.32c.8 1.46.31 3.36-1.11 4.24l-2.34 1.45a2.85 2.85 0 0 1-4.03-1.05c-.8-1.46-.31-3.36 1.11-4.24l.31-.22" />
  <path d="M7.94 14.51a2.87 2.87 0 0 1-1.52-1.32c-.8-1.46-.31-3.36 1.11-4.24L9.87 7.5a2.85 2.85 0 0 1 4.03 1.05c.8 1.46.31 3.36-1.11 4.24l-.31.22" />
  <circle cx="12" cy="12" r="10" />
</svg>
