<svg xmlns="http://www.w3.org/2000/svg" width="24" height="24" viewBox="0 0 24 24" fill="none" stroke="currentColor" stroke-width="2" stroke-linecap="round" stroke-linejoin="round">
  <path d="M19.86 8.09a10 10 0 0 1-.08 1.22 3.7 3.7 0 0 0-4.46 1.18 3.73 3.73 0 0 0-6.69 2.25c0 2.68 1.42 4.73 3 6.12a1 1 0 0 1-.15.06c-.3.11-.8.11-1.1 0C7.79 18.03 2 14.35 2 8.09a5 5 0 0 1 8.93-3 5 5 0 0 1 8.93 3" />
  <path d="M22 12.74c0 4.68-4.33 7.44-6.27 8.1a1.47 1.47 0 0 1-.83 0c-.83-.28-2.1-.95-3.27-1.98-1.58-1.39-3-3.44-3-6.12a3.72 3.72 0 0 1 6.69-2.25A3.7 3.7 0 0 1 22 12.74" />
</svg>
