<svg xmlns="http://www.w3.org/2000/svg" width="24" height="24" viewBox="0 0 24 24" fill="none" stroke="currentColor" stroke-width="2" stroke-linecap="round" stroke-linejoin="round" >
  <path d="M22 9V15C22 17.5 21.5 19.25 20.38 20.38L14 14L21.73 6.27C21.91 7.06 22 7.96 22 9Z"/>
  <path d="M21.73 6.27L6.26999 21.73C3.25999 21.04 2 18.96 2 15V9C2 4 4 2 9 2H15C18.96 2 21.04 3.26 21.73 6.27Z"/>
  <path d="M20.38 20.38C19.25 21.5 17.5 22 15 22H9.00003C7.96003 22 7.06002 21.91 6.27002 21.73L14 14L20.38 20.38Z"/>
  <path d="M6.23977 7.98C6.91977 5.05 11.3198 5.05 11.9998 7.98C12.3898 9.7 11.3098 11.16 10.3598 12.06C9.66977 12.72 8.57979 12.72 7.87979 12.06C6.92979 11.16 5.83977 9.7 6.23977 7.98Z"/>
  <path d="M9.0946 8.70001H9.10359"/>
  </svg>