<svg xmlns="http://www.w3.org/2000/svg" width="24" height="24" viewBox="0 0 24 24" fill="none" stroke="currentColor" stroke-width="2" stroke-linecap="round" stroke-linejoin="round">
  <path d="M20.38 20.38C21.5 19.25 22 17.5 22 15V9c0-1.04-.09-1.94-.27-2.73L6.27 21.73c.79.18 1.69.27 2.73.27h6c2.5 0 4.25-.5 5.38-1.62L14 14" />
  <path d="M6.24 7.98c.68-2.93 5.08-2.93 5.76 0 .39 1.72-.69 3.18-1.64 4.08a1.8 1.8 0 0 1-2.48 0c-.95-.9-2.04-2.36-1.64-4.08" />
  <path d="M6.27 21.73C3.26 21.04 2 18.96 2 15V9c0-5 2-7 7-7h6c3.96 0 6.04 1.26 6.73 4.27" />
  <path d="M9.095 8.7h.01" />
</svg>
