<svg xmlns="http://www.w3.org/2000/svg" width="24" height="24" viewBox="0 0 24 24" fill="none" stroke="currentColor" stroke-width="2" stroke-linecap="round" stroke-linejoin="round">
  <path d="M13.17 7.16a.72.72 0 0 0 .48.35l1.07.18c.68.11.84.61.35 1.1l-.83.83a.71.71 0 0 0-.17.61l.24 1.03c.19.81-.24 1.13-.96.7l-1-.59a.7.7 0 0 0-.66 0l-1 .59c-.72.42-1.15.11-.96-.7l.24-1.03a.75.75 0 0 0-.17-.61l-.83-.83c-.49-.49-.33-.98.35-1.1l1.07-.18a.73.73 0 0 0 .47-.35l.59-1.18c.29-.64.81-.64 1.13 0z" />
  <path d="M19 9a7 7 0 0 1-5.95 6.91 6 6 0 0 1-2.1 0A7 7 0 0 1 5 9a7 7 0 0 1 14 0" />
  <path d="M19.6 18.86a1 1 0 0 0-.74.74l-.35 1.47a1 1 0 0 1-1.74.41L12 16l-4.77 5.49a1 1 0 0 1-1.74-.41l-.35-1.47a1 1 0 0 0-.74-.74l-1.65-.39a1 1 0 0 1-.48-1.68l3.9-3.9a7 7 0 0 0 4.78 3.02 6 6 0 0 0 2.1 0 7 7 0 0 0 4.78-3.02l3.9 3.9a1 1 0 0 1-.48 1.67z" />
</svg>
