<svg xmlns="http://www.w3.org/2000/svg" width="24" height="24" viewBox="0 0 24 24" fill="none" stroke="currentColor" stroke-width="2" stroke-linecap="round" stroke-linejoin="round">
  <path d="M15.59 12.4c0-2.04-1.36-3.4-3.4-3.4H5.4a5 5 0 0 0-.4.02V6.25C5 3.7 6.7 2 9.25 2h8.5C20.3 2 22 3.7 22 6.25v5.1c0 1.27-.42 2.34-1.17 3.08-.74.75-1.81 1.17-3.08 1.17v1.81a.85.85 0 0 1-1.32.71l-.97-.64a3.6 3.6 0 0 0 .13-1.01" />
  <path d="M5.4 9a5 5 0 0 0-.4.02c-1.82.17-3 1.48-3 3.38v4.07c0 1.02.34 1.87.94 2.47.59.59 1.44.93 2.46.93v1.45a.671.671 0 0 0 1.05.56l3.02-2.01h2.72c1.68 0 2.9-.92 3.27-2.39a3.6 3.6 0 0 0 .13-1.01V12.4c0-2.04-1.36-3.4-3.4-3.4" />
</svg>
