<svg xmlns="http://www.w3.org/2000/svg" width="24" height="24" viewBox="0 0 24 24" fill="none" stroke="currentColor" stroke-width="2" stroke-linecap="round" stroke-linejoin="round">
  <path d="M13 15.23a4.86 4.86 0 0 1-1.18 3.16c-.99 1.2-2.56 1.97-4.32 1.97l-2.61 1.55a.626.626 0 0 1-.94-.61l.25-1.97C2.86 18.4 2 16.91 2 15.23c0-1.76.94-3.31 2.38-4.23a5.7 5.7 0 0 1 3.12-.91c3.04 0 5.5 2.3 5.5 5.14" />
  <path d="M18.86 19.99a1 1 0 0 1-1.5.98l-4.19-2.49a10 10 0 0 1-1.35-.09A4.86 4.86 0 0 0 13 15.23c0-2.84-2.46-5.14-5.5-5.14a5.7 5.7 0 0 0-3.12.91 6 6 0 0 1-.04-.76C4.34 5.69 8.29 2 13.17 2S22 5.69 22 10.24c0 2.7-1.39 5.09-3.53 6.59z" />
</svg>
