<svg xmlns="http://www.w3.org/2000/svg" width="24" height="24" viewBox="0 0 24 24" fill="none" stroke="currentColor" stroke-width="2" stroke-linecap="round" stroke-linejoin="round">
  <path d="M15 22c5 0 7-2 7-7V9c0-5-2-7-7-7H9C4 2 2 4 2 9v6c0 5 2 7 7 7z" />
  <path d="M18.28 12.9a6 6 0 0 1-.03.59c-.18 2.12-1.43 3.18-3.73 3.18h-.31a.6.6 0 0 0-.5.25l-.94 1.26c-.42.56-1.09.56-1.51 0l-.94-1.26a.73.73 0 0 0-.5-.25h-.31c-2.51 0-3.76-.62-3.76-3.76V9.77c0-2.3 1.06-3.55 3.18-3.73a6 6 0 0 1 .59-.03h5.03c2.47-.01 3.73 1.25 3.73 3.75z" />
</svg>
