<svg xmlns="http://www.w3.org/2000/svg" width="24" height="24" viewBox="0 0 24 24" fill="none" stroke="currentColor" stroke-width="2" stroke-linecap="round" stroke-linejoin="round">
  <path d="M22 13.43c0 1.5-.5 2.75-1.38 3.63-.87.87-2.12 1.37-3.62 1.37v2.13a1 1 0 0 1-1.55.84L11 18.43H8.88A3.6 3.6 0 0 0 9 17.5a4 4 0 0 0-6.87-2.79A6 6 0 0 1 2 13.43v-6c0-3 2-5 5-5h10c3 0 5 2 5 5z" />
  <path d="m3.44 17.5.99.99 2.13-1.97" />
  <path d="M8.5 10.5h7" />
  <path d="M9 17.5a4 4 0 0 1-.58 2.06 3.6 3.6 0 0 1-.79.94 4 4 0 1 1-5.13-6.12A4 4 0 0 1 9 17.5" />
</svg>
