<svg xmlns="http://www.w3.org/2000/svg" width="24" height="24" viewBox="0 0 24 24" fill="none" stroke="currentColor" stroke-width="2" stroke-linecap="round" stroke-linejoin="round">
  <path d="M7 9h5" />
  <path d="M9.5 16c4.14 0 7.5-3.13 7.5-7a6.46 6.46 0 0 0-.7-2.93C15.13 3.67 12.52 2 9.5 2 5.36 2 2 5.13 2 9c0 2.29 1.18 4.32 3 5.6l1.34 2.95a1 1 0 0 0 1.68.23z" />
  <path d="M9.5 16c4.14 0 7.5-3.13 7.5-7a6.46 6.46 0 0 0-.7-2.93c3.27.75 5.7 3.51 5.7 6.79 0 2.29-1.18 4.32-3 5.6l-1.34 2.95a1 1 0 0 1-1.68.23l-1.48-1.78c-2.42 0-4.58-1.07-5.93-2.74" />
</svg>
