<svg xmlns="http://www.w3.org/2000/svg" width="24" height="24" viewBox="0 0 24 24" fill="none" stroke="currentColor" stroke-width="2" stroke-linecap="round" stroke-linejoin="round">
  <path d="M13.496 13.25h.01" />
  <path d="M17.98 10.79c0-3.19-1.6-4.79-4.79-4.79h-6.4a6 6 0 0 0-.75.04C6.27 3.35 7.86 2 10.79 2h6.4c3.19 0 4.79 1.6 4.79 4.79v4c0 2.94-1.35 4.52-4.04 4.75a6 6 0 0 0 .04-.75" />
  <path d="M6.496 13.25h.01" />
  <path d="M6.79 6a6 6 0 0 0-.75.04C3.35 6.27 2 7.86 2 10.79v4c0 4 1.6 4.79 4.79 4.79h.4a1 1 0 0 1 .64.32l1.2 1.6c.53.71 1.39.71 1.92 0l1.2-1.6a.8.8 0 0 1 .64-.32h.4c2.93 0 4.52-1.34 4.75-4.04a6 6 0 0 0 .04-.75v-4c0-3.19-1.6-4.79-4.79-4.79" />
  <path d="M9.996 13.25h.01" />
</svg>
