<svg xmlns="http://www.w3.org/2000/svg" width="24" height="24" viewBox="0 0 24 24" fill="none" stroke="currentColor" stroke-width="2" stroke-linecap="round" stroke-linejoin="round">
  <path d="m12 12.2 4.44 9.8" />
  <path d="M12.05 12.2 7.56 22" />
  <path d="m12.173 6.48-4.777 3.2 2.56 3.821 4.777-3.2z" />
  <path d="m15.03 10.77 5.66-3.79a1.24 1.24 0 0 0 .34-1.72l-1.82-2.71a1.24 1.24 0 0 0-1.72-.34L11.83 6z" />
  <path d="m7.54 9.92-3.95 2.64a1 1 0 0 0-.27 1.39l1.13 1.68a1 1 0 0 0 1.38.27l3.95-2.64" />
</svg>
