<svg xmlns="http://www.w3.org/2000/svg" width="24" height="24" viewBox="0 0 24 24" fill="none" stroke="currentColor" stroke-width="2" stroke-linecap="round" stroke-linejoin="round" >
  <path d="M16 6.3V6C16 3.79 14.21 2 12 2C9.79 2 8 3.79 8 6V11"/>
  <path d="M9.04004 14.19C9.77004 15 10.83 15.5 12 15.5C14.21 15.5 16 13.71 16 11.5V11"/>
  <path d="M6.77979 16.95C8.14979 18.22 9.97978 19 11.9998 19C16.2198 19 19.6498 15.57 19.6498 11.35V9.65002"/>
  <path d="M4.3501 9.65002V11.35C4.3501 12.41 4.5601 13.41 4.9501 14.33"/>
  <path d="M20.0702 2.84003L3.93018 18.99"/>
  <path d="M11 3V6"/>
  <path d="M12 19V22"/>
  </svg>