<svg xmlns="http://www.w3.org/2000/svg" width="24" height="24" viewBox="0 0 24 24" fill="none" stroke="currentColor" stroke-width="2" stroke-linecap="round" stroke-linejoin="round">
  <path d="m6 13.98 3.89.02a4.7 4.7 0 0 1 2.11.5 4.7 4.7 0 0 0 2.12.5H18" />
  <path d="M6 19a3 3 0 0 0 3 3h6a3 3 0 0 0 3-3v-8.17c0-.46-.26-1.09-.59-1.42l-2.12-2.12a1 1 0 0 1-.29-.7V5H9v1.59a1 1 0 0 1-.29.7L6.59 9.41c-.33.33-.59.96-.59 1.42z" />
  <path d="M9.5 5a1.504 1.504 0 0 1 0-3h5a1.504 1.504 0 0 1 0 3" />
  <path d="M9.89 14a4.7 4.7 0 0 1 2.11.5 4.7 4.7 0 0 0 2.12.5" />
</svg>
