<svg xmlns="http://www.w3.org/2000/svg" width="24" height="24" viewBox="0 0 24 24" fill="none" stroke="currentColor" stroke-width="2" stroke-linecap="round" stroke-linejoin="round">
  <path d="M16.222 8.3v4.4" />
  <path d="M22.301 10.92c0-2.54-1.22-3.88-3.12-4.28a6.3 6.3 0 0 1 .12 1.28v5.15c0 3.08-1.76 4.4-4.4 4.4H6.11a6 6 0 0 1-1.279-.13c.29 1.46 1.1 2.37 2.29 2.81.58.22 1.25.32 1.99.32h8.79c2.64 0 4.4-1.32 4.4-4.4z" />
  <path d="M4.78 8.3v4.4" />
  <path d="M6.11 17.47a6 6 0 0 1-1.28-.13 4 4 0 0 1-.71-.19c-1.5-.56-2.41-1.86-2.41-4.08V7.92c0-3.08 1.76-4.4 4.4-4.4h8.79c2.24 0 3.85.95 4.28 3.12a7 7 0 0 1 .12 1.28v5.15c0 3.08-1.76 4.4-4.4 4.4" />
  <circle cx="10.498" cy="10.5" r="2.64" />
</svg>
