<svg xmlns="http://www.w3.org/2000/svg" width="24" height="24" viewBox="0 0 24 24" fill="none" stroke="currentColor" stroke-width="2" stroke-linecap="round" stroke-linejoin="round">
  <path d="M18.5 9.5v5" />
  <path d="M2 11V9c0-3.5 2-5 5-5h10c3 0 5 1.5 5 5v6c0 3.5-2 5-5 5h-5" />
  <path d="M2 15.5h5.34a1.16 1.16 0 0 1 1.16 1.16v1.28" />
  <path d="M3.22 14.28 2 15.5l1.22 1.22" />
  <path d="m7.281 22 1.22-1.22-1.22-1.22" />
  <path d="M8.5 20.78H3.16A1.16 1.16 0 0 1 2 19.62v-1.28" />
  <circle cx="12" cy="12" r="2.5" />
</svg>
