<svg xmlns="http://www.w3.org/2000/svg" width="24" height="24" viewBox="0 0 24 24" fill="none" stroke="currentColor" stroke-width="2" stroke-linecap="round" stroke-linejoin="round">
  <path d="M10.17 15.52v-6.4c0-.67.4-1.12.98-1.28l3.18-.87c.84-.23 1.67-.04 1.67 1.28v6.21" />
  <path d="M10.18 10.76 16 9.17" />
  <path d="M2 12a10 10 0 0 0 .58 3.33" />
  <path d="M2.58 8.67a10 10 0 0 1 3.14-4.44" />
  <path d="M20.24 6.34A10 10 0 0 0 9.09 2.43" />
  <path d="M5.72 19.75a10.5 10.5 0 0 1-1.32-1.26" />
  <path d="M9.09 21.57a10 10 0 0 0 12.75-11.33" />
  <circle cx="14.41" cy="14.46" r="1.59" />
  <circle cx="8.59" cy="15.52" r="1.59" />
</svg>
