<svg xmlns="http://www.w3.org/2000/svg" width="24" height="24" viewBox="0 0 24 24" fill="none" stroke="currentColor" stroke-width="2" stroke-linecap="round" stroke-linejoin="round">
  <path d="m19.05 16.96-2.12 2.11" />
  <path d="m19.07 19.04-2.12-2.11" />
  <path d="M21 14.35a15 15 0 0 1-.03.98A4 4 0 0 0 14 18a4 4 0 0 0 .58 2.06 3.7 3.7 0 0 0 .76.91 15 15 0 0 1-.99.03h-5.7C3.9 21 2 19.1 2 14.35v-5.7C2 3.9 3.9 2 8.65 2h5.7C19.1 2 21 3.9 21 8.65z" />
  <path d="M22 18a4 4 0 0 1-4 4 4 4 0 0 1-2.66-1.03 3.7 3.7 0 0 1-.76-.91A4 4 0 0 1 18 14a4 4 0 0 1 4 4" />
  <path d="M8.17 12.97V7.13a1.16 1.16 0 0 1 .89-1.16l2.89-.79c.76-.21 1.52-.05 1.52 1.16V12" />
  <path d="m8.17 8.83 5.3-1.45" />
  <circle cx="12.03" cy="12" r="1.45" />
  <circle cx="6.72" cy="12.97" r="1.45" />
</svg>
