<svg xmlns="http://www.w3.org/2000/svg" width="24" height="24" viewBox="0 0 24 24" fill="none" stroke="currentColor" stroke-width="2" stroke-linecap="round" stroke-linejoin="round">
  <path d="M15.53 9.12h-.81a.61.61 0 0 0-.53.32l-.75 1.5a.295.295 0 0 1-.53 0l-1.84-3.67a.293.293 0 0 0-.52-.01l-.84 1.55a.59.59 0 0 1-.52.31h-.73" />
  <path d="M5.48 18.49v-2.92a1 1 0 1 1 3.68 0v2.81c0 1.95-1.62 3.57-3.57 3.57s-3.57-1.63-3.57-3.57v-6.16a10 10 0 0 1 9.95-10.17c5.62 0 10.05 4.55 10.05 10.06v6.16c0 1.95-1.62 3.57-3.57 3.57s-3.57-1.62-3.57-3.57v-2.81a1 1 0 0 1 3.68 0v3.03" />
</svg>
