<svg xmlns="http://www.w3.org/2000/svg" width="24" height="24" viewBox="0 0 24 24" fill="none" stroke="currentColor" stroke-width="2" stroke-linecap="round" stroke-linejoin="round" >
  <path d="M6.28016 22C8.00328 22 9.40016 20.6031 9.40016 18.88C9.40016 17.1569 8.00328 15.76 6.28016 15.76C4.55703 15.76 3.16016 17.1569 3.16016 18.88C3.16016 20.6031 4.55703 22 6.28016 22Z"/>
  <path d="M20.8399 16.8V4.6C20.8399 2 19.2099 1.64 17.5599 2.09L11.3199 3.79C10.1799 4.1 9.3999 5 9.3999 6.3V8.47V9.93V18.87"/>
  <path d="M17.7201 19.92C19.4432 19.92 20.8401 18.5231 20.8401 16.8C20.8401 15.0769 19.4432 13.68 17.7201 13.68C15.997 13.68 14.6001 15.0769 14.6001 16.8C14.6001 18.5231 15.997 19.92 17.7201 19.92Z"/>
  <path d="M9.3999 9.51999L20.8399 6.39999"/>
  </svg>