<svg xmlns="http://www.w3.org/2000/svg" width="24" height="24" viewBox="0 0 24 24" fill="none" stroke="currentColor" stroke-width="2" stroke-linecap="round" stroke-linejoin="round">
  <path d="m10.26 13.83 5.02-1.37" />
  <path d="M10.26 17.74v-5.51c0-.57.34-.96.84-1.1l2.74-.75c.73-.2 1.44-.04 1.44 1.1v5.35" />
  <path d="M6 4.5h12" />
  <path d="M7 22c-3 0-5-1.5-5-5v-5c0-3.5 2-5 5-5h10c3 0 5 1.5 5 5v5c0 3.5-2 5-5 5z" />
  <path d="M9 2h6" />
  <circle cx="13.91" cy="16.83" r="1.37" />
  <circle cx="8.89" cy="17.74" r="1.37" />
</svg>
