<svg xmlns="http://www.w3.org/2000/svg" width="24" height="24" viewBox="0 0 24 24" fill="none" stroke="currentColor" stroke-width="2" stroke-linecap="round" stroke-linejoin="round">
  <path d="m11.66 12.4 2.9.74" />
  <path d="m12.64 8.53 4.85 1.23" />
  <path d="M15.06 19.39a10.5 10.5 0 0 1-1.62-.27l-1.68-.4c-4.17-.99-5.46-3.05-4.48-7.23l.98-4.19c.2-.85.44-1.59.74-2.2a10 10 0 0 0-1.17.31l-1.58.52C2.28 7.21 1.22 9.31 2.5 13.28l1.28 3.95c1.29 3.97 3.38 5.04 7.35 3.76l1.58-.52c.95-.31 1.73-.66 2.35-1.08" />
  <path d="M7.28 11.49c-.98 4.18.31 6.24 4.48 7.23" />
  <path d="M8.26 7.3c.2-.85.44-1.59.74-2.2 1.17-2.42 3.16-3.07 6.5-2.28l1.67.39c4.19.98 5.47 3.05 4.49 7.23l-.98 4.18c-.84 3.61-2.5 5.07-5.62 4.77a10.5 10.5 0 0 1-1.62-.27" />
</svg>
