<svg xmlns="http://www.w3.org/2000/svg" width="24" height="24" viewBox="0 0 24 24" fill="none" stroke="currentColor" stroke-width="2" stroke-linecap="round" stroke-linejoin="round">
  <path d="M12.02 2.91a6 6 0 0 0-6 6v2.89c0 .61-.26 1.54-.57 2.06L4.3 15.77c-.71 1.18-.22 2.49 1.08 2.93a21 21 0 0 0 13.27 0 2 2 0 0 0 1.08-2.93l-1.15-1.91c-.3-.52-.56-1.45-.56-2.06V8.91c0-3.3-2.7-6-6-6" />
  <path d="M13.87 3.2a6 6 0 0 0-.96-.2 6.8 6.8 0 0 0-2.74.2 2 2 0 0 1 3.7 0" />
  <path d="M15.02 19.06a3 3 0 0 1-6 0" />
</svg>
