<svg xmlns="http://www.w3.org/2000/svg" width="24" height="24" viewBox="0 0 24 24" fill="none" stroke="currentColor" stroke-width="2" stroke-linecap="round" stroke-linejoin="round">
  <path d="M12 11.7h.01" />
  <path d="M12 15.7h.01" />
  <path d="M12 19.2h.01" />
  <path d="M12 22.2h.01" />
  <path d="M12 3.2h.01" />
  <path d="M12 7.7h.01" />
  <path d="M16.2 13.7h.01" />
  <path d="M16.2 16.7h.01" />
  <path d="M16.2 19.7h.01" />
  <path d="M16.2 9.7h.01" />
  <path d="M16.25 5.5h.01" />
  <path d="M20.5 11.7h.01" />
  <path d="M20.5 14.7h.01" />
  <path d="M20.5 17.7h.01" />
  <path d="M20.5 7.7h.01" />
  <path d="M3.5 11.7h.01" />
  <path d="M3.5 14.7h.01" />
  <path d="M3.5 17.7h.01" />
  <path d="M3.5 7.7h.01" />
  <path d="M7.75 5.5h.01" />
  <path d="M7.8 13.7h.01" />
  <path d="M7.8 16.7h.01" />
  <path d="M7.8 19.7h.01" />
  <path d="M7.8 9.7h.01" />
</svg>
