<svg xmlns="http://www.w3.org/2000/svg" width="24" height="24" viewBox="0 0 24 24" fill="none" stroke="currentColor" stroke-width="2" stroke-linecap="round" stroke-linejoin="round" >
  <path d="M16.7502 9.12001L14.9002 7.27001C14.2002 6.57001 13.2402 6.61001 12.7702 7.35001L11.7402 8.98001L15.0302 12.27L16.6602 11.24C17.3702 10.8 17.4102 9.77001 16.7502 9.12001Z"/>
  <path d="M11.74 8.97999L9.34996 8.83999C8.00996 8.75999 7.54996 9.16999 7.39996 10.44L6.79996 15.51C6.66996 16.58 7.43996 17.34 8.50996 17.22L13.58 16.62C14.85 16.47 15.31 16.01 15.18 14.67L15.04 12.28"/>
  <path d="M7.49023 16.52L9.34023 14.67"/>
  <path d="M9 22H15C20 22 22 20 22 15V9C22 4 20 2 15 2H9C4 2 2 4 2 9V15C2 20 4 22 9 22Z"/>
  </svg>