<svg xmlns="http://www.w3.org/2000/svg" width="24" height="24" viewBox="0 0 24 24" fill="none" stroke="currentColor" stroke-width="2" stroke-linecap="round" stroke-linejoin="round">
  <path d="M13 13c1.7 0 3.2-.7 4.2-1.8a5.8 5.8 0 0 0 1.7-3.7A4 4 0 0 1 21 11c0 1.4-.6 2.6-1.5 3.5S17.4 16 16 16h-2.1a1 1 0 0 0-1 .8l-.7 4.3a1 1 0 0 1-1 .8h-3c-.6 0-1.1-.6-1-1.2l.2-.7c.4-.1.7-.4.7-.8l.8-5.3c.1-.5.5-.9 1-.9z" />
  <path d="M8.1 19.2c-.1.4-.3.7-.7.8H5.2a1 1 0 0 1-1-1.2L6.6 4.5C6.8 3.1 8.1 2 9.5 2H14c2.8 0 5 2.2 5 5v.5a5.83 5.83 0 0 1-1.7 3.7A6 6 0 0 1 13 13" />
  <path d="M9.9 13c-.5 0-.9.4-1 .9" />
</svg>
