<svg xmlns="http://www.w3.org/2000/svg" width="24" height="24" viewBox="0 0 24 24" fill="none" stroke="currentColor" stroke-width="2" stroke-linecap="round" stroke-linejoin="round">
  <path d="M10.52 3.56a7.67 7.67 0 0 0-6.77 7.61" />
  <path d="M12.01 11.12v2.53" />
  <path d="M13.27 22.5c.96 0 1.58-.68 1.4-1.51l-.41-1.81h-4.5l-.41 1.81c-.18.78.5 1.51 1.4 1.51z" />
  <path d="m14.26 19.17 1.73-1.54c.97-.86 1.01-1.46.24-2.43l-3.05-3.87c-.64-.81-1.69-.81-2.33 0L7.8 15.2c-.77.97-.77 1.6.24 2.43l1.73 1.54" />
  <path d="M20.25 11.17a7.674 7.674 0 0 0-6.73-7.61" />
  <rect x="10.52" y="2" width="3" height="3" rx="1" />
  <rect x="18.73" y="11.17" width="3" height="3" rx="1" />
  <rect x="2.27" y="11.17" width="3" height="3" rx="1" />
</svg>
