<svg xmlns="http://www.w3.org/2000/svg" width="24" height="24" viewBox="0 0 24 24" fill="none" stroke="currentColor" stroke-width="2" stroke-linecap="round" stroke-linejoin="round">
  <path d="M11 6.5a4.4 4.4 0 0 1-.17 1.2 4.5 4.5 0 0 1-.48 1.12 4.3 4.3 0 0 1-.89 1.06A4.43 4.43 0 0 1 6.5 11a4.3 4.3 0 0 1-1.44-.24A4.47 4.47 0 0 1 6.5 2 4.494 4.494 0 0 1 11 6.5" />
  <path d="m12.58 7.81-1.75-.11" />
  <path d="M18.01 4.86c-1.2-1.2-2.85-1.14-3.66.15l-1.77 2.8 5.67 5.67 2.8-1.77c1.21-.77 1.28-2.54.14-3.67z" />
  <path d="m18.25 13.47.24 4.12c.23 2.3-.57 3.1-2.75 3.36l-8.72 1.03c-1.84.21-3.16-1.11-2.94-2.94l.98-8.28" />
  <path d="m5.28 20.78 3.18-3.19" />
  <path d="M7.68 5.32 5.3 7.7" />
  <path d="M7.7 7.68 5.32 5.3" />
</svg>
