<svg xmlns="http://www.w3.org/2000/svg" width="24" height="24" viewBox="0 0 24 24" fill="none" stroke="currentColor" stroke-width="2" stroke-linecap="round" stroke-linejoin="round">
  <path d="M10.37 4.41a1.2 1.2 0 0 1 0-1.7l.78-.78a1.2 1.2 0 0 1 1.7 0l.78.78a1.2 1.2 0 0 1 0 1.7l-.78.78a1.2 1.2 0 0 1-1.7 0z" />
  <path d="M12.01 11.12v2.53" />
  <path d="M13.27 22.5c.96 0 1.58-.68 1.4-1.51l-.41-1.81h-4.5l-.41 1.81c-.18.78.5 1.51 1.4 1.51z" />
  <path d="m14.26 19.17 1.73-1.54c.97-.86 1.01-1.46.24-2.43l-3.05-3.87c-.64-.81-1.69-.81-2.33 0L7.8 15.2c-.77.97-.77 1.6.24 2.43l1.73 1.54" />
  <path d="m18.54 10.1-5.3-5.3" />
  <path d="m5.46 10.1 5.3-5.3" />
  <rect x="18.25" y="9.81" width="3.5" height="3.5" rx="1.204" />
  <rect x="2.25" y="9.81" width="3.5" height="3.5" rx="1.204" />
</svg>
