<svg xmlns="http://www.w3.org/2000/svg" width="24" height="24" viewBox="0 0 24 24" fill="none" stroke="currentColor" stroke-width="2" stroke-linecap="round" stroke-linejoin="round">
  <path d="M18.5 9c0-.6-.47-1.52-1.17-2.27-.64-.69-1.49-1.23-2.33-1.23" />
  <path d="M21.97 18.33a2.55 2.55 0 0 1-.25 1.09 4.1 4.1 0 0 1-.68 1.02 4.5 4.5 0 0 1-1.64 1.18 5 5 0 0 1-1.95.38c-1.02 0-2.11-.24-3.26-.73a17.6 17.6 0 0 1-3.44-1.98 29 29 0 0 1-3.28-2.8 28.4 28.4 0 0 1-2.79-3.27c-.82-1.14-1.48-2.28-1.96-3.41Q2 8.1 2 6.54a5.2 5.2 0 0 1 .36-1.93 4.6 4.6 0 0 1 1.15-1.67C4.15 2.31 4.85 2 5.59 2a1.9 1.9 0 0 1 .81.18 1.63 1.63 0 0 1 .67.56l2.32 3.27a3.4 3.4 0 0 1 .4.7 1.6 1.6 0 0 1 .14.61 1.36 1.36 0 0 1-.21.71 3.4 3.4 0 0 1-.56.71l-.76.79a.54.54 0 0 0-.16.4 1 1 0 0 0 .03.23l.08.2c.18.33.49.76.93 1.28a34 34 0 0 0 1.45 1.58 30 30 0 0 0 1.59 1.47c.52.44.95.74 1.29.92l.18.08a.7.7 0 0 0 .25.04.55.55 0 0 0 .41-.17l.76-.75a3 3 0 0 1 .72-.56 1.33 1.33 0 0 1 .71-.21 1.6 1.6 0 0 1 .61.13 4 4 0 0 1 .7.39l3.31 2.35a1.5 1.5 0 0 1 .55.64 2 2 0 0 1 .16.78" />
  <path d="M22 9a7 7 0 0 0-7-7" />
</svg>
