<svg xmlns="http://www.w3.org/2000/svg" width="24" height="24" viewBox="0 0 24 24" fill="none" stroke="currentColor" stroke-width="2" stroke-linecap="round" stroke-linejoin="round">
  <path d="M10.32 18.97a16 16 0 0 0 .43.32 17.6 17.6 0 0 0 3.44 1.98c1.15.49 2.24.73 3.26.73a5 5 0 0 0 1.95-.38 4.5 4.5 0 0 0 1.64-1.18 4.1 4.1 0 0 0 .68-1.02 2.55 2.55 0 0 0 .25-1.09 2 2 0 0 0-.16-.78 1.5 1.5 0 0 0-.55-.64l-3.31-2.35a4 4 0 0 0-.7-.39 1.6 1.6 0 0 0-.61-.13 1.33 1.33 0 0 0-.71.21 3 3 0 0 0-.72.56l-.76.75a.55.55 0 0 1-.41.17.7.7 0 0 1-.25-.04l-.18-.08a5 5 0 0 1-.65-.42" />
  <path d="M10.73 13.22a34 34 0 0 1-1.45-1.58c-.44-.52-.75-.95-.93-1.28l-.08-.2a1 1 0 0 1-.03-.23.54.54 0 0 1 .16-.4l.76-.79a3.4 3.4 0 0 0 .56-.71 1.36 1.36 0 0 0 .21-.71 1.6 1.6 0 0 0-.14-.61 3.4 3.4 0 0 0-.4-.7L7.07 2.74a1.63 1.63 0 0 0-.67-.56A1.9 1.9 0 0 0 5.59 2c-.74 0-1.44.31-2.08.94a4.6 4.6 0 0 0-1.15 1.67A5.2 5.2 0 0 0 2 6.54q0 1.56.72 3.27c.48 1.13 1.14 2.27 1.96 3.41a28.4 28.4 0 0 0 2.79 3.27" />
  <path d="M22 2 2 22" />
</svg>
