<svg xmlns="http://www.w3.org/2000/svg" width="24" height="24" viewBox="0 0 24 24" fill="none" stroke="currentColor" stroke-width="2" stroke-linecap="round" stroke-linejoin="round">
  <path d="M19.07 19.07a10 10 0 0 0 0-14.14" />
  <path d="M4.93 4.93a10 10 0 0 0 0 14.14" />
  <path d="M8.7 2.59a10 10 0 0 1 6.6 0" />
  <path d="M8.7 21.41a10 10 0 0 0 3.3.55 10.3 10.3 0 0 0 3.3-.55" />
  <path d="M8.74 10.33c0-2.08 1.47-2.93 3.27-1.89l2.9 1.68c1.8 1.04 1.8 2.74 0 3.78l-2.9 1.68c-1.8 1.04-3.27.19-3.27-1.89z" />
</svg>
