<svg xmlns="http://www.w3.org/2000/svg" width="24" height="24" viewBox="0 0 24 24" fill="none" stroke="currentColor" stroke-width="2" stroke-linecap="round" stroke-linejoin="round">
  <path d="M10 4.85h.01" />
  <path d="M12 7.6H3.9c-.8 0-1.5.6-1.7 1.4a20.1 20.1 0 0 0 0 6c.1.8.8 1.4 1.7 1.4h3.7" />
  <path d="M14 19.15h.01" />
  <path d="M16.4 7.6h3.7c.8 0 1.5.6 1.7 1.4a20.1 20.1 0 0 1 0 6c-.1.8-.8 1.4-1.7 1.4H12" />
  <path d="M7.6 7.6V3.9c0-.8.6-1.5 1.4-1.7a20.1 20.1 0 0 1 6 0c.8.1 1.4.8 1.4 1.7v5.9a2.22 2.22 0 0 1-2.2 2.2H9.8a2.22 2.22 0 0 0-2.2 2.2v5.9c0 .8.6 1.5 1.4 1.7a20.1 20.1 0 0 0 6 0c.8-.1 1.4-.8 1.4-1.7v-3.7" />
</svg>
