<svg xmlns="http://www.w3.org/2000/svg" width="24" height="24" viewBox="0 0 24 24" fill="none" stroke="currentColor" stroke-width="2" stroke-linecap="round" stroke-linejoin="round">
  <path d="M13.63 12.35c0-6.05 1.13-7.05 4.53-9.07" />
  <path d="M13.63 12.35h5.8c1.53 0 2.58 1.16 2.58 2.58v3.22c0 1.42-1.05 2.58-2.58 2.58h-3.22a2.586 2.586 0 0 1-2.58-2.58z" />
  <path d="M2 12.35C2 6.3 3.13 5.3 6.53 3.28" />
  <path d="M2 12.35h5.8c1.53 0 2.58 1.16 2.58 2.58v3.22c0 1.42-1.05 2.58-2.58 2.58H4.58A2.586 2.586 0 0 1 2 18.15z" />
</svg>
