<svg xmlns="http://www.w3.org/2000/svg" width="24" height="24" viewBox="0 0 24 24" fill="none" stroke="currentColor" stroke-width="2" stroke-linecap="round" stroke-linejoin="round">
  <path d="M20 16.96c0 1.52-.14 2.6-.5 3.37a1 1 0 0 1-.87.46c-.53 0-1.17-.35-1.86-1.09-.82-.88-2.08-.81-2.8.15l-1.01 1.34c-.4.54-.93.81-1.46.81s-1.06-.27-1.46-.81l-1.02-1.35c-.71-.95-1.96-1.02-2.78-.15-1.14 1.22-2.14 1.4-2.72.68-.38-.81-.52-1.89-.52-3.41V7.04c0-1.52.14-2.6.5-3.37.59-.76 1.6-.58 2.73.63.83.88 2.08.81 2.79-.14l1.02-1.35c.4-.54.93-.81 1.46-.81s1.06.27 1.46.81l1.01 1.34c.72.96 1.98 1.03 2.8.15.69-.74 1.33-1.09 1.86-1.09a1 1 0 0 1 .85.43c.38.8.52 1.88.52 3.4z" />
  <path d="M8 10.25h8" />
  <path d="M8 13.75h6" />
</svg>
