<svg xmlns="http://www.w3.org/2000/svg" width="24" height="24" viewBox="0 0 24 24" fill="none" stroke="currentColor" stroke-width="2" stroke-linecap="round" stroke-linejoin="round">
  <path d="M.75 7.75a7 7 0 0 1 7-7L6.7 2.5" />
  <path d="M10.17 8.15c2.27 0 3.18.91 3.18 3.18v2.73c0 2.28-.91 3.19-3.19 3.19H7.44c-2.27 0-3.19-.91-3.19-3.19v-2.73c0-2.27.91-3.18 3.19-3.18z" />
  <path d="M20.75 13.75a7 7 0 0 1-7 7L14.8 19" />
  <path d="M8.15 8.15v-.72c0-2.28.91-3.18 3.19-3.18h2.73c2.27 0 3.18.91 3.18 3.18v2.73c0 2.28-.91 3.19-3.19 3.19h-.71v-2.02c0-2.27-.91-3.18-3.19-3.18" />
</svg>
