<svg xmlns="http://www.w3.org/2000/svg" width="24" height="24" viewBox="0 0 24 24" fill="none" stroke="currentColor" stroke-width="2" stroke-linecap="round" stroke-linejoin="round">
  <path d="M12.72 5a7.8 7.8 0 0 1 1.69.18 2.5 2.5 0 1 0-4.82 0A7.7 7.7 0 0 1 11.27 5za7.8 7.8 0 0 1 1.69.18A8 8 0 0 1 20.72 13v4" />
  <path d="M15 11H9" />
  <path d="M3.27 17v-4a8 8 0 0 1 6.32-7.82A7.7 7.7 0 0 1 11.27 5" />
  <path d="M4.97 22c-3 0-3-1.35-3-3v-1a1 1 0 0 1 1-1h18a1 1 0 0 1 1 1v1c0 1.65 0 3-3 3z" />
</svg>
