<svg xmlns="http://www.w3.org/2000/svg" width="24" height="24" viewBox="0 0 24 24" fill="none" stroke="currentColor" stroke-width="2" stroke-linecap="round" stroke-linejoin="round">
  <path d="M11.47 10h3" />
  <path d="m11.47 13.95 5 .05" />
  <path d="M11.47 18h4" />
  <path d="M11.47 6h5" />
  <path d="M21.47 5q0-3-3-3h-4q-3 0-3 3v14q0 3 3 3h4q3 0 3-3z" />
  <path d="M8.44 4.95a3 3 0 0 0-5.91 0v12.96c0 .45.19 1.13.42 1.52l.82 1.36c.94 1.57 2.49 1.57 3.43 0l.82-1.36c.23-.39.42-1.07.42-1.52z" />
  <path d="M8.44 7H2.53" />
</svg>
