<svg xmlns="http://www.w3.org/2000/svg" width="24" height="24" viewBox="0 0 24 24" fill="none" stroke="currentColor" stroke-width="2" stroke-linecap="round" stroke-linejoin="round">
  <path d="M16 8.99v11.36c0 1.45-1.04 2.06-2.31 1.36" />
  <path d="M4.31 21.71c-1.27.7-2.31.09-2.31-1.36" />
  <path d="M4.31 21.71C3.04 22.42 2 21.8 2 20.35V8.99a3.12 3.12 0 0 1 3.11-3.11h7.78A3.12 3.12 0 0 1 16 8.99a3.12 3.12 0 0 0-3.11-3.11 3.105 3.105 0 0 1 3.1 3.11v11.36c0 1.45-1.04 2.07-2.31 1.36l-3.93-2.19c-.41-.23-1.09-.23-1.51 0z" />
  <path d="M5.11 5.88A3.12 3.12 0 0 0 2 8.99" />
  <path d="M8 5.88v-.77A3.12 3.12 0 0 1 11.11 2h7.78A3.12 3.12 0 0 1 22 5.11v11.36c0 1.45-1.04 2.06-2.31 1.36L16 15.77" />
  <path d="M9.76 19.52a1.62 1.62 0 0 0-1.52 0" />
</svg>
