<svg xmlns="http://www.w3.org/2000/svg" width="24" height="24" viewBox="0 0 24 24" fill="none" stroke="currentColor" stroke-width="2" stroke-linecap="round" stroke-linejoin="round">
  <path d="M10.5 17A2 2 0 0 1 9 18.5H7A2 2 0 0 1 5.5 17v-2A2 2 0 0 1 7 13.5h2a2 2 0 0 1 1.5 1.5z" />
  <path d="M10.5 9A2 2 0 0 1 9 10.5H7A2 2 0 0 1 5.5 9V7A2 2 0 0 1 7 5.5h2A2 2 0 0 1 10.5 7z" />
  <path d="M15 2h2.5A4.494 4.494 0 0 1 22 6.5V9" />
  <path d="M18.5 17a2 2 0 0 1-1.5 1.5h-2a2 2 0 0 1-1.5-1.5v-2a2 2 0 0 1 1.5-1.5h2a2 2 0 0 1 1.5 1.5z" />
  <path d="M18.5 9a2 2 0 0 1-1.5 1.5h-2A2 2 0 0 1 13.5 9V7A2 2 0 0 1 15 5.5h2A2 2 0 0 1 18.5 7z" />
  <path d="M2 9V6.5A4.494 4.494 0 0 1 6.5 2H9" />
  <path d="M22 16v1.5a4.494 4.494 0 0 1-4.5 4.5H16" />
  <path d="M9 22H6.5A4.494 4.494 0 0 1 2 17.5V15" />
</svg>
