<svg xmlns="http://www.w3.org/2000/svg" width="24" height="24" viewBox="0 0 24 24" fill="none" stroke="currentColor" stroke-width="2" stroke-linecap="round" stroke-linejoin="round">
  <path d="M10.01 13.72c-.96.64-.96 1.69 0 2.33 1.09.73 2.88.73 3.97 0 .96-.64.96-1.69 0-2.33-1.08-.73-2.87-.73-3.97 0" />
  <path d="M11.87 10.92a1.756 1.756 0 1 1 .13 0z" />
  <path d="M5.5 4.1c-1.15.43-2.09 1.79-2.09 3.02v7.43c0 1.18.78 2.73 1.73 3.44l4.3 3.21c1.41 1.06 3.73 1.06 5.14 0l4.3-3.21c.95-.71 1.73-2.26 1.73-3.44V7.12c0-1.23-.94-2.59-2.09-3.02l-4.99-1.87c-.85-.31-2.21-.31-3.04 0z" />
</svg>
