<svg xmlns="http://www.w3.org/2000/svg" width="24" height="24" viewBox="0 0 24 24" fill="none" stroke="currentColor" stroke-width="2" stroke-linecap="round" stroke-linejoin="round">
  <path d="M11.32 15.26h1.33" />
  <path d="M14.75 15.26h3.27" />
  <path d="M17.66 17.75h-5.92c-2.35 0-2.94-.59-2.95-2.89V9.43c0-2.11.48-2.78 2.33-2.89l7.91-.01c-.25-1.02-1.06-2.02-2.01-2.38l-4.97-1.87c-.82-.31-2.18-.31-3 0L4.07 4.15C2.93 4.58 2 5.93 2 7.15v7.41c0 1.17.77 2.72 1.71 3.42l4.28 3.2c1.42 1.05 3.72 1.05 5.13 0l4.27-3.2z" />
  <path d="M22 9.42c0-2.32-.59-2.9-2.94-2.91l-7.93.01c-1.85.12-2.33.79-2.33 2.89v5.43c0 2.31.59 2.9 2.94 2.9h7.32c2.31 0 2.92-.55 2.94-2.77z" />
  <path d="M8.8 11.22H22" />
</svg>
