<svg xmlns="http://www.w3.org/2000/svg" width="24" height="24" viewBox="0 0 24 24" fill="none" stroke="currentColor" stroke-width="2" stroke-linecap="round" stroke-linejoin="round">
  <path d="M2 11.12a2 2 0 0 1 1.9-1.9c1.81 0 2.55-1.28 1.64-2.85a1.9 1.9 0 0 1 .7-2.59l1.73-.99c.79-.47 1.81-.19 2.28.6l.11.19c.9 1.57 2.38 1.57 3.29 0l.11-.19c.47-.79 1.49-1.07 2.28-.6l1.73.99a1.9 1.9 0 0 1 .7 2.59c-.91 1.57-.17 2.85 1.64 2.85a2 2 0 0 1 1.9 1.9v1.76a2 2 0 0 1-1.9 1.9c-1.81 0-2.55 1.28-1.64 2.85a1.897 1.897 0 0 1-.7 2.59l-1.73.99c-.79.47-1.81.19-2.28-.6l-.11-.19c-.9-1.57-2.38-1.57-3.29 0l-.11.19c-.47.79-1.49 1.07-2.28.6l-1.73-.99a1.9 1.9 0 0 1-.7-2.59c.91-1.57.17-2.85-1.64-2.85a2 2 0 0 1-1.9-1.9z" />
  <circle cx="12" cy="12" r="3" />
</svg>
