<svg xmlns="http://www.w3.org/2000/svg" width="24" height="24" viewBox="0 0 24 24" fill="none" stroke="currentColor" stroke-width="2" stroke-linecap="round" stroke-linejoin="round">
  <path d="M12 22V10" />
  <path d="M13.49 9.59a4 4 0 0 0-2.98 0l-6.93 2.78c-.87.35-1.41 1.38-1.21 2.29l.41 1.86C3.49 19.72 6 22 9.62 22h4.76c3.62 0 6.13-2.28 6.84-5.48l.41-1.86c.2-.91-.34-1.94-1.21-2.29z" />
  <path d="M5 11.8V8a3 3 0 0 1 3-3h8a3 3 0 0 1 3 3v3.8" />
  <path d="M9.5 5V3a1 1 0 0 1 1-1h3a1 1 0 0 1 1 1v2" />
</svg>
