<svg xmlns="http://www.w3.org/2000/svg" width="24" height="24" viewBox="0 0 24 24" fill="none" stroke="currentColor" stroke-width="2" stroke-linecap="round" stroke-linejoin="round">
  <path d="m14.3 2 .7 7.01c.17 1.65 1.66 2.99 3.31 2.99 2.02 0 3.5-1.64 3.3-3.65l-.28-2.75C20.97 3 19.97 2 17.35 2H9.67l-.73 7.01C8.78 10.66 7.29 12 5.64 12c-2.02 0-3.5-1.64-3.3-3.65l.27-2.75C2.97 3 3.97 2 6.59 2h3.05l-.48 4.8" />
  <path d="M14.5 22v-2.5c0-1.67-.83-2.5-2.5-2.5s-2.5.83-2.5 2.5V22" />
  <path d="M3.01 11.22v4.49C3.01 20.2 4.81 22 9.3 22h5.39c4.49 0 6.29-1.8 6.29-6.29v-4.49" />
  <path d="M9.67 2 9 8.68C8.82 10.51 10.17 12 12 12s3.18-1.49 3-3.32L14.34 2" />
</svg>
