<svg xmlns="http://www.w3.org/2000/svg" width="24" height="24" viewBox="0 0 24 24" fill="none" stroke="currentColor" stroke-width="2" stroke-linecap="round" stroke-linejoin="round">
  <path d="m14.32 2 .7 7.01c.18 1.65 1.66 2.99 3.31 2.99 2.02 0 3.5-1.64 3.3-3.65l-.28-2.75C20.99 3 19.99 2 17.37 2H9.69l-.72 7.01C8.81 10.66 7.32 12 5.67 12c-2.02 0-3.51-1.64-3.31-3.65l.28-2.75C3 3 4 2 6.62 2h3.05l-.48 4.8" />
  <path d="M21.01 11.22v4.49c0 4.49-1.79 6.29-6.29 6.29H9.33c-.58 0-1.11-.03-1.6-.1" />
  <path d="M3.04 15.52v-4.3" />
  <path d="M5 17.52v2.99" />
  <path d="M6.49 18.98H3.51" />
  <path d="M9 19c0 .75-.21 1.46-.58 2.06-.19.32-.42.61-.69.84-.03.04-.06.07-.1.1-.7.63-1.62 1-2.63 1-1.22 0-2.31-.55-3.03-1.41-.02-.03-.05-.05-.07-.08-.12-.14-.23-.29-.32-.45A3.9 3.9 0 0 1 1 19c0-1.26.58-2.39 1.5-3.12q.255-.21.54-.36C3.62 15.19 4.29 15 5 15c1 0 1.9.36 2.6.97.12.09.23.2.33.31C8.59 17 9 17.95 9 19" />
  <path d="m9.69 2-.67 6.68C8.84 10.51 10.2 12 12.03 12s3.18-1.49 3-3.32L14.36 2" />
</svg>
