<svg xmlns="http://www.w3.org/2000/svg" width="24" height="24" viewBox="0 0 24 24" fill="none" stroke="currentColor" stroke-width="2" stroke-linecap="round" stroke-linejoin="round" >
  <path d="M8 2.8C9.2 2.3 10.6 2 12 2C17.5 2 22 6.5 22 12C22 17.5 17.5 22 12 22C6.5 22 2 17.5 2 12C2 10.6 2.3 9.2 2.8 8" stroke-miterlimit="10"/>
  <path d="M15.9996 16.2V12C15.9996 9.69999 14.0996 7.79999 11.7996 7.79999C9.49961 7.79999 7.59961 9.69999 7.59961 12C7.59961 14.3 9.49961 16.2 11.7996 16.2H15.9996Z" stroke-miterlimit="10"/>
  <path d="M5 6.5C5.82843 6.5 6.5 5.82843 6.5 5C6.5 4.17157 5.82843 3.5 5 3.5C4.17157 3.5 3.5 4.17157 3.5 5C3.5 5.82843 4.17157 6.5 5 6.5Z" stroke-miterlimit="10"/>
  </svg>