<svg xmlns="http://www.w3.org/2000/svg" width="24" height="24" viewBox="0 0 24 24" fill="none" stroke="currentColor" stroke-width="2" stroke-linecap="round" stroke-linejoin="round">
  <path d="M14.86 9.94A3.9 3.9 0 0 1 16 12.69a3.9 3.9 0 0 0-1.14-2.75l-2.39-2.38a3.9 3.9 0 0 0-2.75-1.14H5.89C3.56 6.42 2 7.97 2 10.31v7.77c0 2.34 1.56 3.89 3.89 3.89h6.22c2.33 0 3.89-1.55 3.89-3.89v-5.39" />
  <path d="M8 6.42v-.56c0-2.33 1.56-3.89 3.89-3.89h3.83a3.9 3.9 0 0 1 2.75 1.14l2.39 2.39A3.9 3.9 0 0 1 22 8.25v5.39c0 2.33-1.56 3.89-3.89 3.89H16" />
  <path d="M9.72 6.42a3.9 3.9 0 0 1 2.75 1.14" />
</svg>
