<svg xmlns="http://www.w3.org/2000/svg" width="24" height="24" viewBox="0 0 24 24" fill="none" stroke="currentColor" stroke-width="2" stroke-linecap="round" stroke-linejoin="round">
  <path d="M10.4 5.2V3.6a1.58 1.58 0 1 0-1.6 1.6z" />
  <path d="M13.6 18.8v1.6a1.58 1.58 0 1 0 1.6-1.6z" />
  <path d="M14.5 2.3a1.9 1.9 0 0 0-1.9 1.9v4.6a1 1 0 0 0 3.8 0V4.1c0-1-.8-1.8-1.9-1.8" />
  <path d="M18.6 10.6h1.6A1.58 1.58 0 1 0 18.6 9z" />
  <path d="M2 9.2a1.9 1.9 0 0 0 1.9 1.9h4.6a1 1 0 0 0 0-3.8H3.9C2.8 7.4 2 8.2 2 9.2" />
  <path d="M22 14.8a1.9 1.9 0 0 0-1.9-1.9h-4.6a1 1 0 0 0 0 3.8h4.6a2 2 0 0 0 1.9-1.9" />
  <path d="M5.4 13.4H3.8A1.58 1.58 0 1 0 5.4 15z" />
  <path d="M9.4 21.8a1.9 1.9 0 0 0 1.9-1.9v-4.6a1 1 0 0 0-3.8 0v4.6c.1 1 .9 1.9 1.9 1.9" />
</svg>
