<svg xmlns="http://www.w3.org/2000/svg" width="24" height="24" viewBox="0 0 24 24" fill="none" stroke="currentColor" stroke-width="2" stroke-linecap="round" stroke-linejoin="round">
  <path d="M22 15.33c0 2.67-.67 3.34-3.33 3.34h-.34a6 6 0 0 1-.42-.01c.07-.49.09-1.04.09-1.66V7c0-.62-.02-1.17-.09-1.66a6 6 0 0 1 .42-.01h.34C21.33 5.33 22 6 22 8.67z" />
  <path d="M6 17c0 .62.02 1.17.09 1.66a6 6 0 0 1-.42.01h-.34C2.67 18.67 2 18 2 15.33V8.67C2 6 2.67 5.33 5.33 5.33h.34a6 6 0 0 1 .42.01C6.02 5.83 6 6.38 6 7zc0 .62.02 1.17.09 1.66C6.38 21.29 7.62 22 11 22h2c3.38 0 4.62-.71 4.91-3.34.07-.49.09-1.04.09-1.66V7c0-.62-.02-1.17-.09-1.66C17.62 2.71 16.38 2 13 2h-2c-3.38 0-4.62.71-4.91 3.34C6.02 5.83 6 6.38 6 7" />
</svg>
