<svg xmlns="http://www.w3.org/2000/svg" width="24" height="24" viewBox="0 0 24 24" fill="none" stroke="currentColor" stroke-width="2" stroke-linecap="round" stroke-linejoin="round" >
  <path d="M11.4003 21.8101H17.6003C19.0303 21.8101 20.4003 20.65 20.6403 19.24L21.9703 11.28C22.1303 10.3 21.6303 8.99002 20.8603 8.37002L13.9303 2.82998C12.8603 1.96998 11.1303 1.96997 10.0703 2.81997L3.14028 8.37002C2.36028 8.99002 1.86026 10.3 2.03026 11.28L2.31026 12.96"/>
  <path d="M2 19C3.76 19.04 4.96 20.24 5 22"/>
  <path d="M8 22C7.99 21.24 7.86 20.53 7.63 19.88C7.04 18.21 5.78 16.96 4.12 16.37C3.47 16.14 2.76 16.01 2 16"/>
  <path d="M1.9955 22H2.0045"/>
  </svg>