<svg xmlns="http://www.w3.org/2000/svg" width="24" height="24" viewBox="0 0 24 24" fill="none" stroke="currentColor" stroke-width="2" stroke-linecap="round" stroke-linejoin="round">
  <path d="M10.96 5.87a1.53 1.53 0 0 0-1.76.02" />
  <path d="M14 10c-2.79.05-3.95 1.21-4 4H6.2C3.2 14 2 12.8 2 9.8V6.2C2 3.2 3.2 2 6.2 2h3.6c3 0 4.2 1.2 4.2 4.2z" />
  <path d="M14.96 13.62a1.53 1.53 0 0 1-1.76-.02" />
  <path d="M18.16 16.18a.54.54 0 0 1 .54.54 1 1 0 1 1-5.4 0 .54.54 0 0 1 .54-.54z" />
  <path d="M18.96 13.62a1.53 1.53 0 0 1-1.76-.02" />
  <path d="M22 17.8c0 3-1.2 4.2-4.2 4.2h-3.6c-3 0-4.2-1.2-4.2-4.2V14c.05-2.79 1.21-3.95 4-4h3.8c3 0 4.2 1.2 4.2 4.2z" />
  <path d="M6.96 5.87a1.53 1.53 0 0 0-1.76.02" />
  <path d="M8.16 11.42H5.84a.54.54 0 0 1-.54-.54 2.7 2.7 0 0 1 4.39-2.11" />
</svg>
