<svg xmlns="http://www.w3.org/2000/svg" width="24" height="24" viewBox="0 0 24 24" fill="none" stroke="currentColor" stroke-width="2" stroke-linecap="round" stroke-linejoin="round">
  <path d="M18.5 10a1 1 0 0 1 .8.4l1.5 2A1 1 0 0 1 20 14H5.5a1 1 0 0 1-.8-.4l-1.5-2A1 1 0 0 1 4 10z" />
  <path d="M5.5 16.5a1 1 0 0 0-.8.4l-1.5 2a1 1 0 0 0 .8 1.6h14.5a1 1 0 0 0 .8-.4l1.5-2a1 1 0 0 0-.8-1.6z" />
  <path d="M5.5 3.5a1 1 0 0 0-.8.4l-1.5 2A1 1 0 0 0 4 7.5h14.5a1 1 0 0 0 .8-.4l1.5-2a1 1 0 0 0-.8-1.6z" />
</svg>
