<svg
  xmlns="http://www.w3.org/2000/svg"
  width="24"
  height="24"
  viewBox="0 0 24 24"
  fill="none"
  stroke="currentColor"
  stroke-width="2"
  stroke-linecap="round"
  stroke-linejoin="round"
>
  <path d="M12 18.5C15.5899 18.5 18.5 15.5899 18.5 12C18.5 8.41015 15.5899 5.5 12 5.5C8.41015 5.5 5.5 8.41015 5.5 12C5.5 15.5899 8.41015 18.5 12 18.5Z" />
  <path d="M12 2.08V2V2.08Z" />
  <path d="M12 22V21.92V22Z" />
  <path d="M19.01 4.99L19.14 4.86L19.01 4.99Z" />
  <path d="M19.14 19.14L19.01 19.01" />
  <path d="M2.08 12H2H2.08Z" />
  <path d="M22 12H21.92H22Z" />
  <path d="M4.86 19.14L4.99 19.01L4.86 19.14Z" />
  <path d="M4.99 4.99L4.86 4.86L4.99 4.99Z" />
</svg>