<svg xmlns="http://www.w3.org/2000/svg" width="24" height="24" viewBox="0 0 24 24" fill="none" stroke="currentColor" stroke-width="2" stroke-linecap="round" stroke-linejoin="round">
  <path d="M11.92 8.95a1.945 1.945 0 1 1 .15 0z" />
  <path d="M17.24 18.86a3 3 0 0 0-2.12.87l-1.71 1.69a2 2 0 0 1-2.83 0l-1.71-1.69a3 3 0 0 0-2.12-.87H6a3 3 0 0 1-3-2.97V4.97A3 3 0 0 1 6 2h12a3 3 0 0 1 3 2.97v10.91a3 3 0 0 1-3 2.98z" />
  <path d="M9.25 11.96c-1.33.89-1.33 2.34 0 3.23 1.51 1.01 3.99 1.01 5.5 0 1.33-.89 1.33-2.34 0-3.23-1.51-1-3.98-1-5.5 0" />
</svg>
