<svg xmlns="http://www.w3.org/2000/svg" width="24" height="24" viewBox="0 0 24 24" fill="none" stroke="currentColor" stroke-width="2" stroke-linecap="round" stroke-linejoin="round">
  <path d="M14.34 13.16a2.24 2.24 0 0 0-1.23 1.99v5.72a1.11 1.11 0 0 0 1.61.99l6.05-3.03A2.24 2.24 0 0 0 22 16.84v-5.72a1.11 1.11 0 0 0-1.61-.99z" />
  <path d="M19.43 5.77a1.113 1.113 0 0 1 0 1.99l-6.51 3.51a2 2 0 0 1-1.84 0L4.57 7.76a1.113 1.113 0 0 1 0-1.99l6.51-3.51a2 2 0 0 1 1.84 0z" />
  <path d="M9.66 13.16a2.24 2.24 0 0 1 1.23 1.99v5.72a1.11 1.11 0 0 1-1.61.99l-6.05-3.03A2.24 2.24 0 0 1 2 16.84v-5.72a1.11 1.11 0 0 1 1.61-.99z" />
</svg>
