<svg xmlns="http://www.w3.org/2000/svg" width="24" height="24" viewBox="0 0 24 24" fill="none" stroke="currentColor" stroke-width="2" stroke-linecap="round" stroke-linejoin="round">
  <path d="M15.645 10.58a.43.43 0 0 0 .31.23l1.38.2a.416.416 0 0 1 .23.71l-1 .97a.41.41 0 0 0-.12.37l.24 1.37a.415.415 0 0 1-.6.44l-1.23-.65a.45.45 0 0 0-.39 0l-1.23.65a.413.413 0 0 1-.6-.44l.24-1.37a.42.42 0 0 0-.12-.37l-.99-.97a.416.416 0 0 1 .23-.71l1.38-.2a.39.39 0 0 0 .31-.23l.61-1.25a.403.403 0 0 1 .73 0z" />
  <path d="M6.995 4c-3.83 0-4.9.92-4.99 4.5a1 1 0 0 1 0 7c.09 3.58 1.16 4.5 4.99 4.5h10c4 0 5-1 5-5V9c0-4-1-5-5-5z" />
  <path d="M8.993 16.5V20" />
  <path d="M8.993 4v3.5" />
</svg>
