<svg xmlns="http://www.w3.org/2000/svg" width="24" height="24" viewBox="0 0 24 24" fill="none" stroke="currentColor" stroke-width="2" stroke-linecap="round" stroke-linejoin="round">
  <path d="M16.04 13.76V8.05a.58.58 0 0 0-1.08-.31 175 175 0 0 0-2.18 3.64.64.64 0 0 0 .55.94H17" />
  <path d="M17.24 18.86a3 3 0 0 0-2.12.87l-1.71 1.69a2 2 0 0 1-2.83 0l-1.71-1.69a3 3 0 0 0-2.12-.87H6a3 3 0 0 1-3-2.97V4.98a3 3 0 0 1 3-2.97h12a3 3 0 0 1 3 2.97v10.91a3 3 0 0 1-3 2.97z" />
  <path d="M7 9.16a1.694 1.694 0 0 1 3.38 0c0 1.88-2.67 2.08-3.26 3.87-.12.37.19.74.58.74h2.68" />
</svg>
