<svg xmlns="http://www.w3.org/2000/svg" width="24" height="24" viewBox="0 0 24 24" fill="none" stroke="currentColor" stroke-width="2" stroke-linecap="round" stroke-linejoin="round">
  <path d="M14 10.5v4.9" />
  <path d="m14 5.7-2.6-1.3a2.48 2.48 0 0 0-1.7 0L3.2 7.5c-.7.3-1.1 1-1.1 1.8v7.5c0 .8.4 1.5 1.1 1.8l6.5 3.1a2.48 2.48 0 0 0 1.7 0l6.5-3.1c.7-.3 1.1-1 1.1-1.8V9.9c-.3.1-.6.1-1 .1a4 4 0 0 1-4-4zc.2-2 1.9-3.7 4-3.7a4 4 0 0 1 4 4c0 1.9-1.3 3.4-3 3.9-.3.1-.6.1-1 .1a4 4 0 0 1-4-4" />
  <path d="M18 5.5c-.3 0-.4-.1-.4-.4s.2-.4.4-.4.4.1.4.4-.1.4-.4.4" />
  <path d="M18 6.3c.3 0 .6.1.6.5 0 .3-.2.5-.6.5s-.6-.2-.6-.5c0-.4.5-.5.6-.5" />
  <path d="M19.1 5.9c.2-.2.4-.5.4-.8 0-.8-.6-1.3-1.5-1.3s-1.5.5-1.5 1.3a1 1 0 0 0 .4.8c-.3.2-.5.6-.5 1 0 .8.6 1.3 1.6 1.3s1.6-.5 1.6-1.3c0-.4-.2-.8-.5-1" />
  <path d="M7 10.5v3a2 2 0 0 0 4 0v-3" />
</svg>
