<svg xmlns="http://www.w3.org/2000/svg" width="24" height="24" viewBox="0 0 24 24" fill="none" stroke="currentColor" stroke-width="2" stroke-linecap="round" stroke-linejoin="round">
  <path d="M12 7.8v8.4" />
  <path d="M16.9 16.9c2.7-2.7 2.7-7.2 0-9.9" />
  <path d="M7.1 7.1c-2.7 2.7-2.7 7.2 0 9.9" />
  <path d="M9.7 13.6a1.58 1.58 0 0 0 1.6 1.6H13c.7 0 1.4-.6 1.4-1.4 0-.9-.4-1.2-.9-1.4l-2.8-1c-.7-.1-1-.4-1-1.2a1.367 1.367 0 0 1 1.4-1.4h1.8a1.58 1.58 0 0 1 1.6 1.6" />
  <circle cx="12" cy="12" r="10" />
</svg>
