<svg xmlns="http://www.w3.org/2000/svg" width="24" height="24" viewBox="0 0 24 24" fill="none" stroke="currentColor" stroke-width="2" stroke-linecap="round" stroke-linejoin="round">
  <path d="M15.67 19.28a1.23 1.23 0 0 0-.3.59l-.19 1.35c-.07.49.27.83.76.76l1.35-.19a1.2 1.2 0 0 0 .59-.3l3.54-3.54c.61-.61.9-1.32 0-2.22-.89-.89-1.6-.6-2.21.01z" />
  <path d="M18.7 16.25a3.19 3.19 0 0 0 2.22 2.22" />
  <path d="M3.41 22c0-3.87 3.85-7 8.59-7a10.3 10.3 0 0 1 2.97.43" />
  <circle cx="12" cy="7" r="5" />
</svg>
