<svg xmlns="http://www.w3.org/2000/svg" width="24" height="24" viewBox="0 0 24 24" fill="none" stroke="currentColor" stroke-width="2" stroke-linecap="round" stroke-linejoin="round">
  <path d="M16.65 20.2c0-2.33-2.32-4.23-5.19-4.23s-5.19 1.89-5.19 4.23" />
  <path d="M19 3.52v2.99" />
  <path d="M20.49 4.98h-2.98" />
  <path d="M21 12.5a9.496 9.496 0 1 1-5.8-8.76 4 4 0 0 0 .38 3.32 3.7 3.7 0 0 0 .76.91A4 4 0 0 0 19 9a3.7 3.7 0 0 0 1.25-.21A9.6 9.6 0 0 1 21 12.5" />
  <path d="M23 5a3.6 3.6 0 0 1-.12.93 3.7 3.7 0 0 1-.46 1.13 3.9 3.9 0 0 1-2.17 1.73A3.7 3.7 0 0 1 19 9a4 4 0 0 1-2.66-1.03 3.7 3.7 0 0 1-.76-.91A4 4 0 0 1 19 1a4 4 0 0 1 4 4" />
  <circle cx="11.46" cy="10.92" r="2.81" />
</svg>
