<svg xmlns="http://www.w3.org/2000/svg" width="24" height="24" viewBox="0 0 24 24" fill="none" stroke="currentColor" stroke-width="2" stroke-linecap="round" stroke-linejoin="round">
  <path d="M18 16.52v2.99" />
  <path d="M19.49 17.98h-2.98" />
  <path d="M22 18a3.6 3.6 0 0 1-.12.93 3.7 3.7 0 0 1-.46 1.13A4 4 0 0 1 18 22a4 4 0 0 1-2.66-1.03 3.7 3.7 0 0 1-.76-.91A4 4 0 0 1 18 14a4 4 0 0 1 4 4" />
  <path d="M3.41 22c0-3.87 3.85-7 8.59-7a10.4 10.4 0 0 1 2.76.37" />
  <circle cx="12" cy="7" r="5" />
</svg>
