<svg xmlns="http://www.w3.org/2000/svg" width="24" height="24" viewBox="0 0 24 24" fill="none" stroke="currentColor" stroke-width="2" stroke-linecap="round" stroke-linejoin="round">
  <path d="M16 16.66c0-1.8-1.79-3.26-4-3.26s-4 1.46-4 3.26" />
  <path d="M21.08 15.42a3.17 3.17 0 0 1-1.57 2.73l-5.94 3.43a3.16 3.16 0 0 1-3.15 0l-5.94-3.43a3.15 3.15 0 0 1-1.57-2.73V8.58a3.17 3.17 0 0 1 1.57-2.73l5.94-3.43a3.16 3.16 0 0 1 3.15 0l5.94 3.43a3.16 3.16 0 0 1 1.57 2.73z" />
  <circle cx="12" cy="8.67" r="2.33" />
</svg>
