<svg xmlns="http://www.w3.org/2000/svg" width="24" height="24" viewBox="0 0 24 24" fill="none" stroke="currentColor" stroke-width="2" stroke-linecap="round" stroke-linejoin="round">
  <path d="M15.48 2.11v4.41" />
  <path d="m16.75 18.5 1.11 1.11 2.4-2.22" />
  <path d="M2.52 7.11h18.96" />
  <path d="M22 15a7 7 0 0 1-.02.65A4.46 4.46 0 0 0 14 18.5a4.5 4.5 0 0 0 .65 2.32 4.3 4.3 0 0 0 1.01 1.16A7 7 0 0 1 15 22H9c-5 0-7-2-7-7V9c0-5 2-7 7-7h6c5 0 7 2 7 7z" />
  <path d="M23 18.5a4.5 4.5 0 0 1-.65 2.32 4.3 4.3 0 0 1-.89 1.06 4.43 4.43 0 0 1-5.79.1 4.2 4.2 0 0 1-1.02-1.16A4.5 4.5 0 1 1 23 18.5" />
  <path d="M8.52 2.11v4.86" />
</svg>
