<svg xmlns="http://www.w3.org/2000/svg" width="24" height="24" viewBox="0 0 24 24" fill="none" stroke="currentColor" stroke-width="2" stroke-linecap="round" stroke-linejoin="round">
  <path d="M15.48 2.11v4.41" />
  <path d="M19.68 17.32 17.3 19.7" />
  <path d="m19.7 19.68-2.38-2.38" />
  <path d="M2.52 7.11h18.96" />
  <path d="M22 15a7 7 0 0 1-.02.67 1 1 0 0 0-.14-.17A4.4 4.4 0 0 0 18.5 14a4.5 4.5 0 0 0-3.85 6.82 4.2 4.2 0 0 0 .86 1.02 2 2 0 0 0 .16.14A7 7 0 0 1 15 22H9c-5 0-7-2-7-7V9c0-5 2-7 7-7h6c5 0 7 2 7 7z" />
  <path d="M23 18.5a4 4 0 0 1-.13 1.05 4.7 4.7 0 0 1-.52 1.27A4.49 4.49 0 0 1 18.5 23a4.35 4.35 0 0 1-2.82-1.02 1.3 1.3 0 0 1-.17-.14 4.2 4.2 0 0 1-.86-1.02A4.5 4.5 0 0 1 18.5 14a4.4 4.4 0 0 1 3.34 1.5 1 1 0 0 1 .14.17A4.42 4.42 0 0 1 23 18.5" />
  <path d="M8.52 2.11v4.86" />
</svg>
