<svg xmlns="http://www.w3.org/2000/svg" width="24" height="24" viewBox="0 0 24 24" fill="none" stroke="currentColor" stroke-width="2" stroke-linecap="round" stroke-linejoin="round">
  <path d="M15.48 2.11v4.41" />
  <path d="M18.78 17.09v1.69l-1.4.84" />
  <path d="M2.52 7.11h18.96" />
  <path d="M22 15a7 7 0 0 1-.02.65A4.46 4.46 0 0 0 14 18.5a4.46 4.46 0 0 0 1.65 3.48A7 7 0 0 1 15 22H9c-5 0-7-2-7-7V9c0-5 2-7 7-7h6c5 0 7 2 7 7z" />
  <path d="M8.52 2.11v4.86" />
  <circle cx="18.49" cy="18.49" r="4.474" />
</svg>
