<svg xmlns="http://www.w3.org/2000/svg" width="24" height="24" viewBox="0 0 24 24" fill="none" stroke="currentColor" stroke-width="2" stroke-linecap="round" stroke-linejoin="round">
  <path d="M15.48 2.11v4.41" />
  <path d="M18.5 16.84v3.36" />
  <path d="M2.52 7.11h18.96" />
  <path d="M20.18 18.48h-3.36" />
  <path d="M22 15a7 7 0 0 1-.02.67 1 1 0 0 0-.14-.17 4.45 4.45 0 0 0-7.84 3 4.5 4.5 0 0 0 .65 2.32 4.1 4.1 0 0 0 .82.99 7 7 0 0 0 .2.17A7 7 0 0 1 15 22H9c-5 0-7-2-7-7V9c0-5 2-7 7-7h6c5 0 7 2 7 7z" />
  <path d="M23 18.5a4 4 0 0 1-.13 1.05 4.7 4.7 0 0 1-.52 1.27A4.49 4.49 0 0 1 18.5 23a4.35 4.35 0 0 1-2.82-1.02 1.3 1.3 0 0 1-.17-.14 4 4 0 0 1-.86-1.02 4.5 4.5 0 0 1 7.16-5.36 2 2 0 0 1 .17.21A4.42 4.42 0 0 1 23 18.5" />
  <path d="M8.52 2.11v4.86" />
</svg>
