<svg xmlns="http://www.w3.org/2000/svg" width="24" height="24" viewBox="0 0 24 24" fill="none" stroke="currentColor" stroke-width="2" stroke-linecap="round" stroke-linejoin="round">
  <path d="M21.08 15.42a3.17 3.17 0 0 1-1.57 2.73l-5.94 3.43a3.16 3.16 0 0 1-3.15 0l-5.94-3.43a3.15 3.15 0 0 1-1.57-2.73V8.58a3.17 3.17 0 0 1 1.57-2.73l5.94-3.43a3.16 3.16 0 0 1 3.15 0l5.94 3.43a3.16 3.16 0 0 1 1.57 2.73z" />
  <path d="M9.75 10.8c0-1.54 1.09-2.17 2.42-1.4l2.08 1.2c1.33.77 1.33 2.03 0 2.8l-2.08 1.2c-1.33.77-2.42.14-2.42-1.4z" />
</svg>
