<svg xmlns="http://www.w3.org/2000/svg" width="24" height="24" viewBox="0 0 24 24" fill="none" stroke="currentColor" stroke-width="2" stroke-linecap="round" stroke-linejoin="round">
  <path d="M13 11.15H7" />
  <path d="M15 6.15c0-2.04-1.65-3.31-3.69-3.31H5.69A3.687 3.687 0 0 0 2 6.53v10.62a4 4 0 0 0 4 4h10a4 4 0 0 0 4-4V15.7" />
  <path d="M18.92 11.6a2 2 0 0 0-1.98 2.58c.25.93 1.17 1.52 2.13 1.52" />
  <path d="M19.04 15.7c-1.08 0-2.07-.79-2.16-1.87a2 2 0 0 1 2.04-2.23h2.05A1 1 0 0 1 22 12.62v2.06a1 1 0 0 1-1.03 1.02z" />
  <path d="M2 10.15a4 4 0 0 1 4-4h10a4 4 0 0 1 4 4v1.45" />
</svg>
