<svg xmlns="http://www.w3.org/2000/svg" width="24" height="24" viewBox="0 0 24 24" fill="none" stroke="currentColor" stroke-width="2" stroke-linecap="round" stroke-linejoin="round">
  <path d="M14.981 3.02a3.525 3.525 0 0 0-4.96 0l-3.25 3.26a3 3 0 0 0-.58.78C3.64 7.38 2 9.28 2 12v4.36A4 4 0 0 1 5 15a4 4 0 0 1 3.42 6.06 3.6 3.6 0 0 1-.79.94 3.6 3.6 0 0 0 .79-.94A4 4 0 1 0 5 23a4 4 0 0 0 2.63-1H17c3 0 5-2 5-5v-5c0-2.74-1.67-4.65-4.25-4.95a4.6 4.6 0 0 0-.749-.05 4.6 4.6 0 0 1 .749.05 3.37 3.37 0 0 0-1.019-2.26z" />
  <path d="M22 12.5h-3a2 2 0 0 0 0 4h3" />
  <path d="m6.04 17.96-2.11 2.11" />
  <path d="m6.071 20.04-2.11-2.11" />
  <path d="M7 7h10.001" />
  <circle cx="6.986" cy="12.3" r="5.3" />
</svg>
