<svg xmlns="http://www.w3.org/2000/svg" width="24" height="24" viewBox="0 0 24 24" fill="none" stroke="currentColor" stroke-width="2" stroke-linecap="round" stroke-linejoin="round">
  <path d="M12.66 2.518c-2.98-1.14-4.46-.45-5.77 2.58a1 1 0 0 0-.07.17l-1.86 4.44A4.89 4.89 0 0 0 2 14.198v-2.93a5.85 5.85 0 0 1 4.71-5.74" />
  <path d="M14.262 15.998h-5" />
  <path d="M21.519 14.198a4.88 4.88 0 0 0-3.46-4.67c.52-1.3.67-2.32.42-3.17a1 1 0 0 0-.09-.26 5.82 5.82 0 0 1 3.13 5.17z" />
  <path d="M21.522 16.148a12 12 0 0 1-.02.6c-.19 3.49-2.14 5.25-5.84 5.25h-7.8a6 6 0 0 1-.71-.05c-3.18-.21-4.88-1.91-5.09-5.09a6 6 0 0 1-.05-.71v-1.95a4.89 4.89 0 0 1 2.96-4.49 5 5 0 0 1 1.92-.39h9.76a5 5 0 0 1 1.41.2 5 5 0 0 1 3.46 4.68z" />
  <path d="m9.73 9.318 2.9-6.73.03-.07a8 8 0 0 1 .44.18l2.21.93c1.23.51 2.09 1.04 2.61 1.68a2 2 0 0 1 .25.36 1.5 1.5 0 0 1 .2.43 1.6 1.6 0 0 1 .09.26c.27.84.11 1.87-.41 3.16a4.8 4.8 0 0 0-1.41-.2H6.88a5 5 0 0 0-1.92.39" />
</svg>
