<svg xmlns="http://www.w3.org/2000/svg" width="24" height="24" viewBox="0 0 24 24" fill="none" stroke="currentColor" stroke-width="2" stroke-linecap="round" stroke-linejoin="round">
  <path d="M17.002 7H18l-3.52-3.52c-1.371-1.36-3.11-1.34-4.48.02L6.771 6.28 6 7za4.6 4.6 0 0 1 .748.05C20.33 7.35 22 9.26 22 12v5c0 3-2 5-5 5H7.63a3.6 3.6 0 0 0 .79-.94A4 4 0 0 0 5 15a4 4 0 0 0-3 1.36V12c0-2.72 1.64-4.62 4.19-4.94A5 5 0 0 1 7 7" />
  <path d="M22 12.5h-3a2 2 0 0 0 0 4h3" />
  <path d="M4.754 18v2.51" />
  <path d="M6 19.225H3.512" />
  <circle cx="5" cy="18.995" r="4" />
</svg>
