<svg xmlns="http://www.w3.org/2000/svg" width="24" height="24" viewBox="0 0 24 24" fill="none" stroke="currentColor" stroke-width="2" stroke-linecap="round" stroke-linejoin="round">
  <path d="M10.75 14.11a2.6 2.6 0 0 1-.38 1.36c-.59.97-1.8 1.58-3.2 1.58s-2.61-.62-3.2-1.58a2.6 2.6 0 0 1-.38-1.36c0-.86.4-1.63 1.04-2.19.65-.57 1.54-.91 2.53-.91s1.88.35 2.53.91c.66.55 1.06 1.33 1.06 2.19" />
  <path d="M10.752 14.11c0-.86-.4-1.64-1.04-2.2-.65-.56-1.54-.91-2.53-.91-1.98 0-3.58 1.39-3.58 3.11v4.78c0 1.72 1.61 3.11 3.58 3.11s3.57-1.39 3.57-3.11z" />
  <path d="M10.752 16.86c0 1.72-1.6 2.94-3.57 2.94s-3.58-1.23-3.58-2.94c0 1.72 1.6 2.94 3.58 2.94 1.97 0 3.57-1.23 3.57-2.94" />
  <path d="M18.92 9.95a2 2 0 0 0-2.04 2.23c.09 1.08 1.08 1.87 2.16 1.87" />
  <path d="M2 10.5v-2c0-2.72 1.64-4.62 4.19-4.94A5 5 0 0 1 7 3.5h9a4.6 4.6 0 0 1 .75.05C19.33 3.85 21 5.76 21 8.5v1.45h-2.08a2 2 0 0 0-2.04 2.23c.09 1.08 1.08 1.87 2.16 1.87H21v1.45c0 3-2 5-5 5h-2.5" />
  <path d="M21 9.95a1 1 0 0 1 1 1.02v2.06a1 1 0 0 1-1 1.02" />
</svg>
