<svg xmlns="http://www.w3.org/2000/svg" width="24" height="24" viewBox="0 0 24 24" fill="none" stroke="currentColor" stroke-width="2" stroke-linecap="round" stroke-linejoin="round">
  <path d="M17.001 7a4.6 4.6 0 0 1 .749.05C20.33 7.35 22 9.26 22 12v5c0 3-2 5-5 5H7.63a3.6 3.6 0 0 0 .79-.94A4 4 0 0 0 5 15a4 4 0 0 0-3 1.36V12c0-2.72 1.64-4.62 4.19-4.94A5 5 0 0 1 7 7z" />
  <path d="M22 12.5h-3a2 2 0 0 0 0 4h3" />
  <path d="m3.441 19 .99.99 2.13-1.97" />
  <path d="M7.001 7a5 5 0 0 0-.81.06 3 3 0 0 1 .58-.78l3.25-3.26a3.525 3.525 0 0 1 4.96 0l1.75 1.77a3.37 3.37 0 0 1 1.02 2.26 4.6 4.6 0 0 0-.75-.05" />
  <circle cx="5" cy="18.995" r="4" />
</svg>
