<svg xmlns="http://www.w3.org/2000/svg" width="24" height="24" viewBox="0 0 24 24" fill="none" stroke="currentColor" stroke-width="2" stroke-linecap="round" stroke-linejoin="round">
  <path d="M16.5 14.849a1.14 1.14 0 0 1-.113.49 1.9 1.9 0 0 1-.306.459 2 2 0 0 1-.74.531 2.3 2.3 0 0 1-.878.171q-.69.001-1.47-.328a8 8 0 0 1-1.55-.892 13 13 0 0 1-1.478-1.26 13 13 0 0 1-1.257-1.471 8 8 0 0 1-.884-1.534q-.324-.77-.324-1.472a2.3 2.3 0 0 1 .162-.868 2 2 0 0 1 .519-.752q.434-.425.937-.423a.85.85 0 0 1 .365.081.73.73 0 0 1 .302.252l1.046 1.472a1.5 1.5 0 0 1 .18.315.7.7 0 0 1 .063.274.6.6 0 0 1-.095.32 1.5 1.5 0 0 1-.252.319l-.343.356a.24.24 0 0 0-.072.18.4.4 0 0 0 .014.103l.036.09a3.7 3.7 0 0 0 .419.576 15 15 0 0 0 .653.711 14 14 0 0 0 .717.662 3.5 3.5 0 0 0 .581.413l.082.037a.3.3 0 0 0 .297-.059l.342-.338a1.4 1.4 0 0 1 .325-.252.6.6 0 0 1 .32-.094.7.7 0 0 1 .275.059 1.7 1.7 0 0 1 .315.175l1.492 1.058a.7.7 0 0 1 .248.287 1 1 0 0 1 .072.351" />
  <path d="M6.9 20.6A10 10 0 0 0 12 22c5.5 0 10-4.5 10-10S17.5 2 12 2 2 6.5 2 12c0 1.8.5 3.5 1.3 5l-.86 3.306a1 1 0 0 0 1.243 1.213z" />
</svg>
