<svg xmlns="http://www.w3.org/2000/svg" width="24" height="24" viewBox="0 0 24 24" fill="none" stroke="currentColor" stroke-width="2" stroke-linecap="round" stroke-linejoin="round">
  <path d="M4.1 22c-.9 0-1.4-1.1-.7-1.8L9 14.5c1.6-1.6 4.3-1.6 5.9 0l5.7 5.7a1 1 0 0 1-.7 1.8h-1.4a3.1 3.1 0 0 1-2.2-.9l-3.6-3.6a1 1 0 0 0-1.5 0l-3.6 3.6c-.5.5-1.3.9-2.1.9z" />
  <path d="M4.1 2c-1 0-1.5 1.1-.8 1.8L9 9.5c1.6 1.6 4.3 1.6 5.9 0l5.7-5.7c.8-.7.3-1.8-.7-1.8h-1.4a3.1 3.1 0 0 0-2.2.9l-3.6 3.6a1 1 0 0 1-1.5 0L7.7 2.9A3.1 3.1 0 0 0 5.5 2z" />
</svg>
