<svg width="24" height="24" viewBox="0 0 24 24" fill="none" xmlns="http://www.w3.org/2000/svg">
<path fill-rule="evenodd" clip-rule="evenodd" d="M7.666 20.5C5.136 20.5 3.5 18.767 3.5 16.084V7.916C3.5 5.233 5.136 3.5 7.666 3.5H16.335C18.865 3.5 20.5 5.233 20.5 7.916V16.084C20.5 18.767 18.865 20.5 16.335 20.5H7.666ZM16.335 2H7.666C4.277 2 2 4.378 2 7.916V16.084C2 19.622 4.277 22 7.666 22H16.335C19.724 22 22 19.622 22 16.084V7.916C22 4.378 19.724 2 16.335 2Z" fill="black"/>
<path fill-rule="evenodd" clip-rule="evenodd" d="M12 7.16394C11.586 7.16394 11.25 7.49994 11.25 7.91394V16.0859C11.25 16.4999 11.586 16.8359 12 16.8359C12.414 16.8359 12.75 16.4999 12.75 16.0859V7.91394C12.75 7.49994 12.414 7.16394 12 7.16394Z" fill="black"/>
<path fill-rule="evenodd" clip-rule="evenodd" d="M11.9997 7.16298C11.8007 7.16298 11.6087 7.24198 11.4687 7.38398L7.72071 11.148C7.42771 11.442 7.42971 11.917 7.72271 12.209C8.01671 12.5 8.49071 12.502 8.78271 12.207L11.9997 8.97598L15.2167 12.207C15.5097 12.502 15.9837 12.5 16.2767 12.209C16.5697 11.917 16.5717 11.442 16.2787 11.148L12.5307 7.38398C12.3907 7.24198 12.1987 7.16298 11.9997 7.16298Z" fill="black"/>
</svg>
