<svg width="24" height="24" viewBox="0 0 24 24" fill="none" xmlns="http://www.w3.org/2000/svg">
<path fill-rule="evenodd" clip-rule="evenodd" d="M11.751 13.45C11.337 13.45 11.001 13.114 11.001 12.7V3.75C11.001 3.336 11.337 3 11.751 3C12.165 3 12.501 3.336 12.501 3.75V12.7C12.501 13.114 12.165 13.45 11.751 13.45Z" fill="black"/>
<mask id="mask0_1_26338" style="mask-type:luminance" maskUnits="userSpaceOnUse" x="6" y="11" width="12" height="11">
<path fill-rule="evenodd" clip-rule="evenodd" d="M6 11.9502H17.502V21.3867H6V11.9502Z" fill="white"/>
</mask>
<g mask="url(#mask0_1_26338)">
<path fill-rule="evenodd" clip-rule="evenodd" d="M8.10955 13.4502L11.7516 19.2292L15.3926 13.4502H8.10955ZM11.7516 21.3872C11.4936 21.3872 11.2546 21.2552 11.1166 21.0362L6.11555 13.0992C5.96955 12.8692 5.96155 12.5772 6.09355 12.3382C6.22555 12.0982 6.47655 11.9502 6.75055 11.9502H16.7526C17.0256 11.9502 17.2766 12.0982 17.4086 12.3382C17.5416 12.5772 17.5326 12.8692 17.3866 13.0992L12.3856 21.0362C12.2486 21.2552 12.0086 21.3872 11.7516 21.3872Z" fill="black"/>
</g>
</svg>
