<svg width="24" height="24" viewBox="0 0 24 24" fill="none" xmlns="http://www.w3.org/2000/svg">
<path d="M12.2744 4C12.6541 4 12.9679 4.28215 13.0176 4.64823L13.0244 4.75V19.75C13.0244 20.1642 12.6886 20.5 12.2744 20.5C11.8947 20.5 11.5809 20.2178 11.5313 19.8518L11.5244 19.75V4.75C11.5244 4.33579 11.8602 4 12.2744 4Z" fill="black"/>
<path d="M17.7675 13.171C18.0598 12.8775 18.5347 12.8765 18.8282 13.1687C19.095 13.4344 19.1201 13.851 18.9029 14.1451L18.8305 14.2294L12.8065 20.2794C12.54 20.547 12.1219 20.5714 11.8278 20.3524L11.7436 20.2794L5.71857 14.2294C5.42629 13.9359 5.42727 13.4611 5.72077 13.1688C5.98759 12.9031 6.4043 12.8797 6.69746 13.0982L6.78143 13.171L12.2753 18.687L17.7675 13.171Z" fill="black"/>
</svg>
