<svg width="24" height="24" viewBox="0 0 24 24" fill="none" xmlns="http://www.w3.org/2000/svg">
<path d="M17.0859 7C18.3498 7 19.6761 7.90969 20.1445 10.1201L20.9131 16.3145C21.4787 20.3533 19.2073 22 16.1582 22H7.86816C4.81035 22 2.46818 20.8626 3.10449 16.3145L3.88281 10.1201C4.28052 7.84602 5.65015 7 6.93164 7H17.0859ZM9.09668 10.3291C8.60864 10.3292 8.21289 10.7369 8.21289 11.2393C8.21306 11.7414 8.60875 12.1484 9.09668 12.1484C9.58468 12.1484 9.9803 11.7415 9.98047 11.2393C9.98047 10.7369 9.58478 10.3291 9.09668 10.3291ZM14.8857 10.3291C14.3976 10.3291 14.002 10.7369 14.002 11.2393C14.0021 11.7415 14.3977 12.1484 14.8857 12.1484C15.3737 12.1484 15.7694 11.7415 15.7695 11.2393C15.7695 10.7369 15.3738 10.3292 14.8857 10.3291Z" fill="black"/>
<path opacity="0.4" d="M16.9739 6.77432C16.977 6.85189 16.9621 6.92913 16.9303 7H15.4932C15.4654 6.92794 15.4506 6.85153 15.4497 6.77432C15.4497 4.85682 13.8899 3.30238 11.9657 3.30238C10.0416 3.30238 8.48184 4.85682 8.48184 6.77432C8.49502 6.84898 8.49502 6.92535 8.48184 7H7.00989C6.9967 6.92535 6.9967 6.84898 7.00989 6.77432C7.12172 4.10591 9.32499 2 12.0049 2C14.6849 2 16.8882 4.10591 17 6.77432H16.9739Z" fill="black"/>
</svg>
