<svg width="24" height="24" viewBox="0 0 24 24" fill="none" xmlns="http://www.w3.org/2000/svg">
<path opacity="0.4" d="M7.42969 19.0684C8.25953 19.0684 8.94018 19.7481 8.94043 20.5879C8.94043 21.4179 8.25969 22.0986 7.42969 22.0986C6.5899 22.0984 5.91016 21.4177 5.91016 20.5879C5.91041 19.7483 6.59006 19.0686 7.42969 19.0684ZM18.6797 19.0684C19.5095 19.0684 20.1902 19.7481 20.1904 20.5879C20.1904 21.4179 19.5097 22.0986 18.6797 22.0986C17.8399 22.0984 17.1602 21.4177 17.1602 20.5879C17.1604 19.7483 17.8401 19.0686 18.6797 19.0684Z" fill="black"/>
<path fill-rule="evenodd" clip-rule="evenodd" d="M20.1907 6.34884C20.8007 6.34884 21.2007 6.55884 21.6007 7.01884C22.0007 7.47884 22.0707 8.13884 21.9807 8.73784L21.0307 15.2978C20.8507 16.5588 19.7707 17.4878 18.5007 17.4878H7.59074C6.26074 17.4878 5.16074 16.4678 5.05074 15.1488L4.13074 4.24784L2.62074 3.98784C2.22074 3.91784 1.94074 3.52784 2.01074 3.12784C2.08074 2.71784 2.47074 2.44784 2.88074 2.50784L5.26574 2.86784C5.60574 2.92884 5.85574 3.20784 5.88574 3.54784L6.07574 5.78784C6.10574 6.10884 6.36574 6.34884 6.68574 6.34884H20.1907ZM14.1307 11.5478H16.9007C17.3207 11.5478 17.6507 11.2078 17.6507 10.7978C17.6507 10.3778 17.3207 10.0478 16.9007 10.0478H14.1307C13.7107 10.0478 13.3807 10.3778 13.3807 10.7978C13.3807 11.2078 13.7107 11.5478 14.1307 11.5478Z" fill="black"/>
</svg>
