<svg width="24" height="24" viewBox="0 0 24 24" fill="none" xmlns="http://www.w3.org/2000/svg">
<path d="M12 9.40234C13.0496 9.40247 14.0395 9.81203 14.7793 10.5508C15.5192 11.2998 15.9296 12.2895 15.9297 13.3281C15.9197 14.4166 15.4792 15.3953 14.7695 16.1045C14.0596 16.8136 13.0798 17.2538 12 17.2539C10.95 17.2539 9.96973 16.8437 9.21973 16.1045C8.47997 15.3554 8.06937 14.3767 8.06934 13.3281C8.05947 12.2895 8.47008 11.3106 9.20996 10.5615C9.95993 9.81251 10.9501 9.40234 12 9.40234ZM12 10.9004C11.3501 10.9004 10.7395 11.1508 10.2695 11.6201C9.80972 12.0795 9.55947 12.6893 9.56934 13.3184V13.3281C9.56937 13.9771 9.81961 14.5865 10.2793 15.0459C10.7393 15.5054 11.35 15.7549 12 15.7549C13.3397 15.7546 14.4196 14.6664 14.4297 13.3281C14.4296 12.6792 14.1794 12.0697 13.7197 11.6104C13.2599 11.1511 12.6497 10.9005 12 10.9004ZM17.6094 9.16309C18.1094 9.16309 18.5195 9.57282 18.5195 10.0723C18.5194 10.5716 18.1093 10.9707 17.6094 10.9707C17.1095 10.9706 16.7101 10.5716 16.71 10.0723C16.71 9.57287 17.1094 9.16316 17.6094 9.16309Z" fill="black"/>
<path opacity="0.4" d="M17.44 6.2364L17.34 6.01665C17.07 5.44728 16.76 4.78801 16.57 4.40844C16.11 3.50943 15.32 3.00999 14.35 3H9.64C8.67 3.00999 7.89 3.50943 7.43 4.40844C7.23 4.80799 6.89 5.52719 6.61 6.11654L6.55 6.2364C6.52 6.31632 6.44 6.35627 6.36 6.35627C3.95 6.35627 2 8.3141 2 10.7114V16.6448C2 19.0422 3.95 21 6.36 21H17.64C20.04 21 22 19.0422 22 16.6448V10.7114C22 8.3141 20.04 6.35627 17.64 6.35627C17.55 6.35627 17.48 6.30633 17.44 6.2364Z" fill="black"/>
</svg>
