<svg width="24" height="24" viewBox="0 0 24 24" fill="none" xmlns="http://www.w3.org/2000/svg">
<path opacity="0.4" d="M11.9993 21.9981C11.2303 21.9981 10.4623 21.7061 9.87526 21.1231L9.14526 20.3931C8.86226 20.1111 8.48326 19.9551 8.08126 19.9541H7.05426C5.39426 19.9541 4.04326 18.6031 4.04326 16.9431V15.9151C4.04226 15.5141 3.88626 15.1351 3.60326 14.8501L2.88526 14.1331C1.70926 12.9641 1.70426 11.0531 2.87426 9.87615L3.60426 9.14515C3.88626 8.86215 4.04226 8.48315 4.04326 8.08115V7.05515C4.04326 5.39415 5.39426 4.04315 7.05426 4.04315H8.08226C8.48326 4.04315 8.86126 3.88715 9.14626 3.60215L9.86526 2.88515C11.0343 1.70915 12.9443 1.70315 14.1223 2.87415L14.8523 3.60415C15.1363 3.88715 15.5143 4.04315 15.9153 4.04315H16.9433C18.6033 4.04315 19.9543 5.39415 19.9543 7.05515V8.08215C19.9553 8.48315 20.1113 8.86215 20.3943 9.14715L21.1123 9.86515C21.6813 10.4311 21.9963 11.1851 21.9993 11.9901C22.0013 12.7901 21.6933 13.5431 21.1323 14.1121C21.1223 14.1221 21.1133 14.1331 21.1033 14.1421L20.3933 14.8521C20.1113 15.1351 19.9553 15.5141 19.9543 15.9161V16.9431C19.9543 18.6031 18.6033 19.9541 16.9433 19.9541H15.9153C15.5143 19.9551 15.1353 20.1111 14.8513 20.3941L14.1323 21.1121C13.5463 21.7021 12.7723 21.9981 11.9993 21.9981Z" fill="black"/>
<path d="M13.9414 13.9585C14.1973 13.7026 14.5814 13.6284 14.9053 13.7642C15.0001 13.7961 15.1064 13.8639 15.1943 13.9507C15.3543 14.1106 15.4414 14.3299 15.4414 14.5698C15.4414 14.8088 15.3543 15.029 15.1953 15.188C15.0165 15.3548 14.7989 15.4447 14.5771 15.4448C14.3432 15.4448 14.1331 15.3598 13.9521 15.1919C13.8731 15.1129 13.8127 15.0217 13.7627 14.9097C13.7088 14.7878 13.7021 14.6577 13.7021 14.5698C13.7022 14.4818 13.7087 14.3509 13.7627 14.229C13.8136 14.1163 13.8884 14.0205 13.9414 13.9585ZM13.9531 8.81006C14.2941 8.47006 14.8494 8.47006 15.1904 8.81006C15.5314 9.15206 15.5314 9.70635 15.1904 10.0483L10.0508 15.188C9.88582 15.353 9.66656 15.4438 9.43262 15.4438C9.19863 15.4438 8.97947 15.353 8.81348 15.188C8.47248 14.846 8.47248 14.2907 8.81348 13.9497L13.9531 8.81006ZM9.10645 8.62061C9.40845 8.48261 9.80985 8.56396 10.0479 8.81396C10.1328 8.89896 10.1982 8.99236 10.2412 9.08936C10.2881 9.19325 10.3115 9.31134 10.3115 9.43018C10.3115 9.66813 10.2169 9.8893 10.043 10.0513C9.87797 10.2163 9.66375 10.3052 9.42676 10.3052C9.20476 10.3052 8.98652 10.2143 8.81152 10.0503C8.64556 9.88532 8.55179 9.65913 8.55176 9.43018C8.55176 9.21218 8.64366 8.98794 8.80566 8.81494C8.89462 8.72499 9.0005 8.65662 9.10645 8.62061Z" fill="black"/>
</svg>
