<svg width="24" height="24" viewBox="0 0 24 24" fill="none" xmlns="http://www.w3.org/2000/svg">
<path opacity="0.4" d="M18.4297 6.5498C19.8442 7.84934 21.0439 9.60224 21.9414 11.709C22.0193 11.8959 22.0193 12.112 21.9414 12.2891C19.8536 17.1919 16.1366 20.126 12 20.126H11.9902C10.1073 20.126 8.30216 19.5062 6.71191 18.374L9.80469 15.2529C10.4291 15.6753 11.1902 15.9326 12 15.9326C14.1463 15.9326 15.8926 14.1698 15.8926 12.0039C15.8926 11.1869 15.6391 10.4191 15.2197 9.78906L18.4297 6.5498ZM12 3.88184C13.3951 3.88184 14.7512 4.2166 16 4.8457L12.7412 8.13477C12.5071 8.09541 12.2536 8.06641 12 8.06641C9.84394 8.06641 8.09772 9.8282 8.09766 12.0039C8.09766 12.2598 8.12701 12.5157 8.16602 12.752L4.55566 16.3945C3.58022 15.2526 2.73168 13.8729 2.05859 12.2891C1.98074 12.112 1.9807 11.8959 2.05859 11.709C4.1464 6.80614 7.86341 3.88184 11.9902 3.88184H12Z" fill="black"/>
<path d="M19.1709 3.71387C19.4636 3.42865 19.9222 3.42846 20.2051 3.71387C20.4977 3.99934 20.4976 4.47231 20.2051 4.75781L18.4287 6.5498L15.2197 9.78809L4.81934 20.2842C4.67312 20.4307 4.48795 20.4999 4.30273 20.5C4.11737 20.5 3.92174 20.4309 3.78516 20.2842C3.54147 20.0381 3.50245 19.6438 3.69727 19.3584L3.72656 19.3184L14.1953 8.75586L17.2881 5.63477L18.1562 4.75781C18.1757 4.73816 18.1953 4.7179 18.2051 4.69824C18.2245 4.67868 18.2442 4.65921 18.2539 4.63965L19.1709 3.71387ZM14.1562 10.8623C14.3317 11.1969 14.4297 11.5906 14.4297 12.0039C14.4297 13.3527 13.3366 14.455 12 14.4551C11.5902 14.4551 11.1999 14.3569 10.8682 14.1797L14.1562 10.8623Z" fill="black"/>
</svg>
