<svg width="24" height="24" viewBox="0 0 24 24" fill="none" xmlns="http://www.w3.org/2000/svg">
<path opacity="0.4" d="M16.3328 22H7.66618C4.2769 22 2 19.6229 2 16.0843V7.91672C2 4.37811 4.2769 2 7.66618 2H16.3338C19.7231 2 22 4.37811 22 7.91672V16.0843C22 19.6229 19.7231 22 16.3328 22Z" fill="black"/>
<path d="M15.4287 13.0894C15.6509 12.7981 16.4753 11.8888 17.54 12.5366C18.2188 12.9446 18.7896 13.4966 19.4004 14.0874C19.6333 14.3133 19.8002 14.5714 19.9102 14.8462C20.2431 15.6781 20.0708 16.6785 19.7148 17.5024C19.2929 18.4834 18.4847 19.2243 17.4668 19.5483C17.0148 19.6933 16.5404 19.7554 16.0674 19.7554H7.68652C6.85265 19.7554 6.11471 19.5617 5.50977 19.1978C5.13084 18.9698 5.06392 18.445 5.34473 18.103C5.81471 17.5331 6.27812 16.9603 6.74609 16.3833C7.63799 15.2794 8.23932 14.9599 8.90723 15.2407C9.17817 15.3567 9.45053 15.5314 9.73047 15.7153C10.4765 16.2093 11.5139 16.8879 12.8799 16.1519C13.8198 15.6378 14.3629 14.7557 14.8369 13.9917C15.0309 13.6807 15.2147 13.3703 15.4287 13.0894ZM8.75977 6.18896C10.1298 6.18896 11.2451 7.30529 11.2451 8.67529C11.2449 10.0451 10.1297 11.1597 8.75977 11.1597C7.38906 11.1594 6.27557 10.045 6.27539 8.67529C6.27539 7.30543 7.38895 6.18919 8.75977 6.18896Z" fill="black"/>
</svg>
