<svg width="24" height="24" viewBox="0 0 24 24" fill="none" xmlns="http://www.w3.org/2000/svg">
<path opacity="0.4" d="M18.8088 9.021C18.3573 9.021 17.7592 9.011 17.0146 9.011C15.1987 9.011 13.7055 7.508 13.7055 5.675V2.459C13.7055 2.206 13.5036 2 13.253 2H7.96363C5.49517 2 3.5 4.026 3.5 6.509V17.284C3.5 19.889 5.59022 22 8.16958 22H16.0463C18.5058 22 20.5 19.987 20.5 17.502V9.471C20.5 9.217 20.299 9.012 20.0475 9.013C19.6247 9.016 19.1177 9.021 18.8088 9.021Z" fill="black"/>
<path opacity="0.4" d="M16.0837 2.56737C15.7847 2.25637 15.2627 2.47037 15.2627 2.90137V5.53837C15.2627 6.64437 16.1737 7.55437 17.2797 7.55437C17.9767 7.56237 18.9447 7.56437 19.7667 7.56237C20.1877 7.56137 20.4017 7.05837 20.1097 6.75437C19.0547 5.65737 17.1657 3.69137 16.0837 2.56737Z" fill="black"/>
<path d="M14.418 14.8926C14.8288 14.8928 15.1621 15.2268 15.1621 15.6377C15.1621 16.0485 14.8288 16.3816 14.418 16.3818H8.97363C8.56265 16.3818 8.22952 16.0487 8.22949 15.6377C8.22949 15.2267 8.56263 14.8926 8.97363 14.8926H14.418ZM12.3584 9.89844C12.7694 9.89844 13.1035 10.2326 13.1035 10.6436C13.1035 11.0545 12.7694 11.3877 12.3584 11.3877H8.97363C8.56267 11.3877 8.22956 11.0545 8.22949 10.6436C8.22949 10.2326 8.56263 9.89844 8.97363 9.89844H12.3584Z" fill="black"/>
</svg>
