<svg width="24" height="24" viewBox="0 0 24 24" fill="none" xmlns="http://www.w3.org/2000/svg">
<path d="M21.4274 2.5783C20.9274 2.0673 20.1874 1.8783 19.4974 2.0783L3.40742 6.7273C2.67942 6.9293 2.16342 7.5063 2.02442 8.2383C1.88242 8.9843 2.37842 9.9323 3.02642 10.3283L8.05742 13.4003C8.57342 13.7163 9.23942 13.6373 9.66642 13.2093L15.4274 7.4483C15.7174 7.1473 16.1974 7.1473 16.4874 7.4483C16.7774 7.7373 16.7774 8.2083 16.4874 8.5083L10.7164 14.2693C10.2884 14.6973 10.2084 15.3613 10.5234 15.8783L13.5974 20.9283C13.9574 21.5273 14.5774 21.8683 15.2574 21.8683C15.3374 21.8683 15.4274 21.8683 15.5074 21.8573C16.2874 21.7583 16.9074 21.2273 17.1374 20.4773L21.9074 4.5083C22.1174 3.8283 21.9274 3.0883 21.4274 2.5783Z" fill="black"/>
<path opacity="0.4" d="M8.39062 19.1421C8.68357 18.8504 9.15823 18.8504 9.45117 19.1421C9.74317 19.4351 9.74317 19.9106 9.45117 20.2036L8.08496 21.5679C7.93903 21.7148 7.74757 21.7885 7.55566 21.7886C7.36366 21.7886 7.17139 21.7149 7.02539 21.5679C6.7326 21.2749 6.73247 20.8012 7.02539 20.5083L8.39062 19.1421ZM7.60645 15.354C7.89945 15.062 8.37497 15.062 8.66797 15.354C8.95996 15.647 8.95996 16.1225 8.66797 16.4155L7.30176 17.7798C7.15576 17.9268 6.96348 18.0005 6.77148 18.0005C6.57955 18.0004 6.38716 17.9267 6.24121 17.7798C5.94877 17.4868 5.94858 17.0131 6.24121 16.7202L7.60645 15.354ZM3.8457 14.1616C4.13864 13.8699 4.61331 13.8699 4.90625 14.1616C5.19825 14.4546 5.19825 14.9301 4.90625 15.2231L3.54004 16.5874C3.3941 16.7343 3.20266 16.808 3.01074 16.8081C2.81874 16.8081 2.62647 16.7344 2.48047 16.5874C2.18771 16.2944 2.18755 15.8207 2.48047 15.5278L3.8457 14.1616Z" fill="black"/>
</svg>
