<svg width="24" height="24" viewBox="0 0 24 24" fill="none" xmlns="http://www.w3.org/2000/svg">
<path d="M21.2588 11.4097C21.6653 11.4098 21.9961 11.7391 21.9961 12.146V16.1001C21.996 19.6289 19.7221 22.0003 16.3369 22.0005H7.6582C4.27375 22.0005 2.00007 19.629 2 16.1001C2 15.6941 2.33162 15.3638 2.73828 15.3638C3.14591 15.3638 3.47656 15.6941 3.47656 16.1001C3.47663 18.79 5.11713 20.5268 7.6582 20.5269H16.3369C18.8787 20.5266 20.5214 18.7899 20.5215 16.1001V12.146C20.5215 11.739 20.8511 11.4097 21.2588 11.4097ZM15.5439 2.90088C16.7449 1.70086 18.6994 1.70086 19.9014 2.90088L21.0977 4.09521C21.6803 4.67607 21.9999 5.45035 22 6.27002C21.9999 7.09188 21.6805 7.86586 21.0977 8.44678L13.7139 15.8188C13.1711 16.3607 12.4496 16.6586 11.6836 16.6587H7.99707C7.79918 16.6586 7.60881 16.5785 7.46973 16.436C7.33163 16.2942 7.25591 16.1026 7.25977 15.9048L7.35352 12.1948C7.37254 11.456 7.67072 10.7607 8.19336 10.2388L15.5439 2.90088ZM18.8584 3.94189C18.2314 3.31689 17.2129 3.31689 16.5869 3.94189L15.9814 4.54541L17.8555 6.4165C18.1426 6.70454 18.1428 7.16961 17.8555 7.4585C17.7114 7.60129 17.5221 7.67318 17.334 7.67334C17.1448 7.67334 16.9557 7.60126 16.8115 7.4585L14.9385 5.58643L9.2373 11.2798C8.98203 11.5338 8.83814 11.873 8.82812 12.2319L8.75488 15.186H11.6836C12.0559 15.1859 12.4066 15.0416 12.6709 14.7778L20.0547 7.40576C20.6806 6.77987 20.6803 5.76225 20.0547 5.13721L18.8584 3.94189ZM11.3359 2.0376C11.7434 2.03785 12.0732 2.36808 12.0732 2.77393C12.0732 3.18077 11.7434 3.51 11.3359 3.51025H7.6582C5.11719 3.51037 3.47559 5.24804 3.47559 7.93799V11.7075C3.47534 12.1133 3.14479 12.4429 2.73828 12.4429C2.33083 12.4428 2.00025 12.1133 2 11.7075V7.93799C2.00001 4.40903 4.27381 2.03771 7.6582 2.0376H11.3359Z" fill="none"/>
</svg>
