<svg width="24" height="24" viewBox="0 0 24 24" fill="none" xmlns="http://www.w3.org/2000/svg">
<path d="M6.63867 2.60254C6.80027 2.59446 7.02548 2.60449 7.31738 2.66504C7.87476 2.78072 8.67257 3.08034 9.74219 3.7793C10.671 3.54289 11.6264 3.42317 12.5859 3.4248C13.5427 3.4227 14.4951 3.54341 15.4209 3.78027C16.4904 3.08892 17.2869 2.78958 17.8428 2.67188C18.134 2.61024 18.3587 2.59816 18.5195 2.60449C18.5997 2.60766 18.6638 2.61576 18.7119 2.62402C18.7356 2.6281 18.7555 2.63193 18.7715 2.63574C18.7795 2.63767 18.7869 2.63995 18.793 2.6416C18.796 2.64243 18.7992 2.64282 18.8018 2.64355C18.8028 2.64385 18.8037 2.64425 18.8047 2.64453L18.8066 2.64551H18.8076C18.8079 2.64595 18.8052 2.65684 18.6992 3L18.8086 2.64551C18.9214 2.68044 19.0127 2.76421 19.0586 2.87305C19.4063 3.69827 19.5212 4.60157 19.3896 5.48633L19.3877 5.5H19.3867C19.3562 5.66557 19.314 5.82869 19.2637 5.98926C19.293 6.02478 19.3226 6.0601 19.3506 6.09668L19.4775 6.26367C20.0891 7.10853 20.4131 8.12662 20.3994 9.16992L20.3916 9.55664C20.3857 9.68124 20.375 9.80553 20.3623 9.92969L20.3633 9.93066C20.2174 11.9176 19.4678 13.2015 18.3877 14.0127C17.5269 14.659 16.4873 14.9783 15.4629 15.1514C15.5907 15.3697 15.6855 15.6069 15.7441 15.8555L15.75 15.8701C15.7551 15.8845 15.7656 15.9147 15.7744 15.9502C15.776 15.9566 15.7761 15.9633 15.7773 15.9697C15.8622 16.3 15.903 16.6397 15.8975 16.9805C15.8975 17.2081 15.8961 17.9999 15.8945 18.7334C15.8937 19.1002 15.8932 19.453 15.8926 19.7139C15.8923 19.8441 15.8918 19.9515 15.8916 20.0264V20.1436C15.8916 20.3091 15.8589 20.4733 15.7949 20.626C15.7309 20.7787 15.6364 20.9167 15.5186 21.0332C15.4007 21.1497 15.2609 21.2419 15.1074 21.3047C14.954 21.3674 14.7897 21.4004 14.624 21.4004H10.5391H10.5361C10.3705 21.4004 10.206 21.3674 10.0527 21.3047C9.89952 21.2419 9.76034 21.1496 9.64258 21.0332C9.52477 20.9168 9.43025 20.7787 9.36621 20.626C9.315 20.5037 9.28393 20.3739 9.27344 20.2422C8.10074 20.2532 7.24494 19.9656 6.62793 19.5322C5.95579 19.06 5.60535 18.4433 5.4248 17.9541C5.2594 17.58 5.02658 17.2391 4.73926 16.9453C4.57088 16.8506 4.32047 16.6897 4.09863 16.4609C3.8466 16.201 3.59722 15.819 3.59961 15.3271C3.60129 14.9936 3.73697 14.6753 3.97461 14.4414C4.21244 14.2075 4.53365 14.0771 4.86719 14.0771H4.87305C5.12803 14.0785 5.37759 14.1556 5.58789 14.2998C5.75882 14.417 5.89503 14.5754 5.99023 14.7578L6.01465 14.7744L6.06543 14.8066C6.83229 15.3844 7.42715 16.1571 7.78613 17.043C7.78806 17.0477 7.79025 17.0528 7.79199 17.0576C7.8942 17.3411 8.10524 17.517 8.42676 17.6201C8.67176 17.6987 8.96736 17.7277 9.28906 17.7227V16.9805C9.28333 16.631 9.32567 16.2824 9.41504 15.9443C9.47268 15.6635 9.57736 15.3966 9.72168 15.1523C8.69523 14.9808 7.65085 14.6648 6.78516 14.0195C5.69984 13.2105 4.94469 11.9268 4.79883 9.93066V9.92969C4.77307 9.67725 4.76056 9.42364 4.7627 9.16992C4.7441 8.05346 5.11969 6.96595 5.82324 6.09375V6.09277C5.84866 6.06137 5.87698 6.02917 5.90527 5.99512C5.8501 5.82395 5.80691 5.64883 5.77539 5.47168L5.77246 5.45996V5.45898C5.64522 4.58319 5.75992 3.6897 6.10352 2.87305C6.14852 2.7661 6.23833 2.68348 6.34863 2.64746H6.34961L6.35156 2.64648C6.35265 2.64614 6.35427 2.64588 6.35547 2.64551C6.3579 2.64476 6.3604 2.64342 6.36328 2.64258C6.36936 2.64081 6.3767 2.63976 6.38477 2.6377C6.40096 2.63356 6.4211 2.62852 6.44531 2.62402C6.49375 2.61503 6.55808 2.60658 6.63867 2.60254Z" fill="none" stroke="currentColor" stroke-width="2" stroke-linejoin="round"/>
</svg>
