<svg width="24" height="24" viewBox="0 0 24 24" fill="none" xmlns="http://www.w3.org/2000/svg">
<path d="M4 11.7082C4 9.90398 4 9.00186 4.44805 8.27691C4.8961 7.55195 5.70297 7.14852 7.31672 6.34164L9.31672 5.34164C10.6334 4.68328 11.2918 4.3541 12 4.3541C12.7082 4.3541 13.3666 4.68328 14.6833 5.34164L16.6833 6.34164C18.297 7.14852 19.1039 7.55195 19.552 8.27691C20 9.00186 20 9.90398 20 11.7082V14C20 16.8284 20 18.2426 19.1213 19.1213C18.2426 20 16.8284 20 14 20H10C7.17157 20 5.75736 20 4.87868 19.1213C4 18.2426 4 16.8284 4 14V11.7082Z" stroke="currentColor" stroke-width="2"/>
<path d="M4 10L6.12132 12.1213C6.68393 12.6839 7.44699 13 8.24264 13H15.7574C16.553 13 17.3161 12.6839 17.8787 12.1213L20 10" stroke="currentColor" stroke-width="2" stroke-linecap="round"/>
</svg>
