<svg width="24" height="24" viewBox="0 0 24 24" fill="none" xmlns="http://www.w3.org/2000/svg">
<path fill-rule="evenodd" clip-rule="evenodd" d="M16.084 3.5C18.767 3.5 20.5 5.135 20.5 7.665V16.334C20.5 18.864 18.767 20.5 16.084 20.5H7.916C5.233 20.5 3.5 18.864 3.5 16.334V7.665C3.5 5.135 5.233 3.5 7.916 3.5H16.084ZM7.916 22H16.084C19.622 22 22 19.723 22 16.334V7.665C22 4.276 19.622 2 16.084 2H7.916C4.378 2 2 4.276 2 7.665V16.334C2 19.723 4.378 22 7.916 22Z" fill="black"/>
<path fill-rule="evenodd" clip-rule="evenodd" d="M7.91394 12.75H16.0859C16.4999 12.75 16.8359 12.414 16.8359 12C16.8359 11.586 16.4999 11.25 16.0859 11.25H7.91394C7.49994 11.25 7.16394 11.586 7.16394 12C7.16394 12.414 7.49994 12.75 7.91394 12.75Z" fill="black"/>
<path fill-rule="evenodd" clip-rule="evenodd" d="M11.6774 16.4982C11.8694 16.4982 12.0624 16.4252 12.2084 16.2772C12.5004 15.9832 12.4994 15.5092 12.2064 15.2172L8.97638 12.0002L12.2064 8.78319C12.4994 8.49119 12.5004 8.01719 12.2084 7.72319C11.9164 7.42919 11.4424 7.42919 11.1484 7.72119L7.38438 11.4692C7.24238 11.6092 7.16338 11.8012 7.16338 12.0002C7.16338 12.1992 7.24238 12.3912 7.38438 12.5312L11.1484 16.2792C11.2944 16.4252 11.4864 16.4982 11.6774 16.4982Z" fill="black"/>
</svg>
