<svg width="24" height="24" viewBox="0 0 24 24" fill="none" xmlns="http://www.w3.org/2000/svg">
<path d="M8.68164 3.35449C9.87064 2.88172 14.1293 2.88163 15.3174 3.35449C15.9658 3.61258 16.4034 4.10081 16.8057 4.83105L17.2578 5.69824C17.2682 5.71542 17.2776 5.73114 17.2861 5.74414L17.3242 5.7959C17.5301 6.02025 17.8749 6.15607 18.1025 6.15625C20.2546 6.15625 22 7.90133 22 10.0527V15.8477C21.9999 18.5917 19.7743 20.8172 17.0303 20.8174H6.96973C4.22501 20.8172 2.00008 18.592 2 15.8477V10.0527C2 7.90133 3.74544 6.15625 5.89746 6.15625C6.12424 6.15607 6.46956 6.02005 6.67578 5.7959C6.67984 5.79142 6.68512 5.78493 6.69141 5.77637L6.74316 5.69727L7.19336 4.83203C7.59527 4.10158 8.03289 3.61277 8.68164 3.35449ZM14.6436 4.70898C13.6144 4.41811 10.0345 4.43075 9.23633 4.74805C8.98331 4.84875 8.75748 5.10094 8.50781 5.55469L8.12305 6.29883L8.02832 6.4707C7.94932 6.60207 7.8705 6.71321 7.78027 6.81152C7.27393 7.36189 6.52462 7.65611 5.89746 7.65625L5.73242 7.66211C4.4855 7.74668 3.5 8.78512 3.5 10.0527V15.8477C3.50008 17.7637 5.05349 19.3172 6.96973 19.3174H17.0303C18.9459 19.3172 20.4999 17.7633 20.5 15.8477V10.0527C20.5 8.72983 19.4262 7.65625 18.1025 7.65625L17.9287 7.64941C17.3402 7.60095 16.6795 7.31148 16.2197 6.81055C16.1306 6.71345 16.0513 6.60307 15.9727 6.47266C15.9614 6.45399 15.9476 6.42936 15.9316 6.40039L15.8154 6.18262L15.4912 5.55469C15.2414 5.10116 15.0157 4.84877 14.7627 4.74805L14.6436 4.70898Z" fill="black"/>
<path d="M17.5041 8.5C18.0564 8.5 18.5041 8.94772 18.5041 9.5C18.5041 10.0128 18.1181 10.4355 17.6207 10.4933L17.5041 10.5C16.9428 10.5 16.4951 10.0523 16.4951 9.5C16.4951 8.98716 16.8812 8.56449 17.3785 8.50673L17.5041 8.5Z" fill="black"/>
<path d="M11.999 9.19922C14.1691 9.19922 15.9286 10.9578 15.9287 13.1279C15.9287 15.2981 14.1692 17.0576 11.999 17.0576C9.82894 17.0575 8.07031 15.298 8.07031 13.1279C8.07047 10.9579 9.82904 9.19937 11.999 9.19922ZM11.999 10.6992C10.6575 10.6994 9.57047 11.7864 9.57031 13.1279C9.57031 14.4696 10.6574 15.5575 11.999 15.5576C13.3408 15.5576 14.4287 14.4697 14.4287 13.1279C14.4286 11.7863 13.3407 10.6992 11.999 10.6992Z" fill="black"/>
</svg>
