<svg width="24" height="24" viewBox="0 0 24 24" fill="none" xmlns="http://www.w3.org/2000/svg">
<path fill-rule="evenodd" clip-rule="evenodd" d="M15.791 12.75H3.75C3.336 12.75 3 12.414 3 12C3 11.586 3.336 11.25 3.75 11.25H15.791C16.205 11.25 16.541 11.586 16.541 12C16.541 12.414 16.205 12.75 15.791 12.75Z" fill="black"/>
<path fill-rule="evenodd" clip-rule="evenodd" d="M12.863 15.6652C12.671 15.6652 12.478 15.5922 12.332 15.4442C12.039 15.1502 12.041 14.6762 12.334 14.3842L14.728 12.0002L12.334 9.61522C12.041 9.32322 12.039 8.84922 12.332 8.55522C12.625 8.26122 13.099 8.26122 13.392 8.55322L16.321 11.4692C16.463 11.6092 16.542 11.8012 16.542 12.0002C16.542 12.1992 16.463 12.3912 16.321 12.5312L13.392 15.4462C13.246 15.5922 13.054 15.6652 12.863 15.6652Z" fill="black"/>
<path fill-rule="evenodd" clip-rule="evenodd" d="M17.0424 22H12.1574C9.7184 22 7.7334 20.015 7.7334 17.575V16.633C7.7334 16.219 8.0694 15.883 8.4834 15.883C8.8974 15.883 9.2334 16.219 9.2334 16.633V17.575C9.2334 19.187 10.5454 20.5 12.1574 20.5H17.0424C18.6614 20.5 19.9784 19.184 19.9784 17.564V6.425C19.9784 4.813 18.6654 3.5 17.0534 3.5H12.1684C10.5504 3.5 9.2334 4.816 9.2334 6.434V7.367C9.2334 7.781 8.8974 8.117 8.4834 8.117C8.0694 8.117 7.7334 7.781 7.7334 7.367V6.434C7.7334 3.989 9.7234 2 12.1684 2H17.0534C19.4924 2 21.4784 3.985 21.4784 6.425V17.564C21.4784 20.01 19.4874 22 17.0424 22Z" fill="black"/>
</svg>
