<svg width="24" height="24" viewBox="0 0 24 24" fill="none" xmlns="http://www.w3.org/2000/svg">
<path d="M16.8389 5.79639C17.2186 5.79639 17.5324 6.07854 17.582 6.44462L17.5889 6.54639V20.1642C17.5889 20.5784 17.2531 20.9142 16.8389 20.9142C16.4592 20.9142 16.1454 20.632 16.0957 20.2659L16.0889 20.1642V6.54639C16.0889 6.13217 16.4247 5.79639 16.8389 5.79639Z" fill="black"/>
<path d="M20.3847 15.5393C20.677 15.2457 21.1518 15.2446 21.4454 15.5368C21.7123 15.8025 21.7375 16.2191 21.5203 16.5132L21.4479 16.5975L17.3701 20.6941C17.1036 20.9619 16.6853 20.9862 16.3912 20.7672L16.307 20.6941L12.2292 16.5975C11.937 16.3039 11.9381 15.829 12.2316 15.5368C12.4985 15.2712 12.9152 15.2479 13.2083 15.4664L13.2923 15.5393L16.8381 19.1012L20.3847 15.5393Z" fill="black"/>
<path d="M6.91113 3.08301C7.29083 3.08301 7.60462 3.36516 7.65429 3.73124L7.66113 3.83301V17.4508C7.66113 17.865 7.32535 18.2008 6.91113 18.2008C6.53144 18.2008 6.21764 17.9186 6.16798 17.5526L6.16113 17.4508V3.83301C6.16113 3.41879 6.49692 3.08301 6.91113 3.08301Z" fill="black"/>
<path d="M6.37923 3.30342C6.64575 3.03566 7.064 3.01132 7.35811 3.23039L7.44234 3.30342L11.5201 7.40008C11.8123 7.69365 11.8112 8.16852 11.5177 8.46074C11.2508 8.72639 10.8341 8.74963 10.541 8.5311L10.457 8.45829L6.91056 4.89519L3.36456 8.45829C3.09891 8.72517 2.6823 8.75034 2.38819 8.53316L2.3039 8.46074C2.03702 8.19509 2.01185 7.77848 2.22903 7.48437L2.30145 7.40008L6.37923 3.30342Z" fill="black"/>
</svg>
