<svg width="24" height="24" viewBox="0 0 24 24" fill="none" xmlns="http://www.w3.org/2000/svg">
<path fill-rule="evenodd" clip-rule="evenodd" d="M11.9951 17.4266C11.5811 17.4266 11.2451 17.0906 11.2451 16.6766V14.1396C11.2451 13.7256 11.5811 13.3896 11.9951 13.3896C12.4091 13.3896 12.7451 13.7256 12.7451 14.1396V16.6766C12.7451 17.0906 12.4091 17.4266 11.9951 17.4266Z" fill="black"/>
<mask id="mask0_1_25892" style="mask-type:luminance" maskUnits="userSpaceOnUse" x="2" y="4" width="20" height="11">
<path fill-rule="evenodd" clip-rule="evenodd" d="M2 4.57959H21.9898V14.8906H2V4.57959Z" fill="white"/>
</mask>
<g mask="url(#mask0_1_25892)">
<path fill-rule="evenodd" clip-rule="evenodd" d="M3.5 11.3926C5.876 12.6836 8.872 13.3906 11.99 13.3906C15.114 13.3906 18.113 12.6836 20.49 11.3926V8.39059C20.49 7.11559 19.459 6.07959 18.19 6.07959H5.81C4.536 6.07959 3.5 7.11159 3.5 8.38059V11.3926ZM11.99 14.8906C8.445 14.8906 5.028 14.0326 2.371 12.4766C2.141 12.3426 2 12.0966 2 11.8296V8.38059C2 6.28459 3.709 4.57959 5.81 4.57959H18.19C20.286 4.57959 21.99 6.28859 21.99 8.39059V11.8296C21.99 12.0966 21.848 12.3426 21.619 12.4766C18.962 14.0326 15.542 14.8906 11.99 14.8906Z" fill="black"/>
</g>
<mask id="mask1_1_25892" style="mask-type:luminance" maskUnits="userSpaceOnUse" x="7" y="2" width="10" height="5">
<path fill-rule="evenodd" clip-rule="evenodd" d="M7.74512 2H16.2451V6.0759H7.74512V2Z" fill="white"/>
</mask>
<g mask="url(#mask1_1_25892)">
<path fill-rule="evenodd" clip-rule="evenodd" d="M15.4951 6.076C15.0811 6.076 14.7451 5.74 14.7451 5.326V4.96C14.7451 4.155 14.0901 3.5 13.2851 3.5H10.7051C9.90012 3.5 9.24512 4.155 9.24512 4.96V5.326C9.24512 5.74 8.90912 6.076 8.49512 6.076C8.08112 6.076 7.74512 5.74 7.74512 5.326V4.96C7.74512 3.328 9.07312 2 10.7051 2H13.2851C14.9171 2 16.2451 3.328 16.2451 4.96V5.326C16.2451 5.74 15.9091 6.076 15.4951 6.076Z" fill="black"/>
</g>
<path fill-rule="evenodd" clip-rule="evenodd" d="M17.7946 21.74H6.19457C4.11957 21.74 2.37257 20.119 2.21557 18.049L2.02557 15.54C1.99457 15.127 2.30457 14.766 2.71757 14.735C3.13257 14.72 3.49057 15.013 3.52257 15.427L3.71157 17.935C3.80957 19.227 4.89957 20.24 6.19457 20.24H17.7946C19.0896 20.24 20.1806 19.227 20.2776 17.935L20.4676 15.427C20.4996 15.013 20.8666 14.719 21.2726 14.735C21.6856 14.766 21.9946 15.127 21.9636 15.54L21.7736 18.049C21.6166 20.119 19.8696 21.74 17.7946 21.74Z" fill="black"/>
</svg>
