<svg width="24" height="24" viewBox="0 0 24 24" fill="none" xmlns="http://www.w3.org/2000/svg">
<path opacity="0.4" d="M16.191 2H7.81C4.77 2 3 3.78 3 6.83V17.16C3 20.26 4.77 22 7.81 22H16.191C19.28 22 21 20.26 21 17.16V6.83C21 3.78 19.28 2 16.191 2Z" fill="none"/>
<path d="M8.08008 15.7397H15.9199C16.3189 15.7797 16.6201 16.1198 16.6201 16.5298C16.6201 16.9288 16.3189 17.2701 15.9199 17.3101H8.08008C7.78008 17.3501 7.49008 17.1997 7.33008 16.9497C7.17013 16.6897 7.1701 16.3598 7.33008 16.1099C7.49009 15.8499 7.78011 15.7097 8.08008 15.7397ZM15.9199 11.1792C16.3498 11.1792 16.7 11.5297 16.7002 11.9595C16.7002 12.3895 16.3499 12.7397 15.9199 12.7397H8.08008C7.64908 12.7397 7.2998 12.3895 7.2998 11.9595C7.30004 11.5297 7.64922 11.1792 8.08008 11.1792H15.9199ZM11.0693 6.6499C11.5002 6.65011 11.8496 7.00032 11.8496 7.4292C11.8495 7.86993 11.5001 8.22001 11.0693 8.22021H8.08008C7.64909 8.22021 7.29983 7.86992 7.2998 7.43994C7.2998 7.00994 7.64908 6.65967 8.08008 6.65967V6.6499H11.0693Z" fill="none"/>
</svg>
