<svg width="24" height="24" viewBox="0 0 24 24" fill="none" xmlns="http://www.w3.org/2000/svg">
<path opacity="0.4" d="M16.8843 5.11485H13.9413C13.2081 5.11969 12.512 4.79355 12.0474 4.22751L11.0782 2.88762C10.6214 2.31661 9.9253 1.98894 9.19321 2.00028H7.11261C3.37819 2.00028 2.00001 4.19201 2.00001 7.91884V11.9474C1.99536 12.3904 21.9956 12.3898 21.9969 11.9474V10.7761C22.0147 7.04924 20.6721 5.11485 16.8843 5.11485Z" fill="none"/>
<path d="M16.875 5.11475C18.1798 5.01383 19.4751 5.40692 20.5029 6.21533C20.6213 6.3157 20.7315 6.42534 20.832 6.54346C21.1519 6.91751 21.3996 7.34755 21.5615 7.81201C21.8801 8.76669 22.0275 9.77011 21.9971 10.7759V16.0288C21.9958 16.4713 21.9632 16.9132 21.8994 17.3511C21.7778 18.1238 21.5054 18.8651 21.0986 19.5337C20.9117 19.8566 20.6846 20.1551 20.4229 20.4214C19.2381 21.5086 17.665 22.0745 16.0576 21.9917H7.93066C6.32055 22.0739 4.74427 21.5084 3.55566 20.4214C3.29711 20.1546 3.07286 19.8561 2.88867 19.5337C2.48441 18.8657 2.21841 18.1234 2.10645 17.3511C2.03524 16.914 1.99981 16.4717 2 16.0288V10.7759C1.99983 10.3372 2.02373 9.89854 2.07129 9.4624C2.09798 9.25841 2.16016 9.06281 2.16016 8.86768C2.25042 8.34155 2.41539 7.83105 2.64941 7.35107C3.34294 5.86924 4.76521 5.11476 7.09473 5.11475H16.875ZM6.9707 13.8901C6.51413 13.8901 6.14374 14.2597 6.14355 14.7153C6.14355 15.1711 6.51402 15.5405 6.9707 15.5405H17.1357C17.327 15.5298 17.5096 15.4529 17.6514 15.3218C17.8133 15.1718 17.909 14.963 17.916 14.7427C17.9285 14.5489 17.8648 14.357 17.7383 14.2095C17.5928 14.0112 17.3615 13.8929 17.1152 13.8901H6.9707Z" fill="none"/>
</svg>
