<svg width="24" height="24" viewBox="0 0 24 24" fill="none" xmlns="http://www.w3.org/2000/svg">
<path fill-rule="evenodd" clip-rule="evenodd" d="M14.737 2.76172H7.979C5.92 2.76172 4.25 4.43072 4.25 6.49072V17.3397C4.25 19.5157 6.014 21.1147 8.19 21.1147H16.073C18.133 21.1147 19.802 19.3997 19.802 17.3397V8.03772L14.737 2.76172Z" stroke="currentColor" stroke-width="1.5" stroke-linecap="round" stroke-linejoin="round"/>
<path d="M14.4746 2.75V5.659C14.4746 7.079 15.6236 8.231 17.0426 8.234C18.3596 8.237 19.7066 8.238 19.7976 8.232" stroke="currentColor" stroke-width="1.5" stroke-linecap="round" stroke-linejoin="round"/>
<path opacity="0.4" d="M13.0459 10.6514C13.3387 10.3585 13.8135 10.3587 14.1064 10.6514C14.3993 10.9443 14.3993 11.419 14.1064 11.7119L12.9033 12.9141L14.1064 14.1172C14.3993 14.4101 14.3993 14.8848 14.1064 15.1777C13.8136 15.4706 13.3388 15.4706 13.0459 15.1777L11.8428 13.9746L10.6406 15.1777C10.3477 15.4705 9.87293 15.4706 9.58008 15.1777C9.28744 14.8849 9.28738 14.41 9.58008 14.1172L10.7822 12.9141L9.58008 11.7119C9.28718 11.419 9.28718 10.9443 9.58008 10.6514C9.87297 10.3585 10.3477 10.3585 10.6406 10.6514L11.8428 11.8535L13.0459 10.6514Z" fill="none"/>
</svg>
