<svg width="24" height="24" viewBox="0 0 24 24" fill="none" xmlns="http://www.w3.org/2000/svg">
<mask id="mask0_1_25739" style="mask-type:luminance" maskUnits="userSpaceOnUse" x="3" y="2" width="18" height="20">
<path fill-rule="evenodd" clip-rule="evenodd" d="M3 2.01172H20.0515V21.8667H3V2.01172Z" fill="white"/>
</mask>
<g mask="url(#mask0_1_25739)">
<path fill-rule="evenodd" clip-rule="evenodd" d="M7.47802 3.51172C5.83502 3.51172 4.49902 4.84872 4.49902 6.49072V17.3397C4.50402 18.1507 4.82602 18.9147 5.40502 19.4877C5.98302 20.0587 6.78002 20.3867 7.56602 20.3667C7.57302 20.3667 7.68302 20.3657 7.68902 20.3657H15.572C17.214 20.3477 18.554 18.9907 18.551 17.3407V8.34172L13.916 3.51172H7.47802ZM7.54202 21.8667C6.34202 21.8667 5.20702 21.4017 4.35002 20.5537C3.48602 19.6997 3.00602 18.5597 2.99902 17.3437V6.49072C2.99902 4.02172 5.00802 2.01172 7.47802 2.01172H14.236C14.44 2.01172 14.635 2.09472 14.777 2.24172L19.842 7.52072C19.976 7.65972 20.051 7.84672 20.051 8.03972V17.3397C20.056 19.8087 18.05 21.8397 15.58 21.8657L7.57102 21.8667H7.54202Z" fill="none"/>
</g>
<path fill-rule="evenodd" clip-rule="evenodd" d="M19.2966 8.98449H16.5406C14.7106 8.97949 13.2236 7.48749 13.2236 5.65949V2.75049C13.2236 2.33649 13.5596 2.00049 13.9736 2.00049C14.3876 2.00049 14.7236 2.33649 14.7236 2.75049V5.65949C14.7236 6.66349 15.5396 7.48149 16.5426 7.48449H19.2966C19.7106 7.48449 20.0466 7.82049 20.0466 8.23449C20.0466 8.64849 19.7106 8.98449 19.2966 8.98449Z" fill="none"/>
<path fill-rule="evenodd" clip-rule="evenodd" d="M13.0751 15.3984C12.8831 15.3984 12.6911 15.3254 12.5451 15.1784L9.07913 11.7124C8.78612 11.4194 8.78612 10.9454 9.07913 10.6524C9.37213 10.3594 9.84613 10.3594 10.1391 10.6524L13.6051 14.1184C13.8981 14.4114 13.8981 14.8854 13.6051 15.1784C13.4591 15.3254 13.2671 15.3984 13.0751 15.3984Z" fill="none"/>
<path fill-rule="evenodd" clip-rule="evenodd" d="M9.6101 15.3984C9.4181 15.3984 9.2261 15.3254 9.0801 15.1784C8.7871 14.8854 8.7871 14.4114 9.0801 14.1184L12.5461 10.6524C12.8391 10.3594 13.3131 10.3594 13.6061 10.6524C13.8991 10.9454 13.8991 11.4194 13.6061 11.7124L10.1401 15.1784C9.9941 15.3254 9.8021 15.3984 9.6101 15.3984Z" fill="none"/>
</svg>
