<svg width="24" height="24" viewBox="0 0 24 24" fill="none" xmlns="http://www.w3.org/2000/svg">
<path fill-rule="evenodd" clip-rule="evenodd" d="M7.57166 3.51172C5.91466 3.51172 4.53966 4.85372 4.50066 6.50872V17.3397C4.47166 18.9867 5.77866 20.3387 7.41266 20.3667L7.56066 20.3657H15.5727C17.2147 20.3477 18.5537 18.9907 18.5517 17.3407V8.34172L13.9167 3.51172H7.58466H7.57166ZM7.39866 21.8667C4.92566 21.8237 2.95866 19.7867 3.00066 17.3267V6.49072C3.05766 4.00972 5.10566 2.01172 7.56866 2.01172H7.58766H14.2357C14.4397 2.01172 14.6347 2.09472 14.7767 2.24172L19.8427 7.52072C19.9767 7.65972 20.0517 7.84672 20.0517 8.03972V17.3397C20.0557 19.8087 18.0497 21.8397 15.5807 21.8657L7.39866 21.8667Z" fill="none"/>
<path fill-rule="evenodd" clip-rule="evenodd" d="M19.2966 8.98449H16.5426C14.7116 8.97949 13.2236 7.48749 13.2236 5.65949V2.75049C13.2236 2.33649 13.5596 2.00049 13.9736 2.00049C14.3876 2.00049 14.7236 2.33649 14.7236 2.75049V5.65949C14.7236 6.66349 15.5406 7.48149 16.5446 7.48449H19.2966C19.7106 7.48449 20.0466 7.82049 20.0466 8.23449C20.0466 8.64849 19.7106 8.98449 19.2966 8.98449Z" fill="none"/>
<path fill-rule="evenodd" clip-rule="evenodd" d="M13.7926 14.4971H8.89355C8.47955 14.4971 8.14355 14.1611 8.14355 13.7471C8.14355 13.3331 8.47955 12.9971 8.89355 12.9971H13.7926C14.2066 12.9971 14.5426 13.3331 14.5426 13.7471C14.5426 14.1611 14.2066 14.4971 13.7926 14.4971Z" fill="none"/>
</svg>
