<svg width="24" height="24" viewBox="0 0 24 24" fill="none" xmlns="http://www.w3.org/2000/svg">
<path d="M8.39355 3.63379C9.68646 2.19325 11.7031 1.64477 13.5469 2.23242C15.3908 2.82026 16.7198 4.43568 16.9414 6.35938C18.4172 6.35954 20.1653 7.23821 20.6484 9.875L21.4043 15.7471C21.6941 17.7861 21.3158 19.3593 20.4375 20.4053C19.559 21.4513 18.1182 21.9619 16.0449 21.9619H8.04199C6.40424 22.1674 4.77172 21.5383 3.69434 20.2871C2.61726 19.036 2.23741 17.3284 2.68262 15.7383C2.74327 15.3183 3.13305 15.0272 3.55273 15.0879C3.97231 15.1487 4.26376 15.5381 4.20312 15.958C3.9286 17.1086 4.16866 18.3217 4.86133 19.2803C5.71258 20.0876 6.86296 20.5018 8.0332 20.4229H16.0449C17.635 20.4229 18.7327 20.0889 19.3037 19.3945C19.8747 18.7001 20.1034 17.5402 19.875 15.958L19.1289 10.1475C18.8654 8.74121 18.0481 7.86252 16.9414 7.8623H7.13672C6.0826 7.86239 5.26547 8.74113 4.94043 10.209L4.72949 11.501C4.63266 11.8958 4.247 12.1486 3.84668 12.0791C3.44645 12.0096 3.16829 11.6416 3.20996 11.2373L3.42969 9.91895C4.0095 7.23809 5.72237 6.35944 7.13672 6.35938H15.377C15.2563 5.5804 14.8722 4.8659 14.2881 4.33691C12.9002 3.09502 10.7688 3.21309 9.52637 4.60059V4.68848C9.33805 4.89104 9.05561 4.97792 8.78613 4.91602C8.51688 4.85399 8.30084 4.65298 8.21973 4.38867C8.13862 4.12424 8.20527 3.83632 8.39355 3.63379ZM9.0957 10.3496C9.20837 10.3234 9.32581 10.3234 9.43848 10.3496C9.49664 10.3578 9.55317 10.3756 9.60547 10.4023C9.65943 10.4199 9.71004 10.4467 9.75488 10.4814C9.8075 10.5118 9.85503 10.5504 9.89551 10.5957C9.9399 10.6313 9.97597 10.6764 10.001 10.7275C10.0351 10.7743 10.0646 10.8244 10.0889 10.877L10.1416 11.0439C10.1464 11.1024 10.1463 11.1613 10.1416 11.2197C10.1416 11.7052 9.74788 12.0986 9.2627 12.0986C9.03716 12.0907 8.82287 11.9964 8.66504 11.835C8.58208 11.7522 8.51701 11.6534 8.47266 11.5449C8.43067 11.4387 8.40973 11.3252 8.41113 11.2109C8.40209 11.1527 8.40208 11.0933 8.41113 11.0352C8.41929 10.977 8.43716 10.9204 8.46387 10.8682C8.47262 10.8413 8.48292 10.8149 8.49609 10.79L8.58789 10.6475C8.60555 10.6253 8.62527 10.6047 8.64746 10.5869C8.68587 10.5455 8.73048 10.5099 8.7793 10.4814C8.82408 10.4467 8.87483 10.4199 8.92871 10.4023C8.98096 10.3756 9.03759 10.3578 9.0957 10.3496ZM14.71 10.3408C14.8224 10.3147 14.9393 10.3147 15.0518 10.3408C15.1663 10.3673 15.2763 10.4119 15.377 10.4727C15.4667 10.5435 15.5467 10.6264 15.6143 10.7188C15.6523 10.7613 15.6795 10.8127 15.6934 10.8682C15.7201 10.9204 15.7379 10.977 15.7461 11.0352C15.7551 11.0933 15.7551 11.1528 15.7461 11.2109C15.7491 11.3262 15.7249 11.4406 15.6758 11.5449C15.6317 11.6582 15.559 11.7581 15.4648 11.835C15.3027 12.0005 15.0821 12.0952 14.8506 12.0986C14.7334 12.094 14.6174 12.0702 14.5078 12.0283C14.3246 11.9194 14.1871 11.7476 14.1211 11.5449C14.0747 11.44 14.0535 11.3255 14.0596 11.2109C14.0507 11.1527 14.0507 11.0933 14.0596 11.0352V10.8682L14.1475 10.7188C14.1725 10.6676 14.2086 10.6225 14.2529 10.5869L14.3848 10.4727C14.4337 10.4395 14.4871 10.4128 14.543 10.3936C14.5957 10.3682 14.6522 10.3503 14.71 10.3408Z" fill="none"/>
</svg>
