<svg width="24" height="24" viewBox="0 0 24 24" fill="none" xmlns="http://www.w3.org/2000/svg">
<path d="M16.3594 2C19.733 2.00018 21.9998 4.36794 22 7.89258V10.2627C22 10.6477 21.6868 10.9609 21.3018 10.9609C20.9169 10.9608 20.6035 10.6476 20.6035 10.2627V7.89258C20.6033 5.15995 18.938 3.39666 16.3594 3.39648H7.64062C5.06197 3.39666 3.3947 5.15995 3.39453 7.89258V16.1074C3.3947 18.84 5.06197 20.6033 7.64062 20.6035H16.3584C18.937 20.6033 20.6033 18.84 20.6035 16.1074V15.0225C20.4515 14.8965 20.2966 14.761 20.1396 14.625C19.0398 13.6741 17.9049 12.6917 16.6641 12.9785C15.7971 13.1795 15.3129 13.8948 14.7529 14.7217C14.2699 15.4357 13.7699 16.1738 12.9629 16.6738C11.7579 17.4198 10.4857 16.864 9.55566 16.458L9.40234 16.3906C8.24434 15.8846 7.46575 15.9872 6.71875 16.7402C6.44782 17.0129 6.00634 17.0168 5.7334 16.7441C5.46045 16.4732 5.45767 16.0298 5.72852 15.7568C6.88952 14.5868 8.27298 14.3764 9.95898 15.1104L10.1162 15.1797C11.0399 15.5836 11.6856 15.8249 12.2285 15.4873C12.7814 15.1464 13.1778 14.5603 13.5977 13.9395C14.2306 13.0055 14.9479 11.9442 16.3477 11.6191C18.2797 11.1691 19.8167 12.5013 21.0527 13.5693C21.2867 13.7723 21.5153 13.9705 21.7373 14.1475C21.9031 14.2805 21.999 14.4806 21.999 14.6924L22 16.1074C21.9998 19.632 19.732 21.9998 16.3584 22H7.64062C4.26697 21.9998 2.00018 19.6321 2 16.1074V7.89258C2.00018 4.36794 4.26697 2.00018 7.64062 2H16.3594ZM8.85352 6.22168C10.2641 6.22184 11.4117 7.36976 11.4121 8.7793C11.4121 10.1902 10.2644 11.3387 8.85352 11.3389C7.44269 11.3387 6.2959 10.1902 6.2959 8.7793C6.29633 7.36979 7.44296 6.22189 8.85352 6.22168ZM8.85352 7.61816C8.21296 7.61837 7.69087 8.13879 7.69043 8.7793C7.69043 9.42117 8.21269 9.94218 8.85352 9.94238C9.49538 9.94222 10.0166 9.4212 10.0166 8.7793C10.0162 8.13876 9.49511 7.61833 8.85352 7.61816Z" fill="none"/>
</svg>
