<svg width="24" height="24" viewBox="0 0 24 24" fill="none" xmlns="http://www.w3.org/2000/svg">
<path d="M12 2C17.514 2 22 6.485 22 12C22 17.514 17.514 22 12 22C10.6051 22 9.25522 21.719 7.9873 21.1621C7.6213 21.0021 7.45523 20.575 7.61523 20.209C7.77527 19.8411 8.20137 19.6759 8.56934 19.8369C9.65226 20.3118 10.8061 20.5527 12 20.5527C16.715 20.5527 20.5518 16.715 20.5518 12C20.5518 7.284 16.715 3.44824 12 3.44824C7.284 3.44824 3.44824 7.284 3.44824 12C3.44824 13.847 4.02607 15.604 5.12207 17.084C5.35905 17.405 5.2917 17.8577 4.9707 18.0957C4.64877 18.3346 4.19604 18.2691 3.95801 17.9453C2.67701 16.2163 2 14.16 2 12C2 6.485 6.486 2 12 2ZM10.8643 8.03027C11.0873 8.03642 11.4952 8.18794 11.6602 8.25293C12.7431 8.67296 14.8045 10.0642 15.5967 10.9092L15.6758 10.9941C15.7695 11.0928 15.8857 11.2185 15.9131 11.2529C16.0799 11.4658 16.1708 11.7312 16.1709 12C16.1709 12.2548 16.0912 12.5011 15.9414 12.708C15.9064 12.755 15.7572 12.9204 15.6572 13.0264L15.6084 13.0781C14.7944 13.9541 12.7788 15.278 11.7607 15.707C11.7482 15.7127 11.148 15.9625 10.8564 15.9697H10.8203C10.3783 15.9697 9.95992 15.7163 9.75391 15.3184C9.63674 15.0908 9.52497 14.4512 9.52246 14.4365C9.42746 13.8585 9.373 12.969 9.375 11.999C9.37302 10.9733 9.43312 10.0526 9.53809 9.47363C9.53918 9.46513 9.63892 8.94275 9.71387 8.7666C9.81584 8.51971 10.0081 8.30778 10.251 8.17578C10.4469 8.07284 10.6523 8.02727 10.8643 8.03027ZM10.9619 9.7334C10.8749 10.2143 10.8213 11.0832 10.8223 11.999C10.8213 12.8819 10.8692 13.7062 10.9512 14.2012C10.9612 14.2631 10.98 14.3583 11.001 14.4502C11.0729 14.4212 11.1512 14.3921 11.2002 14.3721C12.1262 13.982 13.9397 12.7478 14.5469 12.0918C14.5529 12.0913 14.6045 12.0332 14.6055 12.0312C14.6144 12.0213 14.6239 12.0099 14.6348 12C14.63 11.9952 14.6259 11.9902 14.6211 11.9854L14.5371 11.8965C13.9102 11.2255 11.9989 9.9377 11.1318 9.60059C11.1009 9.5886 11.0528 9.57071 10.999 9.55078C10.9841 9.61964 10.9699 9.68748 10.9619 9.7334Z" fill="none"/>
</svg>
