<svg width="24" height="24" viewBox="0 0 24 24" fill="none" xmlns="http://www.w3.org/2000/svg">
<path opacity="0.4" d="M15.4873 13.5273C15.8765 13.627 15.9515 14.184 15.9463 14.6221C15.9283 15.8944 15.8851 16.7799 15.8174 17.3271L15.7695 17.7783C15.724 18.2344 15.6774 18.7063 15.543 19.21C15.1894 20.3934 14.2443 21.1621 13.1709 21.1621C13.1349 21.1621 13.0995 21.1622 13.0635 21.1611C12.4708 21.1609 11.8261 20.8052 11.4609 20.4951L10.1602 19.4883C9.66713 19.1211 9.81174 18.5342 10.0889 18.1943C10.3662 17.8556 14.7369 13.8733 14.8809 13.7314C15.0249 13.5907 15.3434 13.4914 15.4873 13.5273ZM13.1494 3.41797C14.208 3.41797 15.1819 4.16018 15.5312 5.3457C15.6688 5.84201 15.7223 6.34028 15.7646 6.81543L15.8496 7.49414C15.8708 7.65186 15.8918 7.78986 15.9023 7.98145L6.29004 17.5928H6.06738C4.65951 17.5927 3.63293 16.5971 3.44238 15.0518C3.23069 13.5063 3.27301 10.8599 3.44238 9.45215C3.64364 7.99168 4.72313 6.98643 6.06738 6.98633H7.89941L11.3926 4.12695C11.816 3.76825 12.5673 3.42975 13.1494 3.41797Z" fill="none"/>
<path d="M21.7275 3.26979C21.3538 2.90884 20.7801 2.91095 20.4201 3.27085L3.27035 20.4186C2.90936 20.7795 2.90936 21.3543 3.27352 21.7322C3.45984 21.9047 3.69062 22 3.92458 22C4.16383 22 4.40943 21.8994 4.57987 21.729L21.7286 4.58127C22.0906 4.21926 22.0906 3.63285 21.7275 3.26979Z" fill="none"/>
</svg>
