<svg width="24" height="24" viewBox="0 0 24 24" fill="none" xmlns="http://www.w3.org/2000/svg">
<path d="M21 9.25684V16.9307C21 20.0697 19.0237 22 15.8623 22H8.12695C4.99554 21.9998 3.00012 20.0298 3 16.8701V9.25684H21ZM16.041 16.3906C15.5866 16.4006 15.2206 16.7802 15.2305 17.2402C15.2307 17.7001 15.5965 18.0798 16.0508 18.0898C16.5148 18.0897 16.8904 17.71 16.8906 17.2402C16.8906 16.7713 16.515 16.3908 16.0508 16.3906H16.041ZM7.91016 16.3799C7.45571 16.4009 7.09961 16.7802 7.09961 17.2402C7.11956 17.7 7.49503 18.0609 7.94922 18.04C8.39378 18.021 8.74925 17.6407 8.72949 17.1807C8.71952 16.7308 8.35459 16.38 7.91016 16.3799ZM11.9805 16.3799C11.526 16.4009 11.1699 16.7802 11.1699 17.2402C11.1899 17.7 11.5653 18.0609 12.0195 18.04C12.4641 18.021 12.8196 17.6407 12.7998 17.1807C12.7898 16.7308 12.4249 16.38 11.9805 16.3799ZM7.91992 12.75C7.46564 12.771 7.10962 13.1506 7.10938 13.6104C7.12913 14.0692 7.50472 14.4309 7.95898 14.4102C8.40355 14.3912 8.75999 14.0108 8.74023 13.5498C8.73034 13.1008 8.36446 12.75 7.91992 12.75ZM11.9805 12.75C11.5262 12.771 11.1702 13.1506 11.1699 13.6104C11.1897 14.0693 11.5652 14.431 12.0195 14.4102C12.4641 14.3912 12.8196 14.0108 12.7998 13.5498C12.7899 13.1009 12.4249 12.7501 11.9805 12.75ZM16.0508 12.7607C15.5964 12.7707 15.2404 13.1407 15.2402 13.6006V13.6104C15.2501 14.0693 15.6257 14.4201 16.0801 14.4102C16.5246 14.4012 16.88 14.0205 16.8701 13.5605C16.8502 13.1198 16.4951 12.7609 16.0508 12.7607Z" fill="none"/>
<path opacity="0.4" d="M3.00293 9.25675C3.01577 8.66975 3.06517 7.50475 3.15803 7.12975C3.63224 5.02075 5.24256 3.68075 7.54442 3.48975H16.4555C18.7376 3.69075 20.3677 5.03975 20.8419 7.12975C20.9338 7.49475 20.9832 8.66875 20.996 9.25675H3.00293Z" fill="none"/>
<path d="M8.30465 6.59C8.73934 6.59 9.06535 6.261 9.06535 5.82V2.771C9.06535 2.33 8.73934 2 8.30465 2C7.86996 2 7.54395 2.33 7.54395 2.771V5.82C7.54395 6.261 7.86996 6.59 8.30465 6.59Z" fill="none"/>
<path d="M15.6953 6.59C16.1201 6.59 16.456 6.261 16.456 5.82V2.771C16.456 2.33 16.1201 2 15.6953 2C15.2606 2 14.9346 2.33 14.9346 2.771V5.82C14.9346 6.261 15.2606 6.59 15.6953 6.59Z" fill="none"/>
</svg>
