<svg width="24" height="24" viewBox="0 0 24 24" fill="none" xmlns="http://www.w3.org/2000/svg">
<path opacity="0.4" d="M3.09277 9.40445H20.9167" stroke="currentColor" stroke-width="1.5" stroke-linecap="round" stroke-linejoin="round"/>
<path opacity="0.4" d="M7.56641 16.4463C7.98057 16.4463 8.31632 16.7821 8.31641 17.1963C8.31619 17.6103 7.98049 17.9463 7.56641 17.9463H7.55762C7.14373 17.9461 6.80783 17.6102 6.80762 17.1963C6.8077 16.7823 7.14365 16.4465 7.55762 16.4463H7.56641ZM12.0137 16.4463C12.4278 16.4464 12.7636 16.7822 12.7637 17.1963C12.7635 17.6103 12.4277 17.9462 12.0137 17.9463H12.0049C11.5908 17.9463 11.2551 17.6103 11.2549 17.1963C11.255 16.7821 11.5907 16.4463 12.0049 16.4463H12.0137ZM16.4512 16.4463C16.8653 16.4464 17.2011 16.7822 17.2012 17.1963C17.201 17.6103 16.8652 17.9462 16.4512 17.9463H16.4424C16.0283 17.9463 15.6926 17.6103 15.6924 17.1963C15.6925 16.7821 16.0282 16.4463 16.4424 16.4463H16.4512ZM7.56641 12.5596C7.98057 12.5596 8.31632 12.8954 8.31641 13.3096C8.31632 13.7237 7.98057 14.0596 7.56641 14.0596H7.55762C7.14365 14.0593 6.8077 13.7236 6.80762 13.3096C6.8077 12.8956 7.14365 12.5598 7.55762 12.5596H7.56641ZM12.0137 12.5596C12.4278 12.5596 12.7636 12.8955 12.7637 13.3096C12.7636 13.7237 12.4278 14.0595 12.0137 14.0596H12.0049C11.5907 14.0596 11.255 13.7237 11.2549 13.3096C11.255 12.8954 11.5907 12.5596 12.0049 12.5596H12.0137ZM16.4512 12.5596C16.8653 12.5597 17.2011 12.8955 17.2012 13.3096C17.2011 13.7237 16.8653 14.0595 16.4512 14.0596H16.4424C16.0282 14.0596 15.6925 13.7237 15.6924 13.3096C15.6925 12.8954 16.0282 12.5596 16.4424 12.5596H16.4512Z" fill="none"/>
<path d="M16.0433 2V5.29078" stroke="currentColor" stroke-width="1.5" stroke-linecap="round" stroke-linejoin="round"/>
<path d="M7.96515 2V5.29078" stroke="currentColor" stroke-width="1.5" stroke-linecap="round" stroke-linejoin="round"/>
<path fill-rule="evenodd" clip-rule="evenodd" d="M16.2383 3.5791H7.77096C4.83427 3.5791 3 5.21504 3 8.22213V17.2718C3 20.3261 4.83427 21.9999 7.77096 21.9999H16.229C19.175 21.9999 21 20.3545 21 17.3474V8.22213C21.0092 5.21504 19.1842 3.5791 16.2383 3.5791Z" stroke="currentColor" stroke-width="1.5" stroke-linecap="round" stroke-linejoin="round"/>
</svg>
