<svg width="24" height="24" viewBox="0 0 24 24" fill="none" xmlns="http://www.w3.org/2000/svg">
<path d="M15.791 2.00098C16.1698 2.02467 16.4622 2.34951 16.4521 2.73535V3.76953C19.4608 4.06142 21 5.72515 21 8.71484V16.9844C21 20.3102 19.1044 22 15.374 22H8.62598C4.89561 22 3 20.3102 3 16.9844V8.71484C3 6.72475 3.67815 5.30022 5.06934 4.46875C5.28854 4.31912 5.57243 4.30844 5.80176 4.44141C6.03107 4.57453 6.16643 4.82856 6.15137 5.09668C6.13619 5.36488 5.97334 5.60149 5.73047 5.70703C4.80873 6.25544 4.37402 7.21115 4.37402 8.71484V8.97949H17.0605C17.4399 8.97949 17.748 9.29279 17.748 9.67871C17.748 10.0646 17.4399 10.377 17.0605 10.377H4.37402V16.9844C4.37402 19.5229 5.60867 20.576 8.62598 20.5938H15.374C18.3479 20.5937 19.6172 19.5141 19.6172 16.9756V8.70605C19.6172 6.49475 18.6521 5.42449 16.4521 5.16797V5.83984C16.4014 6.1981 16.0929 6.45994 15.7373 6.44629C15.3818 6.4326 15.0936 6.14807 15.0693 5.78711V2.67285C15.0762 2.48606 15.1565 2.30987 15.292 2.18359C15.4276 2.05731 15.6074 1.99146 15.791 2.00098ZM7.84766 16.1973C8.07818 16.196 8.29992 16.2881 8.46387 16.4531C8.62882 16.6193 8.72169 16.8459 8.72168 17.082C8.72168 17.5704 8.33262 17.9666 7.85254 17.9668C7.37229 17.9668 6.98242 17.5705 6.98242 17.082C6.98243 16.5951 7.36949 16.1997 7.84766 16.1973ZM12.0176 16.1973C12.4977 16.1974 12.8867 16.5936 12.8867 17.082C12.8867 17.5705 12.4977 17.9667 12.0176 17.9668C11.5373 17.9668 11.1475 17.5705 11.1475 17.082C11.1475 16.5935 11.5373 16.1973 12.0176 16.1973ZM16.1865 16.1973C16.4171 16.196 16.6387 16.2881 16.8027 16.4531C16.9677 16.6193 17.0606 16.8459 17.0605 17.082C17.0605 17.5705 16.6716 17.9667 16.1914 17.9668C15.7112 17.9668 15.3213 17.5705 15.3213 17.082C15.3213 16.5952 15.7085 16.1999 16.1865 16.1973ZM7.84766 12.6152C8.07825 12.614 8.2999 12.706 8.46387 12.8711C8.62883 13.0372 8.72169 13.2639 8.72168 13.5C8.72154 13.9883 8.33253 14.3836 7.85254 14.3838C7.37238 14.3838 6.98257 13.9884 6.98242 13.5C6.98242 13.013 7.36949 12.6177 7.84766 12.6152ZM12.0176 12.6152C12.4977 12.6153 12.8867 13.0116 12.8867 13.5C12.8866 13.9883 12.4977 14.3837 12.0176 14.3838C11.5374 14.3838 11.1476 13.9884 11.1475 13.5C11.1475 13.0115 11.5373 12.6152 12.0176 12.6152ZM16.1865 12.6152C16.4171 12.6139 16.6387 12.706 16.8027 12.8711C16.9677 13.0372 17.0606 13.2639 17.0605 13.5C17.0604 13.9883 16.6715 14.3837 16.1914 14.3838C15.7112 14.3838 15.3214 13.9884 15.3213 13.5C15.3213 13.0131 15.7085 12.6179 16.1865 12.6152ZM8.23926 2.10645C8.59335 2.10651 8.89114 2.3774 8.93066 2.73535V3.69922H12.8613C13.2405 3.69947 13.5479 4.01267 13.5479 4.39844C13.5476 4.78399 13.2404 5.09643 12.8613 5.09668H8.91309V5.7959C8.913 5.98263 8.8396 6.16175 8.70898 6.29297C8.57836 6.42418 8.40133 6.4964 8.21777 6.49414C7.84192 6.48449 7.5432 6.16947 7.54785 5.78711V2.73535C7.58738 2.37736 7.88511 2.10645 8.23926 2.10645Z" fill="none"/>
</svg>
