<svg width="24" height="24" viewBox="0 0 24 24" fill="none" xmlns="http://www.w3.org/2000/svg">
<path d="M15.7471 1.99951C19.608 1.99954 21.9999 4.39248 22 8.25537V15.7554C22 19.6073 19.608 21.9995 15.7471 21.9995H8.24414C4.39214 21.9995 1.99998 19.6074 2.00098 15.7524C2.00101 15.3306 2.34282 14.988 2.76562 14.9878C3.1886 14.9878 3.53121 15.3305 3.53125 15.7524C3.53125 18.7864 5.20197 20.4663 8.25391 20.4663H15.7471C18.79 20.4663 20.4697 18.7954 20.4697 15.7524V8.25244C20.4697 5.20951 18.8 3.52981 15.7471 3.52979H8.25293C5.21 3.52981 3.5303 5.20951 3.53027 8.25244V10.5835C3.53027 11.0014 3.19223 11.3391 2.77441 11.3394H2.7627C2.3409 11.3392 1.99911 10.9965 2 10.5747V8.25244C2.00003 4.39252 4.40999 1.99955 8.25391 1.99951H15.7471ZM12 6.8833C12.414 6.8833 12.75 7.21931 12.75 7.6333V11.5679L15.7764 13.3726C16.1311 13.5856 16.2479 14.045 16.0361 14.4009C15.8962 14.6358 15.6465 14.767 15.3916 14.7671C15.2606 14.7671 15.1278 14.7336 15.0068 14.6616L11.6162 12.6382C11.3893 12.5022 11.2501 12.2575 11.25 11.9937V7.6333C11.25 7.21937 11.5861 6.88341 12 6.8833Z" fill="none"/>
</svg>
