<svg width="24" height="24" viewBox="0 0 24 24" fill="none" xmlns="http://www.w3.org/2000/svg">
<path opacity="0.4" d="M11.9912 18.6217L5.49945 21.8643C5.00921 22.1304 4.39768 21.9527 4.12348 21.4645C4.0434 21.311 4.00106 21.1404 4 20.967V13.709C4 14.4286 4.40573 14.8728 5.47299 15.3702L11.9912 18.6217Z" fill="none"/>
<path d="M15.0693 2C17.777 2 19.9733 3.06595 20 5.79297V20.9668C19.9989 21.1372 19.9568 21.3049 19.877 21.4551C19.7484 21.7002 19.5261 21.8829 19.2617 21.96C18.9972 22.037 18.7123 22.0024 18.4736 21.8643L11.9912 18.6211L5.47266 15.3701C4.40568 14.8727 4.00007 14.4284 4 13.709V5.79297C4.00021 3.06595 6.19663 2 8.89551 2H15.0693ZM8.22461 8.04102C7.7912 8.04118 7.43945 8.39547 7.43945 8.83203C7.43968 9.2684 7.79134 9.6219 8.22461 9.62207H15.749C16.1822 9.62185 16.533 9.26837 16.5332 8.83203C16.5332 8.3955 16.1824 8.04123 15.749 8.04102H8.22461Z" fill="none"/>
</svg>
