<svg width="24" height="24" viewBox="0 0 24 24" fill="none" xmlns="http://www.w3.org/2000/svg">
<path d="M8.34668 2C8.72768 2 9.03995 2.30841 9.04395 2.69141C9.04505 2.84118 9.10509 2.98205 9.21289 3.08594C9.31889 3.18994 9.45847 3.24707 9.60547 3.24707H10.6211C12.0601 3.24707 13.2476 4.41626 13.2676 5.86426V6.79883C13.2676 7.18477 12.9543 7.49697 12.5693 7.49707H7.88184C7.76002 7.49407 7.66612 7.49115 7.57422 7.49414C5.29176 7.54258 3.46208 9.37974 3.39648 11.6348V16.1943C3.39449 16.3032 3.39542 16.3973 3.39941 16.4912C3.50253 18.8411 5.47864 20.6704 7.85156 20.5684C10.5694 20.6144 13.3326 20.6144 16.1074 20.5674C16.2411 20.5714 16.3349 20.5733 16.4277 20.5713C17.5697 20.5463 18.6319 20.0789 19.4199 19.2539C20.2079 18.4309 20.6295 17.35 20.6035 16.209V11.8701C20.6065 11.7602 20.6056 11.6671 20.6006 11.5752C20.4976 9.21819 18.5749 7.44807 16.1279 7.49707C15.741 7.50894 15.4269 7.19252 15.4219 6.80859C15.4171 6.42278 15.7255 6.10756 16.1104 6.10156C19.2531 6.07966 21.8609 8.43687 21.9951 11.5156C22.0001 11.6395 22.001 11.7638 21.998 11.8867V16.4736C21.961 17.8689 21.4084 19.194 20.4277 20.2188C19.3817 21.3127 17.9729 21.9318 16.4609 21.9648C16.338 21.9678 16.2138 21.9659 16.0889 21.9609C14.711 21.9859 13.3261 21.9971 11.9473 21.9971C10.5763 21.9971 9.21112 21.9859 7.87012 21.9619C4.78513 22.1149 2.14188 19.6698 2.00488 16.5498C1.99989 16.4259 1.99898 16.3026 2.00098 16.1797V11.8701C1.93298 8.76216 4.41908 6.16573 7.54102 6.09766C7.66299 6.09566 7.78713 6.09754 7.91211 6.10254L11.8711 6.10156V5.87207C11.8631 5.19709 11.3002 4.64261 10.6162 4.64258H9.61914C9.1022 4.62057 8.61031 4.44995 8.23633 4.08203C7.86335 3.71705 7.65543 3.22705 7.64941 2.70508C7.64542 2.32017 7.954 2.00416 8.33887 2H8.34668ZM9.08398 11.4766C9.50429 11.4767 9.84541 11.8152 9.8457 12.2324V13.2256H10.8555C11.1453 13.1945 11.4282 13.3309 11.583 13.5762C11.7378 13.8215 11.7376 14.1335 11.583 14.3789C11.4282 14.6243 11.1454 14.7606 10.8555 14.7295H9.8457V15.7314C9.84092 16.1469 9.50247 16.4824 9.08398 16.4873H9.0752C8.65821 16.4823 8.32321 16.1455 8.32324 15.7314V14.7295H7.31348C7.02343 14.7607 6.7408 14.6244 6.58594 14.3789C6.43118 14.1335 6.43111 13.8216 6.58594 13.5762C6.74087 13.331 7.02363 13.1944 7.31348 13.2256H8.32324V12.2324C8.32354 11.8153 8.66375 11.4768 9.08398 11.4766ZM16.1689 15.1865C16.3848 14.9722 16.7089 14.9062 16.9922 15.0195C17.0832 15.0618 17.1671 15.1182 17.2402 15.1865C17.5312 15.4793 17.5287 15.9509 17.2354 16.2412C16.9418 16.5311 16.4675 16.531 16.1738 16.2412C15.8802 15.9509 15.8779 15.4793 16.1689 15.1865ZM14.7168 11.6699C14.8981 11.5959 15.1019 11.5958 15.2832 11.6699C15.3779 11.7103 15.4649 11.7669 15.54 11.8369C15.6804 11.9771 15.7601 12.1667 15.7617 12.3643C15.7629 12.4632 15.7441 12.562 15.708 12.6543C15.6731 12.7486 15.6153 12.8333 15.54 12.9004C15.2425 13.1817 14.7751 13.1817 14.4775 12.9004C14.3298 12.7625 14.2452 12.5704 14.2451 12.3691C14.2452 12.1678 14.3297 11.9747 14.4775 11.8369C14.5441 11.7649 14.6261 11.7077 14.7168 11.6699Z" fill="none"/>
</svg>
