<svg width="24" height="24" viewBox="0 0 24 24" fill="none" xmlns="http://www.w3.org/2000/svg">
<path d="M16.334 2C19.723 2 22 4.37802 22 7.91602V16.084C22 19.622 19.722 22 16.333 22H10.9531C10.5391 22 10.2031 21.664 10.2031 21.25C10.2031 20.836 10.5391 20.5 10.9531 20.5H16.333C18.864 20.5 20.5 18.767 20.5 16.084V7.91602C20.5 5.23302 18.864 3.5 16.334 3.5H7.66504C5.13504 3.5 3.5 5.23302 3.5 7.91602V16.084C3.5 18.767 5.13504 20.5 7.66504 20.5C8.07902 20.5 8.41504 20.836 8.41504 21.25C8.41504 21.664 8.07902 22 7.66504 22C4.27604 22 2 19.622 2 16.084V7.91602C2 4.37802 4.27604 2 7.66504 2H16.334ZM8.83984 9.39844C10.0128 9.39844 10.9944 10.183 11.3184 11.25H17.0098C17.4238 11.25 17.7598 11.586 17.7598 12V13.8516C17.7598 14.2656 17.4238 14.6016 17.0098 14.6016C16.5959 14.6014 16.2598 14.2655 16.2598 13.8516V12.75H14.9307V13.8516C14.9307 14.2656 14.5947 14.6016 14.1807 14.6016C13.7668 14.6014 13.4307 14.2655 13.4307 13.8516V12.75H11.3184C10.9943 13.8179 10.0127 14.6016 8.83984 14.6016C7.40605 14.6015 6.23947 13.4348 6.23926 12C6.23926 11.629 6.31482 11.2706 6.4668 10.9326C6.6368 10.5546 7.07898 10.3856 7.45898 10.5566C7.83698 10.7256 8.00496 11.1699 7.83496 11.5479C7.77103 11.6908 7.73926 11.8431 7.73926 12C7.73947 12.6078 8.23305 13.1015 8.83984 13.1016C9.44771 13.1016 9.94217 12.6078 9.94238 12C9.94238 11.393 9.44784 10.8984 8.83984 10.8984C8.42592 10.8984 8.08984 10.5624 8.08984 10.1484C8.08993 9.73456 8.42597 9.39852 8.83984 9.39844Z" fill="none"/>
</svg>
