<svg width="24" height="24" viewBox="0 0 24 24" fill="none" xmlns="http://www.w3.org/2000/svg">
<path fill-rule="evenodd" clip-rule="evenodd" d="M18.865 5.12401C19.302 5.27701 19.594 5.68901 19.594 6.15201V12.925C19.594 14.818 18.905 16.625 17.691 18.025C17.079 18.73 16.307 19.279 15.486 19.723L11.928 21.645L8.364 19.722C7.541 19.278 6.768 18.73 6.156 18.024C4.94 16.624 4.25 14.816 4.25 12.921V6.15201C4.25 5.68901 4.542 5.27701 4.979 5.12401L11.561 2.81101C11.795 2.72901 12.05 2.72901 12.283 2.81101L18.865 5.12401Z" stroke="currentColor" stroke-width="1.5" stroke-linecap="round" stroke-linejoin="round"/>
<path opacity="0.4" d="M13.2705 9.55859C13.5633 9.26577 14.0381 9.2659 14.3311 9.55859C14.6239 9.85149 14.6239 10.3262 14.3311 10.6191L12.9824 11.9678L14.3311 13.3164C14.6239 13.6093 14.6239 14.0841 14.3311 14.377C14.0382 14.6698 13.5634 14.6698 13.2705 14.377L11.9219 13.0283L10.5732 14.377C10.2803 14.6697 9.80555 14.6698 9.5127 14.377C9.22004 14.0841 9.21998 13.6092 9.5127 13.3164L10.8613 11.9678L9.5127 10.6191C9.2198 10.3262 9.2198 9.85149 9.5127 9.55859C9.80559 9.2657 10.2803 9.2657 10.5732 9.55859L11.9219 10.9072L13.2705 9.55859Z" fill="none"/>
</svg>
