<svg width="24" height="24" viewBox="0 0 24 24" fill="none" xmlns="http://www.w3.org/2000/svg">
<path d="M11.3848 2.10059C11.7819 1.96663 12.2191 1.96662 12.6143 2.10059L19.2578 4.36719C20.0008 4.62117 20.5 5.30535 20.5 6.07129V12.7119C20.5 14.7249 19.7519 16.6744 18.3945 18.1953C17.772 18.8922 16.9757 19.4914 15.957 20.0273L12.3662 21.9121C12.2541 21.9701 12.1293 22 12.0059 22C11.8826 21.9999 11.7594 21.9699 11.6475 21.9121L8.0498 20.0264C7.02899 19.4894 6.22989 18.8903 5.60938 18.1963C4.24999 16.6733 3.5 14.723 3.5 12.708C3.50012 12.3021 3.84009 11.9727 4.25781 11.9727C4.67534 11.9729 5.01452 12.3023 5.01465 12.708C5.01465 14.37 5.63229 15.9765 6.75293 17.2324C7.252 17.7913 7.91147 18.2815 8.76855 18.7314L12.0059 20.4277L15.2363 18.7324C16.0913 18.2835 16.7499 17.7933 17.251 17.2324C18.3696 15.9775 18.9863 14.3729 18.9863 12.7119V6.07129C18.9863 5.9294 18.8936 5.80387 18.7568 5.75684L12.1143 3.48926C12.0412 3.46427 11.9598 3.46427 11.8857 3.48926L5.24414 5.75684C5.10641 5.80388 5.0147 5.92942 5.01465 6.07129V7.97168C5.01447 8.37838 4.6753 8.70778 4.25781 8.70801C3.84013 8.70801 3.50018 8.37852 3.5 7.97168V6.07129C3.50005 5.30535 4.00022 4.62117 4.74316 4.36719L11.3848 2.10059ZM13.3477 9.4375C13.643 9.15051 14.1216 9.15051 14.418 9.4375C14.7132 9.7265 14.7133 10.1906 14.418 10.4775L13.0566 11.8008L14.418 13.123C14.7133 13.41 14.7133 13.8761 14.418 14.1631C14.2698 14.307 14.0763 14.3789 13.8828 14.3789C13.6884 14.3789 13.4948 14.307 13.3477 14.1631L11.9863 12.8408L10.625 14.1631C10.4768 14.3071 10.2833 14.3789 10.0898 14.3789C9.89639 14.3789 9.70287 14.3071 9.55469 14.1631C9.25939 13.8761 9.25936 13.41 9.55469 13.123L10.916 11.8008L9.55469 10.4775C9.25941 10.1906 9.25953 9.72651 9.55469 9.4375C9.85106 9.15051 10.3297 9.15051 10.625 9.4375L11.9863 10.7607L13.3477 9.4375Z" fill="none"/>
</svg>
