<svg width="24" height="24" viewBox="0 0 24 24" fill="none" xmlns="http://www.w3.org/2000/svg">
<path opacity="0.4" d="M8.23918 8.70907V7.36726C8.24934 5.37044 9.92597 3.73939 11.9989 3.73939C13.5841 3.73939 15.0067 4.72339 15.5249 6.19541C15.6976 6.65262 16.2057 6.89017 16.663 6.73213C16.8865 6.66156 17.0694 6.50253 17.171 6.29381C17.2727 6.08508 17.293 5.84654 17.2117 5.62787C16.4394 3.46208 14.3462 2 11.9786 2C8.95048 2 6.48126 4.41626 6.46094 7.38714V8.91084L8.23918 8.70907Z" fill="none"/>
<path d="M16.2314 8.71094C18.5888 8.71107 20.5 10.5809 20.5 12.8867V17.8242C20.5 20.1301 18.5888 21.9999 16.2314 22H7.76855C5.41122 21.9999 3.5 20.1301 3.5 17.8242V12.8867C3.5 10.5809 5.41122 8.71107 7.76855 8.71094H16.2314ZM11.9951 13.3828C11.5074 13.3828 11.1114 13.77 11.1113 14.2471V16.4541C11.1115 16.9409 11.5075 17.3281 11.9951 17.3281C12.4928 17.328 12.8885 16.9409 12.8887 16.4541V14.2471C12.8886 13.7701 12.4929 13.3829 11.9951 13.3828Z" fill="none"/>
</svg>
