<svg width="24" height="24" viewBox="0 0 24 24" fill="none" xmlns="http://www.w3.org/2000/svg">
<path d="M8.62988 5.11328C9.06557 5.02676 9.48904 5.3074 9.57617 5.74023C9.66309 6.17297 9.38091 6.59412 8.94531 6.68066C5.82682 7.33968 3.59908 10.0787 3.60645 13.2461C3.59919 13.4935 3.61402 13.7415 3.65039 13.9863C4.03502 17.1489 6.61439 19.6022 9.81152 19.8457C13.0087 20.0892 15.9344 18.0556 16.7998 14.9883C16.923 14.5711 17.3584 14.3274 17.7812 14.4395C17.9887 14.4886 18.1674 14.6196 18.2764 14.8018C18.3852 14.9838 18.4149 15.2018 18.3594 15.4062C17.764 17.5649 16.312 19.3909 14.3359 20.4658C11.9112 21.8009 8.97536 21.8459 6.51074 20.585C4.0463 19.324 2.37863 16.9237 2.06445 14.1875C2.01352 13.868 1.99282 13.544 2.00293 13.2207C1.99869 9.29942 4.76594 5.91405 8.62988 5.11328ZM13.4424 2.5C17.7169 2.62435 21.3022 5.74427 21.9893 9.9375H21.998V10.0771C22.0243 10.4689 21.8915 10.8551 21.6299 11.1494C21.3681 11.4438 20.9982 11.6222 20.6035 11.6445L14.0293 12.0801H13.9238C13.0904 12.0781 12.3974 11.4415 12.3291 10.6162L11.8906 4.07617C11.8644 3.66372 12.014 3.25943 12.3027 2.96191C12.6017 2.65771 13.0145 2.49017 13.4424 2.5ZM13.9238 10.5117L20.4111 10.085C19.8052 6.71902 16.9254 4.22374 13.4863 4.08496L13.9238 10.5117Z" fill="none"/>
</svg>
