<svg width="24" height="24" viewBox="0 0 24 24" fill="none" xmlns="http://www.w3.org/2000/svg">
<path opacity="0.4" d="M16.334 2H7.665C4.276 2 2 4.378 2 7.917V16.084C2 19.622 4.276 22 7.665 22H16.333C19.722 22 22 19.622 22 16.084V7.917C22 4.378 19.723 2 16.334 2Z" fill="black"/>
<path d="M8.84375 9.39893C10.0135 9.39908 10.9934 10.1788 11.3135 11.2485H17.0137C17.4234 11.2487 17.7635 11.5888 17.7637 11.9985V13.8491C17.7636 14.2689 17.4235 14.599 17.0137 14.5991C16.5937 14.5991 16.2638 14.269 16.2637 13.8491V12.7485H14.9336V13.8491C14.9335 14.269 14.5934 14.599 14.1836 14.5991C13.7637 14.5991 13.4337 14.269 13.4336 13.8491V12.7485H11.3135C10.9935 13.8184 10.0136 14.599 8.84375 14.5991C7.40375 14.5991 6.2334 13.4385 6.2334 11.9985C6.23361 10.5687 7.40388 9.39893 8.84375 9.39893ZM8.84375 10.8989C8.23388 10.8989 7.73361 11.3887 7.7334 11.9985C7.7334 12.6085 8.23375 13.0991 8.84375 13.0991C9.44359 13.0989 9.94336 12.6084 9.94336 11.9985C9.94315 11.3888 9.44347 10.8991 8.84375 10.8989Z" fill="black"/>
</svg>
