<svg width="24" height="24" viewBox="0 0 24 24" fill="none" xmlns="http://www.w3.org/2000/svg">
<path opacity="0.4" d="M14.7617 6.74219C15.3667 6.74219 15.9481 6.98074 16.3711 7.40527C16.7971 7.83379 17.0332 8.40966 17.0322 9.00879V10.2539C17.0272 10.4 16.9078 10.5185 16.7588 10.5225H7.23926C7.09126 10.5176 6.97175 10.399 6.96875 10.2539V9.00879C6.95777 7.76835 7.97429 6.75494 9.23828 6.74219H14.7617ZM17.1934 3C19.3903 3.00012 21.1758 4.75194 21.1758 6.90625V8.7627C21.1756 9.17437 20.8359 9.50977 20.415 9.50977C19.9952 9.50971 19.6545 9.17433 19.6543 8.7627V6.90625C19.6543 5.57565 18.5503 4.49328 17.1934 4.49316H15.6006C15.1806 4.49316 14.8389 4.15892 14.8389 3.74707C14.8391 3.33444 15.1807 3 15.6006 3H17.1934ZM8.42676 3C8.84671 3 9.1884 3.33431 9.18848 3.74707C9.18848 4.15892 8.84776 4.49316 8.42676 4.49316L6.79785 4.49414C5.44618 4.49631 4.34693 5.57592 4.34668 6.90234V8.76172C4.34668 9.17357 4.00398 9.50879 3.58398 9.50879C3.1641 9.50865 2.82324 9.17349 2.82324 8.76172V6.90234C2.82349 4.75319 4.60619 3.00313 6.79688 3.00098L8.42578 3H8.42676Z" fill="black"/>
<path d="M22.239 12.041H1.762C1.342 12.041 1 12.3754 1 12.7882C1 13.2001 1.342 13.5335 1.762 13.5335H2.823V17.097C2.823 19.2465 4.607 20.9968 6.798 20.9988L8.427 20.9998C8.848 20.9998 9.188 20.6654 9.189 20.2526C9.189 19.8407 8.848 19.5063 8.428 19.5063L6.8 19.5053C5.447 19.5034 4.346 18.4237 4.346 17.097V13.5335H6.969V14.5249C6.959 15.7653 7.974 16.7793 9.238 16.791H14.762C16.027 16.7793 17.042 15.7653 17.032 14.5249V13.5335H19.655V17.0931C19.655 18.4247 18.551 19.5063 17.194 19.5063H15.601C15.18 19.5063 14.839 19.8407 14.839 20.2526C14.839 20.6654 15.18 20.9998 15.601 20.9998H17.194C19.39 20.9998 21.177 19.2484 21.177 17.0931V13.5335H22.239C22.659 13.5335 23 13.2001 23 12.7882C23 12.3754 22.659 12.041 22.239 12.041Z" fill="black"/>
</svg>
