<svg width="24" height="24" viewBox="0 0 24 24" fill="none" xmlns="http://www.w3.org/2000/svg">
<path d="M19.3857 3.71045C19.6716 3.42906 20.1349 3.42922 20.4209 3.71045C20.7069 3.99199 20.7069 4.44844 20.4209 4.72998L4.61621 20.2876C4.47321 20.4284 4.28563 20.4995 4.09863 20.4995C3.91078 20.4994 3.72394 20.4283 3.58105 20.2876C3.29531 20.006 3.29514 19.5505 3.58105 19.27L8.77734 14.1548C8.33835 13.5248 8.09864 12.7811 8.09863 12.0005C8.09863 9.8821 9.84902 8.15972 12.001 8.15967C12.788 8.15967 13.5544 8.39748 14.1914 8.82471L16.2246 6.82373C13.3567 4.98703 9.85983 5.14385 7.12793 7.27295C5.68494 8.39023 4.4462 10.0209 3.5332 12.0015C3.9392 12.8864 4.41151 13.7027 4.9375 14.4312C5.17119 14.755 5.09353 15.2048 4.76465 15.4351C4.63572 15.5255 4.4877 15.5688 4.34082 15.5688C4.11203 15.5688 3.8871 15.4647 3.74414 15.2661C3.10214 14.3772 2.53555 13.3734 2.06055 12.2837C1.98159 12.1026 1.98159 11.8964 2.06152 11.7153C3.0825 9.38828 4.51974 7.46019 6.22168 6.14209C9.51968 3.5738 13.8523 3.44672 17.2783 5.78662L19.3857 3.71045ZM19.0244 8.3208C19.3464 8.08183 19.8039 8.14557 20.0479 8.46338C20.7719 9.40938 21.4084 10.5045 21.9414 11.7144C22.0211 11.8962 22.0212 12.1038 21.9414 12.2847C19.8444 17.0678 16.128 19.9233 12.001 19.9233C11.0631 19.9233 10.1313 19.7742 9.23242 19.479C8.84942 19.352 8.64153 18.9439 8.76953 18.5669C8.89661 18.189 9.31038 17.9888 9.69531 18.1118C10.4452 18.3578 11.2211 18.4829 12.001 18.4829C15.4459 18.4829 18.5927 16.0659 20.4688 12.0005C20.0098 11.0072 19.4759 10.1102 18.8789 9.32959C18.636 9.01164 18.7004 8.56097 19.0244 8.3208ZM15.2402 11.8452C15.6382 11.9151 15.9039 12.2894 15.832 12.6821C15.548 14.2453 14.2882 15.4855 12.7002 15.77C12.6563 15.7769 12.6122 15.7808 12.5684 15.7808C12.2226 15.7806 11.9138 15.5381 11.8496 15.1909C11.7776 14.7992 12.0416 14.424 12.4395 14.3521C13.4295 14.1758 14.2136 13.4018 14.3916 12.4272C14.4626 12.0376 14.8454 11.7746 15.2402 11.8452ZM12.001 9.59912C10.656 9.59917 9.5625 10.6755 9.5625 12.0005C9.56251 12.3912 9.6677 12.7635 9.84766 13.1011L13.1201 9.88037C12.7781 9.70416 12.396 9.59912 12.001 9.59912Z" fill="none"/>
</svg>
