<svg width="24" height="24" viewBox="0 0 24 24" fill="none" xmlns="http://www.w3.org/2000/svg">
<path fill-rule="evenodd" clip-rule="evenodd" d="M12 2.75C17.108 2.75 21.25 6.892 21.25 12C21.25 17.108 17.108 21.25 12 21.25C6.891 21.25 2.75 17.108 2.75 12C2.75 6.892 6.891 2.75 12 2.75Z" stroke="currentColor" stroke-width="1.5" stroke-linecap="round" stroke-linejoin="round"/>
<path opacity="0.4" d="M7.52027 13.1972C6.85927 13.1972 6.32227 12.6602 6.32227 12.0002C6.32227 11.3402 6.85927 10.8022 7.52027 10.8022C8.18127 10.8022 8.71827 11.3402 8.71827 12.0002C8.71827 12.6602 8.18127 13.1972 7.52027 13.1972Z" fill="none"/>
<path opacity="0.4" d="M11.9998 13.1972C11.3388 13.1972 10.8018 12.6602 10.8018 12.0002C10.8018 11.3402 11.3388 10.8022 11.9998 10.8022C12.6608 10.8022 13.1978 11.3402 13.1978 12.0002C13.1978 12.6602 12.6608 13.1972 11.9998 13.1972Z" fill="none"/>
<path opacity="0.4" d="M16.4792 13.1972C15.8182 13.1972 15.2812 12.6602 15.2812 12.0002C15.2812 11.3402 15.8182 10.8022 16.4792 10.8022C17.1402 10.8022 17.6772 11.3402 17.6772 12.0002C17.6772 12.6602 17.1402 13.1972 16.4792 13.1972Z" fill="none"/>
</svg>
