<svg width="24" height="24" viewBox="0 0 24 24" fill="none" xmlns="http://www.w3.org/2000/svg">
<path opacity="0.4" d="M22 12C22 17.524 17.523 22 12 22C6.477 22 2 17.524 2 12C2 6.478 6.477 2 12 2C17.523 2 22 6.478 22 12Z" fill="none"/>
<path d="M7.52148 10.8037C8.18237 10.8038 8.71973 11.3411 8.71973 12C8.71957 12.6598 8.18228 13.1971 7.52148 13.1973C6.86058 13.1973 6.3234 12.6599 6.32324 12C6.32324 11.341 6.86048 10.8037 7.52148 10.8037ZM12 10.8037C12.661 10.8037 13.1982 11.341 13.1982 12C13.1981 12.6599 12.6609 13.1973 12 13.1973C11.3393 13.1971 10.8029 12.6598 10.8027 12C10.8027 11.3411 11.3392 10.8039 12 10.8037ZM16.4795 10.8037C17.1405 10.8037 17.6777 11.341 17.6777 12C17.6776 12.6599 17.1404 13.1973 16.4795 13.1973C15.8187 13.1971 15.2824 12.6598 15.2822 12C15.2822 11.3411 15.8186 10.8038 16.4795 10.8037Z" fill="none"/>
</svg>
