<svg width="24" height="24" viewBox="0 0 24 24" fill="none" xmlns="http://www.w3.org/2000/svg">
<path d="M12 2C17.514 2 22 6.485 22 12C22 17.514 17.514 22 12 22C8.872 22 5.98324 20.5767 4.07324 18.0977C3.82833 17.7787 3.88712 17.3221 4.20508 17.0781C4.52301 16.8322 4.97857 16.8931 5.22461 17.21C6.85661 19.33 9.327 20.5459 12 20.5459C16.712 20.5459 20.5449 16.713 20.5449 12C20.5449 7.288 16.712 3.4541 12 3.4541C7.288 3.4541 3.4541 7.288 3.4541 12C3.4541 12.4379 3.48678 12.8729 3.55176 13.2988C3.61174 13.6947 3.33917 14.0658 2.94336 14.127C2.54436 14.193 2.17526 13.9156 2.11426 13.5186C2.0383 13.0207 2 12.5099 2 12C2 6.485 6.486 2 12 2ZM7.52051 10.8037C8.18137 10.8039 8.71777 11.3411 8.71777 12C8.71777 12.6599 8.18137 13.1971 7.52051 13.1973C6.86051 13.1973 6.32227 12.66 6.32227 12C6.32227 11.341 6.86051 10.8037 7.52051 10.8037ZM12 10.8037C12.6599 10.8039 13.1973 11.3411 13.1973 12C13.1973 12.6599 12.6599 13.1971 12 13.1973C11.339 13.1973 10.8018 12.66 10.8018 12C10.8018 11.341 11.339 10.8037 12 10.8037ZM16.4785 10.8037C17.1395 10.8037 17.6768 11.341 17.6768 12C17.6768 12.66 17.1395 13.1973 16.4785 13.1973C15.8186 13.1972 15.2803 12.6599 15.2803 12C15.2803 11.3411 15.8186 10.8038 16.4785 10.8037Z" fill="none"/>
</svg>
