<svg width="24" height="24" viewBox="0 0 24 24" fill="none" xmlns="http://www.w3.org/2000/svg">
<path opacity="0.4" d="M12 4C14.0682 4 16.0291 4.71753 17.7363 6.0459C19.4436 7.3637 20.8975 9.29449 21.9414 11.709C22.0195 11.8923 22.0195 12.1067 21.9414 12.2812C19.8536 17.1103 16.1366 20 12 20H11.9902C7.86342 20 4.1464 17.1103 2.05859 12.2812C1.98054 12.1067 1.98054 11.8923 2.05859 11.709C4.14641 6.87899 7.86344 4 11.9902 4H12ZM12 8.12109C9.8439 8.12109 8.09766 9.85697 8.09766 12C8.09766 14.1333 9.8439 15.8691 12 15.8691C14.1463 15.8691 15.8926 14.1333 15.8926 12C15.8926 9.85697 14.1463 8.12109 12 8.12109Z" fill="none"/>
<path d="M14.4308 11.997C14.4308 13.3255 13.3381 14.4115 12.0015 14.4115C10.6552 14.4115 9.5625 13.3255 9.5625 11.997C9.5625 11.8321 9.58201 11.678 9.61128 11.5228H9.66006C10.743 11.5228 11.621 10.6695 11.6601 9.60184C11.7674 9.58342 11.8845 9.57275 12.0015 9.57275C13.3381 9.57275 14.4308 10.6588 14.4308 11.997Z" fill="none"/>
</svg>
