<svg width="24" height="24" viewBox="0 0 24 24" fill="none" xmlns="http://www.w3.org/2000/svg">
<path d="M12.002 4C16.1379 4.00199 19.8535 6.88644 21.9404 11.7139C22.0203 11.8966 22.0203 12.1033 21.9404 12.2871C21.6924 12.8606 21.4162 13.4186 21.1182 13.9414C20.9191 14.293 20.475 14.4155 20.1211 14.2188C19.7691 14.02 19.6458 13.5774 19.8438 13.2275C20.0657 12.837 20.2748 12.4243 20.4678 12C18.6008 7.89625 15.4529 5.45607 12 5.45508C8.54619 5.45624 5.39816 7.89628 3.53125 12C5.39816 16.1037 8.54619 18.5448 12 18.5449C14.008 18.5449 15.9456 17.714 17.6025 16.1406C17.8955 15.8654 18.3578 15.8749 18.6367 16.165C18.9167 16.4543 18.9043 16.9151 18.6123 17.1924C16.6793 19.0281 14.3939 19.999 12.002 20H11.9971C7.86224 19.9979 4.1475 17.1144 2.05957 12.2871C1.98062 12.1043 1.98061 11.8967 2.05957 11.7139C4.1475 6.88655 7.86224 4.00212 11.9971 4H12.002ZM12 8.12402C14.1499 8.1241 15.8984 9.86313 15.8984 12C15.8982 14.1377 14.1498 15.8759 12 15.876C11.2921 15.876 10.5991 15.685 9.99609 15.3242C9.6491 15.1185 9.5371 14.6711 9.74609 14.3262C9.95415 13.9834 10.4041 13.8694 10.749 14.0791C11.125 14.3036 11.5581 14.4219 12 14.4219C13.3428 14.4218 14.4353 13.3356 14.4355 12C14.4355 10.6662 13.3429 9.57918 12 9.5791C10.657 9.5791 9.56348 10.6662 9.56348 12C9.56326 12.4023 9.23583 12.7275 8.83203 12.7275C8.42817 12.7275 8.1008 12.4024 8.10059 12C8.10059 9.86309 9.85003 8.12402 12 8.12402Z" fill="none"/>
</svg>
