<svg width="24" height="24" viewBox="0 0 24 24" fill="none" xmlns="http://www.w3.org/2000/svg">
<path fill-rule="evenodd" clip-rule="evenodd" d="M16.335 2.75H7.66598C4.64498 2.75 2.75098 4.889 2.75098 7.916V16.084C2.75098 19.111 4.63498 21.25 7.66598 21.25H16.334C19.365 21.25 21.251 19.111 21.251 16.084V7.916C21.251 4.889 19.365 2.75 16.335 2.75Z" stroke="black" stroke-width="1.5" stroke-linecap="round" stroke-linejoin="round"/>
<path opacity="0.4" d="M7.52124 13.1972C6.86024 13.1972 6.32324 12.6602 6.32324 12.0002C6.32324 11.3402 6.86024 10.8022 7.52124 10.8022C8.18224 10.8022 8.71924 11.3402 8.71924 12.0002C8.71924 12.6602 8.18224 13.1972 7.52124 13.1972Z" fill="black"/>
<path opacity="0.4" d="M12.0007 13.1972C11.3397 13.1972 10.8027 12.6602 10.8027 12.0002C10.8027 11.3402 11.3397 10.8022 12.0007 10.8022C12.6617 10.8022 13.1987 11.3402 13.1987 12.0002C13.1987 12.6602 12.6617 13.1972 12.0007 13.1972Z" fill="black"/>
<path opacity="0.4" d="M16.4792 13.1972C15.8182 13.1972 15.2812 12.6602 15.2812 12.0002C15.2812 11.3402 15.8182 10.8022 16.4792 10.8022C17.1402 10.8022 17.6772 11.3402 17.6772 12.0002C17.6772 12.6602 17.1402 13.1972 16.4792 13.1972Z" fill="black"/>
</svg>
