<svg width="24" height="24" viewBox="0 0 24 24" fill="none" xmlns="http://www.w3.org/2000/svg">
<path fill-rule="evenodd" clip-rule="evenodd" d="M12 3.5C7.313 3.5 3.5 7.313 3.5 12C3.5 16.687 7.313 20.5 12 20.5C16.687 20.5 20.5 16.687 20.5 12C20.5 7.313 16.687 3.5 12 3.5ZM12 22C6.486 22 2 17.514 2 12C2 6.486 6.486 2 12 2C17.514 2 22 6.486 22 12C22 17.514 17.514 22 12 22Z" fill="none"/>
<path fill-rule="evenodd" clip-rule="evenodd" d="M13.4421 16.2206C13.2511 16.2206 13.0591 16.1476 12.9131 16.0016L9.42605 12.5316C9.28505 12.3906 9.20605 12.1996 9.20605 11.9996C9.20605 11.8006 9.28505 11.6096 9.42605 11.4686L12.9131 7.99756C13.2061 7.70556 13.6801 7.70556 13.9731 7.99956C14.2661 8.29356 14.2641 8.76856 13.9711 9.06056L11.0191 11.9996L13.9711 14.9396C14.2641 15.2316 14.2661 15.7056 13.9731 15.9996C13.8271 16.1476 13.6341 16.2206 13.4421 16.2206Z" fill="none"/>
</svg>
