<svg width="24" height="24" viewBox="0 0 24 24" fill="none" xmlns="http://www.w3.org/2000/svg">
<path fill-rule="evenodd" clip-rule="evenodd" d="M7.916 3.5C5.233 3.5 3.5 5.135 3.5 7.665V16.334C3.5 18.864 5.233 20.5 7.916 20.5H16.084C18.767 20.5 20.5 18.864 20.5 16.334V7.665C20.5 5.135 18.767 3.5 16.084 3.5H7.916ZM16.084 22H7.916C4.378 22 2 19.723 2 16.334V7.665C2 4.276 4.378 2 7.916 2H16.084C19.622 2 22 4.276 22 7.665V16.334C22 19.723 19.622 22 16.084 22Z" fill="none"/>
<path fill-rule="evenodd" clip-rule="evenodd" d="M16.0861 12.75H7.91406C7.50006 12.75 7.16406 12.414 7.16406 12C7.16406 11.586 7.50006 11.25 7.91406 11.25H16.0861C16.5001 11.25 16.8361 11.586 16.8361 12C16.8361 12.414 16.5001 12.75 16.0861 12.75Z" fill="none"/>
<path fill-rule="evenodd" clip-rule="evenodd" d="M12.3226 16.4982C12.1306 16.4982 11.9376 16.4252 11.7916 16.2772C11.4996 15.9832 11.5006 15.5092 11.7936 15.2172L15.0236 12.0002L11.7936 8.78319C11.5006 8.49119 11.4996 8.01719 11.7916 7.72319C12.0836 7.42919 12.5576 7.42919 12.8516 7.72119L16.6156 11.4692C16.7576 11.6092 16.8366 11.8012 16.8366 12.0002C16.8366 12.1992 16.7576 12.3912 16.6156 12.5312L12.8516 16.2792C12.7056 16.4252 12.5136 16.4982 12.3226 16.4982Z" fill="none"/>
</svg>
