<svg width="24" height="24" viewBox="0 0 24 24" fill="none" xmlns="http://www.w3.org/2000/svg">
<path d="M20.1816 11.1699C20.5133 11.1699 20.811 11.3725 20.9375 11.6836C20.9789 11.7854 21 11.8927 21 12C21 12.1797 20.9426 12.3579 20.832 12.5039L20.7588 12.5879L14.1592 19.2578C13.8396 19.5811 13.3215 19.5801 13.0029 19.2559C12.7109 18.9575 12.6866 18.4907 12.9316 18.166L13.0049 18.0811L18.2012 12.8301H3.81836C3.36678 12.8301 3.00009 12.4583 3 12C3 11.5769 3.31255 11.227 3.71582 11.1758L3.81836 11.1699H20.1816ZM13.002 4.74414C13.294 4.44678 13.7545 4.42118 14.0762 4.66797L14.1602 4.74219L17.7988 8.4209C17.9603 8.58364 18.04 8.7961 18.04 9.00977C18.04 9.22119 17.961 9.43297 17.8018 9.5957C17.5098 9.894 17.051 9.91932 16.7295 9.67188L16.6445 9.59766L13.0049 5.91895C12.6843 5.59577 12.6837 5.06966 13.002 4.74414Z" fill="none"/>
</svg>
