<svg width="24" height="24" viewBox="0 0 24 24" fill="none" xmlns="http://www.w3.org/2000/svg">
<path d="M14.4111 9.96094C14.6218 9.96094 14.8339 10.0431 14.9941 10.207L19.7598 15.0723L19.833 15.1582C20.0776 15.487 20.0524 15.9573 19.7568 16.2559C19.4353 16.5804 18.9133 16.583 18.5918 16.2539L13.8271 11.3887L13.7539 11.3027C13.5093 10.9739 13.5354 10.5036 13.8311 10.2051C13.9912 10.0434 14.2016 9.96099 14.4111 9.96094ZM11.999 7.5C12.2086 7.5 12.4199 7.58241 12.5801 7.74414C12.9025 8.06982 12.9034 8.59984 12.582 8.92773L5.40527 16.2539L5.32129 16.3291C4.99861 16.5802 4.53594 16.5533 4.24121 16.2559C3.91969 15.9302 3.91871 15.4002 4.24023 15.0723L11.416 7.74609L11.501 7.6709C11.6472 7.55717 11.8228 7.50003 11.999 7.5Z" fill="none"/>
</svg>
