<svg width="24" height="24" viewBox="0 0 24 24" fill="none" xmlns="http://www.w3.org/2000/svg">
<path fill-rule="evenodd" clip-rule="evenodd" d="M7.666 3.5C5.136 3.5 3.5 5.233 3.5 7.916V16.084C3.5 18.767 5.136 20.5 7.666 20.5H16.335C18.865 20.5 20.5 18.767 20.5 16.084V7.916C20.5 5.233 18.865 3.5 16.335 3.5H7.666ZM16.335 22H7.666C4.277 22 2 19.622 2 16.084V7.916C2 4.378 4.277 2 7.666 2H16.335C19.724 2 22 4.378 22 7.916V16.084C22 19.622 19.724 22 16.335 22Z" fill="none"/>
<path fill-rule="evenodd" clip-rule="evenodd" d="M12 16.8361C11.586 16.8361 11.25 16.5001 11.25 16.0861V7.91406C11.25 7.50006 11.586 7.16406 12 7.16406C12.414 7.16406 12.75 7.50006 12.75 7.91406V16.0861C12.75 16.5001 12.414 16.8361 12 16.8361Z" fill="none"/>
<path fill-rule="evenodd" clip-rule="evenodd" d="M11.9997 16.837C11.8007 16.837 11.6087 16.758 11.4687 16.616L7.72071 12.852C7.42771 12.558 7.42971 12.083 7.72271 11.791C8.01671 11.5 8.49071 11.498 8.78271 11.793L11.9997 15.024L15.2167 11.793C15.5097 11.498 15.9837 11.5 16.2767 11.791C16.5697 12.083 16.5717 12.558 16.2787 12.852L12.5307 16.616C12.3907 16.758 12.1987 16.837 11.9997 16.837Z" fill="none"/>
</svg>
