<svg width="24" height="24" viewBox="0 0 24 24" fill="none" xmlns="http://www.w3.org/2000/svg">
<path d="M2 13.1777C2.00014 12.7609 2.33901 12.422 2.75586 12.4219H2.76465V12.4395C3.18665 12.4395 3.52927 12.7811 3.53027 13.2031V15.7471C3.5303 18.8 5.20016 20.4697 8.24414 20.4697H15.7441C18.79 20.4697 20.4697 18.79 20.4697 15.7471V8.24707C20.4697 5.21309 18.79 3.53323 15.7471 3.5332H8.24707C5.20407 3.5332 3.5332 5.21307 3.5332 8.24707C3.53316 8.66904 3.18955 9.01172 2.76758 9.01172C2.3458 9.01149 2.00297 8.6689 2.00293 8.24707C1.99993 4.39207 4.39214 2 8.24414 2H15.7471C19.608 2.00003 22 4.39216 22 8.24414V15.7441C21.9999 19.607 19.608 22 15.7471 22H8.24707C4.41009 22 2.00003 19.607 2 15.7471V13.1777ZM7.16406 12C7.16406 11.586 7.50008 11.25 7.91406 11.25H16.0859C16.1849 11.25 16.2811 11.2697 16.374 11.3076C16.465 11.3456 16.5482 11.4007 16.6172 11.4707C16.6252 11.4777 16.6268 11.4871 16.6338 11.4941C16.6928 11.5601 16.7443 11.6319 16.7783 11.7139C16.8113 11.7948 16.8251 11.8799 16.8291 11.9648C16.8301 11.9778 16.8359 11.987 16.8359 12V12.001C16.8359 12.099 16.8163 12.1961 16.7783 12.2871C16.7403 12.3791 16.6852 12.4623 16.6162 12.5303L16.6152 12.5313L12.8516 16.2793C12.5586 16.5702 12.083 16.5722 11.791 16.2773C11.498 15.9833 11.499 15.5088 11.793 15.2168L14.2705 12.75H7.91406C7.50011 12.75 7.16412 12.4139 7.16406 12ZM11.793 8.7832C11.499 8.4912 11.498 8.01666 11.79 7.72266C11.938 7.57482 12.1303 7.50195 12.3232 7.50195C12.514 7.50207 12.7047 7.57496 12.8516 7.7207L14.1357 8.99902C14.4287 9.29099 14.4296 9.76557 14.1377 10.0596C13.8447 10.3526 13.3711 10.3525 13.0771 10.0605L11.793 8.7832Z" fill="none"/>
</svg>
