<svg width="24" height="24" viewBox="0 0 24 24" fill="none" xmlns="http://www.w3.org/2000/svg">
<path d="M12.001 2C17.515 2 22.001 6.486 22.001 12C22.001 17.514 17.515 22 12.001 22C6.48698 22 2.00098 17.514 2.00098 12C2.00098 8.872 3.42432 5.98324 5.90332 4.07324C6.22131 3.82833 6.67887 3.88812 6.92285 4.20508C7.16879 4.523 7.10782 4.97855 6.79102 5.22559C4.67002 6.85659 3.45508 9.327 3.45508 12C3.45508 16.712 7.28798 20.5459 12.001 20.5459C16.713 20.5459 20.5459 16.712 20.5459 12C20.5459 7.288 16.713 3.4541 12.001 3.4541C11.564 3.4541 11.1271 3.48678 10.7021 3.55176C10.3063 3.61174 9.93519 3.34016 9.87402 2.94336C9.80802 2.54436 10.0854 2.17526 10.4824 2.11426C10.9803 2.0383 11.4911 2 12.001 2ZM14.9404 10.0283C15.2324 9.73439 15.707 9.73441 16.001 10.0264C16.294 10.3184 16.2949 10.7929 16.0029 11.0869L12.5312 14.5732C12.3912 14.7152 12.2 14.7939 12 14.7939C11.8011 14.7939 11.6097 14.7152 11.4688 14.5732L7.99805 11.0869C7.70531 10.793 7.70624 10.3183 8 10.0264C8.294 9.73437 8.76855 9.73432 9.06055 10.0283L12 12.9814L14.9404 10.0283Z" fill="none"/>
</svg>
