<svg width="24" height="24" viewBox="0 0 24 24" fill="none" xmlns="http://www.w3.org/2000/svg">
<path d="M15.0723 11.417C15.4002 11.0957 15.9302 11.0974 16.2559 11.4199C16.4174 11.5801 16.5 11.7905 16.5 12C16.5 12.1765 16.4431 12.3526 16.3291 12.499L16.2539 12.583L8.92773 19.7598C8.5999 20.0812 8.06986 20.08 7.74414 19.7588C7.44667 19.4641 7.42 19.0014 7.6709 18.6787L7.74609 18.5938L15.0723 11.417ZM7.74414 4.24316C8.0427 3.94743 8.51293 3.92142 8.8418 4.16602L8.92773 4.23926L13.793 9.00488C13.9569 9.16508 14.0391 9.37722 14.0391 9.58789C14.0391 9.79745 13.9566 10.0078 13.7949 10.168C13.4964 10.4637 13.0261 10.4897 12.6973 10.2451L12.6113 10.1719L7.74609 5.40723C7.41715 5.08576 7.41974 4.56468 7.74414 4.24316Z" fill="none"/>
</svg>
