<svg width="24" height="24" viewBox="0 0 24 24" fill="none" xmlns="http://www.w3.org/2000/svg">
<path d="M10.8223 2C11.2391 2.00014 11.578 2.33901 11.5781 2.75586V2.76465H11.5605C11.5605 3.18665 11.2189 3.52927 10.7969 3.53027H8.25293C5.19997 3.5303 3.53027 5.20016 3.53027 8.24414V15.7441C3.53032 18.79 5.21002 20.4697 8.25293 20.4697H15.7529C18.7869 20.4697 20.4668 18.79 20.4668 15.7471V8.24707C20.4668 5.20407 18.7869 3.5332 15.7529 3.5332C15.331 3.53316 14.9883 3.18955 14.9883 2.76758C14.9885 2.3458 15.3311 2.00297 15.7529 2.00293C19.6079 1.99993 22 4.39214 22 8.24414V15.7471C22 19.608 19.6078 22 15.7559 22H8.25586C4.39297 21.9999 2.00003 19.608 2 15.7471V8.24707C2 4.41009 4.39297 2.00003 8.25293 2H10.8223ZM12 7.16406C12.414 7.16406 12.75 7.50008 12.75 7.91406V16.0859C12.75 16.1849 12.7303 16.2811 12.6924 16.374C12.6544 16.465 12.5993 16.5482 12.5293 16.6172C12.5223 16.6252 12.5129 16.6268 12.5059 16.6338C12.4399 16.6928 12.3681 16.7443 12.2861 16.7783C12.2052 16.8113 12.1201 16.8251 12.0352 16.8291C12.0222 16.8301 12.013 16.8359 12 16.8359H11.999C11.901 16.8359 11.8039 16.8163 11.7129 16.7783C11.6209 16.7403 11.5377 16.6852 11.4697 16.6162L11.4688 16.6152L7.7207 12.8516C7.42976 12.5586 7.42784 12.083 7.72266 11.791C8.01665 11.498 8.4912 11.499 8.7832 11.793L11.25 14.2705V7.91406C11.25 7.50011 11.5861 7.16412 12 7.16406ZM15.2168 11.793C15.5088 11.499 15.9833 11.498 16.2773 11.79C16.4252 11.938 16.498 12.1303 16.498 12.3232C16.4979 12.514 16.425 12.7047 16.2793 12.8516L15.001 14.1357C14.709 14.4287 14.2344 14.4296 13.9404 14.1377C13.6474 13.8447 13.6475 13.3711 13.9395 13.0771L15.2168 11.793Z" fill="none"/>
</svg>
