<svg width="24" height="24" viewBox="0 0 24 24" fill="none" xmlns="http://www.w3.org/2000/svg">
<path d="M22.001 12C22.001 17.514 17.515 22 12.001 22C6.48698 22 2.00098 17.514 2.00098 12C2.00098 6.486 6.48698 2 12.001 2C15.129 2 18.0177 3.42334 19.9277 5.90234C20.1726 6.22034 20.1129 6.6779 19.7959 6.92188C19.478 7.16782 19.0224 7.10684 18.7754 6.79004C17.1444 4.66904 14.674 3.4541 12.001 3.4541C7.28898 3.4541 3.45508 7.287 3.45508 12C3.45508 16.712 7.28898 20.5449 12.001 20.5449C16.713 20.5449 20.5469 16.712 20.5469 12C20.5469 11.5631 20.5142 11.1261 20.4492 10.7012C20.3892 10.3053 20.6608 9.93422 21.0576 9.87305C21.4566 9.80705 21.8257 10.0844 21.8867 10.4814C21.9627 10.9793 22.001 11.4901 22.001 12ZM13.9727 14.9395C14.2666 15.2315 14.2666 15.706 13.9746 16C13.6826 16.293 13.2081 16.2939 12.9141 16.002L9.42773 12.5303C9.28573 12.3903 9.20703 12.199 9.20703 11.999C9.20708 11.8001 9.28578 11.6087 9.42773 11.4678L12.9141 7.99707C13.208 7.70434 13.6827 7.70527 13.9746 7.99902C14.2666 8.29302 14.2667 8.76757 13.9727 9.05957L11.0195 11.999L13.9727 14.9395Z" fill="none"/>
</svg>
