<svg width="24" height="24" viewBox="0 0 24 24" fill="none" xmlns="http://www.w3.org/2000/svg">
<path d="M2.00098 12C2.00098 6.486 6.48698 2 12.001 2C17.515 2 22.001 6.486 22.001 12C22.001 17.514 17.515 22 12.001 22C8.87298 22 5.98422 20.5767 4.07422 18.0977C3.82931 17.7797 3.8891 17.3221 4.20605 17.0781C4.52398 16.8322 4.97952 16.8932 5.22656 17.21C6.85756 19.331 9.32798 20.5459 12.001 20.5459C16.713 20.5459 20.5469 16.713 20.5469 12C20.5469 7.288 16.713 3.45508 12.001 3.45508C7.28898 3.45508 3.45508 7.288 3.45508 12C3.45508 12.4369 3.48776 12.8739 3.55273 13.2988C3.61272 13.6947 3.34114 14.0658 2.94434 14.127C2.54534 14.193 2.17623 13.9156 2.11523 13.5186C2.03927 13.0207 2.00098 12.5099 2.00098 12ZM10.0293 9.06055C9.73537 8.76855 9.73538 8.29398 10.0273 8C10.3193 7.70701 10.7939 7.70607 11.0879 7.99805L14.5742 11.4697C14.7162 11.6097 14.7949 11.801 14.7949 12.001C14.7949 12.1999 14.7162 12.3913 14.5742 12.5322L11.0879 16.0029C10.7939 16.2957 10.3193 16.2947 10.0273 16.001C9.73534 15.707 9.7353 15.2324 10.0293 14.9404L12.9824 12.001L10.0293 9.06055Z" fill="none"/>
</svg>
