<svg width="24" height="24" viewBox="0 0 24 24" fill="none" xmlns="http://www.w3.org/2000/svg">
<path fill-rule="evenodd" clip-rule="evenodd" d="M12 3.5C7.313 3.5 3.5 7.313 3.5 12C3.5 16.687 7.313 20.5 12 20.5C16.687 20.5 20.5 16.687 20.5 12C20.5 7.313 16.687 3.5 12 3.5ZM12 22C6.486 22 2 17.514 2 12C2 6.486 6.486 2 12 2C17.514 2 22 6.486 22 12C22 17.514 17.514 22 12 22Z" fill="none"/>
<path fill-rule="evenodd" clip-rule="evenodd" d="M10.5589 16.2206C10.3669 16.2206 10.1739 16.1476 10.0279 15.9996C9.73595 15.7056 9.73695 15.2316 10.0299 14.9396L12.9819 11.9996L10.0299 9.06056C9.73695 8.76856 9.73595 8.29356 10.0279 7.99956C10.3199 7.70456 10.7939 7.70656 11.0879 7.99756L14.5739 11.4686C14.7149 11.6096 14.7939 11.8006 14.7939 11.9996C14.7939 12.1996 14.7149 12.3906 14.5739 12.5316L11.0879 16.0016C10.9419 16.1476 10.7499 16.2206 10.5589 16.2206Z" fill="none"/>
</svg>
