<svg width="24" height="24" viewBox="0 0 24 24" fill="none" xmlns="http://www.w3.org/2000/svg">
<path d="M11.7256 20C11.3459 20 11.0321 19.7178 10.9824 19.3518L10.9756 19.25L10.9756 4.25C10.9756 3.83579 11.3114 3.5 11.7256 3.5C12.1053 3.5 12.4191 3.78215 12.4687 4.14823L12.4756 4.25L12.4756 19.25C12.4756 19.6642 12.1398 20 11.7256 20Z" fill="none"/>
<path d="M6.23247 10.829C5.94021 11.1225 5.46534 11.1235 5.17181 10.8313C4.90497 10.5656 4.87987 10.149 5.09709 9.85489L5.16953 9.77062L11.1935 3.72062C11.46 3.45298 11.8781 3.42863 12.1722 3.64759L12.2564 3.72057L18.2814 9.77057C18.5737 10.0641 18.5727 10.5389 18.2792 10.8312C18.0124 11.0969 17.5957 11.1203 17.3025 10.9018L17.2186 10.829L11.7247 5.313L6.23247 10.829Z" fill="none"/>
</svg>
