<svg width="24" height="24" viewBox="0 0 24 24" fill="none" xmlns="http://www.w3.org/2000/svg">
<path fill-rule="evenodd" clip-rule="evenodd" d="M12 3.5C7.313 3.5 3.5 7.313 3.5 12C3.5 16.687 7.313 20.5 12 20.5C16.687 20.5 20.5 16.687 20.5 12C20.5 7.313 16.687 3.5 12 3.5ZM12 22C6.486 22 2 17.514 2 12C2 6.486 6.486 2 12 2C17.514 2 22 6.486 22 12C22 17.514 17.514 22 12 22Z" fill="none"/>
<path fill-rule="evenodd" clip-rule="evenodd" d="M15.472 14.1926C15.28 14.1926 15.087 14.1196 14.941 13.9716L12 11.0186L9.06105 13.9716C8.76905 14.2656 8.29405 14.2656 8.00005 13.9736C7.70705 13.6816 7.70505 13.2076 7.99805 12.9136L11.469 9.42661C11.75 9.14361 12.25 9.14361 12.532 9.42661L16.003 12.9136C16.295 13.2076 16.294 13.6816 16.001 13.9736C15.855 14.1196 15.663 14.1926 15.472 14.1926Z" fill="none"/>
</svg>
