<svg width="24" height="24" viewBox="0 0 24 24" fill="none" xmlns="http://www.w3.org/2000/svg">
<path d="M12.001 22C6.48698 22 2.00098 17.514 2.00098 12C2.00098 6.486 6.48698 2 12.001 2C17.515 2 22.001 6.486 22.001 12C22.001 15.128 20.5776 18.0168 18.0986 19.9268C17.7806 20.1717 17.3231 20.1119 17.0791 19.7949C16.8332 19.477 16.8941 19.0215 17.2109 18.7744C19.3319 17.1434 20.5469 14.673 20.5469 12C20.5469 7.288 16.714 3.4541 12.001 3.4541C7.28898 3.4541 3.45605 7.288 3.45605 12C3.45605 16.712 7.28898 20.5459 12.001 20.5459C12.4379 20.5459 12.8749 20.5132 13.2998 20.4482C13.6957 20.3883 14.0668 20.6598 14.1279 21.0566C14.1939 21.4556 13.9165 21.8247 13.5195 21.8857C13.0217 21.9617 12.5108 22 12.001 22ZM9.06152 13.9717C8.76952 14.2656 8.29496 14.2656 8.00098 13.9736C7.70798 13.6816 7.70704 13.2071 7.99902 12.9131L11.4707 9.42676C11.6107 9.28476 11.802 9.20605 12.002 9.20605C12.2009 9.2061 12.3922 9.2848 12.5332 9.42676L16.0039 12.9131C16.2966 13.207 16.2957 13.6817 16.002 13.9736C15.708 14.2656 15.2334 14.2657 14.9414 13.9717L12.002 11.0186L9.06152 13.9717Z" fill="none"/>
</svg>
