<svg width="24" height="24" viewBox="0 0 24 24" fill="none" xmlns="http://www.w3.org/2000/svg">
<path fill-rule="evenodd" clip-rule="evenodd" d="M14.736 2.76172H8.084C6.025 2.76172 4.25 4.43072 4.25 6.49072V17.2277C4.25 19.4037 5.908 21.1147 8.084 21.1147H16.072C18.132 21.1147 19.802 19.2877 19.802 17.2277V8.03772L14.736 2.76172Z" stroke="currentColor" stroke-width="1.5" stroke-linecap="round" stroke-linejoin="round"/>
<path d="M14.4736 2.75V5.659C14.4736 7.079 15.6226 8.231 17.0426 8.234C18.3586 8.237 19.7056 8.238 19.7966 8.232" stroke="currentColor" stroke-width="1.5" stroke-linecap="round" stroke-linejoin="round"/>
<path opacity="0.4" d="M11.6406 8.69043C12.0546 8.69066 12.3906 9.02636 12.3906 9.44043V14.1963L13.9473 12.6338C14.2395 12.3403 14.7143 12.3396 15.0078 12.6318C15.3012 12.9241 15.302 13.3989 15.0098 13.6924L12.1748 16.5381C12.0718 16.6431 11.9388 16.7178 11.7891 16.748C11.7862 16.7486 11.7832 16.7485 11.7803 16.749C11.7349 16.7576 11.6884 16.7636 11.6406 16.7637L11.6396 16.7627V16.7637L11.6377 16.7627C11.5906 16.7625 11.5447 16.7575 11.5 16.749C11.4487 16.7393 11.3985 16.7251 11.3506 16.7051C11.2825 16.6765 11.2212 16.6362 11.165 16.5898C11.1462 16.5743 11.1258 16.5604 11.1084 16.543L8.27051 13.6924C7.9784 13.3989 7.97926 12.9241 8.27246 12.6318C8.56594 12.3397 9.04077 12.3405 9.33301 12.6338L10.8906 14.1982V9.44043C10.8906 9.02622 11.2264 8.69043 11.6406 8.69043Z" fill="none"/>
</svg>
