<svg width="24" height="24" viewBox="0 0 24 24" fill="none" xmlns="http://www.w3.org/2000/svg">
<path d="M12.8232 3C13.885 3.01835 14.8578 3.7539 15.2109 4.95703C15.3418 5.46039 15.3936 5.9637 15.4443 6.45215L15.4922 6.89258C15.675 8.36976 15.6749 15.6282 15.4922 17.1094L15.4443 17.5645C15.3992 18.0278 15.3522 18.508 15.2168 19.0195C14.8658 20.2202 13.9213 21 12.8506 21C12.8168 20.9989 12.7838 20.9979 12.75 20.999C12.1566 20.9989 11.5128 20.6373 11.1484 20.3242L7.37695 17.2002C7.03759 16.9192 6.98732 16.4135 7.26367 16.0684C7.54116 15.7244 8.03832 15.6714 8.37793 15.9521L12.1592 19.0869C12.3961 19.2887 12.7075 19.414 12.791 19.3877C13.1813 19.4163 13.5478 19.0754 13.6934 18.5801C13.7893 18.2188 13.8275 17.8226 13.8682 17.4062C13.8839 17.2412 13.8996 17.0783 13.9199 16.9121C14.0835 15.5778 14.0835 8.42024 13.9199 7.08984L13.8701 6.62012C13.825 6.19243 13.7779 5.75185 13.6865 5.39062C13.5478 4.92402 13.176 4.56925 12.832 4.61133C12.6843 4.61591 12.3183 4.76136 12.0938 4.95508L8.37891 8.04492C8.23675 8.16304 8.06085 8.22754 7.87695 8.22754H5.77051C5.10611 8.22766 4.79014 8.8012 4.7168 9.33789C4.53965 10.7911 4.53853 13.3029 4.7168 14.5967C4.77772 15.036 4.47526 15.4428 4.04199 15.5059C3.61221 15.5585 3.2083 15.2596 3.14844 14.8193C2.93068 13.2377 2.97258 10.5503 3.14746 9.12695C3.35054 7.64519 4.42793 6.61827 5.77051 6.61816H7.59473L11.0791 3.7207C11.4976 3.35837 12.2614 3.00478 12.8232 3ZM18.2227 5.96387C18.5826 5.71166 19.0747 5.80036 19.3252 6.16504C20.4059 7.7454 21 9.81538 21 12C21 14.1826 20.4061 16.2556 19.3252 17.835C19.1706 18.0597 18.9243 18.1787 18.6738 18.1787C18.5182 18.1787 18.3603 18.1316 18.2227 18.0342C17.8639 17.7819 17.776 17.2798 18.0254 16.915C18.9224 15.6029 19.417 13.8569 19.417 12C19.417 10.1422 18.9222 8.39679 18.0254 7.08594C17.776 6.71892 17.8639 6.21849 18.2227 5.96387Z" fill="none"/>
</svg>
