<svg width="24" height="24" viewBox="0 0 24 24" fill="none" xmlns="http://www.w3.org/2000/svg">
<path d="M12.001 14.126C13.8447 14.126 18.7398 14.1263 18.7402 17.3047C18.7402 20.4993 13.6686 20.5 12.001 20.5C11.6188 20.5 11.3086 20.188 11.3086 19.8037C11.3087 19.4195 11.6188 19.1074 12.001 19.1074C14.4435 19.1074 17.3555 18.7944 17.3555 17.3047C17.355 16.1188 15.5544 15.5186 12.001 15.5186C9.55834 15.5186 6.64551 15.8316 6.64551 17.3223C6.64559 17.6545 6.74262 18.0821 7.49805 18.4541C7.80819 18.6072 8.20169 18.7356 8.66504 18.835C9.03891 18.9148 9.27856 19.2852 9.19824 19.6611C9.11879 20.037 8.74893 20.2798 8.37695 20.1963C7.80288 20.0728 7.30217 19.9074 6.88867 19.7051C5.54343 19.0415 5.26085 18.0434 5.26074 17.3223C5.26074 14.1265 10.3338 14.126 12.001 14.126ZM19.0693 13.498C19.5817 13.5324 20.0976 13.6074 20.6035 13.7197C21.7305 13.9444 22.4739 14.4057 22.7979 15.0879C23.0682 15.6586 23.0682 16.3121 22.7979 16.8828C22.4775 17.5595 21.7356 18.0231 20.5918 18.2598C20.5459 18.2699 20.499 18.2744 20.4521 18.2744C20.1311 18.2744 19.843 18.0471 19.7754 17.7188C19.6988 17.3419 19.9397 16.9725 20.3145 16.8955C21.2586 16.6997 21.4915 16.403 21.5479 16.2842C21.6373 16.0949 21.6373 15.8768 21.5479 15.6875C21.4297 15.4378 20.9701 15.212 20.3184 15.082C19.8653 14.9818 19.4186 14.9164 18.9775 14.8867C18.5954 14.8617 18.3072 14.5279 18.333 14.1445C18.358 13.7614 18.6911 13.4779 19.0693 13.498ZM4.93848 13.4834C5.30764 13.4548 5.64994 13.7476 5.67578 14.1309C5.70138 14.5149 5.41328 14.847 5.03125 14.8721C4.58637 14.9018 4.1397 14.968 3.70312 15.0664C3.03299 15.1991 2.57226 15.4252 2.45312 15.6758C2.36359 15.8661 2.3636 16.0861 2.45312 16.2764C2.51036 16.3961 2.74334 16.6938 3.69141 16.8896C4.06588 16.9668 4.30675 17.3344 4.23047 17.7109C4.16401 18.0404 3.87485 18.2675 3.55273 18.2676C3.50658 18.2676 3.46017 18.2632 3.41309 18.2539C2.26748 18.0181 1.52438 17.5535 1.20312 16.874C0.932719 16.3032 0.932688 15.6489 1.20312 15.0781C1.52807 14.3922 2.27327 13.9286 3.41797 13.7021C3.90625 13.5926 4.42436 13.5177 4.93848 13.4834ZM12.001 3.5C14.5192 3.50008 16.5684 5.55976 16.5684 8.09277C16.5683 10.6258 14.5192 12.6855 12.001 12.6855C10.9698 12.6855 9.99726 12.3519 9.19043 11.7207C8.88892 11.4849 8.83496 11.0475 9.06934 10.7441C9.30298 10.4401 9.73931 10.3865 10.041 10.623C10.6023 11.0611 11.28 11.293 12.001 11.293C13.7567 11.2929 15.1836 9.85722 15.1836 8.09277C15.1836 6.32831 13.7567 4.89265 12.001 4.89258C10.2452 4.89258 8.81738 6.32826 8.81738 8.09277C8.81736 8.47688 8.50697 8.78882 8.125 8.78906C7.74283 8.78906 7.43264 8.47703 7.43262 8.09277C7.43262 5.55971 9.48172 3.5 12.001 3.5ZM17.6836 4.45117C19.6719 4.45117 21.2898 6.07704 21.29 8.07715C21.29 10.0765 19.672 11.7041 17.6836 11.7041C17.3014 11.7041 16.9912 11.3921 16.9912 11.0078C16.9912 10.6236 17.3014 10.3115 17.6836 10.3115C18.9086 10.3115 19.9053 9.30887 19.9053 8.07715C19.9051 6.84559 18.9085 5.84375 17.6836 5.84375C17.3015 5.84374 16.9914 5.5316 16.9912 5.14746C16.9912 4.76227 17.3014 4.45119 17.6836 4.45117ZM6.3291 4.41309C6.71097 4.41332 7.02129 4.72443 7.02148 5.1084C7.02148 5.49253 6.71109 5.80445 6.3291 5.80469C5.09947 5.80469 4.09863 6.81149 4.09863 8.04785C4.09885 9.28403 5.09961 10.2891 6.3291 10.2891C6.71109 10.2893 7.02148 10.6012 7.02148 10.9854C7.0214 11.3694 6.71103 11.6814 6.3291 11.6816C4.33617 11.6816 2.71409 10.0517 2.71387 8.04785C2.71387 6.04387 4.33603 4.41309 6.3291 4.41309Z" fill="black"/>
</svg>
