<svg width="24" height="24" viewBox="0 0 24 24" fill="none" xmlns="http://www.w3.org/2000/svg">
<path d="M14.5234 2.77637C14.9298 2.78134 15.2567 3.11112 15.2568 3.5166C15.2569 3.71208 15.1783 3.89962 15.0391 4.03711C14.8997 4.17455 14.7106 4.25129 14.5146 4.24902H8.01855C5.09329 4.24902 3.47564 5.86245 3.47559 8.79004V15.9951C3.47573 18.9226 5.09337 20.5273 8.01855 20.5273C8.42656 20.5321 8.75597 20.8615 8.76074 21.2686C8.75565 21.674 8.42496 22 8.01855 22C4.30681 22 2.00016 19.6986 2 15.9951V8.79004C2.00006 5.07761 4.30672 2.77637 8.01855 2.77637H14.5234ZM20.5596 8.79004C20.9611 8.79497 21.2842 9.12172 21.2842 9.52246V15.9951C21.284 19.6985 18.9685 21.9999 15.2568 22H12.3047C11.8984 21.9999 11.5676 21.6739 11.5625 21.2686C11.5673 20.8615 11.8968 20.5322 12.3047 20.5273H15.2568C18.1819 20.5273 19.7995 18.9225 19.8262 15.9951V9.52246C19.8262 9.11823 20.1544 8.79004 20.5596 8.79004ZM15.5488 9.54883C15.8108 9.30044 16.2145 9.27918 16.501 9.49902C16.7874 9.71891 16.8708 10.1143 16.6973 10.4307L13.8691 14.0723C13.7453 14.2248 13.5686 14.3255 13.374 14.3545C13.1805 14.3741 12.9868 14.3166 12.835 14.1953L10.1221 12.0703L7.68262 15.2363C7.56633 15.3942 7.39156 15.4991 7.19727 15.5273C7.00294 15.5555 6.80497 15.505 6.64844 15.3867C6.32897 15.1368 6.27065 14.6767 6.5166 14.3545L9.40625 10.5977C9.5268 10.4421 9.70484 10.3402 9.90039 10.3154C10.0959 10.2908 10.2936 10.3452 10.4492 10.4658L13.1621 12.5908L15.5488 9.54883ZM18.4014 2.2002C19.3718 1.79627 20.4904 2.01545 21.2354 2.75586C21.9803 3.49663 22.2044 4.61314 21.8027 5.58301C21.401 6.5527 20.453 7.18554 19.4014 7.18555C17.97 7.18542 16.8086 6.02983 16.8037 4.60156C16.8001 3.55217 17.4307 2.60426 18.4014 2.2002ZM19.4014 3.48145C18.7816 3.48158 18.2793 3.98313 18.2793 4.60156C18.2793 5.21995 18.7816 5.72154 19.4014 5.72168C20.0212 5.72168 20.5244 5.22004 20.5244 4.60156C20.5244 3.98304 20.0213 3.48145 19.4014 3.48145Z" fill="black"/>
</svg>
