<svg width="24" height="24" viewBox="0 0 24 24" fill="none" xmlns="http://www.w3.org/2000/svg">
<path d="M13.1777 22C12.7609 21.9999 12.422 21.661 12.4219 21.2441V21.2354H12.4395C12.4395 20.8134 12.7811 20.4707 13.2031 20.4697H15.7471C18.8 20.4697 20.4697 18.7998 20.4697 15.7559V8.25586C20.4697 5.20997 18.79 3.5303 15.7471 3.53027H8.24707C5.21309 3.53027 3.53323 5.20997 3.5332 8.25293V15.7529C3.5332 18.7959 5.21307 20.4668 8.24707 20.4668C8.66904 20.4668 9.01172 20.8104 9.01172 21.2324C9.01149 21.6542 8.6689 21.997 8.24707 21.9971C4.39207 22.0001 2 19.6079 2 15.7559V8.25293C2.00003 4.39197 4.39216 2 8.24414 2H15.7441C19.607 2.00006 22 4.39202 22 8.25293V15.7529C22 19.5899 19.607 22 15.7471 22H13.1777ZM12 16.8359C11.586 16.8359 11.25 16.4999 11.25 16.0859L11.25 7.91406C11.25 7.81512 11.2697 7.71893 11.3076 7.62598C11.3456 7.535 11.4007 7.4518 11.4707 7.38281C11.4777 7.37483 11.4871 7.37318 11.4941 7.36621C11.5601 7.30721 11.6319 7.25568 11.7139 7.22168C11.7948 7.1887 11.8799 7.1749 11.9648 7.1709C11.9778 7.1699 11.987 7.16406 12 7.16406H12.001C12.099 7.16407 12.1961 7.18369 12.2871 7.22168C12.3791 7.25968 12.4623 7.31481 12.5303 7.38379L12.5313 7.38477L16.2793 11.1484C16.5702 11.4414 16.5722 11.917 16.2773 12.209C15.9833 12.502 15.5088 12.501 15.2168 12.207L12.75 9.72949L12.75 16.0859C12.75 16.4999 12.4139 16.8359 12 16.8359ZM8.7832 12.207C8.4912 12.501 8.01666 12.502 7.72266 12.21C7.57482 12.062 7.50195 11.8697 7.50195 11.6768C7.50207 11.486 7.57496 11.2953 7.7207 11.1484L8.99902 9.86426C9.29099 9.57133 9.76557 9.57043 10.0596 9.8623C10.3526 10.1553 10.3525 10.6289 10.0605 10.9229L8.7832 12.207Z" fill="black"/>
</svg>
