<svg width="24" height="24" viewBox="0 0 24 24" fill="none" xmlns="http://www.w3.org/2000/svg">
<path d="M22 10.8223C21.9999 11.2391 21.661 11.578 21.2441 11.5781H21.2354V11.5605C20.8134 11.5605 20.4707 11.2189 20.4697 10.7969V8.25293C20.4697 5.19997 18.7998 3.53027 15.7559 3.53027L8.25586 3.53027C5.20997 3.53032 3.5303 5.21002 3.53027 8.25293L3.53027 15.7529C3.53027 18.7869 5.20997 20.4668 8.25293 20.4668L15.7529 20.4668C18.7959 20.4668 20.4668 18.7869 20.4668 15.7529C20.4668 15.331 20.8104 14.9883 21.2324 14.9883C21.6542 14.9885 21.997 15.3311 21.9971 15.7529C22.0001 19.6079 19.6079 22 15.7559 22L8.25293 22C4.39197 22 2 19.6078 2 15.7559L2 8.25586C2.00006 4.39297 4.39202 2.00003 8.25293 2L15.7529 2C19.5899 2 22 4.39297 22 8.25293V10.8223ZM16.8359 12C16.8359 12.414 16.4999 12.75 16.0859 12.75H7.91406C7.81512 12.75 7.71893 12.7303 7.62598 12.6924C7.535 12.6544 7.4518 12.5993 7.38281 12.5293C7.37483 12.5223 7.37318 12.5129 7.36621 12.5059C7.30721 12.4399 7.25568 12.3681 7.22168 12.2861C7.1887 12.2052 7.1749 12.1201 7.1709 12.0352C7.1699 12.0222 7.16406 12.013 7.16406 12V11.999C7.16407 11.901 7.18369 11.8039 7.22168 11.7129C7.25968 11.6209 7.31481 11.5377 7.38379 11.4697L7.38477 11.4687L11.1484 7.7207C11.4414 7.42976 11.917 7.42784 12.209 7.72266C12.502 8.01665 12.501 8.4912 12.207 8.7832L9.72949 11.25H16.0859C16.4999 11.25 16.8359 11.5861 16.8359 12ZM12.207 15.2168C12.501 15.5088 12.502 15.9833 12.21 16.2773C12.062 16.4252 11.8697 16.498 11.6768 16.498C11.486 16.4979 11.2953 16.425 11.1484 16.2793L9.86426 15.001C9.57133 14.709 9.57043 14.2344 9.8623 13.9404C10.1553 13.6474 10.6289 13.6475 10.9229 13.9395L12.207 15.2168Z" fill="black"/>
</svg>
