<svg width="24" height="24" viewBox="0 0 24 24" fill="none" xmlns="http://www.w3.org/2000/svg">
<path d="M11.5 3C11.9583 3.00009 12.3301 3.36678 12.3301 3.81836V20.1816C12.3301 20.5133 12.1275 20.8109 11.8164 20.9375C11.7146 20.9789 11.6073 21 11.5 21C11.2841 21 11.0704 20.917 10.9121 20.7588L4.24121 14.1592C3.91807 13.8397 3.91921 13.3215 4.24316 13.0029C4.56863 12.6844 5.09468 12.6843 5.41797 13.0049L10.6699 18.2012V3.81836C10.6699 3.36672 11.0416 3 11.5 3ZM17.5811 13.0049C17.9043 12.6842 18.4303 12.6836 18.7559 13.002C19.0803 13.3205 19.0811 13.8394 18.7578 14.1602L15.0791 17.7988C14.9164 17.9602 14.7038 18.0399 14.4902 18.04C14.2789 18.04 14.067 17.9609 13.9043 17.8018C13.5788 17.4832 13.578 16.9653 13.9023 16.6445L17.5811 13.0049Z" fill="black"/>
</svg>
