<svg width="24" height="24" viewBox="0 0 24 24" fill="none" xmlns="http://www.w3.org/2000/svg">
<path d="M7.74414 11.4199C8.06977 11.0974 8.59979 11.0957 8.92773 11.417L16.2539 18.5938L16.3291 18.6787C16.58 19.0014 16.5533 19.4641 16.2559 19.7588C15.9301 20.08 15.4001 20.0812 15.0723 19.7598L7.74609 12.583L7.6709 12.499C7.55691 12.3526 7.5 12.1765 7.5 12C7.50003 11.7905 7.58258 11.5801 7.74414 11.4199ZM15.1582 4.16602C15.4871 3.92142 15.9573 3.94743 16.2559 4.24316C16.5803 4.56468 16.5828 5.08576 16.2539 5.40723L11.3887 10.1719L11.3027 10.2451C10.9739 10.4897 10.5036 10.4637 10.2051 10.168C10.0434 10.0078 9.96094 9.79745 9.96094 9.58789C9.96095 9.37722 10.0431 9.16508 10.207 9.00488L15.0723 4.23926L15.1582 4.16602Z" fill="black"/>
</svg>
