<svg width="24" height="24" viewBox="0 0 24 24" fill="none" xmlns="http://www.w3.org/2000/svg">
<path d="M4.24219 7.74414C4.5637 7.41962 5.08474 7.41711 5.40625 7.74609L12.583 15.0723C12.9044 15.4002 12.9035 15.9302 12.5811 16.2559C12.4208 16.4176 12.2096 16.5 12 16.5C11.7883 16.5 11.5772 16.4178 11.417 16.2539L4.24121 8.92773C3.91969 8.5998 3.92067 8.06984 4.24219 7.74414ZM18.5928 7.74609C18.9143 7.41705 19.4363 7.41956 19.7578 7.74414C20.0802 8.06986 20.0811 8.59987 19.7607 8.92773L14.9951 13.793C14.8349 13.9569 14.6228 14.0391 14.4121 14.0391C14.2026 14.039 13.9922 13.9566 13.832 13.7949C13.5095 13.4692 13.5077 12.9392 13.8281 12.6113L18.5928 7.74609Z" fill="black"/>
</svg>
