<svg width="24" height="24" viewBox="0 0 24 24" fill="none" xmlns="http://www.w3.org/2000/svg">
<path d="M20.7207 2.22266C21.0137 1.92991 21.4883 1.92985 21.7803 2.22266C22.0731 2.5155 22.0732 2.99043 21.7803 3.2832L12.335 12.7227C13.0549 13.3242 13.8968 13.8231 14.8447 14.2129C15.0627 14.2918 15.2599 14.2013 15.7178 13.9375C16.1888 13.6677 16.8323 13.2998 17.6553 13.4727C18.4192 13.6207 20.8294 15.6078 21.2891 16.082C21.72 16.5317 21.958 17.0018 21.998 17.4824C22.072 19.3394 19.5947 21.2535 19.3086 21.4141C18.7757 21.8028 18.1464 21.9999 17.4385 22C16.7345 22 15.9524 21.8058 15.1045 21.4111C13.2635 20.6506 10.8012 18.8729 8.44629 16.6104L3.2793 21.7725C2.98731 22.0648 2.51261 22.065 2.21973 21.7725C1.92675 21.4797 1.92682 21.0048 2.21973 20.7119L7.91016 15.0254C8.19116 14.7436 8.68872 14.7436 8.96973 15.0254C11.3517 17.4049 13.87 19.2795 15.707 20.0391C16.9249 20.6067 17.83 20.6368 18.501 20.1553C19.035 19.8335 20.531 18.3528 20.501 17.5732C20.4968 17.5318 20.4504 17.3742 20.209 17.123C19.6601 16.5565 17.7083 15.0782 17.3086 14.9287C17.0946 14.8817 16.8598 15.0114 16.4658 15.2383C15.9428 15.5381 15.2266 15.9481 14.3008 15.6094C12.8869 15.0287 11.6907 14.2477 10.7197 13.2773C10.4268 12.9846 10.4269 12.5096 10.7197 12.2168L20.7207 2.22266ZM6.48828 2.00391C6.99522 2.04593 7.4652 2.28419 7.91016 2.71289C8.28616 3.07472 8.91894 3.85613 9.37988 4.47168C10.4449 5.89087 10.4983 6.19215 10.5293 6.37305C10.698 7.16918 10.3285 7.81167 10.0596 8.28027C9.79566 8.73883 9.70412 8.93498 9.79395 9.17871C9.87095 9.3686 9.96354 9.5726 10.0605 9.77148C10.2425 10.1433 10.0878 10.5935 9.71484 10.7744C9.343 10.955 8.89394 10.8021 8.71191 10.4307C8.59995 10.1999 8.49349 9.96253 8.39551 9.71875C8.04558 8.7735 8.45682 8.05785 8.75781 7.53418C8.98282 7.1424 9.10867 6.90613 9.05566 6.65527V6.65625C9.04823 6.64592 8.91332 6.34869 8.17969 5.37109C7.68473 4.71156 7.13312 4.04685 6.86914 3.79102C6.62013 3.55215 6.46072 3.50602 6.38672 3.49902C5.7405 3.44861 4.20704 4.89761 3.87109 5.4502C3.3571 6.15578 3.39615 7.06209 3.95215 8.27637C4.47716 9.55164 5.48027 11.0862 6.8623 12.7383C7.12788 13.0559 7.08603 13.5281 6.76855 13.7939C6.62857 13.9109 6.4571 13.9687 6.28711 13.9688C6.0721 13.9688 5.85894 13.8771 5.71094 13.7002C4.23196 11.9303 3.14815 10.2622 2.57715 8.87402C1.79614 7.17301 1.80898 5.73054 2.625 4.61719C2.8011 4.324 4.68585 1.88701 6.48828 2.00391Z" fill="black"/>
</svg>
