<svg width="24" height="24" viewBox="0 0 24 24" fill="none" xmlns="http://www.w3.org/2000/svg">
<path d="M4.26465 10.7051C4.59939 10.4758 5.05823 10.5576 5.28809 10.8965C7.83453 14.622 12.4903 18.8194 15.4531 20.0605C16.6519 20.6201 17.5442 20.6551 18.207 20.1768C18.7235 19.8603 20.1952 18.3896 20.1689 17.624C20.1601 17.534 20.0576 17.3646 19.8838 17.1846C19.3182 16.6012 17.4218 15.1558 17.0244 15.0049C16.7082 14.9406 16.3856 15.1289 15.8896 15.4424L15.6348 15.6025C15.2863 15.8131 14.8323 15.6984 14.624 15.3496C14.4139 14.9975 14.5264 14.5407 14.875 14.3301L15.1055 14.1875C15.6554 13.8394 16.4097 13.3657 17.3672 13.5645C18.119 13.7215 20.4849 15.6817 20.9365 16.1484C21.3617 16.5855 21.5984 17.0525 21.6387 17.5371C21.7022 19.3578 19.2789 21.2626 19.002 21.4229C18.4726 21.8066 17.8525 22 17.1562 22C16.463 21.9999 15.693 21.8085 14.8594 21.4189C11.6521 20.0759 6.80234 15.7268 4.07617 11.7363C3.84539 11.4001 3.92977 10.9385 4.26465 10.7051ZM6.39844 2.21387C6.90408 2.25546 7.36777 2.49374 7.80371 2.92188C8.26625 3.37582 10.213 5.76098 10.3691 6.51855C10.5369 7.33026 10.1753 7.96397 9.91113 8.42676C9.65089 8.88269 9.56005 9.07796 9.64941 9.32422C10.3074 10.9442 11.3236 12.2663 12.6582 13.2266C12.9888 13.4659 13.0653 13.9276 12.8291 14.2617C12.6857 14.4635 12.4593 14.5723 12.2295 14.5723C12.0814 14.5723 11.9313 14.5283 11.8018 14.4346C10.2374 13.3081 9.05023 11.7691 8.27441 9.85742C7.93365 8.91294 8.33917 8.20474 8.63477 7.6875C8.85659 7.30002 8.9786 7.06839 8.92676 6.82129C8.78927 6.46427 7.35287 4.55211 6.77441 3.98438C6.59568 3.80734 6.42745 3.70325 6.30273 3.69336C5.64076 3.66299 4.162 5.07814 3.83594 5.62207C3.33023 6.32222 3.36527 7.2204 3.9082 8.42188C4.07613 8.79473 3.9132 9.23419 3.54297 9.4043C3.17381 9.5741 2.73623 9.40884 2.56836 9.03613C1.79655 7.32831 1.81022 5.90248 2.61133 4.80078C2.78024 4.51397 4.64941 2.09815 6.39844 2.21387ZM14.4893 5.51855C16.5318 5.91908 18.109 7.50746 18.5078 9.56445C18.5854 9.96585 18.3252 10.3562 17.9258 10.4346C17.8787 10.4435 17.8303 10.4482 17.7832 10.4482C17.4385 10.4482 17.1303 10.2026 17.0615 9.84863C16.7787 8.3869 15.6575 7.25943 14.207 6.97559C13.8086 6.89731 13.5476 6.50679 13.625 6.10547C13.7036 5.70395 14.0955 5.45033 14.4893 5.51855ZM14.4297 2.00586C18.4344 2.45288 21.5463 5.5822 21.9951 9.61426C22.0413 10.0217 21.7493 10.3901 21.3457 10.4346C21.3174 10.4375 21.29 10.4394 21.2627 10.4395C20.8934 10.4395 20.5735 10.1591 20.5312 9.78027C20.1579 6.44175 17.5836 3.85053 14.2676 3.47949C13.8631 3.43401 13.5722 3.06849 13.6162 2.66113C13.6623 2.25383 14.0263 1.95374 14.4297 2.00586Z" fill="black"/>
</svg>
