<svg width="24" height="24" viewBox="0 0 24 24" fill="none" xmlns="http://www.w3.org/2000/svg">
<path d="M4.30664 10.585C4.64759 10.3534 5.11471 10.4366 5.34961 10.7793C7.94343 14.5444 12.6825 18.7855 15.6982 20.04C16.9189 20.6056 17.827 20.6406 18.5029 20.1572C19.0289 19.8374 20.5268 18.3508 20.5 17.5771C20.491 17.4862 20.387 17.3147 20.209 17.1328C19.6328 16.5431 17.7018 15.0836 17.2979 14.9307C16.9819 14.8647 16.6475 15.0562 16.1416 15.373L15.8838 15.5342C15.5279 15.7461 15.0675 15.6321 14.8545 15.2783C14.6406 14.9226 14.7557 14.462 15.1104 14.249L15.3438 14.1045C15.9037 13.7527 16.6727 13.2737 17.6465 13.4736C18.4124 13.6326 20.8213 15.6152 21.2822 16.085C21.7151 16.5277 21.9561 16.9995 21.9971 17.4893C22.0619 19.3289 19.5956 21.2532 19.3125 21.415C18.7736 21.8038 18.1425 22 17.4336 22C16.7277 22 15.9437 21.8059 15.0947 21.4121C11.829 20.0547 6.89109 15.6611 4.11426 11.6279C3.87927 11.2871 3.96566 10.8209 4.30664 10.585ZM6.47949 2.00391C6.99529 2.04699 7.46731 2.28707 7.91016 2.71875C8.38133 3.17785 10.3628 5.58646 10.5225 6.35254C10.6934 7.17316 10.3246 7.81444 10.0557 8.28223C9.79079 8.74283 9.69912 8.93967 9.79004 9.18848C10.459 10.8257 11.4927 12.1623 12.8525 13.1328C13.1895 13.3747 13.2674 13.8418 13.0264 14.1797C12.8804 14.3833 12.6507 14.4931 12.417 14.4932C12.266 14.4932 12.1125 14.4485 11.9805 14.3535C10.3866 13.214 9.17859 11.6586 8.38965 9.72754C8.04267 8.77298 8.45488 8.05694 8.75586 7.53418C8.98169 7.14262 9.10653 6.90891 9.05371 6.65918C8.91373 6.29836 7.45132 4.36582 6.8623 3.79199C6.68032 3.61407 6.50883 3.50902 6.38184 3.49902C5.66582 3.45237 4.20213 4.89751 3.87012 5.44824C3.35515 6.15592 3.39137 7.0629 3.94434 8.27734C4.11512 8.65409 3.94911 9.09763 3.57227 9.26953C3.19629 9.44245 2.75009 9.27429 2.5791 8.89746C1.7924 7.1706 1.80743 5.73053 2.62305 4.61816C2.92703 4.1094 4.8386 1.89396 6.47949 2.00391ZM20.7197 2.2207C21.0127 1.92796 21.4873 1.92788 21.7803 2.2207C22.0732 2.51358 22.0732 2.98743 21.7803 3.28027L20.7471 4.3125L19.3105 5.74902L21.7803 8.21777C22.0733 8.51064 22.0733 8.98448 21.7803 9.27734C21.6333 9.42427 21.441 9.49707 21.249 9.49707C21.0582 9.497 20.8666 9.42407 20.7197 9.27734L18.249 6.80957L15.7803 9.27734C15.6334 9.42406 15.4418 9.49699 15.25 9.49707C15.059 9.49707 14.8667 9.42427 14.7197 9.27734C14.4267 8.98448 14.4267 8.51064 14.7197 8.21777L17.1895 5.74902L14.7197 3.28027C14.4268 2.98743 14.4268 2.51357 14.7197 2.2207C15.0127 1.92787 15.4873 1.92795 15.7803 2.2207L18.249 4.68848L20.2031 2.73633C20.2031 2.73633 20.2032 2.7362 20.2041 2.73535L20.7197 2.2207Z" fill="black"/>
</svg>
