<svg width="24" height="24" viewBox="0 0 24 24" fill="none" xmlns="http://www.w3.org/2000/svg">
<path d="M15.7529 2C19.5899 2 22 4.39197 22 8.25293V10.8223C21.9999 11.2391 21.661 11.578 21.2441 11.5781H21.2354V11.5596C20.8134 11.5596 20.4707 11.2189 20.4697 10.7969V8.25293C20.4697 5.19997 18.7998 3.53027 15.7559 3.53027H8.25586C5.20997 3.53033 3.5303 5.21002 3.53027 8.25293V15.7529C3.53027 18.7869 5.20997 20.4668 8.25293 20.4668H15.7529C18.7959 20.4668 20.4668 18.7869 20.4668 15.7529C20.4668 15.331 20.8094 14.9883 21.2324 14.9883C21.6542 14.9885 21.997 15.3311 21.9971 15.7529C22.0001 19.6079 19.6079 22 15.7559 22H8.25293C4.39197 22 2 19.6078 2 15.7559V8.25586C2.00006 4.39197 4.39202 2.00003 8.25293 2H15.7529ZM9.81445 13.1455C10.1234 12.8565 10.6075 12.8747 10.8965 13.1826C11.1845 13.4926 11.1674 13.9766 10.8584 14.2646L10.1777 14.9453C9.87687 15.2272 9.40726 15.2194 9.11523 14.9277L9.09277 14.9111C8.80892 14.6001 8.82591 14.1191 9.13086 13.8291L9.81445 13.1455ZM9.24121 8.8916C9.53314 8.59267 10.0115 8.58614 10.3105 8.87793L12.1836 10.751L13.8809 9.05371C14.1859 8.76271 14.6667 8.76555 14.9688 9.06055C15.0226 9.11446 15.0686 9.1753 15.1035 9.24316C15.2765 9.54413 15.2264 9.92197 14.9814 10.168L13.292 11.8574L15.1299 13.6963C15.4397 13.9893 15.4512 14.4782 15.1572 14.7871C15.1532 14.7931 15.1476 14.7977 15.1426 14.8037C14.8486 15.0965 14.3732 15.1024 14.0723 14.8154L14.0342 14.7783L9.25488 9.99902C8.963 9.68914 8.95654 9.20761 9.24121 8.8916Z" fill="black"/>
</svg>
