<svg width="24" height="24" viewBox="0 0 24 24" fill="none" xmlns="http://www.w3.org/2000/svg">
<path d="M10.6299 3.35352C11.9969 2.59752 13.7225 3.09396 14.4775 4.45996L21.749 17.1855C21.766 17.2145 21.78 17.2455 21.793 17.2764C21.9119 17.5693 21.98 17.8785 21.9971 18.1943C22.0361 18.9492 21.7792 19.6734 21.2725 20.2354C20.7665 20.7973 20.0713 21.1289 19.3164 21.167L8.55859 21.168C8.1449 21.1677 7.80875 20.8317 7.80859 20.418C7.80859 20.0041 8.14481 19.6682 8.55859 19.668H19.2783C19.5942 19.6499 19.9202 19.4954 20.1592 19.2305C20.3971 18.9665 20.517 18.6274 20.499 18.2725C20.492 18.1386 20.4649 18.0068 20.418 17.8809L13.1689 5.19434C12.8099 4.54563 11.9993 4.31217 11.3574 4.66699C11.1384 4.78799 10.9589 4.96656 10.8379 5.18555L3.58301 17.8818C3.46608 18.1998 3.4745 18.5445 3.60645 18.8574C3.74443 19.1844 4.00114 19.4383 4.33008 19.5713C4.46898 19.6282 4.61284 19.6609 4.76172 19.6689C5.17472 19.6889 5.49366 20.0421 5.47266 20.4561C5.45246 20.8559 5.12051 21.168 4.72363 21.168C4.71096 21.168 4.6992 21.1679 4.68652 21.167C4.36852 21.151 4.05767 21.0819 3.76367 20.9619C3.0658 20.6779 2.51857 20.1373 2.22461 19.4414C1.92978 18.7455 1.92502 17.9753 2.20996 17.2754C2.22194 17.2445 2.23597 17.2145 2.25293 17.1855L9.53027 4.45117C9.78226 3.99519 10.1649 3.61252 10.6299 3.35352ZM12.001 15.5137C12.4149 15.5137 12.7509 15.8448 12.751 16.2588V16.2686C12.751 16.6826 12.415 17.0186 12.001 17.0186C11.587 17.0185 11.251 16.6825 11.251 16.2686C11.2512 15.8547 11.5871 15.5137 12.001 15.5137ZM12.001 9.27051C12.4148 9.27051 12.7507 9.60673 12.751 10.0205V12.8477C12.751 13.2617 12.415 13.5977 12.001 13.5977C11.587 13.5976 11.251 13.2616 11.251 12.8477V10.0205C11.2512 9.60676 11.5872 9.27056 12.001 9.27051Z" fill="black"/>
</svg>
