<svg width="24" height="24" viewBox="0 0 24 24" fill="none" xmlns="http://www.w3.org/2000/svg">
<path d="M11.9961 2C12.7279 1.99908 13.4577 2.08182 14.1709 2.24609C16.7691 2.81807 19.0313 4.40576 20.4541 6.65625C21.8769 8.90684 22.3426 11.6335 21.7471 14.2295C21.6952 14.5174 21.4865 14.7522 21.207 14.8379C20.9277 14.9234 20.6239 14.8461 20.4199 14.6367C20.216 14.4274 20.1459 14.1211 20.2383 13.8438C21.174 9.65937 18.8161 5.44004 14.7646 4.0498C10.7131 2.65958 6.26602 4.54347 4.44141 8.42285C2.61688 12.3022 3.99922 16.9345 7.65039 19.1758C11.3015 21.417 16.0521 20.5496 18.6777 17.1621C18.9597 16.9007 19.3898 16.8837 19.6914 17.1221C19.993 17.3606 20.0764 17.7839 19.8877 18.1191C17.0244 21.824 11.9759 23.0419 7.74121 21.0498C3.50648 19.0576 1.22112 14.389 2.24219 9.81738C3.26334 5.24579 7.31716 1.99655 11.9961 2ZM14.9688 8.05762C15.1161 8.00472 15.2774 8.00469 15.4248 8.05762C15.6214 8.11626 15.7862 8.25191 15.8818 8.43359C15.9775 8.61525 15.9963 8.82792 15.9336 9.02344L14.3721 13.9131C14.3099 14.1158 14.1673 14.2846 13.9775 14.3789L13.1006 14.8174C12.723 14.953 12.304 14.7807 12.1318 14.418C11.9597 14.0551 12.0909 13.6204 12.4346 13.4131L13.0225 13.123L14.0039 9.98047L10.9346 10.9463L9.53223 15.4326C9.40597 15.8396 8.9741 16.0671 8.56738 15.9414C8.37014 15.8808 8.20492 15.7436 8.10938 15.5605C8.01394 15.3775 7.99563 15.1634 8.05859 14.9668L9.58496 10.0859C9.66398 9.8469 9.85273 9.66 10.0928 9.58496L14.9688 8.05762Z" fill="black"/>
</svg>
