<svg width="24" height="24" viewBox="0 0 24 24" fill="none" xmlns="http://www.w3.org/2000/svg">
<path d="M12.0059 3.54053C13.6511 2.48858 15.6646 2.21925 17.5205 2.80322C19.1346 3.30517 20.477 4.45777 21.2354 5.99365C22.122 7.85537 22.2423 10.0009 21.5703 11.9536C20.9518 13.7513 19.9375 15.3814 18.6055 16.7183C17.7322 17.6158 16.7911 18.4422 15.791 19.1899L15.7383 19.2349C15.4061 19.4585 14.9592 19.371 14.7324 19.0376C14.6172 18.8765 14.5713 18.6745 14.6045 18.478C14.6377 18.2816 14.7476 18.1071 14.9092 17.9946C15.8476 17.2875 16.7321 16.5091 17.5557 15.6665C18.7418 14.4992 19.6481 13.0689 20.2031 11.4868C20.737 9.91023 20.6291 8.18091 19.9033 6.68604C19.3193 5.51009 18.2896 4.62789 17.0527 4.2417C15.4752 3.7392 13.7567 4.04333 12.4385 5.05908C12.1764 5.25686 11.8177 5.25686 11.5557 5.05908C10.238 4.04192 8.51884 3.73765 6.94141 4.2417C5.69622 4.61936 4.65643 5.49906 4.06445 6.67725C3.35508 8.17099 3.25371 9.88987 3.78223 11.4595C4.33959 13.0379 5.24559 14.4648 6.42969 15.6304C8.17927 17.3394 10.1086 18.8464 12.1826 20.1245C12.4463 20.3109 12.562 20.6493 12.4697 20.9624C12.3773 21.2756 12.0973 21.4932 11.7764 21.5005C11.6319 21.5013 11.4907 21.4572 11.3711 21.3745C9.21063 20.0434 7.20124 18.4723 5.37988 16.6909C4.04054 15.3585 3.02252 13.728 2.40625 11.9272C1.75743 9.97718 1.89015 7.8442 2.77637 5.99365C3.53467 4.45776 4.87715 3.30518 6.49121 2.80322C8.34712 2.21922 10.3606 2.48856 12.0059 3.54053ZM15.8887 6.49756C17.2042 6.92077 18.1403 8.10931 18.2617 9.50928C18.2865 9.7049 18.2336 9.90277 18.1143 10.0581C17.9949 10.2134 17.8192 10.3129 17.627 10.3354C17.223 10.3886 16.8519 10.1001 16.7969 9.68896C16.76 8.85834 16.2173 8.13981 15.4385 7.89111C15.1489 7.70691 15.0202 7.34455 15.127 7.01416C15.2337 6.68388 15.5484 6.47059 15.8887 6.49756Z" fill="black"/>
</svg>
