<svg width="24" height="24" viewBox="0 0 24 24" fill="none" xmlns="http://www.w3.org/2000/svg">
<path d="M9.28125 19.5498C9.60705 19.2826 10.0899 19.3273 10.3594 19.6504C10.4777 19.8073 10.6182 19.9471 10.7764 20.0645C11.1992 20.3766 11.7307 20.5083 12.252 20.4307C12.7731 20.3529 13.2411 20.0719 13.5527 19.6504H13.5625C13.832 19.3276 14.3139 19.2827 14.6396 19.5498C14.9654 19.817 15.0114 20.295 14.7422 20.6182C14.0778 21.4798 13.0497 21.9899 11.9561 22C10.8656 21.9871 9.8421 21.4773 9.17969 20.6182C8.9103 20.2951 8.95561 19.8171 9.28125 19.5498ZM11.9648 2C15.0344 2 18.4765 4.16436 18.8672 7.63965V9.45312C19.0005 10.1072 19.3072 10.7147 19.7549 11.2129C19.7813 11.2429 19.8055 11.2754 19.8262 11.3096C20.232 11.9206 20.4646 12.6286 20.5 13.3594L20.4736 13.5439C20.5042 14.5441 20.1702 15.5219 19.5332 16.2979C18.7196 17.1758 17.607 17.7245 16.4102 17.8379C13.4618 18.1615 10.4864 18.1615 7.53809 17.8379C6.35864 17.7168 5.26605 17.1683 4.46875 16.2979C3.86165 15.5808 3.52103 14.6814 3.50098 13.749V13.4385C3.54977 12.6858 3.80113 11.9598 4.22852 11.3359L4.2998 11.248C4.74432 10.7478 5.04963 10.1411 5.18652 9.48828V7.67578C5.31228 7.35804 5.63736 7.16239 5.97949 7.19922C6.32178 7.23625 6.59665 7.49668 6.65039 7.83398V9.74316C6.46564 10.6509 6.04409 11.4947 5.42676 12.1895C5.18905 12.565 5.0542 12.9954 5.03613 13.4385V13.6318C5.01644 14.2551 5.22476 14.8644 5.62207 15.3477C6.17279 15.9118 6.90884 16.2614 7.69727 16.333C10.5515 16.641 13.4319 16.641 16.2861 16.333C17.0961 16.2592 17.8507 15.893 18.4062 15.3037C18.7839 14.8319 18.9816 14.2428 18.9648 13.6406V13.4385C18.9466 12.9941 18.8159 12.5614 18.584 12.1807C17.9409 11.4938 17.4933 10.6493 17.2881 9.73438V7.81641C17.0308 5.15914 14.3606 3.51369 12.0361 3.51367C11.0479 3.51142 10.0759 3.76318 9.21484 4.24414C8.97644 4.3862 8.67895 4.38763 8.43848 4.24902C8.19799 4.11038 8.05209 3.85295 8.05859 3.57715C8.06522 3.30146 8.22304 3.05111 8.46973 2.92383C9.5366 2.32611 10.7395 2.00813 11.9648 2Z" fill="black"/>
</svg>
