<svg width="24" height="24" viewBox="0 0 24 24" fill="none" xmlns="http://www.w3.org/2000/svg">
<path d="M11.3848 2.10059C11.7819 1.96663 12.2191 1.96663 12.6152 2.10059L19.2578 4.36719C20.0008 4.62117 20.5 5.30535 20.5 6.07129V12.7119C20.5 14.7249 19.7519 16.6744 18.3945 18.1953C17.773 18.8922 16.9757 19.4914 15.957 20.0273L12.3662 21.9121C12.2541 21.9701 12.1303 22 12.0059 22C11.8826 21.9999 11.7594 21.9699 11.6475 21.9121L8.0498 20.0264C7.02899 19.4894 6.22989 18.8903 5.60938 18.1963C4.24999 16.6733 3.5 14.723 3.5 12.708C3.50012 12.3021 3.84009 11.9727 4.25781 11.9727C4.67534 11.9729 5.01452 12.3023 5.01465 12.708C5.01465 14.37 5.63229 15.9765 6.75293 17.2324C7.252 17.7913 7.91147 18.2815 8.76855 18.7314L12.0059 20.4277L15.2363 18.7324C16.0913 18.2835 16.7509 17.7933 17.251 17.2324C18.3696 15.9775 18.9863 14.3729 18.9863 12.7119V6.07129C18.9863 5.9294 18.8936 5.80387 18.7568 5.75684L12.1143 3.48926C12.0412 3.46427 11.9598 3.46427 11.8857 3.48926L5.24414 5.75684C5.10744 5.80388 5.0147 5.92942 5.01465 6.07129V7.97168C5.01447 8.37838 4.6753 8.70778 4.25781 8.70801C3.84013 8.70801 3.50018 8.37852 3.5 7.97168V6.07129C3.50005 5.30535 4.00022 4.62117 4.74316 4.36719L11.3848 2.10059ZM14.6846 9.23926C14.9799 8.95263 15.4597 8.95239 15.7549 9.23926C16.05 9.52613 16.0498 9.99229 15.7549 10.2793L11.8213 14.1016C11.6793 14.2395 11.4868 14.3174 11.2861 14.3174C11.0845 14.3174 10.893 14.2395 10.751 14.1016L8.84082 12.2451C8.54604 11.9572 8.54606 11.4939 8.84082 11.2061C9.13719 10.9181 9.61579 10.9181 9.91113 11.2061L11.2861 12.541L14.6846 9.23926Z" fill="black"/>
</svg>
