<svg width="24" height="24" viewBox="0 0 24 24" fill="none" xmlns="http://www.w3.org/2000/svg">
<path d="M17.1729 5.71338C17.6287 5.71338 17.997 6.08636 17.9971 6.54639V18.1489L20.04 16.0718C20.3609 15.7463 20.8821 15.7454 21.2051 16.0698C21.5269 16.3943 21.5278 16.9218 21.207 17.2485L17.7568 20.7544C17.5997 20.9155 17.3882 21.0005 17.1729 21.0005C17.0665 21.0004 16.9602 20.9791 16.8594 20.937C16.5507 20.8081 16.3496 20.5043 16.3496 20.1665V6.54639C16.3497 6.08649 16.7182 5.71359 17.1729 5.71338ZM12.5596 15.48C12.8815 15.1555 13.4026 15.1552 13.7256 15.4819L15.3301 17.1118C15.6508 17.4385 15.649 17.9651 15.3262 18.2896C15.1658 18.4518 14.955 18.5337 14.7451 18.5337C14.5342 18.5337 14.3226 18.452 14.1611 18.2876L12.5566 16.6587C12.236 16.3321 12.237 15.8045 12.5596 15.48ZM7.04199 3.06299C7.34852 2.93519 7.70532 3.00556 7.94043 3.24561L11.9717 7.34033C12.2936 7.66706 12.2927 8.19551 11.9697 8.52002C11.6467 8.84431 11.1264 8.84374 10.8057 8.51709L8.18066 5.85303V17.4526C8.18061 17.9127 7.81125 18.2856 7.35645 18.2856C6.90174 18.2855 6.53228 17.9126 6.53223 17.4526V3.8335C6.53223 3.49577 6.73345 3.19198 7.04199 3.06299ZM4.34473 5.71143C4.66662 5.38471 5.18774 5.38402 5.51074 5.7085C5.83265 6.033 5.8335 6.56146 5.5127 6.88818L3.90723 8.51709C3.74685 8.68145 3.53508 8.76317 3.32422 8.76318C3.11438 8.76318 2.90357 8.6813 2.74316 8.51904C2.42021 8.19453 2.41932 7.66802 2.74121 7.34131L4.34473 5.71143Z" fill="black"/>
</svg>
