<svg width="24" height="24" viewBox="0 0 24 24" fill="none" xmlns="http://www.w3.org/2000/svg">
<path d="M20.1289 2.73535C20.4428 2.42169 20.9508 2.42169 21.2646 2.73535C21.5784 3.05011 21.5784 3.55923 21.2646 3.87402L3.92383 21.2646C3.76748 21.4213 3.56179 21.5 3.35645 21.5C3.15112 21.5 2.94554 21.4213 2.78809 21.2646C2.47533 20.9498 2.47533 20.4398 2.78809 20.125L13.6924 9.19141C13.681 7.88214 13.6531 7.6795 13.6074 7.36133L13.5195 6.62012C13.4739 6.19098 13.4274 5.748 13.335 5.38867C13.1969 4.93099 12.8547 4.60959 12.4873 4.60938H12.4668C12.3173 4.6151 11.947 4.76178 11.7188 4.9541L7.95312 8.04492C7.80936 8.16272 7.63012 8.22654 7.44531 8.22656H5.30859C4.63527 8.22656 4.31564 8.79994 4.24023 9.33789C4.06105 10.7893 4.05995 13.3018 4.24023 14.5967C4.30186 15.0373 3.99592 15.445 3.55664 15.5059C3.51897 15.5116 3.48086 15.5137 3.44434 15.5137C3.04946 15.5136 2.70631 15.2221 2.65039 14.8203C2.43012 13.2396 2.47172 10.551 2.64746 9.12793C2.85406 7.64319 3.94686 6.61621 5.30859 6.61621H7.15918L10.6914 3.71582C11.1183 3.35417 11.866 3.02309 12.4629 2.99902C13.5313 3.01505 14.5224 3.75195 14.8809 4.95508C15.0121 5.45869 15.0658 5.96261 15.1172 6.4502L15.1992 7.13379C15.222 7.29489 15.2401 7.4344 15.2549 7.62402L20.1289 2.73535ZM14.5029 13.5508C14.9469 13.5576 15.3007 13.923 15.2939 14.3682C15.2757 15.6594 15.2335 16.5563 15.165 17.1104L15.1162 17.5664C15.0706 18.0288 15.0237 18.5089 14.8867 19.0205C14.5283 20.2225 13.5717 21.002 12.4873 21.002C12.4521 21.002 12.417 21.0021 12.3818 21.001C11.7838 21.001 11.1306 20.6408 10.7607 20.3271L9.35938 19.1807C9.0158 18.9002 8.96335 18.3934 9.24414 18.0488C9.52497 17.7056 10.0294 17.6543 10.374 17.9336L11.7852 19.0879C12.0223 19.288 12.3237 19.3904 12.4199 19.3906C12.4279 19.394 12.4362 19.3916 12.4453 19.3916C12.8551 19.3916 13.1967 19.0672 13.3428 18.583C13.4374 18.2204 13.4775 17.8246 13.5186 17.4082C13.5345 17.2445 13.5519 17.0789 13.5713 16.9141C13.6318 16.4218 13.6712 15.5588 13.6895 14.3447C13.6952 13.9019 14.0283 13.5544 14.5029 13.5508Z" fill="black"/>
</svg>
